<?xml version="1.0" encoding="UTF-8"?>
<svg id="Layer_1" xmlns="http://www.w3.org/2000/svg" version="1.1" viewBox="0 0 3000 3000">
  <!-- Generator: Adobe Illustrator 29.4.0, SVG Export Plug-In . SVG Version: 2.1.0 Build 152)  -->
  <defs>
    <style>
      .st0 {
        fill: #3f2a27;
      }

      .st1 {
        fill: #b08242;
      }

      .st2 {
        fill: #ada16b;
      }

      .st3 {
        fill: #4c332f;
      }

      .st4 {
        fill: #5a3d38;
      }

      .st5 {
        fill: #7e7e7e;
      }

      .st6 {
        fill: #5c3e39;
      }

      .st7 {
        fill: #5b3e39;
      }

      .st8 {
        fill: #422d2a;
      }

      .st9 {
        fill: #feb652;
      }

      .st10 {
        fill: #493330;
      }

      .st11 {
        fill: #412d2a;
      }

      .st12 {
        fill: #5d3f3a;
      }

      .st13 {
        fill: #746664;
      }

      .st14 {
        fill: #4c5158;
      }

      .st15 {
        fill: #48302d;
      }

      .st16 {
        fill: #3a2724;
      }

      .st17 {
        fill: #5a3c38;
      }

      .st18 {
        fill: #583c38;
      }

      .st19 {
        fill: #3d2926;
      }

      .st20 {
        fill: #593c38;
      }

      .st21 {
        fill: #5b3d39;
      }

      .st22 {
        fill: #5f403b;
      }

      .st23 {
        fill: #fefefe;
      }
    </style>
  </defs>
  <path class="st20" d="M1700.71,2165.89c4.18-.26,11.11-3.02,16.33-3.19,77.74-2.44,155.94,3.04,233.58-1.49v182.67H736.99l-6.3-52.38c2.22-18.25,3.4-37.44-1.53-55.34l-20.35,19.44c-18.68,12.04-89.14,6.33-114.8,7.03-22.73.62-47.47,1.03-69.98,2.2-10.12.52-22.31,5.29-32.76,5.97-2.64,1.18-6.42,14.53-9.14,18.97-6.69,10.92-19.99,24.91-33.26,26.08-21.7,1.92-49.37-3.96-71.85-4.81-30.87-1.18-63.17,1.83-93.85.13-15.81-.88-32.6-4.99-48.37-6.29-15.26-1.27-65.7.69-75.79-8.55-11.05-10.12-11.68-25.9-14.08-39.79-48.13-2.25-97.22-1.47-143.63-15.69-.03-23.91.02-47.91,0-71.82,136.15-.4,272.35.5,408.52.07,38.48-.12,77.58-1.49,116.29-1.64-.87,4.73,2.39,3,5.4,3.12,44.01,1.75,85.74,1.31,129.78,0,3.01-.09,6.27,1.58,5.4-3.12,27.57.06,55.22-.04,82.79,0-2.75,24.67-2.41,49.38-3.15,74.15s-4.88,62.85-1.62,87.52c.29,2.2.36,4.01,2.26,5.54l4.85,1.54c3.78.32,3.78-5.9,3.97-8.64,1.66-24.07,1.44-50.89,1.55-74.95.14-28.59-1.76-56.65-1.63-85.16,53.88-.36,107.83.48,161.73.07,118.77-.9,245.3,3.76,363.09-1.63l-14.35,19.22c-11.98,25.45-5.04,61.87,23.3,72.54,128.98-.21,258.2.76,386.98,2.03,41.06.41,54.75-47.81,36.49-78.72-3.1-5.25-9.95-9.6-12.25-15.08ZM722.71,2186.45c-19.36-17.14-26.78,3.24-8.37,13.83,4.65,0,9.37-9.5,8.37-13.83ZM776.42,2183.43c-11.64,20.71,15.35,26.59,14.99,3.86-1.32-4.45-12-6.98-14.99-3.86ZM1919.47,2204.89c5.36-1.96,10.56,2.04,14.05-3.79,9.39-15.68-20.06-21.27-17.21-4.9.49,2.82,3.43,5.35,3.16,8.68ZM1935.73,2294.73c0-5.51-4.47-9.99-9.99-9.99s-9.99,4.47-9.99,9.99,4.47,9.99,9.99,9.99,9.99-4.47,9.99-9.99ZM781.85,2297.26c-6.8,1.86-4.85,15.17.44,17.75,13.96,6.79,15.99-20.2-.44-17.75Z"/>
  <path class="st18" d="M1683.53,969.94h207.73c-4.02,13.1-2.39,26.51-3.05,39.88-1.5,30.3-6.74,72.04-3.28,101.51.55,4.72,3.79,7.44,8.68,7.03s5.23-8.13,5.53-11.74c2.78-33.61-.79-69.53-1.69-103.04-.3-11.19.36-22.46.06-33.64l1102.74,4.69v273.23c-9.35-6.26-26.23-.15-30.44,9.39-2.03,4.59,1.58,11.64-4.7,12.47l-41.39,1.54c9.68-19.97-27.55-22.84-35.01-10.79-6.78,10.95,4.01,15.99,4.63,22.43.75,7.92-4.19,18.79-2.41,27.41-33.05-1.13-66.18-.8-99.25-1.5-3.92-.08-7.47-1.54-11.66-1.63-.77-5.03-6.36-4.62-10.06-9.46-13.03-17.04-10.06-34.15-13.74-53.4-1.56-8.17-5.45-17.23-7.05-25.75-.61-3.24-.36-18-3-19.17-8.18-.87-16.56-2.32-24.74-3.06-60.84-5.49-121.87-5.06-182.72,0-29.88,2.48-59.68,8.98-89.82,7.8.25-21.95,1.76-48.86,0-70.26l536.41.03.91-7.84c-16.9-.35-33.92.48-50.84.07-410.91-9.79-823.25-2.01-1234.65-6.31,1.25-4.34,7.72-6.4,9.44-8.92,3.74-5.47,8.87-21.98,9.3-28.56,1.76-1.81,1.54-4.77,4.18-5.97,7.07-3.21,36.97-6.42,46.78-7.88,21.47-3.19,54.26-9.24,74.86-9.62,6.56-.12,14.43,2.25,21,3.18v-32.01c0-4.7,5.9-24.32,8.16-29.32,2.63-5.81,7.04-9.47,9.02-15.17-8.95-.28-17.6,1.33-26.55,1.55-4.67.12-9.39-.16-14.06,0-44.84,1.53-85.75,6.39-130.37,3.07-9.63-.72-19.45.28-28.95,1.62-.05-7.27.02-14.59,0-21.86ZM1929.85,981.11c-7.57,2.27-7.78,17.33,2.11,20.8,15.14,5.31,15.11-25.96-2.11-20.8ZM1846.4,1086.59c14.58,14.46,27.7-23.32-1.35-16.89-4.18,3.43-1.85,13.71,1.35,16.89ZM1948.69,1073.35c-2.45-2.46-14.41-3.58-16.69.53-3.67,4.09.52,16.65,4.56,18.63,10.69,5.24,18.36-12.9,12.13-19.16Z"/>
  <path class="st20" d="M2181.79,1864.56c.7,5.11,7.96,9.48,10.28,12.33,5.9,7.23-1.94,30.91-.92,40.76,26.64,2.24,52.58-4.2,78.9-6.23,171.44-13.27,343.65-17.4,515.49-20.25,54.37-.9,137.14-9.96,188.2,3.79,9.74,2.62,16.83,8.48,26.5,10.2v249.81l-778.44.09-11.91-157.79c88.02-3.07,176.56-.86,264.83-1.48,119.95-.85,240.76-2.92,360.67-4.82,47.33-.75,100.33,2.01,146.95-1.43,2.61-.19,11.38-.22,10.08-4.74l-916.86,3.12-7.8-123.35c37.98-.01,76.04.01,114.02,0ZM2090.73,1883.6c-10.45,3.15.4,22.51,8.79,19.83,7.04-2.25,5.64-24.19-8.79-19.83ZM2090.04,1975.03c12.06,12.02,20.7-33.08-3.32-15.8-1.28,3.73.55,13.04,3.32,15.8ZM2247,2010.15c-19.55-5.89-22.98,13.25-4.79,19.65,5.76.52,8.37-16.04,4.79-19.65ZM2247,2111.54c-1.84.16-6.47,2.04-7.56,3.46-3.17,5.25-1.59,12.29,2.61,16.4,12.7,12.43,23.03-21.45,4.95-19.87Z"/>
  <path class="st4" d="M3000.24,2158.09v185.79h-1038.69l-7.82-182.68,1046.51-3.11ZM1984.54,2189.57c-10.07,2.97-.9,25.17,10.9,20.47,13.23-5.27,1.1-24.01-10.9-20.47ZM1990.88,2289.56c-14.11,2.04-8.86,19.48,2.74,21.51,12.73-4.9,13.96-23.93-2.74-21.51Z"/>
  <path class="st3" d="M3000.24,657.68v74.94l-1316.71,3.12c-.14-1.13.77-3.33-.93-3.15h-387.07c-1.78.25-.8,3.27-.92,4.71-20.55.36-41.2-.45-61.76-.06-51.07.96-103.66-.03-154.58,3.17-6.24.39-21.61-3.19-22.63,4.7-.89-.21-2.13.14-3.12,0,.39-2.72,2.85-6.89.79-9.36-3.79,3.72-.91,10.48-7.02,12.48,1.83-30.64-3.68-60.67-9.39-90.56h1963.36Z"/>
  <path class="st19" d="M3000.24,732.62v34.35c-8.15,1.69-12.71,8.21-21.01,11.01-7.05,2.38-16.21,3.29-23.71,4.41-34.9,5.22-70.04,6.8-105.23,4.88l-1.56-1.56c2.15-8.94,6.14-39.79-10.56-31.67-8.36,7.2-5.62,20.17-8.18,30.11h-6.26s-1.55,24.97-1.55,24.97c43.48-.77,86.97-.97,130.48-1.49,8.08-.1,15.73-2.18,24.91-1.61,4.74.3,9.67,2.6,14.86,1.54,1.61,7.74-1.73,9.46-8.97,10.57-15.34,2.35-36.57-.11-52.8.3-38.14.98-77.3,3.09-115.44,3.26-53.59.24-107.12-2.3-160.68-1.91l-2.6-4.41,159.32-6.25,1.44-24.02-2.5-2.29c-2.74-.69-5.58-.03-8.32-.24-.3-7.85.23-22.9-10.29-23.45-11.13-.58-7.64,13.96-8.45,20.32-20.96-3.17-48.53-7.67-69.44-7.87-14.84-.14-30.76,3.11-45.99,1.78-2.87,24.2-16.58,34.17-40.77,31.06v9.38s21.21,1.45,21.21,1.45l-2.45,28.2c24.2-.76,48.46-.87,72.69-1.49,67.51-1.73,135.44-4.86,202.92-6.37,22.51-.51,49.45,2.28,71.13.06,5.07-1.51,3.4,6.61,2.45,7.91-1.17,1.59-11.35,2.86-14.1,3.07-69.43,5.51-145.72-3.47-215.54,3.13-36.1-2.79-77.14,3.48-112.63.04-3.9-.38-5.34-.64-8.47-3.22-3.8,18.6-25.19,11.5-39.82,12.51-17.24,1.2-25.63,8.13-42.88-2.46-2.42-1.48-4.32-5.19-6.37-6.12-6.07-2.77-21.2.85-28.8.83-57.96-.19-116.1.03-174.23-.07-3.12,0-6.25,0-9.37,0-78.58-.24-156.59-2.02-235.14-3.06-10.08-.13-15.31,1.01-23.28,1.3-4.04.14-18.38-1.38-22.43-2.44-4.68-1.22-8.65-2.71-8.13-8.29-4.68-.34-6.27,3.01-8.57,6.22l-3.42-4.73c-5.34-1.34-7.93,3.15-10.6,3.24-.82.03-4.5-11.05-12.53-.07l-3.42-4.73c-5.35-1.34-7.93,3.14-10.6,3.24-1.42.05-.95-3.09-2.28-3.98-5.36-3.59-8.89,3.6-10.2,3.59-.77,0-2.82-2.81-6.2-2.88-20.04-.44-47.48,6.96-68.73,7.99-58.12,2.82-127.37-3-185.96-6.3-15.79-.89-31.83-.9-47.62-1.58,0-2.08,0-4.16,0-6.25h67.17c.67-20.83,2.34-41.56,1.56-62.46l-68.73,4.69c-.07-11.83,1.42-27.92,0-39.03l1316.71-3.12ZM2352.04,776.33c-3.61-.15-14.88-.91-16.49,1.47-.83,12.8-7.39,22.94-5.38,36.01,23.16-.34,46.4.4,69.58.06,45.02-.67,90.69-.62,135.89-1.56,8.84-.18,17.75-3.78,27.22,0l-1.53,7.74,6.25,1.57.02-18.74c-21.58,2.37-30.06-12.28-37-29.71-11.31-.49-22.76-2.59-34.15-1.58-40.07,3.57-78.65,7-119.42,6.31,9.4-33.33-27.87-26.07-24.99-1.56ZM2288,774.77c-44.59-.15-89.12-.04-133.61-1.5-18.83-.62-38.84.15-57.56-1.79-3.73-.39-24.8-5.54-25.93-4.52l-9.36,53.09,257.71-6.24c-2.07-13.81,5.35-25.56,6.24-39.03-4.15-.1-8.35.1-12.5,0,6.06-25.17-21.28-21.9-24.99,0ZM2041.99,773.21h-96.06l-3.13,57.77c7.88,1.13,15.07-2.83,22.64-3.74,6.83-.82,14.18,1.48,20.28-1.78l63.41-6.08,9.25-52.4c-.72-.79-13.52,5.83-16.39,6.24ZM1760.06,770.09v62.45l87.47,1.57c-.48-21.32,1.33-42.86-1.57-64.01h-85.89ZM1939.68,773.22l-89.02-3.12,6.46,63.79,77.86-1.36,4.69-59.31ZM2555.09,821.63l-495.12,4.66c-1.52,10.71,2.1,11.78,11.64,12.56,29.32,2.39,63.77-.54,93.84-.13,116.6,1.6,233.31,2.36,349.79-1.51,9.96-.33,21.94-4.13,31.98.01l7.86-15.6Z"/>
  <path class="st17" d="M3000.24,834.1v131.15c-46.93-3.12-94.3-1.05-141.42-1.5-171.32-1.62-343.09-.87-514.59-1.63v-1.56c1,.3,5.24.28,6.01-.23,1.07-2.09,1.58-4.44,1.8-6.78,3.07-32.42-2.29-69.38,0-102.28,58.13.11,116.27-.12,174.23.07,7.6.02,22.73-3.6,28.8-.83,2.05.94,3.95,4.64,6.37,6.12,17.26,10.59,25.64,3.66,42.88,2.46,14.63-1.02,36.03,6.08,39.82-12.51,3.13,2.58,4.57,2.84,8.47,3.22,35.48,3.44,76.53-2.83,112.63-.04,69.82-6.6,146.11,2.39,215.54-3.13,2.75-.22,12.93-1.48,14.1-3.07.96-1.3,2.63-9.42-2.45-7.91,1.31-.13,4.87-3.03,7.81-1.56ZM2375.01,914.01c-19.72,3.1-.03,36.94,8.59,19.56,4.07-8.2,3.82-21.51-8.59-19.56Z"/>
  <path class="st12" d="M3000.24,1806.79v98.36c-9.68-1.72-16.77-7.58-26.5-10.2-51.06-13.75-133.83-4.69-188.2-3.79-171.84,2.84-344.04,6.98-515.49,20.25-26.32,2.04-52.26,8.47-78.9,6.23-1.03-9.85,6.81-33.53.92-40.76-2.32-2.85-9.58-7.22-10.28-12.33,89.53-.03,179.13.02,268.66,0,.06-5.71-.1-11.48,0-17.18,95.56.25,190.98,2.62,286.68,1.5,79.48-1.63,167.94,7.73,246.79,1.7,10.17-.78,12.94-5.17,1.51-6.33-36.14-3.65-75.84-.94-112.54-1.49-109.1-1.64-218.71-3.47-327.88-4.81-31.51-.39-63.07.42-94.56.06.17-25.99-.03-52.07,0-78.07,11.29,3.01,21.91,3.69,33.65,3.19,49-2.08,103.72-15.15,152.98-10.97,4.14.35,13.22,1.63,16.4,3.91,7.24,5.18,10.36,25.01,22.58,30.52,6.84,3.09,24.59,4.23,32.83,4.65,42.54,2.16,84.11,4.67,126.59,7.73,54.84,3.96,109.73,7.92,164.78,7.82Z"/>
  <path class="st20" d="M2929.95,1685.01c2.54.24,11.12,2.06,12.24,3.35,1.64,1.88-2.81,12.2,6.42,19.35,10.04,7.78,12.86-.77,21.12-.9,9.02-.15,20.91,4.5,30.51,3.17v96.8c-55.05.11-109.94-3.86-164.78-7.82-42.48-3.06-84.05-5.57-126.59-7.73-8.24-.42-25.99-1.56-32.83-4.65-12.22-5.51-15.34-25.34-22.58-30.52-3.18-2.28-12.26-3.55-16.4-3.91-49.26-4.18-103.98,8.89-152.98,10.97-11.73.5-22.35-.17-33.65-3.19.03-25.48,0-51.03,0-76.5,113.5,3.19,227.6.96,341.35,1.5,32.04.15,64.52,2.08,96.84,1.69,13.24-.16,27.37-2.92,41.33-1.63Z"/>
  <path class="st22" d="M1.32,2240.83c46.41,14.22,95.49,13.44,143.63,15.69,2.4,13.89,3.03,29.67,14.08,39.79,10.09,9.24,60.54,7.28,75.79,8.55,15.77,1.31,32.56,5.42,48.37,6.29,30.68,1.7,62.97-1.3,93.85-.13,22.48.86,50.15,6.73,71.85,4.81,13.27-1.18,26.57-15.16,33.26-26.08,2.72-4.44,6.5-17.79,9.14-18.97,10.45-.68,22.64-5.44,32.76-5.97,22.5-1.17,47.24-1.57,69.98-2.2,25.65-.7,96.12,5.01,114.8-7.03l20.35-19.44c4.92,17.9,3.74,37.09,1.53,55.34l6.3,52.38c-245.2-.03-490.48.02-735.67,0-.04-34.32.05-68.72,0-103.05ZM711.52,2286.42c-14.02,4.3,1.91,31.56,11.76,16.44,6.48-9.94-.33-19.94-11.76-16.44Z"/>
  <path class="st8" d="M2067.76,1864.56l7.8,123.35,916.86-3.12c1.29,4.52-7.47,4.55-10.08,4.74-46.61,3.44-99.61.68-146.95,1.43-119.91,1.9-240.72,3.98-360.67,4.82-88.27.62-176.81-1.59-264.83,1.48l11.91,157.79,778.44-.09v3.12l-1046.51,3.11,7.82,182.68h-10.93v-182.67c-77.64,4.53-155.84-.94-233.58,1.49-5.23.16-12.15,2.92-16.33,3.19s-5.01-1.38-6.25-1.56l-.77-1.54-.79,1.54c-2.3-.63-5.34-.25-7.59-1.78-.62-3.01-.14-6.11-.21-9.15l33.51,3.19,491.98-1.57,2.25-8.74c0-1.02-2.82-1.06-3.57-2.31-3.85-6.42-5.29-33.85-5.67-42.81-1.08-25.23-3.27-61.63-1.55-85.99.43-6.1,2.67-11.83,3.17-17.89l-520.12,3.11c0-3.64,0-7.29,0-10.93l376.43-1.57-1.56-123.34c2.6,0,5.21,0,7.81,0Z"/>
  <path class="st8" d="M2344.23,962.13c171.51.76,343.27,0,514.59,1.63,47.12.45,94.49-1.62,141.42,1.5v9.37l-1102.74-4.69c.3,11.18-.36,22.45-.06,33.64.9,33.51,4.46,69.43,1.69,103.04-.3,3.6-.73,11.33-5.53,11.74s-8.12-2.31-8.68-7.03c-3.46-29.46,1.77-71.21,3.28-101.51.66-13.37-.96-26.78,3.05-39.87h-207.73c-.01-4.17,0-8.34,0-12.5,25.76.36,51.6-.45,77.38-.06,194.19,2.9,389.16,3.89,583.32,4.75Z"/>
  <path class="st10" d="M2922.14,1480.48c.31-15.86-.39-31.81-.06-47.68.17-8.29,5.14-18.19-1.5-25.68l46.86-10.95v23.42c11.91,2.34,6.62-23.79,9.39-26.52l14.03-1.58-.06,28.62c.63,2.68,7.32,2.26,9.44,1.04v10.93c-5.03-1.28-5.73-6.16-12.08-7.44-13.45-2.71-27.43-1.26-34.57,11.56-8.22,14.76,2.04,30.35,2.25,45.81,1.96,6.49,10.24,6.61,14.79,10.45,3.08,12.3-11.88,11.01-10.88,16.7,7.58,11.61,25.13,8.98,32.57-1.56.65-3.79-6.91-5.21-7.45-7.73-.48-2.26,2.83-8.83-.24-13.07,15.69-3.32,12.02-18.42,12.48-30.58.11-3-1.6-6.27,3.12-5.39v238.88h-26.56s1.58-60.9,1.58-60.9h-10.94v57.78c-5.88-2.9-10.91-3.2-17.17-1.57l3.12-67.13c4.15,2.99,9.96,7.27,14.8,7.84,34.66,4.08,44.43-45.35,7.84-48.45-25.75-2.18-37.62,17.31-24.2,39.05-.34-.23-1.96.52-2.84-.23-1.53-1.29-.49-6.21-3.39-6.01l-1.59,71.81c-10.26-4.77-44.31-26.66-46.55-37.05-1.11-5.17,1.26-8.87,1.34-13.63.28-16.4-.34-32.86-.07-49.24,5.65-.47,14.07-7.53,12.51-14.06,8.11,3.94,32.66-.34,35.91-8.58,3.73-9.44.25-17.65-.07-26.48-.38-10.42.35-38.24-4.58-46.59-2.15-3.65-12.9-5.8-17.23-5.78Z"/>
  <path class="st3" d="M3000.24,766.97v67.14c-2.94-1.47-6.5,1.43-7.81,1.56-21.68,2.22-48.62-.57-71.13-.06-67.48,1.52-135.41,4.65-202.92,6.37-24.23.62-48.48.73-72.69,1.49l2.45-28.2-21.21-1.45v-9.38c24.19,3.11,37.9-6.86,40.77-31.06,15.24,1.33,31.15-1.92,45.99-1.78,20.91.2,48.48,4.7,69.44,7.87-1.09,8.57-8,15.42,2.32,23.44,16.6,12.91,16.84-9.45,16.42-20.32,2.74.21,5.58-.45,8.32.24l2.5,2.29-1.44,24.02-159.32,6.25,2.6,4.41c53.56-.4,107.09,2.15,160.68,1.91,38.15-.17,77.31-2.28,115.44-3.26,16.23-.42,37.46,2.04,52.8-.3,7.25-1.11,10.58-2.83,8.97-10.57-5.19,1.06-10.13-1.25-14.86-1.54-9.18-.57-16.83,1.51-24.91,1.61-43.51.52-87,.72-130.48,1.49l1.55-24.98h6.26s1.56,1.57,1.56,1.57c-2.6,23.98,26.59,28.53,18.74,1.56,35.19,1.92,70.33.33,105.23-4.88,7.49-1.12,16.66-2.03,23.71-4.41,8.3-2.8,12.86-9.31,21.01-11.01Z"/>
  <path class="st0" d="M3000.24,1247.85v6.25c-3.69.67-2.8-3.12-6.08-4.02-7.62-2.09-17.81,1.56-20.85,9.11-2.72,6.76-1.55,28.83-3.18,38.98-1.15,7.19-3.51,14.22-5.37,21.25-.72,2.71.96,5.87-3.56,4.94,3.14-14.45,6.98-28.85,7.81-43.71l-48.27,3.27-14.23,59.93,53.01-8.68c-.86-3.16,1.26-5.72,1.68-7.7l2.36,6.27,20.4-4.6c1.5-7.7,1.26-16.5,2.42-24.12,1.45-9.52,5.89-19.74,2.92-29.06l10.94-3.13v4.68l-6.35,2.51c1.67,17.05-10.46,41.56-7.01,57.56.43,2,2.97,3.89,3.66,6.63,1.79,7.03-.59,20.18,9.7,22.3v54.65c-2.12,1.22-8.81,1.64-9.44-1.04l.06-28.62-14.03,1.58c-2.77,2.74,2.52,28.86-9.39,26.52v-23.42l-46.86,10.95c6.64,7.49,1.67,17.39,1.5,25.68-.33,15.87.37,31.82.06,47.68-2.08.01-4.17,0-6.25,0-.09-2.75.71-5.53-1.56-7.81l1.55-62.46c-2.19-.16-4.16-.17-6.21.82-1.89.91-20.14,16.86-22.71,19.45-42.88,43.12-44.51,140.66-12.93,190.99.94,1.51,8.24,13.17,10.62,10.45l1.57-46.83c5.34-.85,3.84-4.43,5.76-4.85,1.59-.34,3.38,1.74,3.62,1.72-.28,16.39.35,32.85.07,49.24-.08,4.76-2.45,8.46-1.34,13.63,2.24,10.39,36.29,32.28,46.55,37.05l1.59-71.81c2.9-.2,1.86,4.72,3.39,6.01.88.75,2.51,0,2.84.23.64.44,1.06,1.2,1.56,1.56l-3.12,67.13c6.26-1.63,11.29-1.33,17.17,1.57v-57.77h10.94s-1.58,60.9-1.58,60.9h26.56s0,20.29,0,20.29c-9.6,1.33-21.49-3.32-30.51-3.17-8.26.13-11.08,8.68-21.12.9-9.23-7.15-4.78-17.48-6.42-19.35-1.13-1.29-9.7-3.12-12.24-3.35-.14-5.13-6.68-6.68-10.93-7.81-33.22-24.38-61.09-63.66-69.55-104.56-5.05-24.41-2.49-61.83,3.95-85.92.85-3.16,2.14-8.01,3.12-10.93,8.54-25.26,21.35-51.99,46.98-63.41l-6.39-20.89c-8.03,5.28-5.77,35.25-19.29,27.88-10.15-5.53-5.4-18.8-3.66-28.2,4.6-24.83,12.84-49.21,15.15-74.62l-440.46-4.69c-.01-3.12.02-6.25,0-9.37,28.37.35,56.81-.45,85.19-.06,81.73,1.11,163.96,3,245.94,4.75,4.18.09,7.74,1.54,11.66,1.63,33.07.7,66.2.38,99.25,1.5-1.78-8.63,3.16-19.5,2.41-27.41-.61-6.44-11.4-11.48-4.63-22.43,7.46-12.05,44.69-9.18,35.01,10.79l41.39-1.54c6.29-.83,2.68-7.88,4.7-12.47,4.21-9.54,21.09-15.65,30.44-9.39ZM2903.12,1345.93l19.06-81.7c-.88-8.24-30.57-9.89-31.42,3.12-.54,8.31,6.82,9.67,6.55,17.16l-9.52,63.25,15.33-1.83ZM2969.01,1272.83l-46.87,1.56v6.23s46.87-3.12,46.87-3.12v-4.67ZM2979.91,1335.29c-3.64-3.37-4.09,7.35-4.68,7.79-4.02.65-4.79-3.4-4.69-6.26-17.63,1.77-9.81,11.34-7.8,23.43l-6.23.02-3.22-18.69-10.64,1.8-.2,4.39-3.1-.03-.96-3.22c-12.62.61-4.57,9.65-2.88,17.23.54,2.44-.89,5-.24,7.96.87,4,5.16,1.64,4.06,6.15-9.06,1.01-6.53-6.72-8.55-10.95-1.1-2.3-7.79-15.92-8.55-16.45-3.53-2.43-9.91,1.46-14.13.87l7.82,43.71-7.6-.2-9.59-40.38-6.18,1.65,14.01,54.55,18.74-6.26-7.81-32.76c3.48-.37,4.13-.36,5.93,2.64,2.55,4.23,7.07,26.08,8.12,27.02l18.57-4.84c3.54-12.56-5.06-18.75-6.08-29.5l4.81.92,9.38,25.47,20.16-2.98c-3.12-9.47-9.94-17.42-9.36-28.09l4.67-.02,9.57,26.37,13.86-1.39-17.2-49.95ZM2969.78,1688.13v1.56c1.01-.52,1.01-1.04,0-1.56Z"/>
  <path class="st23" d="M1.32,2343.88H-.24V656.11h3000.48v1.56H863.51c-1.56,0-3.12,0-4.69,0-19.76,0-39.59,0-59.35,0H1.31c-.03,27.03.06,54.15,0,81.19-.02,8.83.01,17.72,0,26.54-.03,26.52.02,53.11,0,79.63,0,1.56,0,3.12,0,4.68,0,2.08,0,4.16,0,6.25-.02,31.72.02,63.52,0,95.24,0,3.12,0,6.25,0,9.37-.02,50.98.01,102.03,0,153.01,0,3.64,0,7.29,0,10.93,0,46.29,0,92.66,0,138.96v9.37c-.03,181.08-.04,362.25,0,543.33,0,3.64,0,7.29,0,10.93.03,110.3-.08,220.69,0,331,0,3.64,0,7.29,0,10.93.02,23.91-.03,47.91,0,71.82.05,34.32-.04,68.72,0,103.05Z"/>
  <path class="st14" d="M3000.24,1450.82c-4.73-.87-3.01,2.39-3.12,5.39-.46,12.17,3.21,27.26-12.48,30.58,3.07,4.24-.24,10.81.24,13.07.53,2.51,8.1,3.94,7.45,7.73-7.44,10.53-24.99,13.16-32.57,1.56-1-5.69,13.96-4.4,10.88-16.7-4.55-3.84-12.83-3.97-14.79-10.45-.2-15.46-10.47-31.05-2.25-45.81,7.14-12.81,21.12-14.27,34.57-11.56,6.35,1.28,7.05,6.17,12.08,7.44v18.74Z"/>
  <path class="st8" d="M2961.19,1324.35c4.52.93,2.85-2.23,3.56-4.94,1.86-7.03,4.22-14.06,5.37-21.25,1.63-10.15.45-32.21,3.18-38.98,3.04-7.54,13.23-11.19,20.85-9.11,3.29.9,2.4,4.69,6.08,4.02v18.74l-10.94,3.13c2.97,9.33-1.48,19.54-2.92,29.06-1.16,7.63-.92,16.43-2.42,24.12l-20.4,4.6-2.36-6.27c.2-.94-.2-2.18,0-3.12Z"/>
  <path class="st18" d="M3000.24,1366.51c-10.29-2.12-7.92-15.27-9.7-22.3-.7-2.74-3.23-4.63-3.66-6.63-3.45-16,8.68-40.51,7.01-57.56l6.35-2.51v88.99Z"/>
  <path class="st5" d="M2447.32,1500.78l3.15.93c-.01,56.93-.08,113.9-.03,170.81,0,3.64,0,7.29,0,10.93,0,25.48.03,51.03,0,76.5-.03,25.99.17,52.07,0,78.07-.02,3.12.05,6.25,0,9.37-.09,5.71.06,11.48,0,17.18-89.53.01-179.13-.04-268.66,0-37.98.01-76.04-.01-114.02,0-2.6,0-5.21,0-7.81,0h-374.87c-.01,41.6.05,83.29,0,124.9,0,3.64,0,7.29,0,10.93-.07,50.87-1.29,102.18,0,153.01.08,3.04-.4,6.14.21,9.15,2.26,1.53,5.3,1.15,7.59,1.78.45.12,1.03-.08,1.56,0,1.24.18,2.14,1.82,6.25,1.56,2.3,5.48,9.14,9.83,12.25,15.08,18.27,30.9,4.58,79.12-36.49,78.72-128.78-1.27-258-2.25-386.98-2.03-28.34-10.67-35.27-47.09-23.3-72.54l14.35-19.22c.52-.02,1.04.03,1.56,0s1.04.04,1.56,0c1.91-.15,2.84-1.52,3.12-1.56.51-.08,1.06.09,1.56,0,2.32-.43,5.35.31,7.82,0,.08-3.11-.12-6.26,0-9.38,1.19-33.32-.04-68,0-101.48.02-16.63.02-33.33,0-49.96,0-4.16,0-8.33,0-12.49-.04-42.13.03-84.34,0-126.47h-735.67c-.04-10.91.05-21.88,0-32.79-.02-3.64.01-7.29,0-10.93-.14-50.45-.07-100.99,0-151.45,0-4.16,0-8.33,0-12.49.12-51.42,1.41-103.65,1.56-154.57l13.21-1.64,1872.05.07Z"/>
  <path class="st11" d="M746.37,2156.52c74.94-.04,149.97.04,224.91-.01-.42-2.88-1.55-5.5-1.64-8.5-.99-31.7,2.24-65.25,4.75-96.9.63-7.92-2.56-38.82,9.98-36.79,5.57.91,1.02,31.65.9,36.74-.77,34.7-.97,69.34-4.63,103.9,19.24.05,38.56-.08,57.8,0,85.88.33,171.84-.25,257.72,0-.11,3.11.09,6.27,0,9.38-2.47.3-5.5-.43-7.82,0l-.79-1.54-.77,1.54c-.28.04-1.21,1.41-3.12,1.56l-.78-1.53-.78,1.53c-.52.03-1.04-.02-1.56,0-117.78,5.39-244.31.72-363.09,1.63-53.9.41-107.85-.43-161.73-.07-.12,28.51,1.77,56.58,1.63,85.16-.12,24.06.11,50.88-1.55,74.95-.19,2.74-.19,8.97-3.97,8.64l-4.85-1.54c-1.9-1.52-1.97-3.34-2.26-5.54-3.26-24.67.86-62.01,1.62-87.52s.4-49.48,3.15-74.15c-27.57-.03-55.22.06-82.79,0-46.83-.09-93.75-.17-140.57,0-38.71.14-77.81,1.52-116.29,1.64-136.17.42-272.37-.47-408.52-.07,0-3.64,0-7.29,0-10.93,49.43-.27,98.95.36,148.38,0,198.66-1.44,397.79-1.45,596.66-1.56Z"/>
  <path class="st12" d="M666.71,2167.45c.87,4.7-2.39,3.03-5.4,3.12-44.05,1.31-85.78,1.75-129.78,0-3.01-.12-6.27,1.61-5.4-3.12,46.83-.17,93.75-.09,140.57,0Z"/>
  <ellipse class="st8" cx="1925.74" cy="2294.73" rx="9.99" ry="9.99"/>
  <path class="st8" d="M776.42,2183.43c2.99-3.12,13.67-.59,14.99,3.86.36,22.73-26.64,16.84-14.99-3.86Z"/>
  <path class="st8" d="M1919.47,2204.89c.28-3.33-2.67-5.86-3.16-8.68-2.85-16.38,26.6-10.79,17.21,4.9-3.49,5.82-8.7,1.83-14.05,3.79Z"/>
  <path class="st8" d="M722.71,2186.45c1,4.34-3.73,13.84-8.37,13.83-18.41-10.59-10.98-30.97,8.37-13.83Z"/>
  <path class="st8" d="M781.85,2297.26c16.42-2.45,14.4,24.54.44,17.75-5.29-2.57-7.24-15.88-.44-17.75Z"/>
  <path class="st13" d="M1294.61,737.3c.13-1.44-.86-4.47.92-4.71h387.07c1.7-.18.79,2.02.93,3.15,1.42,11.11-.07,27.2,0,39.03.12,19.23-.03,38.54,0,57.77,0,2.08,0,4.16,0,6.25.05,39.53-.08,79.13,0,118.66,0,4.16-.01,8.33,0,12.49.02,7.27-.05,14.59,0,21.86.09,12.96-.13,26,.07,38.96,24.66-.34,37.23,30.33,35.85,51.59-.43,6.57-5.56,23.08-9.3,28.56-1.72,2.52-8.19,4.58-9.44,8.92-3.46,1.93-12.38,2.04-13.27,6.25l760.06.92c.84,2.23,1.19,4.51,1.38,6.88,1.76,21.4.25,48.31,0,70.26-.37,32.5-.16,65.91,0,98.36.02,3.12-.01,6.25,0,9.37.08,21.83.12,43.75,0,65.57-.16,30.31-.18,61.8,0,92.12.02,3.63.07,7.3,0,10.93,0,.21-1.48,1.76-1.63,3.78-.39,5.46.38,11.07.06,16.52l-1872.05-.07-13.21,1.64c.05-16.11-.06-32.29,0-48.4.01-3.64-.01-7.29,0-10.93.19-53.58,0-107.24,0-160.81v-154.57c.28,0,2.41-1.68,5.28-1.68,242.69.18,485.36.1,728.04.12l-22.64-9.38c-6.97-12.74-14.57-26.12-14.08-41.31.61-18.81,14.18-45.3,35.94-44.57.06-21.31-.06-42.69,0-64,.01-3.64,0-7.29,0-10.93.08-36.41-.07-72.89,0-109.29,0-4.16,0-8.33,0-12.49.03-23.91-.12-47.91,0-71.82.02-4.67-.07-9.38,0-14.05.06-3.59-.31-7.39,0-10.93Z"/>
  <path class="st12" d="M2448.88,1204.13c30.14,1.18,59.94-5.32,89.82-7.8,60.85-5.06,121.88-5.48,182.72,0,8.18.74,16.56,2.19,24.74,3.06,2.64,1.18,2.39,15.93,3,19.17,1.59,8.52,5.48,17.58,7.05,25.75,3.68,19.26.71,36.37,13.74,53.4,3.7,4.84,9.29,4.43,10.06,9.46-81.98-1.75-164.21-3.64-245.94-4.75-28.38-.38-56.82.42-85.19.06-.16-32.45-.37-65.86,0-98.36Z"/>
  <path class="st22" d="M1856.9,987.11c8.95-.22,17.59-1.84,26.55-1.55-1.98,5.7-6.39,9.36-9.02,15.17-2.26,4.99-8.16,24.62-8.16,29.32v32.01c-6.57-.92-14.44-3.3-21-3.18-20.6.38-53.39,6.43-74.86,9.62-9.81,1.46-39.71,4.67-46.78,7.88-2.65,1.2-2.42,4.16-4.18,5.97,1.38-21.26-11.2-51.93-35.85-51.59-.21-12.96.02-26-.07-38.96,9.5-1.33,19.32-2.33,28.95-1.62,44.62,3.32,85.53-1.54,130.37-3.07-5.5,4.43-2.61,15.34,2.5,18.58,14.06,8.91,25.87-10.48,11.56-18.58Z"/>
  <path class="st15" d="M1700.71,1119.82c411.39,4.3,823.73-3.48,1234.65,6.31,16.92.4,33.93-.42,50.84-.07l-.91,7.84-536.41-.03c-.19-2.37-.54-4.65-1.38-6.88l-760.06-.92c.89-4.21,9.81-4.33,13.27-6.25Z"/>
  <path class="st0" d="M1856.9,987.11c14.31,8.1,2.5,27.49-11.56,18.58-5.11-3.24-8-14.15-2.5-18.58,4.67-.16,9.39.12,14.06,0Z"/>
  <path class="st8" d="M1948.69,1073.35c6.23,6.26-1.44,24.4-12.13,19.16-4.03-1.98-8.22-14.55-4.56-18.63,2.28-4.11,14.24-2.99,16.69-.53Z"/>
  <path class="st8" d="M1846.4,1086.59c-3.21-3.18-5.53-13.46-1.35-16.89,29.05-6.43,15.93,31.36,1.35,16.89Z"/>
  <path class="st8" d="M1929.85,981.11c17.22-5.16,17.25,26.12,2.11,20.8-9.89-3.47-9.68-18.54-2.11-20.8Z"/>
  <path class="st8" d="M2247,2111.54c18.08-1.59,7.74,32.29-4.95,19.87-4.2-4.12-5.78-11.15-2.61-16.4,1.1-1.43,5.72-3.3,7.56-3.46Z"/>
  <path class="st8" d="M2247,2010.15c3.58,3.61.97,20.17-4.79,19.65-18.2-6.4-14.77-25.53,4.79-19.65Z"/>
  <path class="st8" d="M2090.73,1883.6c14.43-4.35,15.83,17.58,8.79,19.83-8.39,2.68-19.24-16.68-8.79-19.83Z"/>
  <path class="st8" d="M2090.04,1975.03c-2.77-2.76-4.6-12.08-3.32-15.8,24.02-17.28,15.38,27.82,3.32,15.8Z"/>
  <path class="st8" d="M1990.88,2289.56c16.7-2.41,15.47,16.61,2.74,21.51-11.6-2.03-16.85-19.47-2.74-21.51Z"/>
  <path class="st8" d="M1984.54,2189.57c12-3.54,24.13,15.2,10.9,20.47-11.8,4.7-20.97-17.5-10.9-20.47Z"/>
  <path class="st16" d="M718.25,657.68c-2.14,11.1-8.58,20.63-11.38,31.56-4.33,16.92-5.32,40.43-5.87,58.14-.2,6.59-.39,13.23,1.64,19.58,3.69-6.4,21.48-17.52,23.09-22.96,2.52-8.48-1.5-19.51-1.38-27.78.05-3.29,1.56-6.33,1.68-9.39.65-17.09,1.85-32.49,6.26-49.16h7.81c-6.74,27.07-10.74,54.71-9.36,82.75,18.59-17.61,36.99-36.29,61.75-45.21l3.84-37.54h3.12l-.76,35.93c20.66-5.94,41.84-9.91,63.31-11.66,4.2-2.69-4.27-19.37-3.2-24.27,1.56,0,3.12,0,4.69,0l4.7,23.41c23.97-.87,47.99.85,71.03,7.84,3.6-10.62-2.1-21.35-.76-31.25h4.69l7.51,7.33.46,28.43c17.72,2.99,32.13,13.46,45.12,25.14l4.7-60.89h9.37l-6.03,67.57c12.91,13.24,19.95,31.48,34.13,43.28.58-37.21-.74-75.43-12.48-110.85h10.93c5.71,29.88,11.22,59.91,9.39,90.56,6.12-2.01,3.23-8.76,7.02-12.48,2.06,2.47-.4,6.64-.79,9.36-.97,6.76-2.18,13.57-3.12,20.3-3.27,23.37-5.56,46.96-9.37,70.25l87.24-1.77c1.05-2.11,1.56-4.44,1.79-6.79,1.75-18.53,1.31-42.64,1.56-61.69.08-5.95-.45-11.35,1.56-17.16-11.69-.38-23.5.45-35.2.05s-30.99-.76-41.33-3.19c1.03-7.89,16.39-4.31,22.63-4.7,50.92-3.2,103.51-2.21,154.58-3.17,20.57-.39,41.21.42,61.76.06-.31,3.54.06,7.34,0,10.93l-52.94.17c-2.12,7.04-1.91,14.39-1.73,21.69.51,20.77,4.55,42.23,9.52,62.3l45.15,1.72c0,4.16,0,8.33,0,12.49-13.16,0-26.66-.47-39.89-.06-54.85,1.67-109.05,1.32-163.87,0-8.55-.21-53.92,1.39-57.14-.71-1.39-.9-.87-3.55-2.27-3.9-3.92,1.45-1.88,13.83-2.52,17.78-2.03,12.56-10.42,31.59-15.67,43.66-3.06,7.01-7.52,10.59-9.15,18.18-3.9-.89-3.14,2.12-4.4,4.11-3.56,5.62-7.73,12.85-11.98,17.77-7.07,8.17-17.72,12.75-22.67,21.84-41.37,23.56-85.22,55.33-135.89,51.52-2.12-.16-8.11-1.13-10.93-1.56-12.57-1.92-43.2-10.81-54.17-16.89-12.48-6.91-26.5-21.56-34.86-33.07-1.97-2.71-6.46-8.68-7.81-10.93-11.97-19.97-25.39-63.4-26.62-86.59-.75-14.05,3.04-27.82.05-41.44-2.56,1.68-3.56,2.78-6.92,3.21-19.88,2.52-46.67.65-67.31,1.41-56,2.07-112.34,6.36-168.61,6.32-19.4-.01-20.89-3.74-36.72-6.25-3.83-19.49-.04-40.47-1.56-60.14-.56-7.3-3.42-4.53-6.54-.26-6.9,9.43-7.72,15.19-21.67,17.64l.11,17.78c4.76-1.38,18.72-3.88,21.07,1.49.48,1.11-4.5,21.4-5.46,23.49-6.17,13.54-30.59,8.72-43.02,9.3-4.17.2-7.91,1.57-12.36,1.7-14.48.42-30.48.7-44.59-1.64-8.79-8.14-10.04-16.5-4.79-27.45l9.45.92,1.51-23.37c-11.02-1.1-23.01-7.4-31.16-14.1l9.37,62.42,14.04,3.14c-2.06,9.2-14.37,8.89-22.58,9.43-72.35,4.78-163.29,1.85-236.7-.07-12.93-.34-25.93-2.79-39.05-1.56,0-1.56,0-3.12,0-4.68l274.91-6.24-.02-7.81c-3.48,2.33-5.91,2.84-10.06,3.2-66.36,5.73-139.29-5.74-206.32-1.57-14.86-3.81-35.25-.29-49.57-3.53-2.27-.51-4.32-1.79-5.81-3.58l2.34-3.88h122.61c1.56-17.67,3.35-35.39,4.69-53.08.54-7.13,2.69-14.32,1.57-21.87-34.81-2.01-72.62,2.72-107.08.01-4.79-.38-4.02.77-3.83-4.69,171.06.27,343.29-6.07,514.59-7.87,52.39-.55,104.88,1.21,157.05-1.49-.34-26.46,4.29-50.59,14.05-74.95h7.81ZM1034.41,777.31c-11.09-18.81-30-44.91-46.77-58.7-56.46-46.43-178.3-38.42-233.49,6.96-10.63,8.74-40.65,33.49-47.65,42.93-8.05,10.85-2.38,25.12-2.25,36.8.07,6.31-3.15,14-1.6,21l6.93-28.18c27.47-50.63,93.22-91.73,151.58-88.9,23.64,1.15,75.88,3.88,95.58,13.75,7.12,3.56,39.7,27.14,44.26,32.7,4.11,5.02,8.84,17.34,11.63,23.84,5.83,13.57,11.02,27.83,14.91,42.1l9.38-42.62c-.23-1.18-2.23-1.19-2.51-1.67ZM860.39,718.57c-18.39,1.23-36.63,3.67-54.52,7.95-1.71,2.02,4.38,31.28,6.85,34.23,1.88,2.24,5.32,1.71,7.85,1.65,6.02-.16,40.02-1.76,41.3-3.4-.01-14.07-5.05-26.13-1.49-40.42ZM924.29,776.21c6.94-16.25,9.41-33.93,10.42-51.49-21.41-7.4-44.25-6.15-66.52-6.16,1.38,14.45-3.16,29.11,1.42,43.09,2.41,3.23,52.05,16.47,54.68,14.56ZM958.76,816.92c1.31-5.71,7.31-8.85,10.93-13.29,5.93-7.28,11-16.39,16.57-24.03,7.89-10.85,15.48-9.68,3.74-24.29-10.75-13.38-30.1-20.28-45.24-27.36.56,8.47-2.65,16.33-4.15,24.43-.33,1.79,1.21,4.46.72,7.14-1.29,7.04-5.75,15.66-8.63,22.3,9.11,10.29,14.77,22.7,22.85,34.14l3.22.97ZM783.59,799.5c3.24-14.62,14.84-23.91,23.47-35.19l-8.43-34.8c-7.55-1.53-62.51,36.87-64.55,44.81-1.07,4.16,13,26.06,17.01,27.74,8.64,3.62,23.21-2.44,32.5-2.56ZM696.38,754.48c-.09-4.36-1.81-8.06,0-12.48l-26.54,1.56,1.56,6.22c-5.03.55-9.7,3.05-14.55.09-1.53-.94-3.52-6.33-4.99-6.33h-74.19c-.06,6.23.08,12.51,0,18.74-.14,11.43.11,22.93,0,34.36l117.16-1.56c-.96-13.64,1.82-27,1.55-40.6ZM477.71,745.11h-49.98l-9.34,13.31,3.89,44.48,146.9-7.73,3.8-51.61-89.7,1.45c-.54,4.16-6.75,15.75-11.03,15.78l-3.71-2.65v-5.76c1.69-5.11,10.24-1.69,9.17-7.28ZM410.54,745.12l-139.03,2.35c2.22,20.41,21.32,31.16,40.02,33.38,27.02,3.21,54.89,2.07,80.19-8.49l18.81-27.24ZM140.33,768.53c-1.01,17.54-.48,35.69-3.12,53.07l137.43,4.7c-2.99-19.37-2.85-40.16-6.23-59.33-1.27-7.18-4.42-13.1-4.69-20.3h-121.83c-.6,7.3-1.14,14.53-1.56,21.86ZM1135.29,765.41c-.33,22.98,1.23,45.77,1.55,68.71l103.09-1.58c-4.78-20-7.45-41.86-7.8-62.44-.13-7.5-.19-14.51,1.56-21.86h-98.4c-.06,5.7.08,11.47,0,17.17ZM864.93,762.37c-16.94,6.51-34.88,6.34-52.73,6.4-4.63,10.62-14.52,18.41-22.11,27.07-1.46,1.67-1.66,4.65-3.08,6.29-2.62,3.04-6.89,2.78-9.12,6.49-2.04,3.39-7.12,19.77-8.3,24.49-2.28,9.08-3.05,18.31-4.47,27.52l120.25-87.41c-7.03-2.92-18.23-2.02-20.44-10.86ZM969.72,874.7c20.46-1.58,33.17-24.86,49.96-35.16l1.65-3.09-20.35-61.66-38.75,50.95c-.8,4.01,7.49,17.29,7.49,21.64v27.32ZM924.01,783.02c-1.11-1.23-30.2-6.92-32.34-5.94-1.74.8-4.15,4.53-6.42,6.15-39.02,27.79-80.33,52.55-118.67,81.37l-4.58-.84,7.81,43.72,157.71-111.66,1.41-4.37-4.92-8.44ZM702.63,841.13c-1.62,7.87,1.19,20.41,0,28.88,19.1-2.59,36.99-10.9,56.34-11.6l13.97-50.05-26.53,1.58c-9.39-7.58-14.57-18.26-19.57-28.92-2.18,2.79-4.95,6.08-6.28,9.34-3.97,9.7-16.2,42.33-17.94,50.77ZM373.05,791.95l-22.65,3.25-36.69-3.25,1.37,24.06c4.62,6.25,48.8-6,57.98-3.76l-.02-20.3ZM793.45,965c1.01.91,9.03.37,11.14-.1,15.69-3.47,12.81-17.67,21.66-28.3,13.64-16.37,28.24-14.81,47.72-11.57l90.26-58.15c3.04-12.59-4.01-24.01-8.66-35.03-1.38-3.26-.92-7.19-2.33-10.16-2.68-5.66-16.87-14.71-17.92-23.49-53.91,39-107.77,77.8-164.63,112.54l-3.4,5.34,12.04,27.13,4.89-.17,168.31-113.61c.25,2.72.24,4.79-1.45,7.12-1.98,2.74-20.11,14.43-24.6,17.56-30.07,21-62.09,43.58-92.78,63.39-16.25,10.48-33.7,21.46-51.41,29.04-.74.96,8,11.37,9.4,13.29,1.2,1.65,1.33,4.78,1.77,5.17ZM693.25,802.87l-271.77,4.7,1.76,15.39c9.69,3.28,18.43,5.2,28.77,4.95,65.9-1.61,132.36-5.96,198.23-7.93,14.79-.44,29.85-.12,44.57.06l-1.56-17.17ZM352.76,827.86h36.71l3.1-10.95c-6.99-1.2-12.81,6.59-15.91,7.52-3.73,1.12-9.2.02-13.56.5-2.2.24-9.54.82-10.34,2.93ZM311.04,825.83c-2.12-1.54-2.41-7.46-8.26-5.77-4.08,13.6,8.85,12.33,18.72,9.34-1.32-3.22-7.5-1.43-10.46-3.57ZM337.15,827.85v1.57s12.48,0,12.48,0v-1.57s-12.48,0-12.48,0ZM935.36,934.05c-1.69,2.41,28.42,15.76,34.27,13.27,9.32-3.97,28.14-35.06,33.17-45.03,3.27-6.47,15.49-34.41,16.28-40.08.51-3.66-.58-5.93-.96-9.38-6.33,5.46-12.24,11.16-19.16,15.96-4.38,3.04-10.69,4.66-13.52,6.78-2.08,1.56-2.44,4.84-4.82,6.11-3.17,1.69-8.64.84-12.07,2.77-7.49,13.11-15.47,31.59-24.72,43.2-2.19,2.75-4.72,5.96-8.48,6.38ZM765.12,907.47l-6.27-42.14c-17.68,6.76-35.31,12.16-54.66,10.92-.77,14.71,4.5,28.57,9.59,41.94,17.77,1.6,33.62-9.57,51.34-10.73ZM961.9,877.83l-82.76,49.98c-1.1,4.17,3.18,3.21,5.54,6.11,5.19,6.38,8.47,16.95,8.53,25.09,8.75-6.12,21.72-11.13,29.54-18.08,3.2-2.84,12.05-11.74,14.85-14.82s21.63-36.61,23.1-40.92c.85-2.49,1.67-4.64,1.21-7.36ZM740.9,924.66c-7.61.85-16.44-.62-24.21,0,8.54,25.73,26.16,50.76,49.22,65.2,9.79-5.56,11.39-18.67,20.85-23.24,1.64-2.75-6.4-11.76-8.41-15.39-6.13-11.1-10.06-23.05-15.63-34.39-5.99,3.42-15.01,7.05-21.83,7.82ZM866.63,983.99c14.86-8.3,32.42-31.36,14.83-45.27-12.42-9.81-37.32-11.98-49.25-.85-13.95,13.02-14.84,29.57-1.55,43.47,1.42,1.48,3,.94,3.17,1.09,1.13,1,1.94,3.15,3.85,4.7,4.31,3.48,8.4.78,7.31,10.68l12.27,1.8v-12.5c5.88,1.81,7.08-1.85,9.37-3.12ZM958.78,955.9c-8-1.06-21.02-14.1-28.48-12.23-10.72,10.07-31.87,16.32-41.87,25.41-1.05.95-12.77,15.44-13.19,16.41-1.34,3.06,5.07,14.24,9.08,13.86,1.13-.11,18.14-7.58,20.85-8.86,13.43-6.3,37.07-20.38,48.83-29.26,1.09-.82,5.38-4.54,4.79-5.34ZM824,979.78l-32.77-6.49-19.87,20.04c19.93,7.4,38.38,14.35,60.15,15.62,16.66.97,28.71-2.42,44.5-6.25-3.29-7.09-1.38-13.2-11.51-12.6l-4.27,15.57c-6.43,1.04-14.48.34-18.42-5.49-1.28-1.89-1.02-4.74-2.2-6.37-.62-.86-14.74-13.43-15.61-14.04Z"/>
  <path class="st0" d="M1055.63,745.11c10.34,2.42,29.81,2.8,41.33,3.19s23.51-.43,35.2-.05c-2,5.81-1.48,11.22-1.56,17.16-9.03,1.58-18.78-2.77-27.4-1.63-4.26.56-6.94,3.4-11.28,4.34-12.55,2.71-24.56,2.09-37.2.5-3.07-.38-3.82-.01-5.34-3.21.94-6.73,2.16-13.54,3.12-20.3,1,.14,2.23-.21,3.12,0Z"/>
  <path class="st21" d="M1683.53,838.79c15.8.68,31.83.69,47.62,1.58,58.59,3.3,127.84,9.12,185.96,6.3,21.26-1.03,48.69-8.42,68.73-7.99,3.38.07,5.43,2.87,6.2,2.88,1.32.01,4.85-7.18,10.2-3.59,1.33.9.87,4.03,2.28,3.98,2.67-.09,5.25-4.57,10.6-3.24l3.42,4.73c8.03-10.97,11.7.1,12.53.07,2.67-.09,5.26-4.58,10.6-3.24l3.42,4.73c2.31-3.21,3.89-6.56,8.57-6.22-.52,5.58,3.45,7.07,8.13,8.29,4.06,1.06,18.39,2.59,22.43,2.44,7.97-.29,13.2-1.43,23.28-1.3,78.54,1.04,156.56,2.82,235.14,3.06-1.86,15.3-1.02,30.68-1.58,46.04-.66,17.97-3.87,38.26-1.65,56.32.34,2.81,2.04,6.09,4.79,6.93v1.56c-194.16-.86-389.13-1.85-583.32-4.75-25.78-.39-51.62.42-77.38.06-.08-39.53.05-79.13,0-118.66ZM2321.92,928.9c7.18-4.59,4.47-20.1-6.98-21.12-16.96-1.52-11.23,32.75,6.98,21.12Z"/>
  <path class="st3" d="M2288,774.77c-.99,5.84.55,8.87,0,13.13-.88,6.82-5.94,9.07.81,18.06,4.7,6.26,8.97,4.86,14.01,0,8.68-8.34,3.46-11.52,4.76-18.9.51-2.9,4.45-8.32,5.41-12.3,4.15.11,8.35-.09,12.5,0-.9,13.47-8.31,25.23-6.24,39.03l-257.71,6.24,9.36-53.09c1.13-1.02,22.2,4.14,25.93,4.52,18.72,1.94,38.73,1.18,57.56,1.79,44.49,1.45,89.02,1.35,133.61,1.5Z"/>
  <path class="st3" d="M2377.03,777.9c40.77.69,79.36-2.74,119.42-6.31,11.39-1.02,22.84,1.09,34.15,1.58,6.94,17.43,15.42,32.08,37,29.71l-.02,18.74-6.25-1.57,1.53-7.74c-9.47-3.78-18.38-.18-27.22,0-45.2.94-90.87.89-135.89,1.56-23.18.34-46.42-.4-69.58-.06-2.01-13.07,4.55-23.22,5.38-36.01,1.61-2.38,12.88-1.62,16.49-1.47.88,7.46,1.26,8.16,1.41,16.41.33,18.59,19.94,19.29,20.61,1.55.12-3.19-1.63-7.01-1.28-9.15.32-1.93,3.49-4.54,4.25-7.25Z"/>
  <path class="st3" d="M2555.09,821.63l-7.86,15.6c-10.05-4.14-22.02-.35-31.98-.01-116.49,3.88-233.19,3.12-349.79,1.51-30.07-.41-64.52,2.52-93.84.13-9.54-.78-13.16-1.85-11.64-12.56l495.12-4.66Z"/>
  <path class="st3" d="M2041.99,773.21c2.87-.41,15.67-7.03,16.39-6.24l-9.25,52.4-63.41,6.08c-6.1,3.26-13.45.96-20.28,1.78-7.57.9-14.76,4.87-22.64,3.74l3.13-57.77h96.06Z"/>
  <path class="st3" d="M1760.06,770.09h85.89c2.9,21.16,1.09,42.7,1.57,64.02l-87.47-1.57v-62.45Z"/>
  <polygon class="st3" points="1939.68 773.22 1934.99 832.53 1857.13 833.88 1850.66 770.1 1939.68 773.22"/>
  <path class="st3" d="M1683.53,774.77l68.73-4.69c.78,20.9-.89,41.63-1.56,62.47h-67.17c-.03-19.24.12-38.55,0-57.78Z"/>
  <path class="st8" d="M2352.04,851.28c-2.29,32.9,3.07,69.86,0,102.28-.22,2.35-.73,4.69-1.8,6.78-.76.5-5.01.53-6.01.23-2.75-.83-4.45-4.12-4.79-6.93-2.22-18.06.99-38.35,1.65-56.32.56-15.36-.28-30.74,1.58-46.04,3.12,0,6.25,0,9.37,0Z"/>
  <path class="st22" d="M2829.99,784.14c2.56-9.94-.18-22.91,8.18-30.11,16.7-8.12,12.71,22.73,10.56,31.67h-17.18l-1.56-1.56Z"/>
  <path class="st22" d="M2377.03,777.9c-8.77-.15-16.57-1.2-24.99-1.56-2.88-24.5,34.39-31.77,24.99,1.56Z"/>
  <path class="st22" d="M2801.88,782.58c-7.64-.57-12.21-2.13-18.74-3.12.81-6.36-2.68-20.91,8.45-20.32,10.53.55,9.99,15.6,10.29,23.45Z"/>
  <path class="st22" d="M2312.99,774.77c-2.6-.07-5.21.03-7.81,0-3.64-.04-7.29.02-10.93,0-2.08-.01-4.17,0-6.25,0,3.71-21.9,31.05-25.17,24.99,0Z"/>
  <path class="st1" d="M2848.73,785.7l1.56,1.56c7.85,26.97-21.34,22.42-18.74-1.56h17.18Z"/>
  <path class="st8" d="M2375.01,914.01c12.41-1.95,12.66,11.36,8.59,19.56-8.62,17.37-28.31-16.46-8.59-19.56Z"/>
  <path class="st0" d="M2450.44,1838.02c31.49.36,63.06-.45,94.56-.06,109.17,1.34,218.77,3.17,327.88,4.81,36.7.55,76.4-2.16,112.54,1.49,11.43,1.15,8.66,5.55-1.51,6.33-78.85,6.03-167.31-3.33-246.79-1.7-95.7,1.12-191.12-1.25-286.68-1.5.05-3.12-.02-6.25,0-9.37Z"/>
  <path class="st11" d="M2919.02,1677.2c4.26,1.12,10.79,2.67,10.93,7.81-13.96-1.29-28.09,1.46-41.33,1.63-32.32.39-64.8-1.54-96.84-1.69-113.75-.54-227.84,1.69-341.35-1.5,0-3.64,0-7.29,0-10.93,156.3,0,312.26,3.12,468.58,4.68Z"/>
  <path class="st0" d="M711.52,2286.42c11.43-3.5,18.24,6.5,11.76,16.44-9.86,15.12-25.78-12.14-11.76-16.44Z"/>
  <path class="st20" d="M1685.09,2000.39l520.12-3.11c-.5,6.06-2.74,11.79-3.17,17.89-1.72,24.37.47,60.77,1.55,85.99.38,8.96,1.82,36.4,5.67,42.81.75,1.25,3.57,1.29,3.57,2.31l-2.25,8.74-491.98,1.57-33.51-3.19c-1.29-50.83-.07-102.14,0-153.01ZM2184,2035.4c23.16-19.02-17.94-28.28-17.91-9.24.01,7.11,6.07,10.88,12.06,12.87,4.04.48,4.16-2.25,5.85-3.64ZM2184.53,2129.61c10.55-17.67-22.58-26.85-18.05-6.99,1.92,8.42,10.85,11.54,18.05,6.99Z"/>
  <path class="st6" d="M2059.95,1864.56l1.56,123.34-376.43,1.57c.04-41.61-.02-83.3,0-124.91h374.87ZM2047.08,1882.11c-8.9-8.64-26.87,2.68-16.36,13.25,12.17,12.23,23.05-6.75,16.36-13.25ZM2036.08,1952.28c-13.37,3.97,7.3,32.84,13.8,12.29,3.26-10.3-4.81-14.96-13.8-12.29Z"/>
  <path class="st20" d="M1694.46,2164.33c-.53-.08-1.11.12-1.56,0l.79-1.54.77,1.54Z"/>
  <path class="st2" d="M2909.65,1480.48c.36,3.14,2.46,8.48,2.36,12.51,5.38-.11,4.01-9,3.89-12.51,2.08,0,4.17.01,6.25,0,4.33-.02,15.07,2.13,17.23,5.78,4.92,8.34,4.2,36.16,4.58,46.59.32,8.83,3.79,17.04.07,26.48-3.25,8.24-27.8,12.52-35.91,8.58,1.56,6.52-6.86,13.59-12.51,14.06-.23.02-2.03-2.07-3.62-1.72-1.92.42-.41,4-5.76,4.85-13.25,2.1-22.98-2.6-24.85-16.53-1.67-12.39-.84-28.89-1.38-41.69,3.6-5.71,9.92-10.18,16.86-10.47-.32,5-.8,10.33,4.67,12.49,2-4.92-.26-9.11.02-14.05l7.79,1.56c-1.52-7.47-3.76-21.69.83-28.07s13.47-3.57,19.49-7.84Z"/>
  <path class="st14" d="M2950.26,1617.88c-.5-.36-.92-1.12-1.56-1.56-13.41-21.74-1.55-41.23,24.2-39.05,36.59,3.1,26.82,52.54-7.84,48.45-4.84-.57-10.66-4.85-14.8-7.84Z"/>
  <path class="st1" d="M2801.88,782.58c.42,10.87.18,33.23-16.42,20.32-10.32-8.02-3.41-14.87-2.32-23.44,6.53.99,11.1,2.55,18.74,3.12ZM2797.2,793.52l-10.93-1.57c.31,6.77,4.6,8.85,10.92,7.8v-6.23Z"/>
  <path class="st12" d="M2853.42,1486.73c-6.44,24.09-9,61.51-3.95,85.92,8.47,40.91,36.33,80.18,69.55,104.56-156.33-1.56-312.28-4.68-468.58-4.68-.05-56.91.02-113.88.03-170.81l-3.15-.93c.32-5.46-.45-11.06-.06-16.52.14-2.02,1.62-3.57,1.63-3.78l404.54,6.25Z"/>
  <path class="st7" d="M2448.88,1311.86l440.46,4.69c-2.3,25.41-10.55,49.78-15.15,74.62-1.74,9.39-6.49,22.67,3.66,28.2,13.52,7.37,11.25-22.6,19.29-27.88l6.39,20.89c-25.63,11.42-38.44,38.15-46.98,63.41-9.61-.34-19.35.44-28.96.06-113.5-4.44-227.53-3.15-341.22-6.31-.87-4.72,2.39-3.01,5.4-3.12,95.38-3.59,189.04-20.07,284.28-23.48,11.95-.43,24.02.44,35.98.07,2.54-12.69-21.08-5.61-28.97-13.19-8.88-8.53-10.31-28.25-10.84-39.91-15.86-.28-31.77-.89-47.63-1.57-42.62-1.82-85.57.23-128.16-1.48-35.38-1.42-70.82-7.8-106.16-9.42-13.74-.63-27.64.43-41.38-.02.12-21.83.08-43.75,0-65.57Z"/>
  <path class="st3" d="M2886.22,1585.09l-1.57,46.83c-2.38,2.72-9.67-8.94-10.62-10.45-31.58-50.33-29.95-147.87,12.93-190.99,2.58-2.59,20.83-18.54,22.71-19.45,2.05-.98,4.02-.98,6.21-.82l-1.55,62.46h-4.69c.17,2.54-.28,5.29,0,7.81-6.02,4.28-14.77,1.3-19.49,7.84s-2.35,20.6-.83,28.07l-7.79-1.56c.1-1.76,4.43-9-2.33-6.23-2.98,1.22-2.2,5.31-2.35,7.8-6.94.29-13.26,4.76-16.86,10.47.54,12.8-.29,29.3,1.38,41.69,1.88,13.93,11.61,18.63,24.85,16.53Z"/>
  <path class="st8" d="M2486.36,1469.55c113.69,3.16,227.72,1.87,341.22,6.31,9.61.38,19.35-.4,28.96-.06-.99,2.92-2.28,7.76-3.12,10.93l-404.54-6.25c.07-3.63.02-7.3,0-10.93,12.46.25,25.03-.35,37.49,0Z"/>
  <path class="st15" d="M2979.91,1335.29l17.2,49.95-13.86,1.39-9.57-26.37-4.67.02c-.58,10.66,6.24,18.62,9.36,28.09l-20.16,2.98-9.38-25.47-4.81-.92c1.02,10.75,9.61,16.94,6.08,29.5l-18.57,4.84c-1.05-.94-5.57-22.79-8.12-27.02-1.81-3-2.45-3.01-5.93-2.64l7.81,32.76-18.74,6.26-14.01-54.55,6.18-1.65,9.59,40.38,7.6.2-7.82-43.71c4.22.59,10.6-3.3,14.13-.87.76.53,7.46,14.15,8.55,16.45,2.02,4.23-.51,11.96,8.55,10.95,1.1-4.5-3.19-2.15-4.06-6.15-.64-2.96.79-5.52.24-7.96-1.69-7.59-9.74-16.62,2.88-17.23l.96,3.22,3.1.03.2-4.39,10.64-1.8,3.22,18.69,6.23-.02c-2.01-12.09-9.83-21.67,7.8-23.43-.1,2.86.67,6.91,4.69,6.26.58-.45,1.04-11.16,4.68-7.79ZM2942.85,1352.42c0-1.06-.86-1.93-1.93-1.93s-1.93.86-1.93,1.93.86,1.93,1.93,1.93,1.93-.86,1.93-1.93Z"/>
  <path class="st15" d="M2961.19,1327.47c-.42,1.98-2.53,4.53-1.68,7.7l-53.01,8.68,14.23-59.93,48.27-3.27c-.83,14.86-4.67,29.26-7.81,43.71-.2.94.2,2.18,0,3.12Z"/>
  <path class="st8" d="M2903.12,1345.93l-15.33,1.83,9.52-63.25c.27-7.49-7.09-8.85-6.55-17.16.84-13.02,30.54-11.37,31.42-3.12l-19.06,81.7Z"/>
  <polygon class="st3" points="2969.01 1272.83 2969.01 1277.51 2922.14 1280.63 2922.14 1274.4 2969.01 1272.83"/>
  <path class="st16" d="M2914.33,1472.67c2.27,2.28,1.47,5.05,1.56,7.81.12,3.5,1.49,12.4-3.89,12.51.1-4.02-2-9.37-2.36-12.51-.29-2.52.17-5.27,0-7.82h4.69Z"/>
  <path class="st10" d="M2969.78,1688.13c1.01.52,1.01,1.04,0,1.56v-1.56Z"/>
  <path class="st17" d="M560.49,1831.77c.05,10.91-.04,21.88,0,32.79h735.67c.03,42.13-.04,84.34,0,126.47l-398.9,3.22c-7.3-25-8.04-51.52-8.7-77.44-.26-10.19-2.41-30.79-.04-40.26.23-.91,6.57-2.15.74-8.88-9.94,4.27-12.55,15.94-13.31,25.72-2.52,32.25.18,69.13,6.3,100.75-123.24.78-246.19.42-369.46,1.51-110.14.97-220.91,3.72-331,4.81-45.41.45-99.82-4.08-143.84-.14-3.47.31-10.11.91-10.14,5.51l2.65,3.68c66.01.13,132.14.66,198.19.33,339.45-1.74,680.67,1.75,1019.81-6.38,15.88-.38,31.84.41,47.7.06.02,16.63.02,33.33,0,49.96-3.54-.14-4.17,2.17-5.96,4.19-8.52,9.57-25.78,30.16-38.71,31.7-4.38.52-8.07-1.56-12.28-1.6-36.79-.35-76.3,6.04-111.03,4.81-8.77-.31-23.75-6.28-27.83-6.25-9.97.06-26.94,10.05-38.23,9.56-4.2,15.4-7.78,33.53-15.83,47.43-2.49,4.31-6.85,6.84-7.86,11.66-19.24-.07-38.56.05-57.8,0,3.66-34.55,3.86-69.19,4.63-103.9.11-5.09,4.67-35.83-.9-36.74-12.54-2.04-9.35,28.87-9.98,36.79-2.51,31.65-5.74,65.19-4.75,96.9.09,3,1.22,5.61,1.64,8.5-74.94.05-149.97-.03-224.91.01-.91-4.64,2.24-2.85,5.17-3.34,23.3-3.93,46.93,1.07,70.56.19,8.28-.31,16.66-4.04,25.8-1.54-6.46-25.53,9.78-47.71,7.82-73.39-29.11-2.74-56.99,4.69-85.16,7.79-70.18,7.73-148.49.64-220.27,3.08-22.5.77-104.15,11.27-119.1,5.24-1.99-.8-1.19-3.59-4.19-3.78-4.26-.27-8.25,1.68-12.46,1.79-60.68,1.49-122.21-5.6-182.71-9.36-6.79,4.16-13.12,2.33-20.21,3.25-30.66,3.97-61.31,11.08-90.85,20.03l2.56,42.07c7.37,1.56,13.74,4.51,21.2,6.2,2.84.64,6.12-1.49,5.19,3.32-49.43.36-98.95-.27-148.38,0-.08-110.3.03-220.69,0-331l559.17,4.68ZM916.24,1882.11c-10.97-10.96-21.19,12.99-2.3,13.46,5.15-1.43,5.47-10.29,2.3-13.46ZM856.88,1883.68c-4.63-2.92-10.48-2.68-14.47,1.16-5.36,26.51,24.88,9.21,14.47-1.16ZM843.67,1976.52c12.47,15.45,26.33-20.74-1.8-13.36-.59,4.02-.83,10.11,1.8,13.36ZM920.92,1964.86c-1.8-1.79-6.97-2.42-9.45-1.7-10.24,3.47-2.73,21.09,5.68,18.34,4.27-3.09,7.96-12.47,3.77-16.64ZM1003.53,2017.77c-5.4,1.81-2.97,15.17,4.83,16.73,12.21,2.44,11.61-22.25-4.83-16.73ZM952.51,2028c0-5-4.05-9.05-9.05-9.05s-9.05,4.05-9.05,9.05,4.05,9.05,9.05,9.05,9.05-4.05,9.05-9.05ZM939.65,2119.31c-1.48.26-4.34,1.6-5.09,2.85-3.2,8.92,2.03,15.36,10.72,16.93,12.3-6.06,6.57-21.92-5.63-19.78ZM998.93,2122.5c-9.44,2.84-2.42,21.59,7.17,19.76,12.76-7.2,7.79-24.27-7.17-19.76Z"/>
  <path class="st21" d="M562.06,1282.2c0,53.58.19,107.24,0,160.81-70.55-.81-141.14-.63-211.71-1.5-103.91-1.28-208.46-2.69-312.36-4.76-4.83-.1-8.11,1.95-8.45,6.89,4.76,6.12,10.78,2.4,16.23,2.42,110.84.3,221.95,4.7,332.69,6.38,61.18.93,122.43.65,183.59,1.5-.06,16.11.05,32.29,0,48.4-.15,50.92-1.44,103.15-1.56,154.57-64.3-.37-128.66.46-192.97.07-72.63-.44-145.82-1.07-218.67-1.56-43.32-.29-89.42-5.37-132.76-1.7-6.66.56-9.7.92-10.22,8.47,5.83,5.79,10.57,2.4,16.47,2.45,146.77,1.29,293.77,3.07,440.46,4.82,32.55.39,65.16-.42,97.69-.06-.07,50.45-.14,100.99,0,151.45L1.32,1816.16c-.04-181.08-.03-362.25,0-543.33l560.74,9.37Z"/>
  <path class="st7" d="M729.18,965.25c8.36,11.51,22.38,26.17,34.86,33.07,10.97,6.07,41.6,14.97,54.17,16.89l-3.12,99.93-813.78-1.57c.01-50.98-.02-102.03,0-153.01l727.86,4.68ZM784.95,1076.42c-8.14,2.46-3.21,16.21,3.14,18.11,16.89,5.06,17.3-24.29-3.14-18.11Z"/>
  <path class="st6" d="M562.06,1127.63v143.64L1.32,1263.46c0-46.29,0-92.66,0-138.96,63.78.37,127.62-.46,191.41-.07,122.95.75,246.28,3.11,369.32,3.2Z"/>
  <path class="st12" d="M721.37,954.32L1.32,951.2c.02-31.72-.02-63.52,0-95.24,11.23-.65,22.39-1.14,33.65-1.56,3.01-.11,6.27,1.6,5.4-3.12,73.41,1.91,164.35,4.85,236.7.07,8.21-.54,20.52-.23,22.58-9.43l1.56-1.56c14.11,2.33,30.11,2.06,44.59,1.64,4.44-.13,8.18-1.5,12.36-1.7,12.42-.58,36.85,4.23,43.02-9.3,4.42.46,9.85-.67,14.06,0,15.84,2.51,17.33,6.24,36.72,6.25,56.26.04,112.61-4.25,168.61-6.32,20.64-.76,47.44,1.11,67.31-1.41,3.36-.43,4.36-1.53,6.92-3.21,2.99,13.61-.79,27.39-.05,41.44,1.23,23.19,14.64,66.61,26.62,86.59Z"/>
  <path class="st3" d="M710.44,657.68c-9.76,24.36-14.39,48.49-14.05,74.95-52.16,2.7-104.66.94-157.05,1.49-171.31,1.8-343.53,8.14-514.59,7.87-7.9-.01-15.39-3.97-23.43-3.12.06-27.04-.04-54.16,0-81.2h709.13Z"/>
  <path class="st11" d="M829.15,1016.77l-1.57,98.37c148.28,1.44,296.72,1.95,445.16,1.55l22.64,9.38c-242.68-.02-485.36.06-728.04-.12-2.87,0-5,1.68-5.28,1.68-123.04-.09-246.37-2.45-369.32-3.2-63.8-.39-127.64.44-191.41.07,0-3.64,0-7.29,0-10.93l813.78,1.57,3.12-99.93c2.82.43,8.81,1.4,10.93,1.56Z"/>
  <path class="st3" d="M102.85,768.53c-2.39,4.88,2.71,14.32,2.6,16.39-.12,2.19-5.19,4.51-3.92,10.56.63,3,5.14,10.05,8.57,10.14,17.09-3.71,5.57-23.83,11.5-35.53,3.1-.19,8.23-2.99,12.5-1.56-1.33,17.7-3.13,35.41-4.69,53.08H6.79l-2.34,3.88c1.49,1.79,3.54,3.07,5.81,3.58,14.32,3.24,34.71-.28,49.57,3.53,67.03-4.17,139.96,7.31,206.32,1.57,4.15-.36,6.58-.87,10.06-3.2l.02,7.81L1.32,845.03c.02-26.52-.03-53.11,0-79.63,19.65-1.54,39.01,3.87,58.51,4.75,14.72.66,28.61-1.33,43.02-1.63Z"/>
  <path class="st8" d="M721.37,954.32c1.35,2.25,5.84,8.22,7.81,10.93L1.32,960.57c0-3.12,0-6.25,0-9.37l720.05,3.12Z"/>
  <polygon class="st8" points="562.06 1271.27 562.06 1282.2 1.32 1272.83 1.32 1263.46 562.06 1271.27"/>
  <path class="st0" d="M560.49,1820.84c.01,3.64-.02,7.29,0,10.93L1.32,1827.09c0-3.64,0-7.29,0-10.93l559.17,4.68Z"/>
  <path class="st3" d="M796.35,657.68l-3.84,37.54c-24.76,8.93-43.16,27.6-61.75,45.21-1.39-28.04,2.61-55.68,9.36-82.75h56.23Z"/>
  <path class="st8" d="M24.75,741.99c-.19,5.46-.97,4.31,3.83,4.69,34.46,2.71,72.27-2.02,107.08-.01,1.12,7.55-1.03,14.74-1.57,21.87-4.26-1.43-9.4,1.38-12.5,1.56-1.54.09-3.13,0-4.69,0,.06-4.45-.04-8.24-1.58-12.48-4.34,3.05-5.72,5.64-6.23,10.92-2.08.03-4.17-.04-6.25,0-14.41.29-28.3,2.29-43.02,1.63-19.5-.88-38.86-6.29-58.51-4.75.01-8.83-.02-17.72,0-26.54,8.04-.85,15.53,3.11,23.43,3.12Z"/>
  <path class="st3" d="M1025.95,657.68c11.74,35.42,13.06,73.64,12.48,110.85-14.18-11.81-21.23-30.05-34.13-43.28l6.03-67.57h15.62Z"/>
  <path class="st3" d="M1000.96,657.68l-4.7,60.89c-12.99-11.68-27.4-22.15-45.12-25.14l-.46-28.43-7.51-7.33h57.79Z"/>
  <path class="st3" d="M732.31,657.68c-4.41,16.68-5.61,32.07-6.26,49.16-.12,3.06-1.63,6.1-1.68,9.39-.12,8.26,3.89,19.3,1.38,27.78-1.61,5.43-19.4,16.56-23.09,22.96-2.03-6.35-1.85-12.99-1.64-19.58.54-17.71,1.54-41.22,5.87-58.14,2.79-10.93,9.24-20.47,11.38-31.56h14.06Z"/>
  <path class="st3" d="M938.48,657.68c-1.34,9.9,4.36,20.63.76,31.25-23.04-6.99-47.06-8.72-71.03-7.84l-4.7-23.41h74.97Z"/>
  <path class="st3" d="M858.82,657.68c-1.07,4.9,7.4,21.59,3.2,24.27-21.47,1.75-42.66,5.72-63.31,11.66l.76-35.93c19.76,0,39.59,0,59.35,0Z"/>
  <path class="st3" d="M40.37,851.28c.87,4.73-2.39,3.01-5.4,3.12-11.27.42-22.43.91-33.65,1.56,0-2.08,0-4.16,0-6.25,13.12-1.23,26.12,1.22,39.05,1.56Z"/>
  <path class="st22" d="M1296.17,2053.48c-.04,33.48,1.19,68.16,0,101.48-85.88-.25-171.84.33-257.72,0,1.01-4.82,5.36-7.36,7.86-11.66,8.05-13.9,11.63-32.03,15.83-47.43,11.28.49,28.25-9.5,38.23-9.56,4.08-.02,19.06,5.94,27.83,6.25,34.73,1.23,74.24-5.16,111.03-4.81,4.21.04,7.9,2.12,12.28,1.6,12.92-1.54,30.18-22.13,38.71-31.7,1.79-2.01,2.43-4.33,5.96-4.19Z"/>
  <path class="st8" d="M1296.17,2003.52c-15.86.35-31.83-.45-47.7-.06-339.14,8.14-680.36,4.65-1019.81,6.38-66.05.34-132.18-.2-198.19-.33l-2.65-3.68c.03-4.6,6.67-5.2,10.14-5.51,44.02-3.94,98.43.59,143.84.14,110.1-1.09,220.86-3.85,331-4.81,123.27-1.08,246.22-.72,369.46-1.51-6.12-31.63-8.82-68.51-6.3-100.75.76-9.78,3.37-21.45,13.31-25.72,5.82,6.73-.52,7.97-.74,8.88-2.37,9.46-.22,30.07.04,40.26.67,25.93,1.4,52.44,8.7,77.44l398.9-3.22c0,4.16,0,8.33,0,12.49Z"/>
  <path class="st8" d="M560.49,1656.91c0,4.16,0,8.33,0,12.49-32.53-.36-65.14.45-97.69.06-146.7-1.75-293.69-3.53-440.46-4.82-5.9-.05-10.63,3.34-16.47-2.45.52-7.55,3.55-7.9,10.22-8.47,43.34-3.67,89.43,1.41,132.76,1.7,72.85.49,146.04,1.12,218.67,1.56,64.32.39,128.68-.44,192.97-.07Z"/>
  <path class="st20" d="M1288.36,2164.33c-.5.09-1.05-.08-1.56,0l.77-1.54.79,1.54Z"/>
  <path class="st20" d="M1283.67,2165.89c-.52.04-1.04-.03-1.56,0l.78-1.53.78,1.53Z"/>
  <path class="st22" d="M149.7,2158.09c.93-4.81-2.36-2.68-5.19-3.32-7.47-1.69-13.83-4.65-21.2-6.2l-2.56-42.07c29.54-8.95,60.19-16.06,90.85-20.03,7.09-.92,13.42.91,20.21-3.25,60.5,3.76,122.04,10.85,182.71,9.36,4.22-.1,8.21-2.06,12.46-1.79,3,.19,2.2,2.98,4.19,3.78,14.96,6.03,96.6-4.48,119.1-5.24,71.78-2.45,150.1,4.65,220.27-3.08,28.17-3.1,56.05-10.53,85.16-7.79,1.96,25.67-14.28,47.86-7.82,73.39-9.13-2.5-17.52,1.23-25.8,1.54-23.63.88-47.26-4.12-70.56-.19-2.92.49-6.08-1.3-5.17,3.34-198.87.11-398,.12-596.66,1.56Z"/>
  <path class="st21" d="M965.04,965.25c5.57-.68,10.78,1.54,16.33,1.64,104.35,1.78,208.9-1.49,313.24-.07-.06,21.31.05,42.69,0,64-21.76-.73-35.33,25.76-35.94,44.57-.49,15.19,7.11,28.56,14.08,41.31-148.44.4-296.88-.11-445.16-1.55l1.57-98.37c50.67,3.81,94.51-27.96,135.89-51.52ZM843.6,1091.3c12.26,11.06,22.32-19.94,3.58-16.76-8.09,1.37-8.78,12.08-3.58,16.76Z"/>
  <path class="st6" d="M1294.61,846.59c-.07,36.41.08,72.89,0,109.29l-292.09-1.55c.21-10.69-.68-22.29,1.57-32.8,1.62-7.59,6.09-11.16,9.15-18.18,5.26-12.07,13.64-31.1,15.67-43.66.64-3.95-1.4-16.33,2.52-17.78,1.4.35.88,3,2.27,3.9,3.22,2.1,48.59.51,57.14.71,54.83,1.32,109.02,1.67,163.87,0,13.24-.4,26.73.07,39.89.06ZM1042.79,906.24c-8.12-6.96-26.65-5.58-22.69,7.88,5.34,18.18,28.22,12.15,22.69-7.88Z"/>
  <path class="st12" d="M2448.88,1377.44c13.73.44,27.64-.61,41.38.02,35.34,1.62,70.78,7.99,106.16,9.42,42.59,1.71,85.54-.34,128.16,1.48,15.86.68,31.77,1.29,47.63,1.57.53,11.66,1.96,31.38,10.84,39.91,7.89,7.58,31.52.5,28.97,13.19-11.96.37-24.03-.5-35.98-.07-95.24,3.42-188.9,19.89-284.28,23.48-3.01.11-6.27-1.6-5.4,3.12-12.45-.35-25.03.25-37.49,0-.18-30.31-.16-61.81,0-92.12Z"/>
  <path class="st8" d="M562.06,1443.01c-.01,3.64.01,7.29,0,10.93-61.17-.85-122.41-.57-183.59-1.5-110.74-1.68-221.86-6.08-332.69-6.38-5.45-.01-11.48,3.7-16.23-2.42.35-4.94,3.62-6.99,8.45-6.89,103.9,2.07,208.45,3.48,312.36,4.76,70.57.87,141.16.69,211.71,1.5Z"/>
  <path class="st8" d="M1004.08,921.54c-2.25,10.5-1.36,22.11-1.57,32.8l292.09,1.55c0,3.64.01,7.29,0,10.93-104.34-1.42-208.9,1.86-313.24.07-5.54-.09-10.76-2.31-16.33-1.64,4.95-9.08,15.6-13.67,22.67-21.84,4.25-4.91,8.42-12.15,11.98-17.77,1.26-1.99.5-5.01,4.4-4.11Z"/>
  <path class="st3" d="M1294.61,762.28c-.12,23.91.03,47.91,0,71.82l-45.15-1.72c-4.97-20.06-9.01-41.53-9.52-62.3,6.21.46,11.67-1.68,17.96-1.66,5.92.02,11.59,2.31,17.04,1.6,7.06-.92,12.33-7.54,19.66-7.75Z"/>
  <path class="st0" d="M1294.61,748.23c-.07,4.67.02,9.38,0,14.05-7.34.2-12.6,6.83-19.66,7.75-5.45.71-11.12-1.58-17.04-1.6-6.29-.02-11.75,2.12-17.96,1.66-.18-7.3-.4-14.65,1.73-21.69l52.94-.17Z"/>
  <path class="st3" d="M793.45,965c-.43-.39-.57-3.52-1.77-5.17-1.39-1.92-10.13-12.33-9.4-13.29,17.72-7.58,35.17-18.56,51.41-29.04,30.69-19.81,62.71-42.39,92.78-63.39,4.49-3.13,22.62-14.83,24.6-17.56,1.69-2.33,1.7-4.4,1.45-7.12l-168.31,113.61-4.89.17-12.04-27.13,3.4-5.34c56.86-34.74,110.72-73.55,164.63-112.54,1.04,8.78,15.23,17.83,17.92,23.49,1.41,2.97.95,6.91,2.33,10.16,4.66,11.02,11.7,22.45,8.66,35.03l-90.26,58.15c-19.48-3.24-34.08-4.8-47.72,11.57-8.85,10.62-5.98,24.83-21.66,28.3-2.11.47-10.13,1.01-11.14.1Z"/>
  <path class="st14" d="M1034.41,777.31c.28.48,2.28.49,2.51,1.67l-9.38,42.62c-3.89-14.26-9.08-28.53-14.91-42.1-2.79-6.5-7.52-18.83-11.63-23.84-4.56-5.56-37.14-29.14-44.26-32.7-19.7-9.87-71.94-12.6-95.58-13.75-58.35-2.83-124.11,38.27-151.58,88.9l-6.93,28.18c-1.55-6.99,1.68-14.68,1.6-21-.13-11.68-5.8-25.95,2.25-36.8,7-9.44,37.02-34.19,47.65-42.93,55.19-45.38,177.03-53.39,233.49-6.96,16.77,13.79,35.67,39.89,46.77,58.7Z"/>
  <path class="st15" d="M477.71,745.11c1.07,5.58-7.47,2.17-9.15,7.28v5.76s3.69,2.65,3.69,2.65c4.28-.03,10.49-11.62,11.03-15.78l89.7-1.45-3.8,51.61-146.9,7.73-3.89-44.48,9.34-13.31h49.98ZM548,762.28c-.3,3.1-.47,19.97,0,22.57,1.74,9.78,15.4,8.22,16.94-.32.87-4.83-2.11-6.3-2.43-9.18s1.36-8.52,1.11-13.08c-.72-13.56-14.31-13.58-15.62,0Z"/>
  <path class="st3" d="M924.01,783.02l4.92,8.44-1.41,4.37-157.71,111.66-7.81-43.72,4.58.84c38.34-28.82,79.65-53.58,118.67-81.37,2.28-1.62,4.68-5.35,6.42-6.15,2.14-.98,31.23,4.71,32.34,5.94Z"/>
  <path class="st3" d="M1232.13,770.09c.36,20.59,3.03,42.44,7.8,62.44l-103.09,1.58c-.32-22.94-1.88-45.72-1.55-68.71,10.65.36,21.42-.47,32.08-.06,2.05.08,4.05,1.62,4.63,1.62h24.99c.55,0,2.61,1.49,4.63,1.62,10.12.66,20.4.92,30.52,1.5Z"/>
  <path class="st3" d="M268.41,766.97c3.38,19.17,3.24,39.96,6.23,59.33l-137.43-4.7c2.65-17.38,2.11-35.53,3.12-53.07h9.37c-4.85,12.51.14,13.44-.49,22.44-.21,3.01-2.66,5.27-2.32,9.19,1.63,18.86,22.65,12.08,19.91-5.8-.35-2.26-2.76-3.94-2.72-6.04.07-4.25,4.49-13.6,4.36-19.79,33.28,0,66.86,1.09,99.96-1.56Z"/>
  <path class="st3" d="M1130.6,765.41c-.25,19.04.18,43.16-1.56,61.69-.22,2.36-.74,4.68-1.79,6.79l-87.24,1.77c3.8-23.29,6.1-46.88,9.37-70.25,1.52,3.2,2.27,2.83,5.34,3.21,12.64,1.58,24.65,2.2,37.2-.5,4.34-.93,7.02-3.77,11.28-4.34,8.63-1.14,18.37,3.21,27.4,1.63Z"/>
  <path class="st3" d="M693.25,802.87l1.56,17.17c-14.72-.17-29.78-.5-44.57-.06-65.87,1.97-132.33,6.32-198.23,7.93-10.33.25-19.07-1.67-28.77-4.95l-1.76-15.39,271.77-4.7Z"/>
  <path class="st3" d="M864.93,762.37c2.21,8.83,13.4,7.93,20.44,10.86l-120.25,87.41c1.42-9.2,2.2-18.44,4.47-27.52,1.18-4.72,6.26-21.1,8.3-24.49,2.23-3.71,6.51-3.45,9.12-6.49,1.42-1.65,1.61-4.62,3.08-6.29,7.59-8.66,17.48-16.46,22.11-27.07,17.85-.07,35.79.11,52.73-6.4Z"/>
  <path class="st11" d="M410.54,745.12l-18.81,27.24c-25.3,10.57-53.18,11.7-80.19,8.49-18.7-2.22-37.8-12.97-40.02-33.38l139.03-2.35Z"/>
  <path class="st3" d="M702.63,841.13c1.74-8.44,13.97-41.07,17.94-50.77,1.33-3.26,4.1-6.55,6.28-9.34,5,10.66,10.17,21.34,19.57,28.92l26.53-1.58-13.97,50.05c-19.34.7-37.24,9.01-56.34,11.6,1.19-8.48-1.62-21.02,0-28.88Z"/>
  <path class="st3" d="M696.38,754.48c.27,13.6-2.51,26.97-1.55,40.6l-117.16,1.56c.12-11.43-.13-22.93,0-34.36h6.25c-1.06,2.12,1.46,4.16,1.56,4.68.29,1.49,1.55,2.95,1.56,3.12.39,4.23-2.53,6.67-3.06,10.26-2.88,19.39,20.42,14.84,18.67,0-1.04-8.79-.18-9.05.01-18.06,31.08-.64,64.58,3.7,93.72-7.81Z"/>
  <path class="st3" d="M969.72,874.7v-27.32c0-4.35-8.29-17.63-7.49-21.64l38.75-50.95,20.35,61.66-1.65,3.09c-16.79,10.3-29.51,33.57-49.96,35.16Z"/>
  <path class="st3" d="M924.29,776.21c-2.63,1.9-52.27-11.33-54.68-14.56-4.58-13.98-.04-28.64-1.42-43.09,22.27,0,45.11-1.24,66.52,6.16-1.01,17.57-3.48,35.25-10.42,51.49Z"/>
  <path class="st3" d="M783.59,799.5c-9.29.12-23.86,6.19-32.5,2.56-4.01-1.68-18.08-23.58-17.01-27.74,2.04-7.94,57-46.33,64.55-44.81l8.43,34.8c-8.63,11.27-20.23,20.57-23.47,35.19Z"/>
  <path class="st3" d="M958.76,816.92l-3.22-.97c-8.09-11.44-13.75-23.85-22.85-34.14,2.88-6.64,7.34-15.26,8.63-22.3.49-2.68-1.05-5.35-.72-7.14,1.5-8.1,4.71-15.97,4.15-24.43,15.14,7.08,34.49,13.98,45.24,27.36,11.75,14.62,4.16,13.44-3.74,24.29-5.56,7.64-10.63,16.76-16.57,24.03-3.62,4.44-9.62,7.58-10.93,13.29Z"/>
  <path class="st3" d="M935.36,934.05c3.75-.42,6.28-3.63,8.48-6.38,9.25-11.61,17.23-30.09,24.72-43.2,3.43-1.92,8.91-1.07,12.07-2.77,2.37-1.27,2.74-4.55,4.82-6.11,2.83-2.13,9.14-3.75,13.52-6.78,6.92-4.8,12.83-10.51,19.16-15.96.37,3.45,1.47,5.72.96,9.38-.79,5.66-13.01,33.61-16.28,40.08-5.04,9.97-23.85,41.05-33.17,45.03-5.84,2.49-35.95-10.87-34.27-13.27Z"/>
  <path class="st3" d="M740.9,924.66c6.83-.76,15.84-4.39,21.83-7.82,5.56,11.34,9.5,23.29,15.63,34.39,2.01,3.63,10.04,12.64,8.41,15.39-9.46,4.58-11.06,17.68-20.85,23.24-23.06-14.45-40.69-39.47-49.22-65.2,7.77-.62,16.6.85,24.21,0Z"/>
  <path class="st11" d="M140.33,768.53c.42-7.33.96-14.56,1.56-21.86h121.83c.26,7.19,3.42,13.12,4.69,20.3-33.1,2.65-66.68,1.56-99.96,1.56-.17-7.97-11.49-11.73-16.36-6.17-1.81,2.07-1.58,4.11-2.38,6.17h-9.37Z"/>
  <path class="st3" d="M961.9,877.83c.46,2.72-.36,4.87-1.21,7.36-1.47,4.3-20.38,37.93-23.1,40.92s-11.66,11.98-14.85,14.82c-7.82,6.95-20.79,11.96-29.54,18.08-.05-8.14-3.34-18.71-8.53-25.09-2.35-2.89-6.63-1.93-5.54-6.11l82.76-49.98Z"/>
  <path class="st3" d="M765.12,907.47c-17.72,1.16-33.57,12.33-51.34,10.73-5.09-13.37-10.36-27.24-9.59-41.94,19.35,1.23,36.98-4.17,54.66-10.92l6.27,42.14Z"/>
  <path class="st3" d="M860.39,718.57c-3.57,14.29,1.48,26.35,1.49,40.42-1.28,1.64-35.28,3.24-41.3,3.4-2.53.07-5.97.59-7.85-1.65-2.47-2.95-8.56-32.21-6.85-34.23,17.88-4.28,36.12-6.72,54.52-7.95Z"/>
  <path class="st3" d="M958.78,955.9c.6.8-3.7,4.52-4.79,5.34-11.76,8.87-35.4,22.95-48.83,29.26-2.72,1.28-19.73,8.75-20.85,8.86-4.01.38-10.42-10.81-9.08-13.86.42-.96,12.14-15.46,13.19-16.41,10-9.1,31.15-15.34,41.87-25.41,7.47-1.86,20.49,11.17,28.48,12.23Z"/>
  <path class="st14" d="M866.63,983.99c3.04-5.29.24-13.49-6.25-12.51l.02-2.31c25.95-20.69-22.77-35.25-20.24-9.58.49,4.97,3.85,7.45,4.6,11.89l-10.71,1.79-.22,9.15c-.17-.15-1.75.39-3.17-1.09-13.29-13.89-12.4-30.45,1.55-43.47,11.93-11.13,36.83-8.96,49.25.85,17.6,13.9.03,36.97-14.83,45.27Z"/>
  <path class="st0" d="M1135.29,765.41c.08-5.71-.06-11.47,0-17.17h98.4c-1.75,7.35-1.69,14.36-1.56,21.86-10.12-.58-20.39-.84-30.52-1.5-2.02-.13-4.08-1.62-4.63-1.62h-24.99c-.58,0-2.58-1.54-4.63-1.62-10.65-.41-21.43.42-32.08.06Z"/>
  <path class="st11" d="M577.68,762.28c.08-6.23-.06-12.51,0-18.74h74.19c1.46,0,3.45,5.39,4.99,6.33,4.84,2.96,9.51.46,14.55-.09l-1.56-6.22,26.54-1.56c-1.8,4.42-.08,8.12,0,12.48-29.14,11.51-62.64,7.17-93.72,7.81.15-7.07.6-12.57-8.59-12.56-9.78,0-7.41,6.06-10.15,12.56h-6.25Z"/>
  <path class="st3" d="M824,979.78c.86.61,14.99,13.18,15.61,14.04,1.18,1.63.92,4.48,2.2,6.37,3.94,5.83,12,6.53,18.42,5.49l4.27-15.57c10.13-.6,8.22,5.51,11.51,12.6-15.78,3.83-27.84,7.21-44.5,6.25-21.77-1.26-40.22-8.21-60.15-15.62l19.87-20.04,32.77,6.49Z"/>
  <path class="st11" d="M373.05,791.95l.02,20.3c-9.18-2.24-53.36,10.02-57.98,3.76l-1.37-24.06,36.69,3.25,22.65-3.25Z"/>
  <path class="st3" d="M299.65,841.91l-14.04-3.14-9.37-62.42c8.15,6.71,20.13,13,31.16,14.1l-1.51,23.37-9.45-.92c-5.26,10.95-4.01,19.31,4.79,27.45l-1.56,1.56Z"/>
  <path class="st3" d="M401.18,830.98c.96-2.1,5.94-22.39,5.46-23.49-2.34-5.37-16.31-2.87-21.07-1.49l-.11-17.78c13.95-2.45,14.77-8.21,21.67-17.64,3.12-4.26,5.98-7.03,6.54.26,1.52,19.67-2.27,40.65,1.56,60.14-4.21-.67-9.64.46-14.06,0Z"/>
  <path class="st1" d="M833.83,982.43l.22-9.15,10.71-1.79c-.75-4.44-4.11-6.92-4.6-11.89-2.53-25.67,46.19-11.11,20.24,9.58l-.02,2.31c6.49-.99,9.29,7.21,6.25,12.51-2.29,1.28-3.48,4.93-9.38,3.12v12.5s-12.27-1.8-12.27-1.8c1.09-9.9-3-7.19-7.31-10.68-1.91-1.55-2.72-3.7-3.85-4.7ZM857.8,964.21c1.17-1.52,4.6-1.76,5.5-4.7,3.04-9.93-17.69-10.72-20.9-3.7-1.03,2.25,6.62,16.9,7.84,17.28,4.72,1.48,4.68-5.13,7.56-8.88ZM863.5,976.19c-8.57.22-14.67,5.58-23.41,1.56v4.67s23.43-1.56,23.43-1.56l-.02-4.67Z"/>
  <path class="st3" d="M352.76,827.86c.8-2.12,8.15-2.69,10.34-2.93,4.35-.48,9.82.62,13.56-.5,3.1-.93,8.92-8.72,15.91-7.52l-3.1,10.95h-36.71Z"/>
  <path class="st3" d="M311.04,825.83c2.96,2.14,9.14.35,10.46,3.57-9.87,2.98-22.8,4.26-18.72-9.34,5.84-1.68,6.13,4.24,8.26,5.77Z"/>
  <rect class="st3" x="342.6" y="822.4" width="1.57" height="12.48" transform="translate(-485.41 1171.65) rotate(-89.97)"/>
  <path class="st8" d="M2321.92,928.9c-18.21,11.63-23.94-22.64-6.98-21.12,11.45,1.03,14.16,16.54,6.98,21.12Z"/>
  <path class="st1" d="M2294.25,774.77l.69,9.46c7.58,5.48,9.54-3.32,10.25-9.46,2.6.03,5.21-.07,7.81,0-.96,3.98-4.9,9.4-5.41,12.3-1.3,7.38,3.91,10.55-4.76,18.9-5.04,4.85-9.3,6.26-14.01,0-6.75-8.99-1.69-11.24-.81-18.06.55-4.26-.99-7.29,0-13.13,2.08,0,4.17-.01,6.25,0ZM2303.62,793.52l-12.48-1.58c-.3,3.56,1.24,7.09,3.93,9.37l8.55-7.79Z"/>
  <path class="st1" d="M2377.03,777.9c-.76,2.71-3.93,5.32-4.25,7.25-.35,2.14,1.4,5.95,1.28,9.15-.67,17.74-20.28,17.04-20.61-1.55-.15-8.25-.54-8.95-1.41-16.41,8.42.36,16.22,1.41,24.99,1.56ZM2367.66,787.26c-12.17-1.63-10.67,5.8-3.9,12.46,4.6-3.04,4.22-7.43,3.9-12.46Z"/>
  <path class="st9" d="M2305.18,774.77c-.71,6.14-2.66,14.94-10.25,9.46l-.69-9.46c3.64.02,7.29-.04,10.93,0Z"/>
  <path class="st8" d="M2184,2035.4c-1.69,1.39-1.81,4.12-5.85,3.64-5.99-1.99-12.05-5.77-12.06-12.87-.03-19.05,41.07-9.78,17.91,9.24Z"/>
  <path class="st8" d="M2184.53,2129.61c-7.2,4.55-16.13,1.43-18.05-6.99-4.53-19.86,28.6-10.68,18.05,6.99Z"/>
  <path class="st8" d="M2047.08,1882.11c6.69,6.5-4.2,25.48-16.36,13.25-10.51-10.56,7.46-21.89,16.36-13.25Z"/>
  <path class="st8" d="M2036.08,1952.28c8.99-2.67,17.06,1.99,13.8,12.29-6.5,20.54-27.17-8.33-13.8-12.29Z"/>
  <path class="st16" d="M2876.85,1516.39c.16-2.49-.62-6.58,2.35-7.8,6.76-2.77,2.43,4.47,2.33,6.23-.28,4.94,1.99,9.13-.02,14.05-5.47-2.16-4.98-7.49-4.67-12.49Z"/>
  <path class="st9" d="M2797.2,793.52v6.23c-6.33,1.06-10.62-1.03-10.93-7.8l10.93,1.57Z"/>
  <circle class="st0" cx="2940.92" cy="1352.42" r="1.93"/>
  <path class="st8" d="M998.93,2122.5c14.96-4.51,19.93,12.57,7.17,19.76-9.59,1.83-16.61-16.92-7.17-19.76Z"/>
  <path class="st8" d="M939.65,2119.31c12.2-2.14,17.93,13.73,5.63,19.78-8.69-1.58-13.93-8.02-10.72-16.93.75-1.25,3.61-2.59,5.09-2.85Z"/>
  <circle class="st8" cx="943.45" cy="2028" r="9.05"/>
  <path class="st8" d="M843.67,1976.52c-2.62-3.25-2.39-9.34-1.8-13.36,28.12-7.38,14.27,28.81,1.8,13.36Z"/>
  <path class="st15" d="M856.88,1883.68c10.41,10.37-19.83,27.67-14.47,1.16,3.99-3.85,9.84-4.08,14.47-1.16Z"/>
  <path class="st8" d="M920.92,1964.86c4.19,4.17.5,13.55-3.77,16.64-8.41,2.75-15.92-14.87-5.68-18.34,2.48-.72,7.65-.09,9.45,1.7Z"/>
  <path class="st8" d="M1003.53,2017.77c16.44-5.53,17.04,19.16,4.83,16.73-7.8-1.56-10.22-14.91-4.83-16.73Z"/>
  <path class="st8" d="M916.24,1882.11c3.17,3.17,2.85,12.03-2.3,13.46-18.9-.48-8.67-24.42,2.3-13.46Z"/>
  <path class="st8" d="M784.95,1076.42c20.44-6.17,20.03,23.17,3.14,18.11-6.34-1.9-11.28-15.65-3.14-18.11Z"/>
  <path class="st1" d="M109.09,768.53c-.44,4.54.3,9.47,0,14.06l6.06-.2c1.19-4.13,1.69-7.98,1.75-12.3,1.55,0,3.14.09,4.69,0-5.93,11.69,5.58,31.82-11.5,35.53-3.43-.09-7.94-7.14-8.57-10.14-1.27-6.05,3.81-8.37,3.92-10.56.11-2.07-4.99-11.5-2.6-16.39,2.08-.04,4.17.03,6.25,0ZM115.34,787.26c-10.45-2.25-12.67,6.82-6.22,13.37l6-1.11.22-12.26Z"/>
  <path class="st13" d="M116.9,770.09c-2.81-.01-5.81-1.59-7.81-1.56.51-5.28,1.88-7.87,6.23-10.92,1.55,4.24,1.64,8.03,1.58,12.48Z"/>
  <path class="st8" d="M843.6,1091.3c-5.2-4.69-4.51-15.39,3.58-16.76,18.74-3.18,8.68,27.82-3.58,16.76Z"/>
  <path class="st8" d="M1042.79,906.24c5.53,20.03-17.35,26.06-22.69,7.88-3.95-13.46,14.57-14.84,22.69-7.88Z"/>
  <path class="st1" d="M554.25,762.28l-1.59,10.13c7.9,3.96,8.01-4.2,7.83-10.13h3.12c.24,4.56-1.45,10.09-1.11,13.08s3.31,4.35,2.43,9.18c-1.54,8.54-15.2,10.09-16.94.32-.46-2.6-.29-19.47,0-22.57h6.25ZM560.49,785.68c2.66-3.94-5.46-8.92-9.36-7.77-3.49,7.86,6.41,12.15,9.36,7.77Z"/>
  <path class="st22" d="M563.62,762.28h-15.62c1.31-13.58,14.9-13.56,15.62,0Z"/>
  <path class="st1" d="M154.39,768.53c-6.5,22.84,9.39,23.77,6.25,0h7.81c.13,6.19-4.28,15.54-4.36,19.79-.04,2.1,2.37,3.77,2.72,6.04,2.73,17.88-18.28,24.66-19.91,5.8-.34-3.93,2.1-6.19,2.32-9.19.63-8.99-4.36-9.93.49-22.44h4.69ZM158.92,792.1c-1.64-1.13-6.92-.18-7.54,2.4l1.46,9.93c6.94,2.4,9.5-9.97,6.08-12.34Z"/>
  <path class="st1" d="M602.67,762.28c-.19,9-1.05,9.26-.01,18.06,1.75,14.85-21.55,19.39-18.67,0,.53-3.59,3.45-6.02,3.06-10.26l10.92,1.56v-9.37c1.57-.04,3.14.03,4.7,0Z"/>
  <path class="st22" d="M602.67,762.28c-1.56.03-3.13-.04-4.69,0-6.34.16-10.62-2.39-12.5,4.68-.1-.52-2.62-2.56-1.56-4.68,2.75-6.51.37-12.56,10.15-12.56,9.19,0,8.74,5.49,8.59,12.56Z"/>
  <path class="st9" d="M597.98,762.28v9.37s-10.93-1.56-10.93-1.56c-.02-.17-1.27-1.64-1.56-3.12,1.88-7.07,6.15-4.52,12.5-4.68Z"/>
  <path class="st22" d="M149.7,768.53c.8-2.06.57-4.1,2.38-6.17,4.87-5.56,16.19-1.8,16.36,6.17h-18.74Z"/>
  <path class="st9" d="M857.8,964.21c-2.88,3.75-2.84,10.36-7.56,8.88-1.22-.38-8.87-15.04-7.84-17.28,3.21-7.02,23.94-6.23,20.9,3.7-.9,2.94-4.33,3.18-5.5,4.7Z"/>
  <path class="st9" d="M863.5,976.19l.02,4.67-23.43,1.56v-4.67c8.74,4.02,14.84-1.33,23.41-1.56Z"/>
  <path class="st9" d="M2303.62,793.52l-8.55,7.79c-2.69-2.28-4.23-5.81-3.93-9.37l12.48,1.58Z"/>
  <path class="st9" d="M2367.66,787.26c.32,5.04.69,9.42-3.9,12.46-6.76-6.67-8.27-14.1,3.9-12.46Z"/>
  <path class="st9" d="M115.34,787.26l-.22,12.26-6,1.11c-6.45-6.55-4.23-15.62,6.22-13.37Z"/>
  <path class="st9" d="M116.9,770.09c-.06,4.32-.56,8.17-1.75,12.3l-6.06.2c.29-4.59-.44-9.52,0-14.06,2-.03,5,1.55,7.81,1.56Z"/>
  <path class="st9" d="M560.49,762.28c.18,5.93.07,14.09-7.83,10.13l1.59-10.13h6.25Z"/>
  <path class="st9" d="M560.49,785.68c-2.95,4.37-12.85.08-9.36-7.77,3.89-1.15,12.01,3.83,9.36,7.77Z"/>
  <path class="st9" d="M160.64,768.53c3.14,23.77-12.75,22.84-6.25,0h6.25Z"/>
  <path class="st9" d="M158.92,792.1c3.42,2.36.86,14.73-6.08,12.34l-1.46-9.93c.62-2.59,5.9-3.53,7.54-2.4Z"/>
</svg>