<?xml version="1.0" encoding="UTF-8"?>
<svg id="Layer_1" xmlns="http://www.w3.org/2000/svg" version="1.1" viewBox="0 0 3000 3000">
  <!-- Generator: Adobe Illustrator 29.4.0, SVG Export Plug-In . SVG Version: 2.1.0 Build 152)  -->
  <defs>
    <style>
      .st0 {
        fill: #7f7f7f;
      }

      .st1 {
        fill: #fefefe;
      }

      .st2 {
        fill: #9e9c9d;
      }
    </style>
  </defs>
  <path class="st1" d="M3000,656.25v1687.5H0V656.25h3000ZM1692.19,1121.88c36.76-16.93,34.65-88.74-9.38-92.19v-298.44h-389.06v298.44c-20.58-2.03-34.13,20.1-35.92,38.3-2.31,23.43,4.81,46.55,28.11,55.45v1.56h-725.01c-.25,125.49.36,251.07,0,376.56-.34,118.45-2.93,238.16-1.64,357.11l2.42,5.39h732.03l1.63,297.4c-10.03,3.48-17.03,4.98-24.32,13.49-20.85,24.34-15.35,76.69,20.29,82.91,123.48-.22,246.96.13,370.45-.13,11.31-.02,19.32,2.3,31.68-.98,36.1-9.58,35.45-94.14-9.09-92.7l1.55-299.99h764.06c-.34-119.02.43-238.1.07-357.15,0-2.96-1.63-5.88-1.63-6.92-.37-124.97.27-250.03,0-375.01l-756.26-1.55v-1.56Z"/>
  <path d="M1285.94,1123.44c-23.3-8.91-30.42-32.02-28.11-55.45,1.79-18.2,15.34-40.33,35.92-38.3v-298.44h389.06v298.44c44.02,3.45,46.13,75.25,9.38,92.19-1.42.65-6.32.96-6.27,2.34l6.27-.78,756.26,1.55c.26,124.97-.38,250.03,0,375.01l-1887.5,1.56c.36-125.49-.26-251.08,0-376.57h725.01s4.7-.77,4.7-.77c0-1.71-3.45-.3-4.7-.78Z"/>
  <path class="st0" d="M2448.44,1500c0,1.04,1.62,3.96,1.63,6.92.36,119.04-.41,238.12-.07,357.15h-764.06l-1.55,299.99c44.54-1.44,45.19,83.12,9.09,92.7-12.36,3.28-20.37.96-31.68.98-123.48.26-246.96-.09-370.45.13-35.64-6.22-41.14-58.57-20.29-82.91,7.29-8.52,14.3-10.01,24.32-13.49l-1.63-297.4h-732.03l-2.42-5.39c-1.29-118.95,1.31-238.66,1.64-357.11l1887.5-1.56Z"/>
  <path class="st2" d="M1692.19,1121.88v1.56l-6.27.78c-.06-1.38,4.84-1.69,6.27-2.34Z"/>
  <path class="st2" d="M1285.94,1123.44c1.26.48,4.71-.92,4.7.78l-4.7.78v-1.56Z"/>
</svg>