<?xml version="1.0" encoding="UTF-8"?>
<svg id="Layer_1" xmlns="http://www.w3.org/2000/svg" version="1.1" viewBox="0 0 3000 3000">
  <!-- Generator: Adobe Illustrator 29.4.0, SVG Export Plug-In . SVG Version: 2.1.0 Build 152)  -->
  <defs>
    <style>
      .st0 {
        fill: #fff;
      }
    </style>
  </defs>
  <path class="st0" d="M3000,656.25v1687.5H0V656.25h3000ZM1678.33,1015.41c-15.07-84.91-38.73-195.99-108-253.71-28.39-23.66-51.22-29.62-88.28-27.31-71.71,4.47-108.54,58.13-138.57,116.12-27.2,52.53-41.53,108.19-46.8,167.26l-1.33,1.79c-44.03,13.01-48.21,61.19-17.23,91.35l-726.57,7.03,12.43,761.05,921.94-7.12c.77,4.79-1.19,2.51-3.89,3.08-67.69,14.09-109.06,82.41-135.44,141.18-20.31,45.25-33.15,91.76-34.78,141.79-16.18,1.93-24.02,9.7-30.85,23.84-10.6,21.94-10.73,37.29,5,56.49,29.19,35.62,70.38,17.03,110.19,21.19l184.38-4.69c34.78-4.98,74.78.55,109.32-3.18,12.31-1.33,31.64-15.75,37.57-26.49,14.89-26.94-.12-72.88-35.24-71.96-9.94-76.39-29.44-162.7-78.16-224.18-23-29.03-49.5-44.57-84.66-54.42-1.61-.45-4.73-.39-4.36-2.63l925.08-8.52,3.16-15.73c-4.21-221.16-7.53-442.89-11.13-663.98-.17-10.38,1.76-79.7-1.72-81.88l-740.4,6.02c32.93-30.84,27.13-84.29-21.67-92.38Z"/>
  <path d="M1678.33,1015.41c48.8,8.09,54.6,61.54,21.67,92.38l740.4-6.02c3.48,2.18,1.55,71.5,1.72,81.88,3.6,221.09,6.92,442.82,11.13,663.98l-3.16,15.73-925.08,8.52c-.37,2.25,2.75,2.18,4.36,2.63,35.16,9.84,61.66,25.39,84.66,54.42,48.72,61.48,68.22,147.79,78.16,224.18,35.12-.92,50.12,45.02,35.24,71.96-5.94,10.74-25.26,25.16-37.57,26.49-34.54,3.73-74.54-1.8-109.32,3.18l-184.38,4.69c-39.8-4.17-81,14.43-110.19-21.19-15.73-19.2-15.59-34.55-5-56.49,6.83-14.14,14.67-21.9,30.85-23.84,1.63-50.03,14.47-96.54,34.78-141.79,26.38-58.77,67.74-127.09,135.44-141.18,2.7-.56,4.65,1.72,3.89-3.08l-921.94,7.12-12.43-761.05,726.57-7.03c-30.99-30.17-26.8-78.34,17.23-91.35l1.33-1.79c5.26-59.08,19.6-114.73,46.8-167.26,30.02-57.99,66.86-111.65,138.57-116.12,37.07-2.31,59.9,3.65,88.28,27.31,69.27,57.72,92.94,168.8,108,253.71ZM1480.93,744.21c-107.16,8.24-160.11,162.03-172.91,252.09-2.89,20.36-3.91,41.06-4.21,61.61l368.14-3.95c2.11-1.28.86-2.58.83-3.94-1.59-69.94-38.52-197.31-81.5-253.02-29.36-38.04-61.45-56.55-110.34-52.79ZM1684.38,1106.24c1.53,1.72,15.03-12.21,16.44-14.01,19.02-24.39,12.34-61.02-21.13-65.66l4.69,79.67ZM1295.3,1029.7c-38.17,14.79-35.16,57.08-3.92,78.14l3.92-78.14ZM1674.68,1062.92l-373.53,4.5.54,45,373.53-4.5-.54-45ZM2434.77,1109.03l-1876.24,17.23,3.45,375.34,1876.24-17.23-3.45-375.34ZM2440.55,1489.04l-1875.7,17.22,3.37,366.93,1875.7-17.22-3.37-366.93ZM1320.3,2192.2l364.98-3.03c-2.08-59.92-15.22-121.85-36.42-177.87-54.39-143.7-182.62-184.59-269.48-38.95-18.33,30.74-38.09,76.15-47.08,110.74-9.26,35.62-11.27,72.38-12,109.11ZM1698.45,2237.49c34.53-11.19,33.5-71.91-4.7-73.44l4.7,73.44ZM1310.93,2168.75c-16.17-2.54-28.81,29.54-28.19,41.36.76,14.3,18.41,34.28,32.87,36.77l-4.69-78.12ZM1687.51,2199.99l-364.17,2.25c-5.06,3.52,1.46,39.09,1.89,46.75l1.23,1.89,188.45-3.94,172.69-5.43c4.67-3.25-1.34-34.46-.09-41.51Z"/>
  <rect class="st0" x="560.21" y="1117.64" width="1876.32" height="375.35" transform="translate(-11.92 13.81) rotate(-.53)"/>
  <rect class="st0" x="566.49" y="1497.64" width="1875.78" height="366.94" transform="translate(-15.37 13.88) rotate(-.53)"/>
  <path class="st0" d="M1480.93,744.21c48.9-3.76,80.99,14.75,110.34,52.79,42.98,55.71,79.92,183.08,81.5,253.02.03,1.36,1.28,2.65-.83,3.94l-368.14,3.95c.3-20.55,1.32-41.25,4.21-61.61,12.8-90.06,65.74-243.85,172.91-252.09Z"/>
  <path class="st0" d="M1320.3,2192.2c.73-36.73,2.74-73.49,12-109.11,8.99-34.59,28.74-80,47.08-110.74,86.86-145.64,215.09-104.75,269.48,38.95,21.2,56.02,34.34,117.94,36.42,177.87l-364.98,3.03Z"/>
  <path class="st0" d="M1687.51,2199.99c-1.25,7.06,4.76,38.27.09,41.51l-172.69,5.43-188.45,3.94-1.23-1.89c-.43-7.66-6.95-43.23-1.89-46.75l364.17-2.25Z"/>
  <rect class="st0" x="1301.41" y="1065.17" width="373.56" height="45.01" transform="translate(-13 18.01) rotate(-.69)"/>
  <path class="st0" d="M1684.38,1106.24l-4.69-79.67c33.47,4.64,40.14,41.27,21.13,65.66-1.41,1.8-14.91,15.73-16.44,14.01Z"/>
  <path class="st0" d="M1310.93,2168.75l4.69,78.12c-14.46-2.48-32.11-22.46-32.87-36.77-.63-11.82,12.01-43.89,28.19-41.36Z"/>
  <path class="st0" d="M1698.45,2237.49l-4.7-73.44c38.2,1.53,39.23,62.24,4.7,73.44Z"/>
  <path class="st0" d="M1295.3,1029.7l-3.92,78.14c-31.25-21.06-34.25-63.35,3.92-78.14Z"/>
</svg>