<?xml version="1.0" encoding="UTF-8"?>
<svg id="Layer_1" xmlns="http://www.w3.org/2000/svg" version="1.1" viewBox="0 0 3000 3000">
  <!-- Generator: Adobe Illustrator 29.4.0, SVG Export Plug-In . SVG Version: 2.1.0 Build 152)  -->
  <defs>
    <style>
      .st0 {
        fill: #fff;
      }
    </style>
  </defs>
  <path class="st0" d="M2850,0v3000H150V0h2700ZM196.47,42.73v2921.29l2590.57,4.51c.78-185.75.51-371.26,1.42-557.05,3.56-724.96,8-1450.34,12.13-2175.28l-1.42-198.1c-5.82-5.64-10.76-.79-17.33-.55-856-.8-1712.69-.78-2568.12-3.15-6.01-.02-15.72,1.11-17.25,8.33Z"/>
  <path d="M196.47,42.73c1.53-7.23,11.24-8.35,17.25-8.33,855.44,2.37,1712.12,2.35,2568.12,3.15,6.57-.24,11.5-5.08,17.33.55l1.42,198.1c-4.13,724.94-8.56,1450.32-12.13,2175.28-.91,185.79-.64,371.3-1.42,557.05l-2590.57-4.51V42.73ZM2308.81,53.97l-2095.76-1.42-1.57,1799.02c20.11-2.36,41.79-1.89,62.27-1.56,106.57,1.72,213.77,2.55,320.44,4.88,12.23,2.71,8.82,30.61,8.63,40.97-.92,51.17-1.28,103.15-3.12,154.3-.12,3.44-.78,15.08,1.47,16.65l369.72,2.23,4.46-1.54c27.08-105.47,125.38-175.55,221.14-215.13,194.57-80.44,452.45-74.98,646.05,6,99.79,41.74,199.58,109.89,239.85,214.41,20.23,1.64,40.57.21,60.84.63,3.93.08,7.58,1.56,11.86,1.63,79.18,1.38,158.52-1.19,237.7-.06-2.96-53-.75-106.49-1.45-159.74-.14-10.87-7.2-46.93,5.86-50.99,55.61-4.02,111.52-1.48,167.29-2.11,51.14-.58,103.15-2.07,154.29-3.12,18.74-.39,37.56.41,56.29.07l7.27-1333.38c-1.1-3.83-15.83.45-19.96.6-87.69,3.25-168.4-25.94-239.02-75.94-125-88.49-214.55-240.72-214.54-396.4ZM2784.04,53.97h-458.75c-1.31,94.89,34.32,188.07,88.73,264.34,82.32,115.4,220.85,207.59,368.52,189.94l1.49-454.28ZM2064.43,2073.45c-22.68-60.88-73.78-111.01-126.96-146.63-203.86-136.58-544.41-152.46-764.08-46.55-77.98,37.6-157.12,99.51-180.9,186.44l1071.93,6.74ZM211.47,1865.07v198.65l371.58,3.54c1.3-2.49,1.58-5.2,1.78-7.97,3.3-45.49.51-98.76,1.5-145.42.3-14.25-.38-28.57-.06-42.81l-374.8-5.99ZM2775.04,1875.56l-368.8,4.49c.31,14.23-.37,28.56-.06,42.81.98,46.17-1.77,98.91,1.5,143.92.2,2.77.48,5.48,1.78,7.97l365.58,1.71v-200.9ZM211.47,2080.96v868.07l2556.62,2.79,1.8-1.19c2.57-158.61,1.31-317.35,2.08-476.18.52-107.1,1.39-215.1,3.14-322.2.32-19.75-.39-39.57-.06-59.3-171.71-1.29-343.24-.57-515.04-1.42-330.58-1.63-661.65-4.62-992.31-6.14-104.56-.48-211.83,3.72-314.88.06-107.02-3.81-215.08-.89-322.41-1.41-112.59-.54-226.09-1.71-338.68-3.13-26.74-.34-53.54.38-80.27.06Z"/>
  <path class="st0" d="M2308.81,53.97c0,155.68,89.54,307.9,214.54,396.4,70.62,50,151.33,79.18,239.02,75.94,4.13-.15,18.86-4.43,19.96-.6l-7.27,1333.38c-18.73.34-37.55-.46-56.29-.07-51.14,1.06-103.15,2.54-154.29,3.12-55.77.63-111.69-1.91-167.29,2.11-13.06,4.06-6,40.12-5.86,50.99.69,53.25-1.51,106.74,1.45,159.74-79.17-1.12-158.52,1.44-237.7.06-4.28-.07-7.93-1.55-11.86-1.63-20.26-.42-40.61,1.02-60.84-.63-40.27-104.52-140.06-172.67-239.85-214.41-193.59-80.97-451.48-86.44-646.05-6-95.75,39.59-194.06,109.66-221.14,215.13l-4.46,1.54-369.72-2.23c-2.25-1.57-1.59-13.21-1.47-16.65,1.84-51.15,2.21-103.13,3.12-154.3.19-10.36,3.6-38.25-8.63-40.97-106.67-2.33-213.86-3.16-320.44-4.88-20.47-.33-42.16-.8-62.27,1.56l1.57-1799.02,2095.76,1.42ZM1862.05,529.22c11.85-13.55,24.47-31.07,33.27-46.91,21.73-39.09,20.1-107.8,14.48-151.5-7.87-61.17-57.76-123.62-106.32-159.04-8.98-6.55-24.9-13.21-35.52-16.95-73.54-25.89-144.12-36.51-221.51-43.84-58.79-5.57-102.45,4-159.14,13.23-59.22,9.64-123.58,13.87-174.87,47.01-35.35,22.85-67.87,46.84-90.72,83.19-41.58,66.15-47.38,136.12-19.38,209.25,9.74,25.43,29.09,63.07,51.6,78.83,6.89,4.82,15.06,7.39,21.45,13,.05,1.34-9.81,4.71-11.62,4.98-43.32,6.4-97.45,27.22-132.98,54.28-32.5,24.76-71.02,54.75-85.12,94.03-19.66,6.7-39.1,14.56-55.11,28.1-32.54,27.52-70.82,69.38-99.73,101.17-53.78,59.13-105.09,141.19-135.89,214.93-26.63,63.77-66.63,179.75-43.25,246.18,21.42,60.84,57.35,90.88,124.81,79.76,35.33-5.82,56.05-32.21,90.98-10.71,18.26,11.24,33.23,27.43,51.22,38.73,16.6,10.43,32.93,20.81,49.47,31.49,3.9,2.52,21.86,11.1,23.06,12.92,1.49,2.24,4.95,19.54,5.28,23.21,2.36,26.35-1.91,55.91-.03,82.49.65,9.29,3.96,19.08,4.61,28.37,2.66,37.72-1.55,78.82-.12,117.06.93,24.85,5.13,51.42,6.13,76.33,1.94,48.09-8.66,98.67-4.63,147.06.25,3.04,1.64,11.2,4.05,12.8,4.91,3.25,11.38.36,12.46-5.4,3.66-19.46-2.6-49.8-.02-70.49,10.62-67.73-2.08-134.78-3-202.28-.33-24.48,3.4-51.49,1.61-75.08-.88-11.58-5.28-24.12-6.11-35.87-1.99-28.4,1.59-59.12.07-87.76,38.53,19.64,75.62,44.1,114.1,63.54,15.44,7.8,31.95,13.58,47.3,21.66,19.64,10.33,36.28,23.77,54.95,35,24.49,14.72,76.4,37.73,93.83,57.59,10.79,12.28,9.11,19,26.58,28.89,47.18,26.71,118.24,26.44,170.66,22.69,12.15-.87,44.91-5.57,54.27-11.69,11.65-7.62,11.73-30.86,12.48-43.76,4.04,2.72,5.47,7.76,8.92,11.31,5.03,5.17,43.05,21.76,50.67,22.79,23.06,3.12,54.25-1.17,76.05-8.7l1.51,3.09c3.04-1.84,7.23-6.7,10.13-7.87,44.43-18.01,87.97-37.25,129.34-62.55,17.49-10.7,32.88-24.46,50.67-34.78,20.18-11.7,42.51-20.08,62.93-31.52,29.84-16.72,63.08-37.8,92.37-56.05,20.9-13.02,38.03-29.67,57.84-44.1,3.3,29.56,5.52,59.47,5.31,89.27-.52,74.51-6.85,145.6-3.08,220.33,2.73,54.2-8.93,108.97-4.54,160.46.54,6.3,2.24,18.27,10.96,16.94,10.3-1.57,5.61-12.64,5.52-18.43-.86-54.13,7.29-104.61,4.55-158.97-3.75-74.56,2.61-144.75,3.08-218.84.18-29.17-4.34-57.33-4.67-85.5-.06-5.54,1.53-10.74,1.9-16.22,1.33-3.58,31.33-20.25,37.07-24.4,9.82-7.11,18.54-16.42,29.02-23.45,19.25-12.91,41.68-23.07,60.69-36.84,5.91-1.47,21.16,6.11,28.22,7.06,74.55,9.97,117.17-67.45,114.62-132.62-5.41-138.43-62.41-235.99-142.52-343.23-16.99-22.75-38.17-53.81-56.16-74.28-17.02-19.37-44.42-51.2-62.95-67.48-6.88-6.05-19.62-12.42-24.8-18.67-3.58-4.33-5.65-11.77-8.71-16.78-27.13-44.4-73.41-95.17-118.81-121.06-29.32-16.72-67.03-24.01-98.82-35.37Z"/>
  <path class="st0" d="M211.47,2080.96c26.73.32,53.53-.4,80.27-.06,112.58,1.42,226.09,2.59,338.68,3.13,107.32.52,215.39-2.4,322.41,1.41,103.05,3.67,210.33-.54,314.88-.06,330.66,1.52,661.73,4.51,992.31,6.14,171.8.85,343.33.13,515.04,1.42-.33,19.73.39,39.55.06,59.3-1.75,107.09-2.62,215.09-3.14,322.2-.77,158.83.49,317.56-2.08,476.18l-1.8,1.19-2556.62-2.79v-868.07ZM2313.55,2133.83c0-5.14-4.16-9.3-9.3-9.3s-9.3,4.16-9.3,9.3,4.16,9.3,9.3,9.3,9.3-4.16,9.3-9.3ZM2622.38,2133.83c0-5.14-4.16-9.3-9.3-9.3s-9.3,4.16-9.3,9.3,4.16,9.3,9.3,9.3,9.3-4.16,9.3-9.3ZM535.29,2125.94h-14.99v35.98c-26.8-23.74-57.06,1.26-49.7,33.96,5.38,23.87,34.82,34.23,50.45,14.03l.74,9h13.5v-92.96ZM754.16,2125.94h-14.99v92.95h14.99v-42.73c0-8.3,17.25-14.37,24.09-7.59,1.12,1.11,4.4,9.45,4.4,10.59v39.73h14.99v-41.23c0-.5-1.86-8.73-2.22-9.78-5.98-17.48-28.92-20.05-41.26-7.46v-34.48ZM1131.95,2125.94h-14.99v92.95h14.99v-92.95ZM1347.83,2125.94h-14.99v35.98c-26.8-23.74-57.06,1.26-49.7,33.96,5.38,23.87,34.82,34.23,50.45,14.03l.74,9h13.5v-92.96ZM2694.09,2125.94h-14.99v92.95h14.99v-42.73c0-8.3,17.25-14.37,24.09-7.59,1.12,1.11,4.4,9.45,4.4,10.59v39.73h14.99v-41.23c0-.5-1.86-8.73-2.22-9.78-5.98-17.48-28.92-20.05-41.26-7.46v-34.48ZM351.18,2174.57c0-25.57-20.73-46.3-46.3-46.3s-46.3,20.73-46.3,46.3,20.73,46.3,46.3,46.3,46.3-20.73,46.3-46.3ZM1200.92,2205.4c15.37-19.24,39.9-26.76,35.85-56.09-4.59-33.16-67.26-24.41-56.92,11.96l13.57.65c-1.88-33.12,42.95-19.65,24.81,6.07-8.4,11.91-27.86,25.97-38.38,36.96l-1.41,13.95h61.47v-13.49h-38.98ZM878.6,2218.89h39.73c1.67,0,15.27-5.14,17.6-6.39,28-15.02,27.05-62.59-1.8-76.87-2.29-1.13-12.68-5.19-14.3-5.19h-41.23v88.46ZM700.19,2166.42v41.23c0,.38,3.25,6.04,3.83,6.67,5.34,5.78,14.57,4.62,21.67,4.58l-.02-13.5c-18.89,4.51-9.87-27.87-11.99-38.99l12.85-1.39.66-10.6-12.85-1.4-.65-15.1h-13.51s-.2,14.04-.2,14.04c-1.24,3.76-7.06,2.27-10.29,2.45l-.02,11.14,10.52.86ZM1814.08,2166.42v41.23c0,.38,3.25,6.04,3.83,6.67,5.34,5.78,14.57,4.62,21.67,4.58l-.02-13.5c-18.89,4.51-9.87-27.87-11.99-38.99l12.85-1.39.66-10.6-12.85-1.4-.65-15.1h-13.51s-.2,14.04-.2,14.04c-1.24,3.76-7.06,2.27-10.29,2.45l-.02,11.14,10.52.86ZM2640.12,2166.42v41.23c0,.38,3.25,6.04,3.83,6.67,5.34,5.78,14.57,4.62,21.67,4.58l-.02-13.5c-18.89,4.51-9.87-27.87-11.99-38.99l12.85-1.39.66-10.6-12.85-1.4-.65-15.1h-13.51s-.2,14.04-.2,14.04c-1.24,3.76-7.06,2.27-10.29,2.45l-.02,11.14,10.52.86ZM424.35,2218.89v-41.23c0-.5-1.86-8.73-2.22-9.78-6.12-17.89-30.83-20.53-42.02-5.97l-.73-7.5h-13.5v64.48h14.99v-42.73c0-6.04,9.8-10.89,15.5-10.72,7.2.21,12.98,6.69,12.98,13.72v39.73h14.99ZM613.24,2190.4c4.51-47.58-64.58-51.05-64.57-3.75,0,32.1,39.31,46.25,58.58,20.99,7.93-10.4,3.99-12.07-8.26-9.76-4.27.81-4.42,6.69-9.65,8.34-13.17,4.14-23.95-2.17-25.56-15.82h49.47ZM682.21,2218.9c-3.59-15.38.68-33.87-1.6-48.63-3.81-24.65-55.69-23.65-55.38,3.64l14.07.1c3.78-14.15,25.67-11.85,27.86,2.17-.31,4.26-39.34,1.66-43.1,18.29-6.47,28.58,28.36,32.86,44.64,16.93v7.5s13.51,0,13.51,0ZM830.65,2163.35c0-5.66-4.59-10.25-10.25-10.25s-10.25,4.59-10.25,10.25,4.59,10.25,10.25,10.25,10.25-4.59,10.25-10.25ZM1031.51,2190.4c4.51-47.58-64.58-51.05-64.57-3.75,0,32.1,39.31,46.25,58.58,20.99,7.93-10.4,3.99-12.07-8.26-9.76-4.27.81-4.42,6.69-9.65,8.34-13.17,4.14-23.95-2.17-25.56-15.82h49.47ZM1100.48,2218.9c-3.59-15.38.68-33.87-1.6-48.63-3.81-24.65-55.69-23.65-55.38,3.64l14.07.1c3.78-14.15,25.67-11.85,27.86,2.17-.31,4.26-39.34,1.66-43.1,18.29-6.47,28.58,28.36,32.86,44.64,16.93v7.5s13.51,0,13.51,0ZM1421.3,2218.9c-3.59-15.38.68-33.87-1.6-48.63-3.81-24.65-55.69-23.65-55.38,3.64l14.07.1c3.78-14.15,25.67-11.85,27.86,2.17-.31,4.26-39.34,1.66-43.1,18.29-6.47,28.58,28.36,32.86,44.64,16.93v7.5s13.51,0,13.51,0ZM1437.78,2154.42v64.47h14.99v-42.73c0-.44,3.71-6.72,4.54-7.45,8.24-7.19,22.44-1.93,22.44,8.95v41.23h14.99v-44.23c0-.43,4.47-5.89,5.43-6.56,9.7-6.81,21.56-.11,21.56,11.06v39.73h13.49v-50.22c0-1.58-5.66-8.98-7.45-10.54-11.72-10.21-27.55-5.19-38.25,3.8-8.21-12.89-28.47-12.09-37.51-.02l-.73-7.5h-13.5ZM1610.2,2218.9c-3.59-15.38.68-33.87-1.6-48.63-3.81-24.65-55.69-23.65-55.38,3.64l14.07.1c3.78-14.15,25.67-11.85,27.86,2.17-.31,4.26-39.34,1.66-43.1,18.29-6.47,28.58,28.36,32.86,44.64,16.93v7.5s13.51,0,13.51,0ZM1688.15,2218.14c2.32-19.7-1.72-43.56,0-63.72h-13.5s0,7.49,0,7.49c-6.82-2.88-9.09-7.76-17.36-8.85-47.68-6.29-46.06,73.99,2.78,63.99,5.42-1.11,8.83-5.76,13.07-8.65,1.5,12.76-2.96,26.96-18.33,25.21-9.41-1.08-11.26-8.98-14.13-9.97-3.68-1.27-9.89.34-13.99-.23,8.63,33.34,57.34,29.73,61.46-5.26ZM1764.6,2190.4c4.51-47.58-64.58-51.05-64.57-3.75,0,32.1,39.31,46.25,58.58,20.99,7.93-10.4,3.99-12.07-8.26-9.76-4.27.81-4.42,6.69-9.65,8.34-13.17,4.14-23.95-2.17-25.56-15.82h49.47ZM1913.48,2186.51c0-18.76-15.21-33.97-33.97-33.97s-33.97,15.21-33.97,33.97,15.21,33.97,33.97,33.97,33.97-15.21,33.97-33.97ZM2019.46,2190.4c4.51-47.58-64.58-51.05-64.57-3.75,0,32.1,39.31,46.25,58.58,20.99,7.93-10.4,3.99-12.07-8.26-9.76-4.27.81-4.42,6.69-9.65,8.34-13.17,4.14-23.95-2.17-25.56-15.82h49.47ZM2091.42,2218.89v-41.23c0-.5-1.86-8.73-2.22-9.78-6.12-17.89-30.83-20.53-42.02-5.97l-.73-7.5h-13.5v64.48h14.99v-42.73c0-6.04,9.8-10.89,15.5-10.72,7.2.21,12.98,6.69,12.98,13.72v39.73h14.99ZM2167.88,2190.4c4.51-47.58-64.58-51.05-64.57-3.75,0,32.1,39.31,46.25,58.58,20.99,7.93-10.4,3.99-12.07-8.26-9.76-4.27.81-4.42,6.69-9.65,8.34-13.17,4.14-23.95-2.17-25.56-15.82h49.47ZM2181.37,2154.42v64.47h14.99v-42.73c0-.44,3.71-6.72,4.54-7.45,8.24-7.19,22.44-1.93,22.44,8.95v41.23h14.99v-44.23c0-.43,4.47-5.89,5.43-6.56,9.7-6.81,21.56-.11,21.56,11.06v39.73h13.49v-50.22c0-1.58-5.66-8.98-7.45-10.54-11.72-10.21-27.55-5.19-38.25,3.8-8.21-12.89-28.47-12.09-37.51-.02l-.73-7.5h-13.5ZM2389.76,2190.4c4.51-47.58-64.58-51.05-64.57-3.75,0,32.1,39.31,46.25,58.58,20.99,7.93-10.4,3.99-12.07-8.26-9.76-4.27.81-4.42,6.69-9.65,8.34-13.17,4.14-23.95-2.17-25.56-15.82h49.47ZM2452.71,2173.9c-2.92-29.49-54.32-27.76-51.01,2.28,2.09,18.97,32.27,14.71,35.77,20.44,7.76,12.7-24.06,16.86-26.23,1.2l-12.5.07c-1.77,31.46,59.08,29.62,53.63-1.89-3.03-17.5-25.88-12.8-34.73-19.24-11.79-8.58,17.88-20.34,21.08-2.79l13.99-.08ZM2311.8,2154.42h-14.99v64.47h14.99v-64.47ZM2520.2,2197.9l-12.73-42-15.76-1.46,22.69,64.25,14.64.05,14.39-43.34,14.07,42.6,15.01.74,21.13-64.31-14.84.15-14.4,44.82-13.46-43.5-14.33-.79c-2.83,1.89-10.5,34.53-13.29,40.68-.8,1.76.71,2.71-3.13,2.11ZM2620.63,2154.42h-14.99v64.47h14.99v-64.47ZM830.61,2209.76c0-5.65-4.58-10.22-10.22-10.22s-10.22,4.58-10.22,10.22,4.58,10.22,10.22,10.22,10.22-4.58,10.22-10.22ZM1322.35,2392.8h39.73c1.67,0,15.27-5.14,17.6-6.39,28-15.02,27.05-62.59-1.8-76.87-2.29-1.13-12.68-5.19-14.3-5.19h-41.23v88.46ZM1475.26,2364.32c4.51-47.58-64.58-51.05-64.57-3.75,0,32.1,39.31,46.25,58.58,20.99,7.93-10.4,3.99-12.07-8.26-9.76-4.27.81-4.42,6.69-9.65,8.34-13.17,4.14-23.95-2.17-25.56-15.82h49.47ZM1547.22,2350.82c-8.69-38.78-64.67-28.58-63.01,11.18,1.6,38.35,56.14,45.1,63.01,6.83l-13.99-.07c-1.8.44-2.81,11.84-15.23,12.19-29.89.84-20.89-53.63,7.3-38.92,3.82,1.99,5.51,7.73,7.93,8.56,3.7,1.27,9.87-.34,13.99.24ZM1614.69,2392.81c-3.59-15.38.68-33.87-1.6-48.63-3.81-24.65-55.69-23.65-55.38,3.64l14.07.1c3.78-14.15,25.67-11.85,27.86,2.17-.31,4.26-39.34,1.66-43.1,18.29-6.47,28.58,28.36,32.86,44.64,16.93v7.5s13.51,0,13.51,0ZM1652.18,2373.31l-15.75-43.48-15.74-1.48,24.73,62.76-9.74,27.17,14.07.1,36.9-90.04-16.32.16c-4.95,13.01-8.87,28.8-15.11,41.11-.72,1.42-.94,3.55-3.04,3.69Z"/>
  <path class="st0" d="M2064.43,2073.45l-1071.93-6.74c23.78-86.93,102.91-148.84,180.9-186.44,219.67-105.92,560.22-90.03,764.08,46.55,53.18,35.63,104.28,85.75,126.96,146.63ZM1760.11,1892.06c1.66-1.84,33.99,19.9,45.6,11.88,3.97-2.75,4.05-9.28.85-12.62-24.22-2.73-43.49-20.3-66.31-26.63-6.44-1.79-24.01-6.57-26.41,2.96-3.39,13.42,26.93,9.57,32.73,17.66-3.58,2.71-3.1,6.45-3.06,10.54.31,37.62,8.37,75.54,7.66,115.46-.12,6.47-5.23,19.42,6.79,20.15s8.05-11.04,8.07-17.15c.07-19.63,1.02-40.55.05-60.02-1.03-20.73-5.65-41.41-5.97-62.23ZM1424.72,2034.04c5.97,4.94,15.49.34,14.3-7.44-1.36-8.88-13.47-26.86-16.99-38.58-9.28-30.84-12.56-66.27-23.17-96.77-4.93-14.16-15.75-32.44-25.6-9.01-11.39,27.09-20.65,66.67-29.99,95.95-6.31,19.77-12.69,39.55-18.8,59.36,1.62,8.48,8.59,9.2,15.52,5.58l16.2-47.43c16.63,2.21,34.88,2.09,51.54-.16,1.58,5.29,3.45,10.99,5.79,15.98,1.56,3.32,10.23,21.71,11.2,22.52ZM1509.23,2012.97c-13.17,12.29-29.87-5.26-34.04-18.14-6.38-19.7-7.6-64.58-8.97-86.98-.47-7.66,4.39-38.32-8.97-34.69-10.08,2.73-5.97,11.95-5.88,18.08.43,31.71.16,69.08,6.34,100.1,5.6,28.14,35.56,58.17,62.59,33.42,6.56-6.01,8.45-14.53,14.94-20.27.97,7.66,7.97,13.66,10.8,19.95,3.9,8.66,5.29,32.2,19.66,27.75,6.26-1.94,6.72-16.06,3.75-21.18-1.38-2.38-4.13-2.89-5.54-4.96-11.74-17.18-18.44-41.88-19.72-62.74-1.16-18.84,7.24-67.95-4.39-81.06-4.89-5.51-12.92-2.68-14.72,3.34-1.83,6.11,2.44,28.96,2.74,37.11.85,23.13-.87,73.73-18.57,90.25ZM1278.87,1901.06c8.78-2.24,42.05-4,44.71-13.08,1.85-6.33-3-10.76-9.07-10.6-32.39,7.59-65.4,13.51-96.78,24.79-12.16,4.37-11.1,16.46.16,16.36,8.65-.07,39.83-14.15,44.32-11.3,7.52,31.1,4.39,63.55,6.11,95.09.35,6.37,3.04,32.29,6.01,35.96,3.22,3.99,9.21,4.34,12.77.68,5.36-5.51-1.56-22.88-2.21-30.73-1.16-14,.83-29.28-.04-43.44l-5.99-63.72ZM1620.66,1947.54c8.31,22.75,15.78,52.62,30.88,71.83,16.03,20.39,46.35,45.27,54.21,3.49,6.33-33.65-1.51-73.97-9.09-107.09-.84-3.66-4.34-20.07-5.4-21.58-5.29-7.54-14.78-.69-14.87,7.59,9.78,41.57,20.66,83.86,11.68,126.64-2.69.58-4.46,0-6.76-1.36-17.53-10.43-32.03-44.52-38.56-63.39-6.31-18.23-8.65-43.43-16.82-59.64-3.42-6.78-9.77-12.17-16.54-6.01-4.19,3.81-4.6,15.58-5.2,21.78-2.13,21.93-.41,44.02-1.53,65.94-.57,11.16-8.19,47.3-1.13,54.37,4.25,4.25,11.98,1.01,13.1-4.92.84-4.46-.46-10.15.06-14.94,2.57-23.78,3.6-43.67,4.48-67.5.07-1.81-1.13-5.58,1.48-5.22Z"/>
  <path class="st0" d="M2784.04,53.97l-1.49,454.28c-147.67,17.65-286.2-74.54-368.52-189.94-54.41-76.27-90.04-169.45-88.73-264.34h458.75Z"/>
  <path class="st0" d="M211.47,1865.07l374.8,5.99c-.31,14.23.37,28.56.06,42.81-.99,46.66,1.8,99.93-1.5,145.42-.2,2.77-.48,5.48-1.78,7.97l-371.58-3.54v-198.65Z"/>
  <path class="st0" d="M2775.04,1875.56v200.9l-365.58-1.71c-1.3-2.49-1.58-5.2-1.78-7.97-3.27-45.01-.52-97.75-1.5-143.92-.3-14.25.38-28.57.06-42.81l368.8-4.49Z"/>
  <path d="M1862.05,529.22c31.79,11.36,69.5,18.65,98.82,35.37,45.4,25.9,91.68,76.66,118.81,121.06,3.06,5.01,5.13,12.45,8.71,16.78,5.18,6.25,17.92,12.63,24.8,18.67,18.53,16.28,45.93,48.12,62.95,67.48,17.99,20.47,39.16,51.53,56.16,74.28,80.12,107.23,137.12,204.8,142.52,343.23,2.55,65.17-40.07,142.59-114.62,132.62-7.06-.94-22.3-8.53-28.22-7.06-19.02,13.77-41.44,23.93-60.69,36.84-10.48,7.03-19.2,16.34-29.02,23.45-5.74,4.15-35.73,20.82-37.07,24.4-.36,5.48-1.96,10.68-1.9,16.22.33,28.18,4.85,56.33,4.67,85.5-.47,74.09-6.83,144.28-3.08,218.84,2.74,54.36-5.4,104.84-4.55,158.97.09,5.8,4.78,16.87-5.52,18.43-8.72,1.33-10.42-10.64-10.96-16.94-4.39-51.49,7.27-106.26,4.54-160.46-3.76-74.74,2.57-145.82,3.08-220.33.21-29.8-2.01-59.71-5.31-89.27-19.81,14.43-36.94,31.08-57.84,44.1-29.29,18.25-62.54,39.32-92.37,56.05-20.42,11.44-42.75,19.82-62.93,31.52-17.8,10.32-33.18,24.08-50.67,34.78-41.37,25.3-84.91,44.54-129.34,62.55-2.91,1.18-7.1,6.04-10.13,7.87l-1.51-3.09c-21.8,7.53-52.99,11.82-76.05,8.7-7.62-1.03-45.64-17.62-50.67-22.79-3.45-3.55-4.88-8.59-8.92-11.31-.75,12.9-.83,36.14-12.48,43.76-9.36,6.12-42.13,10.82-54.27,11.69-52.43,3.75-123.48,4.02-170.66-22.69-17.47-9.89-15.79-16.61-26.58-28.89-17.43-19.85-69.35-42.87-93.83-57.59-18.68-11.23-35.32-24.66-54.95-35-15.35-8.08-31.86-13.86-47.3-21.66-38.48-19.44-75.57-43.9-114.1-63.54,1.52,28.64-2.07,59.36-.07,87.76.83,11.75,5.23,24.29,6.11,35.87,1.78,23.58-1.95,50.6-1.61,75.08.92,67.5,13.61,134.55,3,202.28-2.58,20.68,3.68,51.03.02,70.49-1.08,5.77-7.55,8.65-12.46,5.4-2.41-1.59-3.8-9.75-4.05-12.8-4.02-48.39,6.57-98.97,4.63-147.06-1-24.91-5.2-51.48-6.13-76.33-1.43-38.24,2.78-79.34.12-117.06-.65-9.29-3.96-19.08-4.61-28.37-1.87-26.58,2.4-56.14.03-82.49-.33-3.66-3.79-20.97-5.28-23.21-1.21-1.82-19.16-10.4-23.06-12.92-16.54-10.67-32.86-21.06-49.47-31.49-17.99-11.3-32.96-27.5-51.22-38.73-34.93-21.5-55.64,4.89-90.98,10.71-67.47,11.12-103.4-18.92-124.81-79.76-23.38-66.42,16.62-182.41,43.25-246.18,30.8-73.74,82.1-155.8,135.89-214.93,28.91-31.79,67.19-73.65,99.73-101.17,16.01-13.54,35.45-21.4,55.11-28.1,14.1-39.28,52.62-69.27,85.12-94.03,35.53-27.06,89.66-47.89,132.98-54.28,1.81-.27,11.67-3.64,11.62-4.98-6.39-5.61-14.56-8.18-21.45-13-22.52-15.76-41.87-53.4-51.6-78.83-28-73.14-22.2-143.1,19.38-209.25,22.85-36.35,55.36-60.35,90.72-83.19,51.29-33.14,115.65-37.37,174.87-47.01,56.7-9.23,100.35-18.8,159.14-13.23,77.39,7.34,147.98,17.95,221.51,43.84,10.62,3.74,26.54,10.4,35.52,16.95,48.56,35.42,98.45,97.87,106.32,159.04,5.62,43.71,7.24,112.42-14.48,151.5-8.81,15.84-21.43,33.36-33.27,46.91ZM1151.91,516.79c18.22,22.36,72.8,49.08,100.92,55.74,107.19,25.37,236.78,24.07,345.93,12,69.69-7.71,190.94-21.18,247.28-63.05,26.87-19.97,48.06-70.96,50.54-103.88,7.28-96.57-15.38-163.5-93.16-221.79-39.44-29.56-81.6-32.47-126.64-48.77-30.4-11-57.75-10.22-89.83-13.62-17.39-1.84-35.05-6.37-52.5-7.47-53.34-3.36-95.77,6.33-147.15,14.73-52.71,8.62-117.44,12.74-162.76,42.21-20.58,13.38-76.66,60.69-89.33,80.49-19.69,30.76-31.25,61.79-33.31,98.62-3.08,54.95,13.38,101.93,42.06,147.73l2.22-2.98c3.2,2.44,3.49,7.3,5.72,10.03ZM1682.15,1211.39h-23.24c-3.63,0-5.28-2.17-10.76-.38-9.81,3.21-20.32,12.24-29.46,17.13-20.67,11.04-52.22,24.97-69.83,39.61-9.75,8.1-8.24,14.71-7.62,26.84.26,5.12,2.46,31.68,9.45,30.56,15.33-10.64,27.19-25.81,40.72-38.83,9.33-8.98,20.81-16.32,29.28-26.19,4.55-5.3,4.66-12.71,16.15-7.16,13.15,6.34-7.15,22.34-12.37,27.43-23.19,22.68-48.46,43.8-72.04,65.89-3.27,3.06-8.05,6.7-8.28,11.2l7.58,75.79c.96,1.15,19.19-10.47,22.43-11.28,4.9-1.24,9.28-.13,13.94-1.05,6.61-1.3,39.02-19.51,32.3,2.3-1.49,4.83-31.34,14.26-38.24,17.25-4.69,2.04-8.52,5.3-13.54,7.45-8.61,3.67-12.96-1.27-13.98,11.51-1.02,12.76,5.2,33.71,6.05,48.06.72,12.16-.5,24.55.02,36.72,6.78,2.01,10.28-3.71,14.93-5.31,14.47-4.98,29.68-9.31,44.35-14.12,3.87-1.27,15.29-9.69,18.43-.57,4.8,13.94-17.48,15.6-25.66,18.83-12.33,4.87-24.32,10.94-36.67,15.8-5.65,2.22-20.46,3.89-21.41,10.19,4.33,18.73-4.6,58.93,15.46,69.93,8.78,4.82,22.3,5.71,31.05,9.43,3.36,1.43,5.34,4.6,7.87,5.63,7.13,2.9,48.13-1.35,56.98-3.72,6.38-1.71,11.82-7.56,17.57-9.42,21.55-6.97,33.63-9.1,55.02-19.94,22.8-11.56,50.11-25.95,71.95-38.99,21.03-12.56,39.43-29.25,60.96-40.99,58.8-32.06,120.14-61.5,174.12-101.73,46.11-34.37,93.09-67.55,141.59-98.28,13.44-8.51,26.73-17.23,40.24-25.64,1.22-.76,1.65-1.93,2.26-3.11,4.54-2.36,29.03,10.48,36.46,11.5,15.45,2.13,32.87-1.59,44.87-11.83,35.88-30.6,48.96-60.78,47.26-108.79-4.67-131.31-63.44-229.65-139.53-331.23-16.24-21.67-37.69-53.5-54.85-72.58-6.42-7.14-14.72-12.84-20.83-19.65-12.2-13.58-24.22-31.15-37.39-43.57-7.34-6.92-25.65-16.6-30.13-22.34-6.52-8.36-12.12-25.68-19.51-35.96-22.44-31.25-55.38-66.84-87.11-88.3-29.02-19.62-56.26-27.59-89.3-38.13-6.95-2.22-18.22-3.31-24-5.98-3.1-1.43-4.87-5.53-7.84-5.6-1.64-.04-21.57,11.38-25.73,13.26-39.21,17.79-81.87,28.02-124.4,34.51-142.48,21.75-306.09,33.61-447.37.99-18.38-4.24-35.51-12.12-53.07-18.79-25.73,8.74-57.65,11.24-83.36,18.69-9.11,2.64-33.84,15.85-43.49,20.97-29.45,15.62-88.09,60.89-103.19,90.2-3.48,6.76-5.34,18.43-11.39,23.09-4.56,3.51-17.54,5.84-24.28,8.7-18.24,7.75-24.25,13.74-38.12,26.34-55.54,50.43-116.29,114.32-157,177.33-55.35,85.69-109.37,205.56-115.69,308.6-1.95,31.8,10.01,72.19,30.7,96.7,24.67,29.24,70.23,27.75,103.85,16.87,19.25-6.23,41.01-19.91,62.92-12.74,21.71,7.1,50.68,37.02,71.35,50.08,81.59,51.58,167.25,93.55,252.38,138.91,19.62,10.46,36.26,23.75,54.95,35,27.77,16.7,91.25,45.11,106.6,71.84.71,1.24-.36,3.25.75,5.14,8.14,13.9,59.78,26.52,75.98,29.03,34.85,5.41,100.18,3.88,134.34-4.74,12.72-3.21,12.52-8.02,14.47-20.01,2.8-17.13,5.91-57.78.14-73.24-4.37-11.69-16.66-2.58-23.56-1.16-9.25,1.91-23.29,4.31-32.56,4.92-7.19.47-28.37,2.54-29.33-6.86-1.43-13.92,16.05-7.94,21.77-8.19,17.75-.78,27.43-8.62,42-10.47,3.86-.49,13.07,1.34,15.03-1.46,5.89-23.31,3.13-47.49,3.62-71.34.15-7.35,2.92-13.79,1.22-22.08-1.03-5-12.29-18.12-16.92-19.04-9.66-1.92-12.35,3.55-18.15,3.99-12.41.95-11.69,1.51-22.98,4.28-8.44,2.07-48.51,7.65-39.81-9.83,2.38-4.78,26.46-3.52,32.91-4.57,12.61-2.07,31.43-13.21,44.89-11.81,3.03.31,5.65,1.84,8.39,2.91,1.33-1.03,4.35-22.61,4.58-26.18.84-13.07,1.36-36.92-.06-49.54-1.02-9.09-3.79-12.98-12.02-16.47-18.5-7.84-42.72-13.58-62.23-20.22-7.59-2.59-17.13-9.25-25.53-8.84-4.49.22-11.76,7.08-16.05-2.05-10.18-21.67,30.49-14.17,40.89-9.41,2.96,1.35,4.96,4.21,6.95,5.05,19.79,8.31,42.28,14.26,62.81,20.87,2.62-.46,9.77-30.37,7.45-34.16-1.22-1.99-35.36-17.95-40.23-19.73-30.94-11.3-40.93.55-68.46,8.52-15.18,4.4-29.96,5.87-45.64,3.65-10.08-1.43-7.93-7.32-11.38-9.62-1.71-1.14-4.88-.93-7.01-1.99-68.67-34.12-132.89-76.75-200.31-113.03-41.43-22.29-87.17-40.7-124.67-68.73-12.64-9.45-24.53-22.3-39.29-29.68-7.7-3.85-40.26-12.9-42.16-19.32s1.85-12.35,8.76-11.84c12.41,6.96,28.04,10.46,40.47,16.6,25,12.33,44.71,36.57,69.39,50.54,42.93,24.3,91.01,45.03,134.5,69.39,50.61,28.35,139.97,93.03,194.45,99.38,21.6,2.52,31.58-13.34,51.27-16.93,13.16-2.4,34.19,3.92,46.96,8.66,5.56,2.06,35.64,18,37.66,17.53,5.3-9.13,12.81-13.45,21.43-19.08,18.04-11.78,37.06-20.9,55.75-31.2,10.4-5.74,37.4-24.69,47.39-24.69,13.89,0,31.1,5.14,45.75,4.03,22.22-13.38,44.87-30.9,68.97-40.6,10.22-4.11,21.39-5.7,31.29-10.69,17.73-8.93,36.12-25.6,53.66-36.29,30.45-18.56,67.77-40.44,99.39-56.52,25.06-12.75,52.83-18.74,77.98-29.96,5.19-2.31,9.56-8.99,16.21-7.27,7.76,2,7.31,8.83,2.59,14.09-10.16,11.32-69.07,27.3-87.83,36.6-31.62,15.67-70.79,39.07-101.17,57.75-17.31,10.64-35.21,26.78-52.69,35.76-10.55,5.42-22.53,7.13-33.44,11.53-33.31,13.42-66.02,39.54-91.91,64l-8.6,2.1c-15.22-9.71,4.92-18.16,10.53-26.4ZM1536.71,1442.28l-2.23-20.98c-3.64,6.95-6.49,17.34,2.23,20.98ZM1538.24,1560.72c4.44-2.29,6.94-6.34,7.51-11.21,2.22-18.75-3.21-40.28-3.05-59.25-2.62-.35-1.41,3.4-1.48,5.22-.9,21.94,1.35,43.38-2.98,65.23Z"/>
  <path d="M351.18,2174.57c0,25.57-20.73,46.3-46.3,46.3s-46.3-20.73-46.3-46.3,20.73-46.3,46.3-46.3,46.3,20.73,46.3,46.3ZM336.08,2174.49c0-17.17-13.92-31.09-31.09-31.09s-31.09,13.92-31.09,31.09,13.92,31.09,31.09,31.09,31.09-13.92,31.09-31.09Z"/>
  <path d="M878.6,2218.89v-88.46h41.23c1.62,0,12.01,4.06,14.3,5.19,28.85,14.28,29.8,61.85,1.8,76.87-2.33,1.25-15.93,6.39-17.6,6.39h-39.73ZM893.59,2205.4c23.34,1.01,46.56-2.37,46.56-30.73,0-28.78-22.79-32.16-46.56-30.73v61.47Z"/>
  <path d="M1322.35,2392.8v-88.46h41.23c1.62,0,12.01,4.06,14.3,5.19,28.85,14.28,29.8,61.85,1.8,76.87-2.33,1.25-15.93,6.39-17.6,6.39h-39.73ZM1337.34,2379.31c23.34,1.01,46.56-2.37,46.56-30.73,0-28.78-22.79-32.16-46.56-30.73v61.47Z"/>
  <path d="M1688.15,2218.14c-4.12,34.99-52.83,38.6-61.46,5.26,4.11.58,10.32-1.04,13.99.23,2.87.99,4.72,8.9,14.13,9.97,15.36,1.76,19.83-12.45,18.33-25.21-4.24,2.89-7.65,7.54-13.07,8.65-48.84,10.01-50.46-70.28-2.78-63.99,8.27,1.09,10.54,5.97,17.36,8.85v-7.5s13.5,0,13.5,0c-1.72,20.16,2.32,44.02,0,63.72ZM1648.74,2166.74c-15.22,3.47-16.02,34.45,3.39,38.05,26.94,5,30.39-45.76-3.39-38.05Z"/>
  <path d="M2181.37,2154.42h13.5s.73,7.49.73,7.49c9.04-12.08,29.31-12.88,37.51.02,10.69-8.99,26.53-14.01,38.25-3.8,1.79,1.56,7.45,8.96,7.45,10.54v50.22h-13.49v-39.73c0-11.16-11.85-17.87-21.56-11.06-.96.67-5.43,6.13-5.43,6.56v44.23h-14.99v-41.23c0-10.88-14.2-16.14-22.44-8.95-.83.73-4.54,7.01-4.54,7.45v42.73h-14.99v-64.47Z"/>
  <path d="M1437.78,2154.42h13.5s.73,7.49.73,7.49c9.04-12.08,29.31-12.88,37.51.02,10.69-8.99,26.53-14.01,38.25-3.8,1.79,1.56,7.45,8.96,7.45,10.54v50.22h-13.49v-39.73c0-11.16-11.85-17.87-21.56-11.06-.96.67-5.43,6.13-5.43,6.56v44.23h-14.99v-41.23c0-10.88-14.2-16.14-22.44-8.95-.83.73-4.54,7.01-4.54,7.45v42.73h-14.99v-64.47Z"/>
  <path d="M2520.2,2197.9c3.84.6,2.33-.35,3.13-2.11,2.79-6.15,10.45-38.8,13.29-40.68l14.33.79,13.46,43.5,14.4-44.82,14.84-.15-21.13,64.31-15.01-.74-14.07-42.6-14.39,43.34-14.64-.05-22.69-64.25,15.76,1.46,12.73,42Z"/>
  <path d="M535.29,2125.94v92.95h-13.5s-.74-8.99-.74-8.99c-15.63,20.2-45.07,9.85-50.45-14.03-7.37-32.69,22.9-57.69,49.7-33.96v-35.98h14.99ZM495.93,2166.79c-17.09,4.37-15.98,45.32,11.28,39.76,20.81-4.25,18.14-47.28-11.28-39.76Z"/>
  <path d="M1347.83,2125.94v92.95h-13.5s-.74-8.99-.74-8.99c-15.63,20.2-45.07,9.85-50.45-14.03-7.37-32.69,22.9-57.69,49.7-33.96v-35.98h14.99ZM1308.48,2166.79c-17.09,4.37-15.98,45.32,11.28,39.76,20.81-4.25,18.14-47.28-11.28-39.76Z"/>
  <path d="M1200.92,2205.4h38.98v13.49h-61.47l1.41-13.95c10.51-10.99,29.98-25.06,38.38-36.96,18.14-25.72-26.69-39.18-24.81-6.07l-13.57-.65c-10.34-36.37,52.34-45.12,56.92-11.96,4.06,29.33-20.47,36.85-35.85,56.09Z"/>
  <path d="M2694.09,2125.94v34.48c12.34-12.59,35.28-10.01,41.26,7.46.36,1.04,2.22,9.28,2.22,9.78v41.23h-14.99v-39.73c0-1.14-3.27-9.48-4.4-10.59-6.84-6.78-24.09-.71-24.09,7.59v42.73h-14.99v-92.95h14.99Z"/>
  <path d="M754.16,2125.94v34.48c12.34-12.59,35.28-10.01,41.26,7.46.36,1.04,2.22,9.28,2.22,9.78v41.23h-14.99v-39.73c0-1.14-3.27-9.48-4.4-10.59-6.84-6.78-24.09-.71-24.09,7.59v42.73h-14.99v-92.95h14.99Z"/>
  <path d="M2019.46,2190.4h-49.47c1.62,13.65,12.39,19.96,25.56,15.82,5.23-1.64,5.38-7.53,9.65-8.34,12.25-2.31,16.19-.64,8.26,9.76-19.27,25.26-58.57,11.11-58.58-20.99,0-47.3,69.09-43.83,64.57,3.75ZM2004.47,2179.91c-3.2-20.71-30.42-20-34.48,0h34.48Z"/>
  <path d="M2167.88,2190.4h-49.47c1.62,13.65,12.39,19.96,25.56,15.82,5.23-1.64,5.38-7.53,9.65-8.34,12.25-2.31,16.19-.64,8.26,9.76-19.27,25.26-58.57,11.11-58.58-20.99,0-47.3,69.09-43.83,64.57,3.75ZM2152.89,2179.91c-3.2-20.71-30.42-20-34.48,0h34.48Z"/>
  <path d="M1764.6,2190.4h-49.47c1.62,13.65,12.39,19.96,25.56,15.82,5.23-1.64,5.38-7.53,9.65-8.34,12.25-2.31,16.19-.64,8.26,9.76-19.27,25.26-58.57,11.11-58.58-20.99,0-47.3,69.09-43.83,64.57,3.75ZM1749.61,2179.91c-3.2-20.71-30.42-20-34.48,0h34.48Z"/>
  <path d="M1031.51,2190.4h-49.47c1.62,13.65,12.39,19.96,25.56,15.82,5.23-1.64,5.38-7.53,9.65-8.34,12.25-2.31,16.19-.64,8.26,9.76-19.27,25.26-58.57,11.11-58.58-20.99,0-47.3,69.09-43.83,64.57,3.75ZM1016.52,2179.91c-3.2-20.71-30.42-20-34.48,0h34.48Z"/>
  <path d="M1475.26,2364.32h-49.47c1.62,13.65,12.39,19.96,25.56,15.82,5.23-1.64,5.38-7.53,9.65-8.34,12.25-2.31,16.19-.64,8.26,9.76-19.27,25.26-58.57,11.11-58.58-20.99,0-47.3,69.09-43.83,64.57,3.75ZM1460.27,2353.82c-3.2-20.71-30.42-20-34.48,0h34.48Z"/>
  <path d="M613.24,2190.4h-49.47c1.62,13.65,12.39,19.96,25.56,15.82,5.23-1.64,5.38-7.53,9.65-8.34,12.25-2.31,16.19-.64,8.26,9.76-19.27,25.26-58.57,11.11-58.58-20.99,0-47.3,69.09-43.83,64.57,3.75ZM598.25,2179.91c-3.2-20.71-30.42-20-34.48,0h34.48Z"/>
  <path d="M2389.76,2190.4h-49.47c1.62,13.65,12.39,19.96,25.56,15.82,5.23-1.64,5.38-7.53,9.65-8.34,12.25-2.31,16.19-.64,8.26,9.76-19.27,25.26-58.57,11.11-58.58-20.99,0-47.3,69.09-43.83,64.57,3.75ZM2374.76,2179.91c-3.2-20.71-30.42-20-34.48,0h34.48Z"/>
  <path d="M682.21,2218.9h-13.51s0-7.5,0-7.5c-16.28,15.93-51.11,11.66-44.64-16.93,3.77-16.63,42.79-14.03,43.1-18.29-2.19-14.02-24.08-16.32-27.86-2.17l-14.07-.1c-.32-27.3,51.56-28.29,55.38-3.64,2.28,14.76-1.98,33.25,1.6,48.63ZM667.21,2188.91c-1.2-1.11-22.26,2.62-25.08,4.14-7.3,3.96-6.03,13.77,1.88,15.29,14.24,2.74,22.78-5.57,23.2-19.44Z"/>
  <path d="M1100.48,2218.9h-13.51s0-7.5,0-7.5c-16.28,15.93-51.11,11.66-44.64-16.93,3.77-16.63,42.79-14.03,43.1-18.29-2.19-14.02-24.08-16.32-27.86-2.17l-14.07-.1c-.32-27.3,51.56-28.29,55.38-3.64,2.28,14.76-1.98,33.25,1.6,48.63ZM1085.47,2188.91c-1.2-1.11-22.26,2.62-25.08,4.14-7.3,3.96-6.03,13.77,1.88,15.29,14.24,2.74,22.78-5.57,23.2-19.44Z"/>
  <path d="M1421.3,2218.9h-13.51s0-7.5,0-7.5c-16.28,15.93-51.11,11.66-44.64-16.93,3.77-16.63,42.79-14.03,43.1-18.29-2.19-14.02-24.08-16.32-27.86-2.17l-14.07-.1c-.32-27.3,51.56-28.29,55.38-3.64,2.28,14.76-1.98,33.25,1.6,48.63ZM1406.29,2188.91c-1.2-1.11-22.26,2.62-25.08,4.14-7.3,3.96-6.03,13.77,1.88,15.29,14.24,2.74,22.78-5.57,23.2-19.44Z"/>
  <path d="M1614.69,2392.81h-13.51s0-7.5,0-7.5c-16.28,15.93-51.11,11.66-44.64-16.93,3.77-16.63,42.79-14.03,43.1-18.29-2.19-14.02-24.08-16.32-27.86-2.17l-14.07-.1c-.32-27.3,51.56-28.29,55.38-3.64,2.28,14.76-1.98,33.25,1.6,48.63ZM1599.69,2362.83c-1.2-1.11-22.26,2.62-25.08,4.14-7.3,3.96-6.03,13.77,1.88,15.29,14.24,2.74,22.78-5.57,23.2-19.44Z"/>
  <path d="M1610.2,2218.9h-13.51s0-7.5,0-7.5c-16.28,15.93-51.11,11.66-44.64-16.93,3.77-16.63,42.79-14.03,43.1-18.29-2.19-14.02-24.08-16.32-27.86-2.17l-14.07-.1c-.32-27.3,51.56-28.29,55.38-3.64,2.28,14.76-1.98,33.25,1.6,48.63ZM1595.19,2188.91c-1.2-1.11-22.26,2.62-25.08,4.14-7.3,3.96-6.03,13.77,1.88,15.29,14.24,2.74,22.78-5.57,23.2-19.44Z"/>
  <path d="M1913.48,2186.51c0,18.76-15.21,33.97-33.97,33.97s-33.97-15.21-33.97-33.97,15.21-33.97,33.97-33.97,33.97,15.21,33.97,33.97ZM1893.02,2201.89c8.87-9.28,5.95-32.82-7.81-35.39-33.26-6.23-31.94,47.25-.24,40.08,1.72-.39,6.82-3.4,8.05-4.69Z"/>
  <path d="M424.35,2218.89h-14.99v-39.73c0-7.03-5.79-13.51-12.98-13.72-5.7-.17-15.5,4.68-15.5,10.72v42.73h-14.99v-64.47h13.5s.73,7.49.73,7.49c11.19-14.56,35.9-11.92,42.02,5.97.36,1.04,2.22,9.28,2.22,9.78v41.23Z"/>
  <path d="M2091.42,2218.89h-14.99v-39.73c0-7.03-5.79-13.51-12.98-13.72-5.7-.17-15.5,4.68-15.5,10.72v42.73h-14.99v-64.47h13.5s.73,7.49.73,7.49c11.19-14.56,35.9-11.92,42.02,5.97.36,1.04,2.22,9.28,2.22,9.78v41.23Z"/>
  <path d="M1652.18,2373.31c2.09-.13,2.32-2.27,3.04-3.69,6.23-12.3,10.16-28.09,15.11-41.11l16.32-.16-36.9,90.04-14.07-.1,9.74-27.17-24.73-62.76,15.74,1.48,15.75,43.48Z"/>
  <path d="M2452.71,2173.9l-13.99.08c-3.2-17.56-32.87-5.79-21.08,2.79,8.85,6.44,31.7,1.74,34.73,19.24,5.46,31.51-55.4,33.35-53.63,1.89l12.5-.07c2.17,15.65,33.99,11.5,26.23-1.2-3.51-5.74-33.68-1.48-35.77-20.44-3.31-30.05,48.08-31.78,51.01-2.28Z"/>
  <path d="M1547.22,2350.82c-4.12-.57-10.29,1.03-13.99-.24-2.42-.83-4.11-6.57-7.93-8.56-28.19-14.71-37.18,39.76-7.3,38.92,12.43-.35,13.43-11.75,15.23-12.19l13.99.07c-6.88,38.27-61.41,31.52-63.01-6.83-1.66-39.75,54.33-49.95,63.01-11.18Z"/>
  <path d="M2640.12,2166.42l-10.52-.86.02-11.14c3.24-.18,9.06,1.31,10.29-2.45l.2-14.04h13.51s.65,15.1.65,15.1l12.85,1.4-.66,10.6-12.85,1.39c2.12,11.11-6.89,43.49,11.99,38.99l.02,13.5c-7.1.03-16.33,1.2-21.67-4.58-.58-.63-3.83-6.28-3.83-6.67v-41.23Z"/>
  <path d="M1814.08,2166.42l-10.52-.86.02-11.14c3.24-.18,9.06,1.31,10.29-2.45l.2-14.04h13.51s.65,15.1.65,15.1l12.85,1.4-.66,10.6-12.85,1.39c2.12,11.11-6.89,43.49,11.99,38.99l.02,13.5c-7.1.03-16.33,1.2-21.67-4.58-.58-.63-3.83-6.28-3.83-6.67v-41.23Z"/>
  <path d="M700.19,2166.42l-10.52-.86.02-11.14c3.24-.18,9.06,1.31,10.29-2.45l.2-14.04h13.51s.65,15.1.65,15.1l12.85,1.4-.66,10.6-12.85,1.39c2.12,11.11-6.89,43.49,11.99,38.99l.02,13.5c-7.1.03-16.33,1.2-21.67-4.58-.58-.63-3.83-6.28-3.83-6.67v-41.23Z"/>
  <rect x="1116.96" y="2125.94" width="14.99" height="92.95"/>
  <rect x="2296.81" y="2154.42" width="14.99" height="64.47"/>
  <rect x="2605.64" y="2154.42" width="14.99" height="64.47"/>
  <circle cx="820.4" cy="2163.35" r="10.25"/>
  <circle cx="820.38" cy="2209.76" r="10.22"/>
  <circle cx="2613.08" cy="2133.83" r="9.3"/>
  <circle cx="2304.25" cy="2133.83" r="9.3"/>
  <path d="M1620.66,1947.54c-2.61-.36-1.41,3.41-1.48,5.22-.89,23.83-1.91,43.72-4.48,67.5-.52,4.78.78,10.48-.06,14.94-1.12,5.92-8.85,9.17-13.1,4.92-7.06-7.07.56-43.21,1.13-54.37,1.12-21.92-.6-44,1.53-65.94.6-6.2,1.01-17.96,5.2-21.78,6.76-6.16,13.12-.78,16.54,6.01,8.17,16.21,10.51,41.41,16.82,59.64,6.53,18.86,21.02,52.96,38.56,63.39,2.3,1.37,4.06,1.94,6.76,1.36,8.98-42.79-1.9-85.08-11.68-126.64.09-8.28,9.58-15.12,14.87-7.59,1.06,1.51,4.56,17.92,5.4,21.58,7.58,33.13,15.42,73.44,9.09,107.09-7.86,41.78-38.18,16.89-54.21-3.49-15.1-19.2-22.57-49.08-30.88-71.83Z"/>
  <path d="M1509.23,2012.97c17.7-16.51,19.42-67.12,18.57-90.25-.3-8.15-4.57-31-2.74-37.11,1.8-6.02,9.84-8.85,14.72-3.34,11.63,13.11,3.23,62.22,4.39,81.06,1.28,20.86,7.99,45.55,19.72,62.74,1.41,2.06,4.16,2.58,5.54,4.96,2.97,5.11,2.5,19.24-3.75,21.18-14.37,4.45-15.75-19.1-19.66-27.75-2.83-6.28-9.83-12.29-10.8-19.95-6.49,5.73-8.38,14.26-14.94,20.27-27.03,24.74-56.98-5.29-62.59-33.42-6.18-31.02-5.91-68.39-6.34-100.1-.08-6.13-4.2-15.35,5.88-18.08,13.36-3.62,8.51,27.03,8.97,34.69,1.37,22.4,2.6,67.27,8.97,86.98,4.17,12.88,20.87,30.42,34.04,18.14Z"/>
  <path d="M1424.72,2034.04c-.97-.8-9.64-19.19-11.2-22.52-2.34-4.99-4.21-10.69-5.79-15.98-16.66,2.25-34.91,2.37-51.54.16l-16.2,47.43c-6.93,3.62-13.9,2.91-15.52-5.58,6.11-19.81,12.49-39.59,18.8-59.36,9.34-29.28,18.6-68.86,29.99-95.95,9.85-23.43,20.67-5.16,25.6,9.01,10.61,30.5,13.89,65.93,23.17,96.77,3.53,11.72,15.64,29.7,16.99,38.58,1.19,7.78-8.33,12.38-14.3,7.44ZM1403.3,1980.51l-18.74-76.48-24.74,76.48h43.48Z"/>
  <path d="M1278.87,1901.06l5.99,63.72c.87,14.16-1.12,29.44.04,43.44.65,7.85,7.57,25.22,2.21,30.73-3.56,3.66-9.55,3.31-12.77-.68-2.97-3.67-5.66-29.59-6.01-35.96-1.72-31.54,1.41-63.98-6.11-95.09-4.48-2.85-35.67,11.22-44.32,11.3-11.26.1-12.32-11.99-.16-16.36,31.38-11.28,64.38-17.2,96.78-24.79,6.07-.16,10.92,4.28,9.07,10.6-2.66,9.08-35.93,10.84-44.71,13.08Z"/>
  <path d="M1760.11,1892.06c.32,20.82,4.94,41.5,5.97,62.23.97,19.46.02,40.38-.05,60.02-.02,6.11,3.93,17.88-8.07,17.15s-6.91-13.68-6.79-20.15c.71-39.93-7.35-77.84-7.66-115.46-.03-4.1-.52-7.83,3.06-10.54-5.81-8.09-36.12-4.24-32.73-17.66,2.4-9.52,19.97-4.75,26.41-2.96,22.82,6.34,42.09,23.9,66.31,26.63,3.19,3.34,3.12,9.87-.85,12.62-11.6,8.03-43.94-13.72-45.6-11.88Z"/>
  <path class="st0" d="M1682.15,1211.39c-5.61,8.24-25.75,16.69-10.53,26.4l8.6-2.1c25.89-24.46,58.6-50.59,91.91-64,10.91-4.4,22.9-6.11,33.44-11.53,17.48-8.98,35.38-25.13,52.69-35.76,30.38-18.67,69.54-42.08,101.17-57.75,18.76-9.3,77.67-25.28,87.83-36.6,4.72-5.26,5.17-12.09-2.59-14.09-6.66-1.72-11.02,4.95-16.21,7.27-25.15,11.22-52.92,17.21-77.98,29.96-31.62,16.09-68.94,37.96-99.39,56.52-17.54,10.69-35.93,27.36-53.66,36.29-9.9,4.99-21.07,6.57-31.29,10.69-24.1,9.7-46.75,27.22-68.97,40.6-14.65,1.12-31.86-4.03-45.75-4.03-10,0-36.99,18.96-47.39,24.69-18.69,10.31-37.71,19.43-55.75,31.2-8.62,5.63-16.14,9.94-21.43,19.08-2.02.48-32.1-15.46-37.66-17.53-12.77-4.74-33.8-11.06-46.96-8.66-19.69,3.59-29.67,19.45-51.27,16.93-54.48-6.35-143.84-71.03-194.45-99.38-43.49-24.36-91.57-45.09-134.5-69.39-24.68-13.97-44.4-38.21-69.39-50.54-12.43-6.13-28.06-9.64-40.47-16.6-6.91-.51-10.75,5.11-8.76,11.84s34.46,15.47,42.16,19.32c14.75,7.38,26.64,20.23,39.29,29.68,37.49,28.03,83.24,46.44,124.67,68.73,67.41,36.27,131.64,78.91,200.31,113.03,2.13,1.06,5.29.85,7.01,1.99,3.45,2.3,1.3,8.19,11.38,9.62,15.69,2.22,30.46.75,45.64-3.65,27.53-7.98,37.52-19.83,68.46-8.52,4.87,1.78,39.01,17.74,40.23,19.73,2.33,3.79-4.83,33.7-7.45,34.16-20.53-6.61-43.02-12.56-62.81-20.87-1.99-.83-3.99-3.69-6.95-5.05-10.4-4.76-51.08-12.26-40.89,9.41,4.29,9.12,11.56,2.27,16.05,2.05,8.4-.41,17.94,6.25,25.53,8.84,19.51,6.64,43.73,12.38,62.23,20.22,8.22,3.49,11,7.37,12.02,16.47,1.41,12.62.89,36.48.06,49.54-.23,3.57-3.25,25.14-4.58,26.18-2.75-1.07-5.36-2.59-8.39-2.91-13.46-1.39-32.28,9.74-44.89,11.81-6.45,1.06-30.53-.2-32.91,4.57-8.69,17.48,31.37,11.9,39.81,9.83,11.29-2.77,10.58-3.33,22.98-4.28,5.8-.44,8.48-5.91,18.15-3.99,4.63.92,15.9,14.04,16.92,19.04,1.7,8.29-1.07,14.74-1.22,22.08-.49,23.85,2.27,48.03-3.62,71.34-1.96,2.8-11.17.97-15.03,1.46-14.57,1.85-24.25,9.69-42,10.47-5.72.25-23.2-5.73-21.77,8.19.96,9.4,22.14,7.34,29.33,6.86,9.26-.61,23.31-3.01,32.56-4.92,6.89-1.43,19.19-10.53,23.56,1.16,5.78,15.45,2.66,56.11-.14,73.24-1.96,11.99-1.75,16.8-14.47,20.01-34.16,8.61-99.49,10.14-134.34,4.74-16.2-2.51-67.84-15.13-75.98-29.03-1.11-1.9-.04-3.9-.75-5.14-15.34-26.73-78.82-55.14-106.6-71.84-18.7-11.25-35.33-24.54-54.95-35-85.13-45.37-170.78-87.34-252.38-138.91-20.67-13.07-49.64-42.98-71.35-50.08-21.91-7.17-43.67,6.5-62.92,12.74-33.62,10.89-79.18,12.38-103.85-16.87-20.69-24.52-32.65-64.9-30.7-96.7,6.32-103.04,60.33-222.91,115.69-308.6,40.7-63.01,101.46-126.9,157-177.33,13.88-12.6,19.88-18.59,38.12-26.34,6.74-2.86,19.72-5.19,24.28-8.7,6.05-4.66,7.91-16.33,11.39-23.09,15.1-29.31,73.75-74.58,103.19-90.2,9.65-5.12,34.38-18.33,43.49-20.97,25.71-7.44,57.62-9.95,83.36-18.69,17.56,6.67,34.68,14.54,53.07,18.79,141.28,32.63,304.89,20.76,447.37-.99,42.53-6.49,85.2-16.72,124.4-34.51,4.16-1.89,24.09-13.3,25.73-13.26,2.97.07,4.75,4.17,7.84,5.6,5.78,2.67,17.05,3.77,24,5.98,33.04,10.54,60.28,18.51,89.3,38.13,31.73,21.46,64.67,57.05,87.11,88.3,7.39,10.29,12.99,27.6,19.51,35.96,4.48,5.74,22.79,15.42,30.13,22.34,13.17,12.42,25.19,29.99,37.39,43.57,6.11,6.81,14.41,12.51,20.83,19.65,17.16,19.08,38.61,50.91,54.85,72.58,76.09,101.57,134.85,199.92,139.53,331.23,1.71,48-11.37,78.18-47.26,108.79-12.01,10.24-29.42,13.97-44.87,11.83-7.43-1.02-31.92-13.86-36.46-11.5-.61,1.19-1.04,2.35-2.26,3.11-13.51,8.41-26.8,17.13-40.24,25.64-48.5,30.73-95.48,63.91-141.59,98.28-53.98,40.23-115.32,69.67-174.12,101.73-21.53,11.74-39.93,28.43-60.96,40.99-21.84,13.04-49.14,27.43-71.95,38.99-21.39,10.84-33.47,12.98-55.02,19.94-5.75,1.86-11.18,7.7-17.57,9.42-8.85,2.38-49.85,6.62-56.98,3.72-2.53-1.03-4.51-4.2-7.87-5.63-8.74-3.72-22.27-4.62-31.05-9.43-20.06-11-11.13-51.2-15.46-69.93.94-6.3,15.76-7.97,21.41-10.19,12.35-4.86,24.35-10.93,36.67-15.8,8.18-3.23,30.46-4.89,25.66-18.83-3.14-9.12-14.57-.7-18.43.57-14.67,4.81-29.88,9.14-44.35,14.12-4.66,1.6-8.15,7.32-14.93,5.31-.52-12.17.71-24.56-.02-36.72-.85-14.35-7.07-35.3-6.05-48.06,1.02-12.77,5.37-7.83,13.98-11.51,5.02-2.14,8.85-5.41,13.54-7.45,6.89-3,36.75-12.43,38.24-17.25,6.71-21.81-25.69-3.6-32.3-2.3-4.66.91-9.04-.19-13.94,1.05-3.24.82-21.47,12.43-22.43,11.28l-7.58-75.79c.22-4.5,5.01-8.14,8.28-11.2,23.58-22.08,48.85-43.21,72.04-65.89,5.21-5.1,25.52-21.09,12.37-27.43-11.49-5.54-11.6,1.86-16.15,7.16-8.47,9.87-19.95,17.21-29.28,26.19-13.53,13.02-25.38,28.19-40.72,38.83-7,1.12-9.19-25.44-9.45-30.56-.62-12.13-2.13-18.74,7.62-26.84,17.61-14.63,49.17-28.56,69.83-39.61,9.14-4.88,19.66-13.91,29.46-17.13,5.48-1.8,7.13.38,10.76.38h23.24Z"/>
  <path class="st0" d="M1151.91,516.79c-2.23-2.73-2.52-7.59-5.72-10.03l-2.22,2.98c-28.68-45.8-45.14-92.78-42.06-147.73,2.06-36.83,13.62-67.86,33.31-98.62,12.67-19.8,68.75-67.11,89.33-80.49,45.32-29.47,110.05-33.59,162.76-42.21,51.38-8.4,93.81-18.08,147.15-14.73,17.45,1.1,35.1,5.63,52.5,7.47,32.07,3.4,59.43,2.62,89.83,13.62,45.04,16.3,87.19,19.21,126.64,48.77,77.78,58.28,100.44,125.22,93.16,221.79-2.48,32.92-23.67,83.91-50.54,103.88-56.34,41.87-177.59,55.34-247.28,63.05-109.15,12.07-238.74,13.37-345.93-12-28.11-6.65-82.7-33.38-100.92-55.74ZM1744.58,324.28c-24.09,12.35-48.56,24.06-72.47,36.75-7.56,4.01-15.56,10.83-23.88,15.1-13.78,7.07-30.12,12.69-44.64,18.33-3.18,2.05-4.99,6.83-3.17,10.29,6.4,11.35,18.77-1.49,25.16.26,3.96,1.08,7.9,9.16,10.84,11.77,13.49,11.95,32.88,19.26,49.77,9.32,9.66-5.69,35.43-34.22,41.17-44.28,6.46-11.32,9.87-27.52,15.58-36.89,3.93-6.44,23.53-13.58,1.62-20.65ZM1327.1,402.01c3.58-2.11,27.56,14.85,23-9.23l-2.33-2.16c-42.01-14.16-84.43-29.87-123.87-50.04-5.24-2.68-17.67-13.37-23.76-6.26-8.35,9.75,10.04,14.64,13.5,19.52,2.64,3.73,5.8,16.24,8.99,22.5,19.77,38.77,73.63,73.21,104.48,25.67ZM1253.75,496.61c-4.42,4.41-1.02,10.38,3.72,12.79,5.92,3.01,26.14,8.09,33.63,9.85,51.03,12.01,100.26,10.39,151.91,13,41.44,2.09,86.86,8.55,128.79,4.33,36.67-3.69,73.23-13.09,109.79-17.64,7.74-.96,24.01,3,24.69-8.44.65-10.88-12.24-8.77-20.45-8.31-22.1,1.26-44.37,8.8-66.08,11.88-70.55,10.01-141.85,5.94-212.77,1.74-38.3-2.27-75.79-3.9-113.43-12.5-8.57-1.96-33.17-13.31-39.81-6.69Z"/>
  <path class="st0" d="M1538.24,1560.72c4.34-21.86,2.08-43.3,2.98-65.23.08-1.82-1.13-5.58,1.48-5.22-.16,18.96,5.26,40.5,3.05,59.25-.58,4.87-3.07,8.93-7.51,11.21Z"/>
  <path class="st0" d="M1536.71,1442.28c-8.72-3.64-5.87-14.03-2.23-20.98l2.23,20.98Z"/>
  <circle class="st0" cx="304.99" cy="2174.49" r="31.09"/>
  <path class="st0" d="M893.59,2205.4v-61.47c23.78-1.42,46.57,1.96,46.56,30.73,0,28.36-23.22,31.75-46.56,30.73Z"/>
  <path class="st0" d="M1337.34,2379.31v-61.47c23.78-1.42,46.57,1.96,46.56,30.73,0,28.36-23.22,31.75-46.56,30.73Z"/>
  <path class="st0" d="M1648.74,2166.74c33.78-7.7,30.33,43.05,3.39,38.05-19.41-3.6-18.61-34.58-3.39-38.05Z"/>
  <path class="st0" d="M495.93,2166.79c29.42-7.53,32.09,35.51,11.28,39.76-27.26,5.57-28.38-35.38-11.28-39.76Z"/>
  <path class="st0" d="M1308.48,2166.79c29.42-7.53,32.09,35.51,11.28,39.76-27.26,5.57-28.38-35.38-11.28-39.76Z"/>
  <path class="st0" d="M2004.47,2179.91h-34.48c4.06-20,31.28-20.71,34.48,0Z"/>
  <path class="st0" d="M2152.89,2179.91h-34.48c4.06-20,31.28-20.71,34.48,0Z"/>
  <path class="st0" d="M1749.61,2179.91h-34.48c4.06-20,31.28-20.71,34.48,0Z"/>
  <path class="st0" d="M1016.52,2179.91h-34.48c4.06-20,31.28-20.71,34.48,0Z"/>
  <path class="st0" d="M1460.27,2353.82h-34.48c4.06-20,31.28-20.71,34.48,0Z"/>
  <path class="st0" d="M598.25,2179.91h-34.48c4.06-20,31.28-20.71,34.48,0Z"/>
  <path class="st0" d="M2374.76,2179.91h-34.48c4.06-20,31.28-20.71,34.48,0Z"/>
  <path class="st0" d="M667.21,2188.91c-.42,13.87-8.96,22.18-23.2,19.44-7.91-1.52-9.18-11.33-1.88-15.29,2.81-1.53,23.88-5.26,25.08-4.14Z"/>
  <path class="st0" d="M1085.47,2188.91c-.42,13.87-8.96,22.18-23.2,19.44-7.91-1.52-9.18-11.33-1.88-15.29,2.81-1.53,23.88-5.26,25.08-4.14Z"/>
  <path class="st0" d="M1406.29,2188.91c-.42,13.87-8.96,22.18-23.2,19.44-7.91-1.52-9.18-11.33-1.88-15.29,2.81-1.53,23.88-5.26,25.08-4.14Z"/>
  <path class="st0" d="M1599.69,2362.83c-.42,13.87-8.96,22.18-23.2,19.44-7.91-1.52-9.18-11.33-1.88-15.29,2.81-1.53,23.88-5.26,25.08-4.14Z"/>
  <path class="st0" d="M1595.19,2188.91c-.42,13.87-8.96,22.18-23.2,19.44-7.91-1.52-9.18-11.33-1.88-15.29,2.81-1.53,23.88-5.26,25.08-4.14Z"/>
  <path class="st0" d="M1893.02,2201.89c-1.23,1.28-6.33,4.3-8.05,4.69-31.7,7.17-33.02-46.31.24-40.08,13.76,2.58,16.68,26.11,7.81,35.39Z"/>
  <polygon class="st0" points="1403.3 1980.51 1359.83 1980.51 1384.56 1904.03 1403.3 1980.51"/>
  <path d="M1253.75,496.61c6.63-6.61,31.23,4.73,39.81,6.69,37.64,8.6,75.13,10.23,113.43,12.5,70.92,4.2,142.22,8.27,212.77-1.74,21.71-3.08,43.98-10.62,66.08-11.88,8.21-.47,21.1-2.57,20.45,8.31-.68,11.44-16.96,7.48-24.69,8.44-36.56,4.55-73.12,13.95-109.79,17.64-41.93,4.22-87.35-2.24-128.79-4.33-51.65-2.6-100.88-.99-151.91-13-7.49-1.76-27.71-6.84-33.63-9.85-4.74-2.41-8.14-8.39-3.72-12.79Z"/>
  <path d="M1744.58,324.28c21.91,7.07,2.31,14.21-1.62,20.65-5.71,9.37-9.12,25.57-15.58,36.89-5.74,10.06-31.51,38.6-41.17,44.28-16.89,9.94-36.28,2.63-49.77-9.32-2.94-2.61-6.88-10.68-10.84-11.77-6.4-1.75-18.77,11.09-25.16-.26-1.82-3.46-.01-8.24,3.17-10.29,14.52-5.64,30.85-11.26,44.64-18.33,8.32-4.27,16.32-11.09,23.88-15.1,23.91-12.69,48.38-24.4,72.47-36.75ZM1641.68,395.82c-1.9,2.67,14.34,16.22,17.92,17.29,23.41,6.95,31.17-18.17,47.16-29.43,5.96-9.07,13.06-18.74,14.36-29.86l-79.44,42Z"/>
  <path d="M1327.1,402.01c-30.85,47.54-84.71,13.1-104.48-25.67-3.19-6.26-6.34-18.77-8.99-22.5-3.46-4.89-21.85-9.78-13.5-19.52,6.09-7.11,18.52,3.58,23.76,6.26,39.44,20.17,81.86,35.88,123.87,50.04l2.33,2.16c4.56,24.09-19.41,7.12-23,9.23ZM1235.4,365.83c11.36,26.81,51.78,61.91,76.43,30.72l-76.43-30.72Z"/>
  <path class="st0" d="M1641.68,395.82l79.44-42c-1.29,11.11-8.4,20.78-14.36,29.86-15.99,11.26-23.75,36.38-47.16,29.43-3.58-1.06-19.82-14.62-17.92-17.29Z"/>
  <path class="st0" d="M1235.4,365.83l76.43,30.72c-24.65,31.19-65.06-3.91-76.43-30.72Z"/>
</svg>