<?xml version="1.0" encoding="UTF-8"?>
<svg id="Layer_1" xmlns="http://www.w3.org/2000/svg" version="1.1" viewBox="0 0 3000 3000">
  <!-- Generator: Adobe Illustrator 29.4.0, SVG Export Plug-In . SVG Version: 2.1.0 Build 152)  -->
  <defs>
    <style>
      .st0 {
        fill: #940405;
      }

      .st1 {
        fill: #010101;
      }

      .st2 {
        fill: #940304;
      }

      .st3 {
        fill: #010102;
      }

      .st4 {
        fill: #fff;
      }

      .st5 {
        fill: #fcf73e;
      }

      .st6 {
        fill: #898fb6;
      }

      .st7 {
        fill: #6a6f9a;
      }

      .st8 {
        fill: #898eb6;
      }

      .st9 {
        fill: #3f4684;
      }

      .st10 {
        fill: #cd4343;
      }
    </style>
  </defs>
  <path class="st4" d="M3000,0v3000H0V0h3000ZM671.55,1714.86v48.97c0,3.65,9.87,28.95,12.34,33.63,4.61,8.74,11.1,16.64,19.18,22.25-5.03,11.66-6.47,23.19-5.32,35.85.51,5.63,4.74,12.22,3.42,17.68-1.07,4.44-14.24,23.79-17.67,32.45-22.8,57.61-23.86,146.88,9.2,200.75,22.34,36.41,58.41,49.1,93.82,20.19,52.75-43.05,61.54-141.41,47.56-203.55-1.82-8.07-10.84-30.83-10.79-35.38.05-4.9,11.06-26.92,12.16-39.94.26-3.04-2.44-6.6-1.73-9.63.5-2.14,27.92-23.93,32.74-29.32,11.76-13.16,37.97-50.21,43.9-66.02,4.09-10.91,4.85-24.12,10.04-33.93h56.96c-.35,16.84.16,33.74,2.54,50.43,9.51,66.68,34.44,140.76,46.84,208.99,9.16,50.37,17.76,99.74,27.94,149.94,8.65,42.64,15.59,85.67,24.69,128.2,36.99.96,73.85,2.36,110.92,2.17,165.02-.83,330.67-8.17,495.5-12.16,24.33-.59,48.79,1.41,73.08-.87,21-38.18,24.01-83.51,34.5-125.39,12.6-50.31,32.43-98.96,44.43-149.44,19.99-84.11,23.82-174.63,48.26-257.94l42.64-1.92c2.25,38.97,25.1,74.27,50.95,101.97,5.36,5.74,33.9,29.03,34.59,31.36,1.77,6.01-.11,15.69.94,23.05,1.18,8.33,9.34,20.12,9.32,24.51-.02,4.9-8.4,19.03-10.42,25.41-16.81,53.18-16.52,114.72,10.23,164.8,26.46,49.53,78.18,75.84,121.28,26.67,42.72-48.74,43.08-138.3,17.31-195.24-3-6.62-18.06-29.02-18.33-31.73-.47-4.87,5.25-16.75,5.97-23.91.96-9.6-3-27.62-1.59-33.42,1.19-4.9,10.84-18.05,13.63-24.49,12.87-29.74,18.35-58.65,11.97-90.97h34.98c1.86,0,10.9-3.68,12.03-5.96,9.28-40.52,8.41-79.75,2.67-120.67-6.61-47.13-25.35-142.78-47.34-182.51-18.54-33.49-52.58-65.64-86.2-83.69-80.66-43.32-147.83-42.81-235.41-21.37-4.77,1.17-11.3-.99-14.71,3.28l-1.79,37.18-115.93,7.96c3.56-10.68,6.36-22.01,7.74-33.22,2.82-22.99,4.55-50.34,6.23-73.71,4.58-63.73,9.55-132.21,12.09-195.77,3.19-79.66-1.17-193.76-67.1-248.86-40.02-33.45-100.06-53.6-151.76-56.1-92.21-4.47-233.05-8.72-306.71,55.21-23.89,20.74-53.29,75.97-61.15,106.74-35.9,140.53-39.65,286.61-35.04,430.82.17,5.4,5.03,18.63.2,22.03l-122.02,2.84c-2.51-11.97-1.01-40.62-10.97-47.99-9.4-6.96-35.51-3.3-48.1-3.86-101.09-4.56-204.33-12.47-261.79,87.82-67.82,118.37-63.13,194.88-53.33,326.83.18,2.36-2.04,5.52-1.43,7.74l1.75,2.33,40.07-1.08Z"/>
  <path class="st9" d="M671.55,1714.86l-40.07,1.08-1.75-2.33c-.6-2.23,1.61-5.38,1.43-7.74-9.8-131.95-14.48-208.46,53.33-326.83,57.46-100.28,160.69-92.38,261.79-87.82,12.59.57,38.7-3.1,48.1,3.86,9.96,7.37,8.46,36.02,10.97,47.99l122.02-2.84c4.83-3.4-.03-16.63-.2-22.03-4.61-144.2-.86-290.29,35.04-430.82,7.86-30.77,37.26-86,61.15-106.74,73.66-63.94,214.5-59.68,306.71-55.21,51.7,2.5,111.74,22.65,151.76,56.1,65.92,55.1,70.29,169.2,67.1,248.86-2.54,63.56-7.51,132.04-12.09,195.77-1.68,23.37-3.41,50.73-6.23,73.71-1.38,11.2-4.17,22.53-7.74,33.22l115.93-7.96,1.79-37.18c3.41-4.27,9.94-2.11,14.71-3.28,87.58-21.44,154.75-21.95,235.41,21.37,33.61,18.05,67.66,50.2,86.2,83.69,21.99,39.73,40.73,135.37,47.34,182.51,5.74,40.92,6.61,80.15-2.67,120.67-1.13,2.27-10.17,5.96-12.03,5.96h-34.98c6.39,32.31.91,61.23-11.97,90.97-2.79,6.44-12.43,19.59-13.63,24.49-1.41,5.8,2.55,23.82,1.59,33.42-.72,7.15-6.44,19.03-5.97,23.91.26,2.7,15.33,25.11,18.33,31.73,25.77,56.95,25.41,146.51-17.31,195.24-43.1,49.17-94.82,22.86-121.28-26.67-26.75-50.07-27.03-111.62-10.23-164.8,2.02-6.38,10.4-20.52,10.42-25.41.02-4.39-8.14-16.17-9.32-24.51-1.04-7.36.83-17.04-.94-23.05-.69-2.34-29.24-25.63-34.59-31.36-25.85-27.69-48.7-63-50.95-101.97l-42.64,1.92c-24.44,83.31-28.27,173.84-48.26,257.94-12,50.48-31.82,99.13-44.43,149.44-10.49,41.88-13.5,87.21-34.5,125.39-24.29,2.29-48.74.29-73.08.87-164.83,3.99-330.49,11.32-495.5,12.16-37.07.19-73.93-1.22-110.92-2.17-9.1-42.53-16.04-85.57-24.69-128.2-10.18-50.2-18.79-99.56-27.94-149.94-12.41-68.23-37.33-142.31-46.84-208.99-2.38-16.69-2.89-33.58-2.54-50.43h-56.96c-5.19,9.81-5.94,23.02-10.04,33.93-5.93,15.81-32.14,52.86-43.9,66.02-4.81,5.39-32.23,27.18-32.74,29.32-.71,3.03,1.99,6.59,1.73,9.63-1.1,13.02-12.1,35.04-12.16,39.94-.05,4.54,8.98,27.3,10.79,35.38,13.99,62.14,5.2,160.49-47.56,203.55-35.42,28.9-71.48,16.22-93.82-20.19-33.06-53.87-32-143.14-9.2-200.75,3.43-8.66,16.6-28.01,17.67-32.45,1.32-5.46-2.9-12.04-3.42-17.68-1.15-12.66.29-24.18,5.32-35.85-8.08-5.62-14.56-13.51-19.18-22.25-2.47-4.68-12.34-29.98-12.34-33.63v-48.97ZM1425.05,755.5h-43.97l.02,20.96c2.38,19.53.13,41.88-1.79,61.82l-54.1,3.26c-4.61,18-3.95,33.5-1.99,51.78,10.25,1.07,20.65,3,30.9,4.06,14.99,1.56,29.2-5.91,29.12,17.01-.04,11.27-.39,20.06-.07,31.87.85,31.02-1.53,65.29-.17,96.12.2,4.45,3.04,31.6,4.3,32.67l35.77-1.76-1.73-172.62c.67-2.6,2.44-2.86,4.71-3.28,5.35-.99,39.13-.2,40.99-1.99l1.66-55.64c-1.44-.3-3.94-2.34-4.67-2.34h-35.98c-7.04-6.4-4.26-16.67-6.99-24.99l3.99-56.96ZM1468.02,901.4h-38.97v169.87c63.08-1.55,128.29-9.23,189.9-22.95,38.41-8.55,77.39-19.42,111.98-38.34-.86-91.15-12.51-198.32-108.04-237.47-39.37-16.13-107.06-13.38-150.89-15-13.03-.48-26.1.04-39.08-1.18-3.51,2.55-1.69,38.93-1.78,46.21-.11,8.72-3.02,17.07-.07,26.89,8.88.39,40.75-1.96,43.54,7.41,2.57,8.63-1.49,17.45-1.67,25.5-.17,7.94,4.08,36.51-4.92,39.06ZM1375.09,757.49c-50.05,6.64-119.41,13.91-153.86,55.02-17.22,20.55-36.2,48.65-43.43,74.49-13.29,47.5-16.69,99.39-26.14,147.82.28,7.2,25.42,14.93,32.03,17.02,59.18,18.72,129.58,20.7,191.31,21.34l-.18-166.5-1.59-2.4c-11.61-2.35-46.36,6.67-54.28-3.7-2.66-3.48-2.69-47-1.86-54.19,2.67-23.13,39.85-10.21,55.14-16.82l2.88-72.09ZM1730.84,1019.33c-51.72,24.31-107.42,38.99-163.88,47.98,8.31,15.52,10.72,35.12,6,51.93,42.39-3.64,89.88-8.91,130.33-22.55,8.06-2.72,25.31-7.09,25.66-16.31l1.9-61.04ZM1235.19,1073.3l-85.94-21.99-1.75,50.7,3.11,2.89c29.17,8.91,58.19,18.13,88.56,22.35-7.64-18.12-11.27-34.9-3.98-53.94ZM1560.64,1069.63l-77.44,7.85c-5.02,17.64-8.14,37.93,10.85,47.72,16-.71,34.12-.43,49.89-1.97,3.44-.34,17.49-2.06,19.04-2.94,7.97-4.54,3.87-42.48-2.35-50.66ZM1331.09,1081.3c-12.58,3.96-82.65-8.66-88.01-5.09-8.64,5.76.78,43.15,5.9,51.75,3.33,3.71,73.53,9.84,78.26,6.42,5.43-17.28,7.06-35.32,3.84-53.08ZM1475.01,1079.29c-45.98,1.14-92.04,7.22-137.89,2,3.37,17.68,2.64,36.18-.01,53.94l42.11-3.13,1.86,4.14,11.87,471.45c16.04,7.8,33.9-.18,50.76,1.31,6.34-6.03,1.4-14.02,1.24-20.99-1.86-77.85-2.75-156.16-7.99-233.84l-3.04-225.06,43.1-3.89c-9.35-13.87-7.1-30.94-2.01-45.94ZM1726.84,1093.28c-40.23,16.41-86.11,29.06-129.19,35.68-35.65,5.48-70.09,5.79-105.55,6.19-15.79.18-31.42,0-47.07,2.09l5.88,466.82c10.63,7.37,76.23-14.12,90.56-19.62,28.57-10.96,37.72-12.73,44.92-45.02,8.9-39.9,6.31-90.02,41.57-118.32,19.14-15.36,43.45-29.83,62.97-45.49,24.48-55.41,28.13-115.49,31.9-175.43,2.23-35.54,2.16-71.35,4.01-106.9ZM1371.09,1139.23c-36.85,4.82-73.96,3.68-110.92,0-19.54-1.95-40.14-4.64-59.38-8.57-8.08-1.65-53.04-15.88-55.56-13.41l-.07,141c4.58,37.91-.29,77.31,9.21,114.71l68.87,51.05c14.72,14.33,22.82,43.2,27.01,62.93,3.45,16.26,6.18,60.69,14.06,71.88,1.46,2.07,24.48,19.43,28.2,21.77,28.85,18.14,62.81,25.91,96.59,28.35l-17.99-469.71ZM2208.48,1688.83c11.72-52.26,3.53-102.44-6.88-153.92-11.92-58.96-21.73-123.61-62-169.85-64.05-73.55-163.67-93.51-257.28-79.34-4.63.7-29.27,5.3-30.68,7.3-2.44,25.63.17,51.49-.8,77.15-1.99,52.38-3.96,103.43-4,155.73l-.09,170.98c55.66-1.26,111.13-2.33,166.99-2.1,38.65.16,74.76,1.26,113.81-1.92,26.97-2.19,52.82-10.79,80.92-4.02ZM995.33,1309.14c-12.13,5.86-27.43,4.48-41.04,4.07-89.41-2.67-198.65-18.54-251.79,71.83-38.35,65.21-60.39,145.27-64.9,220.91-1.97,32.99,1.41,67.74,0,100.91,6.97-1.29,13.74-3.55,20.9-4.06,70.82-5.02,147.08-2.79,217.84-1.85,39.13.52,78.09-.59,117,1.9-1.65-4.56-3.96-10.09-3.99-14.98-.62-109.37,14.33-220.28,10.07-329.86-.61-15.75-4.4-32.9-4.09-48.88ZM1878.75,1702.86h-30.98c-2.78-2.47-4.3-5.44-4.87-9.12-4.67-30.18.43-60.46-.05-89.91-.99-59.82-6.61-120.06-6.16-179.69.22-29.71,3.12-59.21,1.98-88.92l-117.54,4.14c-11.61,37.55-20.45,74.74-35.89,111.01-26.02,61.11-63.83,129.79-130.27,151.54-65.12,21.32-130.43,30.65-198.24,16.38-61.57-12.95-147.26-70.62-184.32-121.47-32.53-44.63-35.38-94.63-43.43-147.45l-123.63-.27v357.76c-3.69-.14-21.54-.75-22.12,3.23,3.07,18.18,3.56,36.65,7.06,54.79,3.5,18.13,10.04,35.81,14.08,53.87,22.08,98.78,39.52,198.07,58.31,297.45,7.67,40.58,13.79,81.55,20.64,122.27,98.75-7.14,197.75-4.85,296.86-5.89,109.12-1.15,230.8,4.36,337.85-5.92,10.22-.98,20.73,1.24,30.84-1.14,9.86-6,31.47-110.8,36.52-129.37,13.82-50.82,33.93-100.7,46.04-151.83,18.72-79.07,25.53-162.7,47.33-241.47ZM1243.15,1542.97c-2.04-31.59-2.16-71.45-16.89-100.01-7.93-15.36-23.34-21.42-35.99-31.96-11.68-9.73-21.98-21.67-35.02-29.92,1.42,66.58,39.96,119.59,87.9,161.89ZM1600.95,1544.97c8.06-3.19,13.53-11.34,18.79-18.16,12.04-15.58,24.15-36.96,33.49-54.45,14.65-27.42,28.62-56.69,34.65-87.24-14.02,9.04-25.38,21.22-38.04,31.9-5.87,4.95-14.08,8.8-19.88,14.09-28.01,25.55-26.24,78.68-29.02,113.86ZM2170.56,1696.85l-98.85,8.09-133-4.09c1,42.21,31.76,87.11,63.02,113.88,1.94,1.66,13.49,11.38,14.92,10.05,14.46-58.78,97.18-72.29,126.92-18,20.6-31.84,34.24-71.59,26.99-109.93ZM677.55,1714.86v38.97c0,6.06,7.4,25.12,10.28,31.69,4.58,10.48,9.67,19.98,18.71,27.26,26.88-46.47,88.29-46.17,117.73-1.81,4.03,2.45,3.3,14.27,8.12,13.81,3.5-.34,17.57-10.35,20.88-13.15,13.78-11.7,47.31-57.42,53.68-74.23,2.21-5.82,6.54-19.73,6.52-25.52-.01-3.13.54-3.42-3.01-3.02-77.86-.45-155.38.36-232.91,6.01ZM2144.11,1839.13c0-34.17-27.7-61.87-61.87-61.87s-61.87,27.7-61.87,61.87,27.7,61.87,61.87,61.87,61.87-27.7,61.87-61.87ZM826.17,1848.6c0-33.96-27.53-61.48-61.48-61.48s-61.48,27.53-61.48,61.48,27.53,61.48,61.48,61.48,61.48-27.53,61.48-61.48ZM2141.57,1876.79c-20.02,28.28-48.75,44.63-83.49,31.49-10.96-4.14-17.11-11.43-26.39-17.54-37.22,53.56-23.25,189.01,37.87,219.92,40.1,20.28,73.8-15.21,87.97-50.06,23.65-58.19,19.99-131.53-15.95-183.8ZM707.49,1880.76l-4.12,1.24c-32.13,58.9-41.73,145.84-11.58,207.36,29.18,59.54,80.35,55.6,113.29,1.85,27.85-45.45,34.89-109.01,25.74-160.86-.92-5.2-9.01-37.58-12.36-37.57-30.84,34.1-89.58,29.22-110.96-12.02Z"/>
  <path class="st7" d="M1878.75,1702.86c-21.81,78.77-28.61,162.41-47.33,241.47-12.11,51.13-32.21,101.02-46.04,151.83-5.05,18.57-26.66,123.37-36.52,129.37-10.11,2.37-20.62.15-30.84,1.14-107.05,10.28-228.73,4.77-337.85,5.92-99.12,1.04-198.11-1.25-296.86,5.89-6.85-40.71-12.97-81.69-20.64-122.27-18.79-99.39-36.23-198.68-58.31-297.45-4.04-18.06-10.58-35.75-14.08-53.87-3.5-18.14-3.99-36.61-7.06-54.79.58-3.98,18.43-3.38,22.13-3.23v-357.76s123.62.27,123.62.27c8.05,52.82,10.9,102.82,43.43,147.45,37.06,50.85,122.75,108.52,184.32,121.47,67.81,14.26,133.12,4.94,198.24-16.38,66.44-21.75,104.26-90.43,130.27-151.54,15.44-36.28,24.28-73.47,35.89-111.01l117.54-4.14c1.14,29.71-1.75,59.22-1.98,88.92-.45,59.63,5.18,119.87,6.16,179.69.49,29.44-4.62,59.73.05,89.91.57,3.68,2.09,6.65,4.87,9.12h30.98Z"/>
  <path class="st7" d="M2208.48,1688.83c-28.09-6.77-53.95,1.83-80.92,4.02-39.06,3.18-75.16,2.08-113.81,1.92-55.87-.23-111.33.85-166.99,2.1l.09-170.98c.03-52.3,2-103.35,4-155.73.98-25.66-1.64-51.52.8-77.15,1.4-2,26.04-6.6,30.68-7.3,93.6-14.17,193.22,5.79,257.28,79.34,40.27,46.24,50.08,110.89,62,169.85,10.41,51.48,18.6,101.66,6.88,153.92Z"/>
  <path class="st7" d="M995.33,1309.14c-.31,15.97,3.48,33.12,4.09,48.88,4.26,109.58-10.68,220.49-10.07,329.86.03,4.89,2.34,10.41,3.99,14.98-38.91-2.49-77.87-1.37-117-1.9-70.76-.94-147.02-3.17-217.84,1.85-7.16.51-13.94,2.77-20.9,4.06,1.41-33.16-1.96-67.91,0-100.91,4.51-75.64,26.55-155.7,64.9-220.91,53.14-90.37,162.38-74.5,251.79-71.83,13.61.41,28.92,1.79,41.04-4.07Z"/>
  <path class="st7" d="M1726.84,1093.28c-1.85,35.55-1.77,71.36-4.01,106.9-3.77,59.94-7.42,120.02-31.9,175.43-19.53,15.66-43.83,30.13-62.97,45.49-35.26,28.3-32.67,78.42-41.57,118.32-7.21,32.28-16.36,34.06-44.92,45.02-14.33,5.5-79.93,26.99-90.56,19.62l-5.88-466.82c15.66-2.08,31.28-1.91,47.07-2.09,35.45-.39,69.9-.7,105.55-6.19,43.07-6.62,88.96-19.27,129.19-35.68Z"/>
  <path class="st7" d="M1371.09,1139.23l17.99,469.71c-33.78-2.44-67.74-10.21-96.59-28.35-3.72-2.34-26.74-19.7-28.2-21.77-7.88-11.19-10.62-55.62-14.06-71.88-4.18-19.73-12.29-48.6-27.01-62.93l-68.87-51.05c-9.5-37.4-4.63-76.8-9.21-114.71l.07-141c2.52-2.47,47.48,11.76,55.56,13.41,19.24,3.93,39.84,6.63,59.38,8.57,36.96,3.68,74.07,4.83,110.92,0Z"/>
  <path class="st7" d="M1468.02,901.4c9-2.55,4.75-31.12,4.92-39.06.17-8.05,4.24-16.87,1.67-25.5-2.79-9.38-34.66-7.02-43.54-7.41-2.95-9.81-.03-18.16.07-26.89.09-7.28-1.73-43.66,1.78-46.21,12.98,1.22,26.05.7,39.08,1.18,43.83,1.62,111.52-1.13,150.89,15,95.53,39.15,107.18,146.32,108.04,237.47-34.6,18.92-73.58,29.79-111.98,38.34-61.61,13.72-126.81,21.4-189.89,22.95v-169.87s38.97,0,38.97,0Z"/>
  <path class="st7" d="M1375.09,757.49l-2.88,72.09c-15.28,6.6-52.46-6.31-55.14,16.82-.83,7.19-.8,50.71,1.86,54.19,7.92,10.36,42.67,1.34,54.28,3.7l1.59,2.4.18,166.5c-61.73-.64-132.13-2.62-191.31-21.34-6.6-2.09-31.75-9.82-32.03-17.02,9.45-48.43,12.85-100.32,26.14-147.82,7.23-25.84,26.21-53.94,43.43-74.49,34.45-41.11,103.81-48.38,153.86-55.02Z"/>
  <path class="st1" d="M1475.01,1079.29c-5.09,15-7.34,32.07,2.01,45.94l-43.1,3.89,3.04,225.06c5.24,77.68,6.13,156,7.99,233.84.17,6.97,5.1,14.96-1.24,20.99-16.86-1.49-34.72,6.49-50.76-1.31l-11.87-471.45-1.86-4.14-42.11,3.13c2.65-17.76,3.38-36.27.01-53.94,45.85,5.22,91.91-.86,137.89-2Z"/>
  <path class="st7" d="M707.49,1880.76c21.39,41.24,80.12,46.11,110.96,12.02,3.35,0,11.44,32.38,12.36,37.57,9.15,51.85,2.11,115.42-25.74,160.86-32.94,53.75-84.11,57.7-113.29-1.85-30.14-61.52-20.54-148.46,11.58-207.36l4.12-1.24Z"/>
  <path class="st7" d="M2141.57,1876.79c35.94,52.28,39.61,125.62,15.95,183.8-14.17,34.85-47.87,70.34-87.97,50.06-61.12-30.91-75.09-166.36-37.87-219.92,9.28,6.11,15.43,13.4,26.39,17.54,34.74,13.14,63.48-3.21,83.49-31.49Z"/>
  <path class="st7" d="M2170.56,1696.85c7.25,38.34-6.39,78.09-26.99,109.93-29.74-54.29-112.46-40.78-126.92,18-1.43,1.34-12.98-8.38-14.92-10.05-31.26-26.77-62.02-71.67-63.02-113.88l133,4.09,98.85-8.09Z"/>
  <path class="st5" d="M1425.05,755.5l-3.99,56.96c2.73,8.32-.04,18.59,6.99,24.99h35.98c.73,0,3.23,2.03,4.67,2.34l-1.66,55.64c-1.86,1.79-35.64.99-40.99,1.99-2.28.42-4.05.68-4.71,3.28l1.73,172.62-35.77,1.76c-1.25-1.07-4.1-28.22-4.3-32.67-1.36-30.82,1.02-65.1.17-96.12-.32-11.81.03-20.6.07-31.87.08-22.92-14.13-15.46-29.12-17.01-10.25-1.06-20.65-3-30.9-4.06-1.96-18.28-2.62-33.78,1.99-51.78l54.1-3.26c1.92-19.94,4.17-42.29,1.79-61.82l-.02-20.96h43.97Z"/>
  <path class="st7" d="M677.55,1714.86c77.53-5.65,155.05-6.46,232.91-6.01,3.55-.4,3-.1,3.01,3.02.02,5.79-4.31,19.7-6.52,25.52-6.37,16.82-39.9,62.54-53.68,74.23-3.3,2.81-17.37,12.82-20.88,13.15-4.82.46-4.09-11.36-8.12-13.81-29.44-44.37-90.85-44.66-117.73,1.81-9.04-7.27-14.13-16.78-18.71-27.26-2.87-6.57-10.28-25.63-10.28-31.69v-38.97Z"/>
  <circle class="st7" cx="2082.25" cy="1839.13" r="61.87"/>
  <circle class="st7" cx="764.68" cy="1848.6" r="61.48"/>
  <path class="st3" d="M1730.84,1019.33l-1.9,61.04c-.34,9.22-17.59,13.6-25.66,16.31-40.45,13.64-87.94,18.91-130.33,22.55,4.73-16.8,2.31-36.4-6-51.93,56.46-8.99,112.16-23.67,163.88-47.98Z"/>
  <path class="st6" d="M1243.15,1542.97c-47.94-42.3-86.48-95.31-87.9-161.89,13.03,8.25,23.33,20.19,35.02,29.92,12.65,10.54,28.06,16.6,35.99,31.96,14.73,28.56,14.86,68.42,16.89,100.01Z"/>
  <path class="st8" d="M1600.95,1544.97c2.78-35.18,1.01-88.31,29.02-113.86,5.8-5.29,14.01-9.14,19.88-14.09,12.66-10.67,24.01-22.86,38.04-31.9-6.04,30.55-20,59.83-34.65,87.24-9.34,17.48-21.45,38.86-33.49,54.45-5.27,6.82-10.73,14.97-18.79,18.16Z"/>
  <path class="st3" d="M1235.19,1073.3c-7.29,19.03-3.67,35.82,3.98,53.94-30.37-4.21-59.39-13.44-88.56-22.35l-3.11-2.89,1.75-50.7,85.94,21.99Z"/>
  <path class="st2" d="M1331.09,1081.3c3.21,17.77,1.58,35.8-3.84,53.08-4.74,3.41-74.93-2.71-78.26-6.42-5.12-8.6-14.54-45.99-5.9-51.75,5.35-3.57,75.42,9.05,88.01,5.09ZM1277.5,1099.59c-4.52,7.37,6.52,27.95,16.82,19.83,4.21-3.32,6.84-16.59,3-21.35-2.66-5.69-18.37-.85-19.82,1.51Z"/>
  <path class="st0" d="M1560.64,1069.63c6.22,8.18,10.32,46.12,2.35,50.66-1.55.88-15.6,2.61-19.04,2.94-15.78,1.54-33.89,1.26-49.89,1.97-18.99-9.79-15.87-30.08-10.85-47.72l77.44-7.85ZM1538.68,1087.58c-15.63-8.4-33.32,12.14-16.47,23.46,12.53,8.42,19.86-13.35,16.47-23.46Z"/>
  <path class="st10" d="M1277.5,1099.59c1.45-2.37,17.16-7.21,19.82-1.51,3.83,4.76,1.2,18.03-3,21.35-10.3,8.12-21.34-12.46-16.82-19.83Z"/>
  <path class="st10" d="M1538.68,1087.58c3.39,10.11-3.94,31.88-16.47,23.46-16.84-11.32.84-31.86,16.47-23.46Z"/>
</svg>