<?xml version="1.0" encoding="UTF-8"?>
<svg id="Layer_1" xmlns="http://www.w3.org/2000/svg" version="1.1" viewBox="0 0 3000 3000">
  <!-- Generator: Adobe Illustrator 29.4.0, SVG Export Plug-In . SVG Version: 2.1.0 Build 152)  -->
  <defs>
    <style>
      .st0 {
        fill: #8f94a1;
      }

      .st1 {
        fill: #dcdcde;
      }

      .st2 {
        fill: #656b98;
      }

      .st3 {
        fill: #a5a6a7;
      }

      .st4 {
        fill: #8b909f;
      }

      .st5 {
        fill: #fefef9;
      }

      .st6 {
        fill: #a0a0a5;
      }

      .st7 {
        fill: #5c6296;
      }

      .st8 {
        fill: #fff;
      }

      .st9 {
        fill: #010202;
      }

      .st10 {
        fill: #060505;
      }

      .st11 {
        fill: #050505;
      }

      .st12 {
        fill: #9398a2;
      }

      .st13 {
        fill: #414784;
      }

      .st14 {
        fill: #4b5087;
      }

      .st15 {
        fill: #fdfdf8;
      }

      .st16 {
        fill: #999ba3;
      }

      .st17 {
        fill: #a3a6bd;
      }

      .st18 {
        fill: #6a6f9a;
      }

      .st19 {
        fill: #938e9e;
      }

      .st20 {
        fill: #ddddde;
      }

      .st21 {
        fill: #8e9ca4;
      }

      .st22 {
        fill: #9697a2;
      }

      .st23 {
        fill: #454d89;
      }

      .st24 {
        fill: #88899c;
      }

      .st25 {
        fill: #030202;
      }
    </style>
  </defs>
  <path class="st8" d="M3000,0v3000H0V0h3000ZM2100.6,1870.75c1.94-5.37,6.89-12.52,5.01-17.98-36.13,27.58-60.25,65.37-71.39,109.48l-49.47,15.49-36.03,18.91c6.38-121.65,5.68-243.53-10.29-364.46-28-212.13-85.47-439.04-261.75-575.69-76.03-58.94-119.63-63.92-196.61-3.15-132.69,104.75-251.76,275.92-292.71,440.8-49.7,200.08-.97,354.66,26.3,549.02.4,2.82,1.69,6.23,3.49,8.48l-32.96-16.99c-1.24-14.95-1.86-29.79-5.57-44.4-6.15-24.24-11.31-36.52-36.97-42.98-61.08-15.37-105.39,17.94-104.65,81.05-41.34,15.84-52.04,51.55-47.44,93.03.93,8.41,7.39,21.41,7.49,28.15.17,12.11-9.38,42.93-11.41,58.29-8.1,61.41-8.91,202.86,21.7,256.54.28.5-.65,2.46.41,3.52,55.68,7.39,112.28,14.5,168.5,18.45,100.46,7.06,201.3,3.2,301.69,1.94,194.09-2.44,388.05-5.61,581.61-13.99,27.16-1.18,54.53-.98,81.71-2.24,13.65-18.72,20.71-42.41,27.16-64.78,26.25-91.02,29.84-183.51,15.51-277.04-1.72-11.2-8.73-31.77-8.82-40.98-.08-8.26,9.23-30.23,9.49-43.67.16-8.19-3.96-19.77-3.1-25.97.48-3.48,16.13-23.7,19.4-29.57,14.59-26.29,25.43-54.34,33.62-83.28-6.74-6.38-23.83,20.63-27.92,25.03-7.29,7.85-50.64,49.78-60.01,42.9,8.03-16.71,15.17-33.99,21.49-51.45,6.38-17.65,18.83-48.85,22.07-65.95,1.18-6.21.02-13.78-4.58-18.45-14.96,30.11-28.51,57.69-49.94,83.93-6.43,7.87-26.01,30.92-33,35.95l-27.98-2v-2c6.55-28.87,15.95-56.22,25.98-83.94Z"/>
  <path class="st13" d="M1007.33,2464.36c-30.61-53.69-29.8-195.13-21.7-256.54,2.03-15.36,11.58-46.18,11.41-58.29-.09-6.74-6.55-19.75-7.49-28.15-4.6-41.48,6.1-77.19,47.44-93.03-.74-63.11,43.57-96.42,104.65-81.05,25.66,6.46,30.82,18.74,36.97,42.98,3.71,14.61,4.33,29.45,5.57,44.4l32.96,16.99c-1.8-2.26-3.09-5.67-3.49-8.48-27.27-194.36-76-348.94-26.3-549.02,40.96-164.88,160.03-336.04,292.71-440.8,76.97-60.77,120.57-55.79,196.61,3.15,176.28,136.65,233.74,363.56,261.75,575.69,15.97,120.93,16.67,242.81,10.29,364.46l36.03-18.91,49.47-15.49c11.14-44.11,35.26-81.9,71.39-109.48,1.89,5.45-3.06,12.61-5.01,17.98-1.22.24-3.08-.36-4,0-9.84,3.83-37.72,50.63-42.98,61.95-16.79,36.15-18.76,71.56-26.58,109.33-.7,3.38-.12,7.38-4.39,8.6-7.8-7.69,3.81-59.16,5.98-71.94-23.58,4.77-50.18,13.45-70.61,26.3-4.87,3.06-7.32,9.04-13.32,9.67.23-12.68-3.71-28.16-4.08-40.89-1.97-67.97.94-136.08-1.89-203.97-10.06-240.61-73.58-587.07-295.99-723.33-64.01-39.21-96.36-29.97-153.52,14.03-115.64,89.01-227.97,239.55-276.06,377.5-65.21,187.09-37.69,351.79-2.59,540.31,4.58,24.58,5.43,60.58,18.01,81.77,5.63,9.48,33.15,23.4,44.16,25.95,64.64,14.98,81.16-36.7,105.52-83.28-6.67-8.85-13.47-17.42-19.22-27-14.56-24.26-31.88-54.07-44.95-78.97-39.66-75.55-29.08-125.11-7.98-203.93,34.1-127.39,127.33-306.86,229.93-391.65,9.34-7.72,25.68-21.28,38.03-14.15,52.59,48.04,90.65,114.86,120.52,179.26,50.35,108.53,85.65,225.99,127.72,337.97,7.48,41-16.8,153.73-42.48,186.42-4.91,6.26-20.81,16.02-18.21,24.01,3.91,12.01,30,43.22,40.24,51.86,51.86,43.78,109.74,15.81,136.61-39.15l6.24-12.76c-.49,26.27-24.26,53.99-46.13,66.79-66.07,38.69-120.42-13.82-147.77-70.79-15.61,6.81-28.67,17.81-44.58,24.34-66.97,27.49-165.9,15.23-236.11,5.67-30.76-4.19-55.3-17.29-82.07-31.81-16.51,25.95-30.04,67.93-58.81,82.85-26.44,13.7-66.41,7.68-89.88-10.28-4.88-3.73-13.63-15.83-15.54-16.94-4.29-2.48-10.14-1.17-14.66-2.83-3.57-1.32-22.56-12.58-23.93-11.02.48,12.31-3.97,22.13-11.91,31.06-2.66,3-8.8,5.44-9.76,8.23-2.02,5.86,3.07,32.55-7.22,32.68-3.46.05-10.71-5.46-15.46-6.66-8.93-2.25-27.16-2.3-36.59-1.35-5.14.52-20.5,6.39-23,5.11-6.97-3.56-4.39-16.75-6.97-21.15-1.44-2.47-14.4-6.04-18.89-9.09-11.09-7.54-30.42-28.25-18.16-41.86-50.52,18.08-33.15,83.6-13.54,119.54,19.58,35.89,41.14,49.46,66.58,77.33,4.55,4.98,14.67,14.73,7.67,20.17-9.85-.63-18.8-5.62-26.51-11.33-30.09-22.26-51.36-57.12-67.95-89.91-1.07-2.11,1.05-3.79-4.17-2.84-1.94,25.79-7.87,51.16-9.98,76.96-6.26,76.38,4.53,152.33,19.97,226.83h-2ZM1648.9,1397.07c3.5-2.64-3.6-11.35-5.16-13.82-21.28-33.6-45.37-60.59-72.89-88.99-9.62-7.89-18.91,1.16-26.84,6.92-22.78,16.55-59.43,58.61-75.78,82.12-1.67,2.41-6.16,6.88.79,5.79-2.79.75-7.77,4.72-9.99,7-12.62,12.95-30.57,42.85-40.8,59.12-22.15,35.22-41.76,71.98-59.13,109.76-10.8,23.48-19.57,45.43-27.98,69.95-10.5,30.61-18.95,60.33-25.98,91.94-15.94,71.66-20.2,100.74,15.65,167.23,16.68,30.94,37.84,61.88,55.26,92.65,11.58,13.46,68.67,36.24,87.31,40.61,95.54,22.39,213.19,26.69,296.16-32.99,19.03-13.69,34.52-60.74,42.22-83.69,29.19-86.99,9.51-113.59-18.91-193.8-10.42-29.41-20.8-63.87-32.97-92.02-1.95-4.51-1.45-4.6-7-3.92.91-.37,2.21-2.12,3.77-2.27.77-1.42.11-2.76-.11-4.18-1.34-8.53-10.58-28.62-14.16-38.08-.8-2.13-3.39-3.18-3.49-3.43-20.2-52.94-41.46-122.34-73.52-169.33-1.4-2.05-4.33-5.6-6.43-6.55ZM1135.06,2044.8c.98.66,5.87,16.82,9.3,21.7,3.93,5.59,11.23,10.98,16.14,15.97,5.05.88,16.55-17.01,17.77-21.78,3.16-12.33-2.16-24.11.49-36.4-1.1-12.21-8.52-53.78-16.45-61.69-7.8-7.78-33-14.17-44.08-14.04-45.16.51-67.65,18.69-74.69,63.34-1.94,12.32-.1,20.97-.44,31.53-.16,5.02-3.68,11.54-3.52,16.3.33,9.45,22.82,31.68,31.64,27.96,1.54-.65,12.86-12.57,15.07-15.04l22.95-27.99-19.98,39.94c7.03,1.92,15.08-2.08,21.08-2.05,5.2.02,37.08,6.9,34.86-2.87-7.13-7.05-14.67-22.27-15.94-32.09-.55-4.27,4.02-3.96,5.78-2.77ZM1095.28,2088.6l-.02,6,6,.02.02-6-6-.02ZM1117.25,2088.62h-11.97l3.26,5.76h5.45l3.26-5.76ZM1091.26,2090.62c-6.14-.21-13.39,2.44-11.97,9.97,6.83,1.09,13.01-2.3,11.97-9.97ZM1133.24,2090.63h-9.98c-.78,2.62,1.85,6.65,4.96,5.97l5.02-5.97ZM1145.23,2090.62h-9.97c-.18,8.2,10.15,8.2,9.97,0ZM1157.22,2090.62h-7.97s0,2.96,0,2.96l7.96,5.02v-7.98ZM1107.25,2108.58c.62-2.92-.83-4.28-3.12-5.94l-8.85,4.96,11.97.98ZM1123.25,2106.58c-1.96-5.49-8.68-5.38-11.98-.97l11.98.97ZM1084.3,2104.62c-1.8,1.58-3.04,2.29-3.04,4.98,0,10.86,19.82-3.4,3.04-4.98ZM1135.23,2104.61h-9.97s0,1.96,0,1.96l9.97,2.01v-3.98ZM1157.22,2114.58l-.98-9.97c-6.03,4.36-7.24,9.35.98,9.97ZM1147.22,2106.61l-7.97.98c2.15,3.08,4.29,3.48,7.97,3v-3.98Z"/>
  <path class="st23" d="M2102.6,1958.69c7-5.04,26.57-28.08,33-35.95,21.44-26.24,34.98-53.82,49.94-83.93,4.6,4.67,5.75,12.24,4.58,18.45-3.24,17.1-15.68,48.31-22.07,65.95-6.31,17.46-13.46,34.73-21.49,51.45,9.37,6.89,52.72-35.05,60.01-42.9,4.09-4.4,21.18-31.41,27.92-25.03-8.19,28.93-19.04,56.99-33.62,83.28-3.26,5.88-18.91,26.09-19.4,29.57-.86,6.2,3.26,17.78,3.1,25.97-.26,13.44-9.57,35.41-9.49,43.67.09,9.21,7.1,29.78,8.82,40.98,14.33,93.53,10.74,186.02-15.51,277.04-6.45,22.37-13.5,46.06-27.16,64.78-27.18,1.26-54.55,1.06-81.71,2.24-193.57,8.38-387.52,11.55-581.61,13.99-100.39,1.26-201.24,5.12-301.69-1.94-56.22-3.95-112.82-11.06-168.5-18.45-1.06-1.06-.13-3.02-.41-3.52h2c74.25,9.7,149.02,16.3,223.85,19.98-1.8-11.2-6.34-21.89-7.75-33.21-4.77-38.34-4.97-122.33,1.82-159.65.52-2.87-1.94-5.77,2.93-5.01,10.16,1.58,3.12,25.92,2.92,32.91-1.47,49.87-.12,108.55,6.29,157.83.26,1.97.99,6.73,3.12,7.23,46.49,1.37,92.95,2.53,139.66,2,4.72-.05,9.1-2.1,13.83-2.16,167.96-2.28,335.2-6.39,503.26-10.4,9.07-.67,12.58-9.54,14.59-17.38,12.48-48.64,9.5-118.99,2.61-168.74-1.22-8.8-5.48-20-5.71-28.3-.08-3.08-1.4-5.7,2.99-4.97,6.76,1.12,6.99,10.54,8.36,15.64,11.28,42.12,16.61,130.46,5.14,171.77-2.96,10.67-8.08,20.42-12.5,30.45l227.64-8.18c17.54-47.18,29.67-96.79,35.89-146.99,7-56.54,11.05-155.47-5.9-209.39-.7-2.23-.68-4.84-3.78-5.18-17.88,41.29-51.44,93.87-97.95,103.92-.63-4.78.6-7.95,3.08-11.89,8.73-13.87,35.67-33.78,47.9-48.04,24.34-28.38,47.07-69.6,44.93-107.95-13.18,12.58-24.87,28.39-39.02,39.91-3.8,3.09-21.45,17.6-18.91,4.07,1.18-.36,3.32.36,3.98-.01,32.49-18.64,77.8-80.71,94.29-114.57,6.64-13.63,14.02-32.45,15.62-47.31-3.21.36-2.18,4.81-4.84,8.12-11.43,14.24-39.57,37.87-55.74,46.19-5.17,2.66-12.49,2.67-16.45,5.54-6.2,4.49-22.13,38.07-30.05,47.9-5.92,7.35-13.79,13.9-20.82,20.15-.1-.19-3.46.66-3.99-1.4l-15.99-38.57c8.72,8.85,15.98,19.31,18.01,31.98,4.49.47,9.02-2.37,12-5.53,28.14-29.78,58.79-116.18,71.92-156.37,1.75-5.34,6.8-11.29,5.99-17.98-5.96-1.04-3.16,1.58-4.2,4.68-1.31,3.89-1.92,7.34-3.78,11.3-22.04,46.85-69.49,86.3-107.52,119.41-.87,2.11-.22,4.39-.41,6.5-1.73,19.83,1.29,41.86-.02,61.95-2.88.73-1.86-3.04-3.98-3.99-.4-4.37-1.82-8.48-2.08-12.91-1.95-32.86,2.95-63.69,10.08-95.02l4,2v2l1.22,1.75c8.55-.6,19.2,5.69,26.77.25ZM2084.61,1972.7l-13.89.08-2.08,13.89c.65.85,15.55-10.81,15.97-13.97Z"/>
  <path class="st7" d="M2100.6,1870.75c-10.03,27.72-19.43,55.07-25.98,83.94l-4-2c6.46-28.39,13.62-55.48,25.98-81.95.91-.36,2.78.24,4,0Z"/>
  <path class="st7" d="M2102.6,1958.69c-7.57,5.45-18.22-.84-26.77-.25l-1.22-1.75,27.98,2Z"/>
  <path class="st18" d="M1944.7,2014.66c6-.63,8.45-6.61,13.32-9.67,20.44-12.85,47.03-21.53,70.61-26.3-2.17,12.78-13.79,64.25-5.98,71.94,1.86,1.83,19.59,3.87,25.54,5.43,2.54.67,13.51,4.15,14.43,4.56,2.11.94,1.1,4.72,3.98,3.99,1.31-20.09-1.71-42.12.02-61.95,5.04-.32,5.76,3.72,7.99,6l15.99,38.57c.53,2.07,3.89,1.22,3.99,1.4.27.53-.27,1.47,0,2l2,2c5.13,9.83,8.91,22.23,15.99,29.98-.66.38-2.8-.35-3.98.01-2.54,13.52,15.11-.98,18.91-4.07,14.15-11.52,25.84-27.33,39.02-39.91,2.15,38.35-20.59,79.58-44.93,107.95-12.22,14.25-39.16,34.16-47.9,48.04-2.48,3.94-3.71,7.11-3.08,11.89,46.5-10.04,80.07-62.63,97.95-103.92,3.11.35,3.08,2.95,3.78,5.18,16.95,53.92,12.91,152.85,5.9,209.39-6.22,50.2-18.34,99.8-35.89,146.99l-227.64,8.18c4.42-10.03,9.54-19.78,12.5-30.45,11.47-41.32,6.14-129.66-5.14-171.77-1.37-5.1-1.6-14.52-8.36-15.64-4.39-.73-3.07,1.9-2.99,4.97.23,8.3,4.49,19.49,5.71,28.3,6.89,49.75,9.87,120.09-2.61,168.74-2.01,7.84-5.53,16.71-14.59,17.38-168.06,4.01-335.3,8.12-503.26,10.4-4.72.06-9.1,2.11-13.83,2.16-46.71.53-93.17-.63-139.66-2-2.13-.5-2.87-5.26-3.12-7.23-6.4-49.27-7.75-107.96-6.29-157.83.21-6.99,7.24-31.32-2.92-32.91-4.86-.76-2.4,2.14-2.93,5.01-6.79,37.32-6.59,121.31-1.82,159.65,1.41,11.32,5.95,22.01,7.75,33.21-74.83-3.67-149.6-10.28-223.85-19.98-15.44-74.5-26.23-150.45-19.97-226.83,2.11-25.8,8.05-51.16,9.98-76.96,5.21-.95,3.1.73,4.17,2.84,16.59,32.79,37.86,67.65,67.95,89.91,7.71,5.7,16.66,10.7,26.51,11.33,6.99-5.44-3.12-15.19-7.67-20.17-25.43-27.87-47-41.44-66.58-77.33-19.61-35.94-36.97-101.46,13.54-119.54-12.26,13.61,7.07,34.32,18.16,41.86,4.49,3.05,17.44,6.63,18.89,9.09,2.58,4.4,0,17.59,6.97,21.15,2.5,1.28,17.86-4.59,23-5.11,9.43-.96,27.65-.9,36.59,1.35,4.75,1.2,12,6.7,15.46,6.66,10.29-.14,5.21-26.82,7.22-32.68.96-2.79,7.1-5.23,9.76-8.23,7.94-8.93,12.39-18.75,11.91-31.06,1.37-1.55,20.36,9.71,23.93,11.02,4.51,1.67,10.37.36,14.66,2.83,1.91,1.11,10.66,13.21,15.54,16.94,23.47,17.96,63.44,23.98,89.88,10.28,28.78-14.92,42.3-56.9,58.81-82.85,26.78,14.52,51.31,27.62,82.07,31.81,70.21,9.56,169.14,21.82,236.11-5.67,15.91-6.53,28.97-17.53,44.58-24.34,27.35,56.97,81.69,109.48,147.77,70.79,21.88-12.81,45.64-40.52,46.13-66.79Z"/>
  <path class="st18" d="M1944.7,2014.66l-6.24,12.76c-26.87,54.96-84.75,82.93-136.61,39.15-10.24-8.64-36.32-39.85-40.24-51.86-2.6-7.98,13.3-17.75,18.21-24.01,25.67-32.69,49.96-145.42,42.48-186.42-42.07-111.98-77.37-229.44-127.72-337.97-29.88-64.4-67.94-131.23-120.52-179.26-12.35-7.13-28.68,6.43-38.03,14.15-102.61,84.79-195.83,264.26-229.93,391.65-21.1,78.82-31.68,128.39,7.98,203.93,13.07,24.9,30.39,54.7,44.95,78.97,5.75,9.59,12.55,18.15,19.22,27-24.36,46.58-40.88,98.26-105.52,83.28-11.02-2.55-38.53-16.47-44.16-25.95-12.58-21.18-13.43-57.19-18.01-81.77-35.1-188.52-62.62-353.22,2.59-540.31,48.09-137.95,160.43-288.5,276.06-377.5,57.16-44,89.52-53.24,153.52-14.03,222.42,136.26,285.94,482.72,295.99,723.33,2.84,67.89-.08,135.99,1.89,203.97.37,12.73,4.32,28.21,4.08,40.89Z"/>
  <path class="st5" d="M1648.9,1397.07c2.09.95,5.03,4.5,6.43,6.55,32.06,46.99,53.32,116.38,73.52,169.33-27.92,16.99-55.76,35.01-80.9,56.01-8.5,7.1-23.95,19.42-30.12,27.84-2,2.74-3.77,4.03-2.9,8.07,3.42,3.3,32.81-13.81,38.61-16.33,21.57-9.38,46.49-18.73,69.21-24.73,5.9-1.56,14.73-.74,20.09-2.9,5.55-.69,5.05-.59,7,3.92,12.18,28.14,22.55,62.6,32.97,92.02-8.15,10.14-17.1,19.48-26.01,28.96-23.11,24.62-51.98,45.1-77.94,67.95-17.89,15.75-31.64,33.41-44.79,53.14-8.51,12.77-10.96,30.78-30.97,27.65-4.05-15.24-1.42-31.26-2.08-46.88-1.39-33.06-3.55-59.96,2.43-93.35,1.11-6.21,6.21-13.29,5.54-18.32-.44-3.28-5.79-9.96-7.57-14.64-13.64-35.74-24.37-76.47-31.86-114.04-3.41-17.07-3.84-42.25-8.52-57.35-2.04-6.59-7.64-7.15-7.11,2.98,2.65,50.08,3.33,103.71-11.92,151.91-3.68,11.62-15.8,31.26-16.29,41.24-.5,10.29,5.34,20.95,6.77,30.2,2.85,18.46,3.04,35.27,4.52,53.44.5,6.1,7.43,68.6,2.96,69-4.23-2.28-14.35.1-16.92-.98-4.16-1.75-25.83-26.55-32-32.06-23.19-20.72-53.31-44.57-80.63-59.27-11.81-6.36-25.97-10.44-37.1-16.87-25.9-14.95-47.12-41.88-68.18-62.74,7.03-31.6,15.49-61.33,25.98-91.94,23.82,1.05,47.18-2.15,70.7.25,15.2,1.56,33.94,5.44,48.87,9.09,17.05,4.17,33.23,11.56,50.25,14.59l-.5-9.34c-45.24-30.99-89.48-65.08-141.33-84.54,17.37-37.77,36.98-74.54,59.13-109.76,10.23-16.27,28.18-46.17,40.8-59.12,2.22-2.28,7.2-6.26,9.99-7,15.25-4.08,60.63-8.29,77.03-8.08,11.84.15,29.38,2.75,41.6,4.36,12.95,1.71,51.15,7.11,61.25,11.71Z"/>
  <path class="st25" d="M1305.13,1726.85c21.06,20.86,42.28,47.78,68.18,62.74,11.13,6.43,25.28,10.51,37.1,16.87,27.32,14.71,57.44,38.55,80.63,59.27,6.17,5.51,27.84,30.31,32,32.06,2.57,1.08,12.69-1.3,16.92.98,4.48-.4-2.46-62.91-2.96-69-1.48-18.16-1.67-34.98-4.52-53.44-1.43-9.25-7.27-19.9-6.77-30.2.49-9.98,12.62-29.62,16.29-41.24,15.25-48.2,14.57-101.83,11.92-151.91-.54-10.13,5.06-9.57,7.11-2.98,4.68,15.1,5.11,40.28,8.52,57.35,7.5,37.57,18.23,78.3,31.86,114.04,1.78,4.68,7.13,11.36,7.57,14.64.67,5.03-4.43,12.11-5.54,18.32-5.97,33.39-3.82,60.29-2.43,93.35.66,15.62-1.97,31.64,2.08,46.88,20.01,3.13,22.46-14.88,30.97-27.65,13.15-19.74,26.9-37.4,44.79-53.14,25.96-22.85,54.83-43.33,77.94-67.95,8.91-9.49,17.86-18.82,26.01-28.96,28.43,80.21,48.1,106.81,18.91,193.8-7.7,22.96-23.19,70.01-42.22,83.69-82.98,59.68-200.62,55.38-296.16,32.99-18.64-4.37-75.73-27.14-87.31-40.61-17.42-30.77-38.57-61.7-55.26-92.65-35.85-66.49-31.59-95.58-15.65-167.23ZM1764.75,1800.87c-5.76-1.13-9.82,1.9-14.52,4.33-45.24,23.31-75.77,92.3-109.37,130.47-7.58,8.61-10.7,15.05-23.1,16.87-18.05,2.64-81.22,5.33-96.83,1.23-14.61-3.84-52.65-42.75-68.03-53.89-12.46-9.02-30.87-20.07-44.49-27.46-7.04-3.82-46.79-24.15-51.3-19.64,5.37,34.01,16.04,82.8,40.02,108.87,25.61,27.83,99.62,48.83,136.76,51.12,44.64,2.75,137.24-6.71,174.81-31.25,59.93-39.16,72.05-115.22,56.06-180.64Z"/>
  <path class="st3" d="M1135.06,2044.8c-1.76-1.18-6.33-1.5-5.78,2.77,1.27,9.82,8.81,25.04,15.94,32.09,2.22,9.78-29.66,2.9-34.86,2.87-6-.03-14.05,3.97-21.08,2.05l19.98-39.94-22.95,27.99c-2.21,2.47-13.53,14.39-15.07,15.04-8.82,3.72-31.31-18.51-31.64-27.96-.17-4.75,3.35-11.27,3.52-16.3.34-10.56-1.51-19.21.44-31.53,7.04-44.65,29.53-62.83,74.69-63.34,11.08-.12,36.28,6.26,44.08,14.04,7.93,7.91,15.35,49.48,16.45,61.69-2.65,12.29,2.66,24.07-.49,36.4-1.22,4.77-12.73,22.66-17.77,21.78-4.9-4.99-12.21-10.39-16.14-15.97-3.43-4.88-8.32-21.04-9.3-21.7ZM1106.79,1989.16c-12.7-12.21-72.08,15.26-57.63,38.15,7.41,11.73,35.16.8,43.99-5.79,6.84-5.1,21.01-25.28,13.65-32.36ZM1172.69,2028.14c19.33-20.64-47.4-53.84-57.58-38.13-12.53,19.34,40.85,55.99,57.58,38.13Z"/>
  <path class="st9" d="M1648.9,1397.07c-10.1-4.6-48.29-10-61.25-11.71-12.23-1.61-29.76-4.21-41.6-4.36-16.41-.21-61.78,3.99-77.03,8.08-6.95,1.09-2.46-3.38-.79-5.79,16.34-23.51,53-65.56,75.78-82.12,7.92-5.76,17.22-14.8,26.84-6.92,27.52,28.4,51.61,55.39,72.89,88.99,1.57,2.48,8.67,11.18,5.16,13.82Z"/>
  <path class="st11" d="M1359.09,1564.96c51.85,19.46,96.09,53.56,141.33,84.54l.5,9.34c-17.02-3.03-33.2-10.42-50.25-14.59-14.94-3.65-33.68-7.53-48.87-9.09-23.52-2.41-46.88.79-70.7-.25,8.41-24.53,17.18-46.47,27.98-69.95Z"/>
  <path class="st1" d="M2070.62,1952.7c-7.13,31.33-12.02,62.16-10.08,95.02.26,4.43,1.68,8.54,2.08,12.91-.92-.41-11.89-3.89-14.43-4.56-5.95-1.57-23.68-3.6-25.54-5.43,4.27-1.22,3.7-5.22,4.39-8.6,7.82-37.76,9.79-73.18,26.58-109.33,5.26-11.32,33.14-58.12,42.98-61.95-12.37,26.46-19.52,53.55-25.98,81.95Z"/>
  <path class="st10" d="M1728.85,1572.95c.1.25,2.69,1.31,3.49,3.43,3.58,9.47,12.81,29.55,14.16,38.08.22,1.42.89,2.77.11,4.18-1.55.15-2.86,1.91-3.77,2.27-5.35,2.16-14.19,1.34-20.09,2.9-22.71,6-47.63,15.35-69.21,24.73-5.8,2.52-35.19,19.63-38.61,16.33-.87-4.04.89-5.34,2.9-8.07,6.17-8.43,21.62-20.74,30.12-27.84,25.13-21,52.98-39.02,80.9-56.01Z"/>
  <path class="st16" d="M1091.26,2090.62c1.04,7.67-5.14,11.06-11.97,9.97-1.41-7.53,5.83-10.19,11.97-9.97Z"/>
  <path class="st22" d="M1084.3,2104.62c16.78,1.58-3.05,15.84-3.04,4.98,0-2.69,1.24-3.4,3.04-4.98Z"/>
  <polygon class="st6" points="1117.25 2088.62 1113.98 2094.38 1108.54 2094.38 1105.27 2088.62 1117.25 2088.62"/>
  <path class="st0" d="M1145.23,2090.62c.18,8.2-10.15,8.2-9.97,0h9.97Z"/>
  <path class="st24" d="M1107.25,2108.58l-11.97-.98,8.85-4.96c2.29,1.65,3.74,3.02,3.12,5.94Z"/>
  <polygon class="st4" points="1157.22 2090.62 1157.21 2098.6 1149.25 2093.58 1149.24 2090.62 1157.22 2090.62"/>
  <path class="st19" d="M1133.24,2090.63l-5.02,5.97c-3.11.69-5.74-3.35-4.96-5.98h9.98Z"/>
  <path class="st12" d="M1157.22,2114.58c-8.22-.62-7.01-5.62-.98-9.97l.98,9.97Z"/>
  <path class="st21" d="M1123.25,2106.58l-11.98-.97c3.3-4.41,10.03-4.52,11.98.97Z"/>
  <rect class="st16" x="1095.27" y="2088.61" width="6" height="6" transform="translate(-997.24 3182.4) rotate(-89.8)"/>
  <polygon class="st12" points="1135.23 2104.61 1135.23 2108.58 1125.27 2106.57 1125.26 2104.62 1135.23 2104.61"/>
  <path class="st19" d="M1147.22,2106.61v3.98c-3.68.48-5.82.08-7.97-3l7.97-.98Z"/>
  <path class="st20" d="M2112.59,2082.61c-7.08-7.75-10.86-20.15-15.99-29.98-.46-.88-1.71-1.45-2-2s.27-1.47,0-2c7.03-6.26,14.89-12.81,20.82-20.15,7.93-9.83,23.85-43.4,30.05-47.9,3.96-2.87,11.27-2.88,16.45-5.54,16.18-8.32,44.32-31.95,55.74-46.19,2.66-3.32,1.63-7.77,4.84-8.12-1.59,14.86-8.98,33.68-15.62,47.31-16.49,33.86-61.79,95.93-94.29,114.57Z"/>
  <path class="st20" d="M2176.55,1878.75c-13.14,40.19-43.78,126.59-71.92,156.37-2.99,3.16-7.51,6-12,5.53-2.02-12.68-9.29-23.13-18.01-31.98-2.24-2.27-2.96-6.31-7.99-6,.18-2.11-.46-4.39.41-6.5,38.03-33.11,85.48-72.56,107.52-119.41l2,2Z"/>
  <path class="st2" d="M2084.61,1972.7c-.42,3.16-15.32,14.82-15.97,13.97l2.08-13.89,13.89-.08Z"/>
  <path class="st17" d="M2174.55,1876.75c1.86-3.96,2.47-7.41,3.78-11.3,1.05-3.1-1.76-5.72,4.2-4.68.81,6.69-4.24,12.64-5.99,17.98l-2-2Z"/>
  <path class="st23" d="M2096.6,2052.63l-2-2c.29.55,1.54,1.12,2,2Z"/>
  <path class="st15" d="M1764.75,1800.87c15.99,65.42,3.86,141.48-56.06,180.64-37.56,24.54-130.16,34-174.81,31.25-37.13-2.29-111.14-23.29-136.76-51.12-23.99-26.06-34.65-74.85-40.02-108.87,4.52-4.51,44.27,15.82,51.3,19.64,13.62,7.39,32.04,18.45,44.49,27.46,15.38,11.13,53.43,50.05,68.03,53.89,15.61,4.1,78.77,1.42,96.83-1.23,12.4-1.82,15.52-8.26,23.1-16.87,33.6-38.17,64.13-107.16,109.37-130.47,4.71-2.43,8.76-5.46,14.52-4.33Z"/>
  <path class="st14" d="M1172.69,2028.14c-16.73,17.87-70.11-18.79-57.58-38.13,10.18-15.71,76.92,17.49,57.58,38.13ZM1126.73,1993.07c-2.43.52-4.8,1.83-6.59,3.57-4.5,18.08,39.14,41.91,49.26,29.2,11.35-14.25-29-35.69-42.68-32.77Z"/>
  <path class="st14" d="M1106.79,1989.16c7.37,7.08-6.81,27.26-13.65,32.36-8.83,6.58-36.58,17.52-43.99,5.79-14.45-22.89,44.93-50.36,57.63-38.15ZM1086.78,1993.11c-10.44,1.56-44.1,19.63-33.67,32.74,5.32,6.69,23.26,1.03,29.96-2.4,14.87-7.61,33.26-34.75,3.71-30.34Z"/>
  <path class="st3" d="M1126.73,1993.07c13.68-2.92,54.02,18.53,42.68,32.77-10.12,12.71-53.76-11.12-49.26-29.2,1.79-1.75,4.15-3.05,6.59-3.57Z"/>
  <path class="st3" d="M1086.78,1993.11c29.55-4.41,11.16,22.73-3.71,30.34-6.7,3.43-24.64,9.08-29.96,2.4-10.44-13.11,23.22-31.18,33.67-32.74Z"/>
</svg>