<?xml version="1.0" encoding="UTF-8"?>
<svg id="Layer_1" xmlns="http://www.w3.org/2000/svg" version="1.1" viewBox="0 0 3000 3000">
  <!-- Generator: Adobe Illustrator 29.4.0, SVG Export Plug-In . SVG Version: 2.1.0 Build 152)  -->
  <defs>
    <style>
      .st0 {
        fill: #fff;
      }
    </style>
  </defs>
  <path class="st0" d="M2850,0v3000H150V0h2700ZM197.97,41.23v2921.29l2590.57,4.51c.78-185.75.51-371.26,1.42-557.05,3.56-724.96,8-1450.34,12.13-2175.28l-1.42-198.1c-5.82-5.64-10.76-.79-17.33-.55-856-.8-1712.69-.78-2568.12-3.15-6.01-.02-15.72,1.11-17.25,8.33Z"/>
  <path d="M197.97,41.23c1.53-7.23,11.24-8.35,17.25-8.33,855.44,2.37,1712.12,2.35,2568.12,3.15,6.57-.24,11.5-5.08,17.33.55l1.42,198.1c-4.13,724.94-8.56,1450.32-12.13,2175.28-.91,185.79-.64,371.3-1.42,557.05l-2590.57-4.51V41.23ZM2310.31,52.47l-2095.76-1.42-1.57,1799.02,384.89,4.13c9.26,3.96,6.61,30.74,6.44,40.16-.85,47.69-.21,96.15-1.5,143.93-.22,8.22-3.53,17.68-.91,26.27l3.09,1.41c512.94,2.28,1025.37,3.89,1538.22,5.92,4.61.02,8.74,1.62,13.35,1.64,79.23.33,158.49-.4,237.7-.06-2.96-53-.75-106.49-1.45-159.74-.14-10.87-7.2-46.93,5.86-50.99,55.6-4.02,111.52-1.48,167.29-2.11,51.14-.58,103.15-2.07,154.29-3.12,18.74-.39,37.56.41,56.29.07l7.27-1333.38c-1.1-3.83-15.83.45-19.96.6-87.69,3.25-168.4-25.95-239.02-75.94-124.99-88.48-214.54-240.7-214.54-396.4ZM2785.54,52.47h-458.75c-1.31,94.89,34.32,188.07,88.73,264.34,82.32,115.4,220.85,207.59,368.52,189.94l1.49-454.28ZM212.97,1863.57v198.65l371.58,3.54c1.3-2.49,1.58-5.2,1.78-7.97,3.3-45.49.51-98.76,1.5-145.42.3-14.25-.38-28.57-.06-42.81l-374.8-5.99ZM2776.54,1874.06l-368.8,4.49c.31,14.23-.37,28.56-.06,42.81.98,46.17-1.77,98.91,1.5,143.92.2,2.77.48,5.48,1.78,7.97l365.58,1.71v-200.9ZM212.97,2079.46v868.07l2556.62,2.79,1.8-1.19c2.57-158.61,1.31-317.35,2.08-476.18.52-107.1,1.39-215.1,3.14-322.2.32-19.75-.39-39.57-.06-59.3l-2563.58-11.99Z"/>
  <path class="st0" d="M2310.31,52.47c0,155.7,89.55,307.91,214.54,396.4,70.61,49.99,151.32,79.18,239.02,75.94,4.13-.15,18.86-4.43,19.96-.6l-7.27,1333.38c-18.73.34-37.55-.46-56.29-.07-51.14,1.06-103.15,2.54-154.29,3.12-55.77.63-111.69-1.91-167.29,2.11-13.06,4.06-6,40.12-5.86,50.99.69,53.25-1.51,106.74,1.45,159.74-79.21-.34-158.47.39-237.7.06-4.61-.02-8.74-1.62-13.35-1.64-512.85-2.03-1025.28-3.64-1538.22-5.92l-3.09-1.41c-2.63-8.59.68-18.06.91-26.27,1.29-47.78.65-96.23,1.5-143.93.17-9.42,2.82-36.2-6.44-40.16l-384.89-4.13,1.57-1799.02,2095.76,1.42ZM1083.98,1419.79v-27.74c0-2.37,10.84-23.01,12.7-27.78,3.04-7.84,20.08-42.88,3.19-41.95-3.68.2-22.62,11.04-26.84,13.8-62.67,41-83.14,162.61-66.25,230.6,6.86,27.63,41.22,88.86,59.95,110.96,6.25,7.37,50.76,47.94,50.12,51.49-14.65,20.26-33.28,37.56-45.44,59.6-23.47,42.55-54.51,102.17-69.52,147.87-6.55,19.93-9.55,55.38-6.26,76.01,1.76,11.03,15.02,10.66,16.42-1.38,2.76-23.8-3.36-42.53,4.42-67.54,10.65-34.22,30.77-72.08,47.24-104.18,17.22-33.56,36.77-72.55,64.44-98.98,3.87-3.7,11.8-5.56,12.42-11.39.95-9.03-9.39-10.79-14.65-14.74-4.69-3.53-7.52-9.41-11.14-12.85-39.53-37.45-67.07-72.15-87.55-123.84-17.73-44.77-9.08-131.58,12.49-174.48,10.51-20.91,24.04-44.8,45.74-55.44,1.45,1.73-15.67,34.1-16.48,41.22-1.78,15.7-2.09,62.71-.06,78.03.59,4.49,1.93,6.56,6.82,6.82,10.64.57,8.42-8.73,10.43-15.2,8.78-28.33,24.75-55.49,45.77-76.4-2.38,8.05-6.12,15.82-8.24,23.97-4,15.35-12.56,46.47-14.06,60.89-.93,8.9-.16,21.93,11.91,17.94,5.62-1.86,5.88-9.08,8.64-13.87,12.09-21.03,21.12-24.81,35.52-40.94,7.02-7.86,11.62-21.45,23.21-24-4.44,18.24-18.4,31.93-25.14,49.05-27.94,71.01-28.63,142.2,14.91,206.31,4.6,6.77,9.19,9.17,17.36,5.86s36.36-28.73,43.13-36.32c44.84-50.28,88.12-101.94,130.43-154.42,56.2-69.71,121.23-162.23,137.92-251.87,5.56-29.85,4.72-103.74-6.48-131.49-5.49-13.61-36.02-47.51-47.49-58.95-25.01-24.95-63.55-16.58-95.21-14.22,16.08-7.25,32.98-12.49,48.98-19.98,28.02-13.14,60.19-28.57,87.47-42.96s49.6-33,75.42-47.52c39.02-21.93,72.67-35.06,110.32-62.09,62.41-44.81,123.33-92.02,177.84-145.99l14.17-16.54c.08,11.82-2.38,23.27-1.46,35.2,3.66,47.57,18.62,107.17,41.17,149.23,29.89,55.76,81.91,99.41,117.46,150.9,10.89,15.77,19.45,33.28,30.51,48.94,19.15,27.11,42.76,51.29,61.52,79.41,21.6,32.37,35.06,61.42,49.91,97.02,2.61,6.26,16.69,32.5,15.83,36.49-8.64,5.84-13.92,16.78-21.88,23.46-8.42,7.06-21.61,12.98-31.16,19.81-24.11,17.24-47.01,40.47-73.95,53.48-12.58,6.07-27.65,9.18-40,15.47-11.66,5.94-22.48,16.39-33.5,23.47-29.83,19.15-62.11,35.74-87.48,60.94-39.06,38.78-73.04,100.75-77.72,156.16-.7,8.3-3.24,37.03,8.13,38.11,10.43-2.27,12.71-18.24,17.59-27.38,10.47-19.59,23.18-40.58,38.53-56.66-2.34,7.65-5.9,14.8-8.22,22.5-7.25,23.99-12.05,68.06-.83,90.77,3.7,7.49,11.58,11.59,17.29,3.65,3.31-4.61,6.6-22.87,9.08-29.9,3.05-8.66,7.07-20.15,12.67-27.05-.63,15.32-4.51,30.23-2.97,45.71,1.6,16.14,13.46,28.13,19.85,42.36,6.92,3.52,11.74,3.01,15.73-3.75,11.42-19.33,20.3-50.33,30.1-71.84,29.6-64.94,67.92-145.78,120.91-193.93,8.36-7.6,20.18-16.06,29.4-23.07,27.51-20.91,56.74-41.25,89.78-51.83,4.58,23.64,9.96,47.57,13.29,71.44,7.01,50.32,8.1,103.37,10.76,154.16,5.88,112.57,10.32,226.65-1.49,338.87-1.47,13.95-.72,29.07-3.21,43.27-1.58,9.04-10.99,29.15-10.03,35.85,1.28,9,13.24,10.68,17.32-.08,7.27-19.16,10.26-43.72,12.37-64.09,7.37-71.27,5.34-144.24,4.45-215.82-2.81-224.95-6.08-458.65-147.7-645.39-13.39-17.65-29.8-33.91-42.35-52.1-10.52-15.26-19.18-32.53-29.93-48.03-51.66-74.45-116.53-118.56-141.13-212.68-6.82-26.09-17.17-78.98-13.21-104.42,1.3-8.31,6.47-19.5,7.04-26.07.33-3.84-1.59-7.18-1.18-10.01.74-5.15,29.31-37.7,34.47-46.53,27.46-47.05,43.46-111.07,47.7-165.19.69-8.79-.76-17.86.33-26.66,1.43-4.93,20.76-16.11,25.88-20.59,15.52-13.59,53-67.29,60.41-86.52,32.45-84.3-15.49-215.56-115.85-222.26-60.3-4.03-141.32,36.32-188.62,72.2-16.21,12.3-27.23,26.96-41.03,41.49-32.72-2.81-65.79-5.71-98.71-4.33-23.9,1.01-55.68,3.61-79.18,7.77-11.09,1.96-30.09,9.41-39.81,9.54-4.25.05-5.29-3.98-11.22-3.72-7.27.32-4.96,6.01-9.43,8.68-10.36.77-33.52,16.83-41.74,16.74-4.81-.05-17.35-23.4-21.07-28.33-15.67-20.77-41.66-53.22-65.55-63.38-4.92-2.09-10.89-2.68-16-4.99-49.1-22.23-61.48-39.15-119.47-15.97-110.83,44.28-135.41,148.05-108,256.96,3.26,12.96,10.67,28.83,12.8,41.29,1.74,10.2-12.97,17.24-20.52,22.3-33.13,22.21-83.15,56.41-108.09,86.8-17.06,20.79-34.04,42.04-50.98,62.97-37.63,46.49-65.23,97.29-96.85,147.52-23.15,36.77-40.3,58.94-56.13,101.29-36.45,97.54-64.8,196.06-36.72,300.64,9.66,35.97,15.08,80.24,39.12,109.3,35.76,43.22,128.5,37.6,166.34.18,22.66-22.4,42.02-52.25,67.63-73.29,8.07-6.72,25.15-5.46,35.56-4.53,31.43,2.78,62.23,14.41,84.22,37.22,14.84,15.39,18.38,34.49,28.38,52.58,17.64,31.89,21.62,20.87,49.88,9.34,14.82-6.05,25.08-12.02,38.82-18.15,8.58-3.83,38.36-12.53,43.21-18.26,6.97-8.23-7.71-36.03-10.22-46.65-8.9-37.66,8.32-82.32,24.25-116.24,3.43-7.31,17.01-34.28,23.14-36.83,31.95-3.25,66.67-14.38,96.96,1.22,16.27,21.87,45.88,42.11,51.89,69.55,21.22,96.89-11.09,174.57-59.54,255.43-29.5,49.24-66.4,92.81-102.53,137.34-24.23,29.87-45.8,53.29-71.88,81.04-14.1,15-24.3,33.47-39.69,47.26-2.62,2.35-21.91,18.13-23.29,18.7-2.54,1.04-2.04-1.07-2.6-1.86-39.01-54-33.98-115.37-15.02-176.2,7.43-23.84,24.46-42.81,32.62-66.32,9.67-27.82-21.32-20.76-35.24-9.76-9.19,7.27-13.52,17.69-20.88,25.59-4.79,5.14-12.99,10.19-18.04,15.68,3.6-17.5,6.86-34.52,14.28-50.92,3.85-8.51,22.24-34.23,22.94-38.67,2.56-16.11-19-6.9-25.7-3.06-14.5,8.29-33.92,34.46-44.24,48.71-6.09,8.4-10.37,17.87-16.77,25.96Z"/>
  <path class="st0" d="M212.97,2079.46l2563.58,11.99c-.33,19.73.39,39.55.06,59.3-1.75,107.09-2.62,215.09-3.14,322.2-.77,158.83.49,317.56-2.08,476.18l-1.8,1.19-2556.62-2.79v-868.07ZM1060.24,2132.33c0-5.14-4.16-9.3-9.3-9.3s-9.3,4.16-9.3,9.3,4.16,9.3,9.3,9.3,9.3-4.16,9.3-9.3ZM2007.72,2132.33c0-5.14-4.16-9.3-9.3-9.3s-9.3,4.16-9.3,9.3,4.16,9.3,9.3,9.3,9.3-4.16,9.3-9.3ZM2408,2132.33c0-5.14-4.16-9.3-9.3-9.3s-9.3,4.16-9.3,9.3,4.16,9.3,9.3,9.3,9.3-4.16,9.3-9.3ZM2641.87,2132.33c0-5.14-4.16-9.3-9.3-9.3s-9.3,4.16-9.3,9.3,4.16,9.3,9.3,9.3,9.3-4.16,9.3-9.3ZM517.3,2124.44h-14.99v35.98c-26.8-23.74-57.06,1.26-49.7,33.96,5.38,23.87,34.82,34.23,50.45,14.03l.74,9h13.5v-92.96ZM736.17,2124.44h-14.99v92.95h14.99v-42.73c0-8.3,17.25-14.37,24.09-7.59,1.12,1.11,4.4,9.45,4.4,10.59v39.73h14.99v-41.23c0-.5-1.86-8.73-2.22-9.78-5.98-17.48-28.92-20.05-41.26-7.46v-34.48ZM973.04,2164.92v52.47h14.99v-52.47l9.54-.21c3.98-1.28,2.15-8.51,2.46-11.79h-12.01c-1.07-10.57,0-14.63,10.6-17.4l-.09-11.09c-19.31-3.31-27.5,11.04-25.49,28.5h-10.51s0,11.99,0,11.99h10.5ZM1025.51,2124.44h-14.99v92.95h14.99v-92.95ZM1716.63,2124.44h-14.99v92.95h14.99v-42.73c0-8.3,17.25-14.37,24.09-7.59,1.12,1.11,4.4,9.45,4.4,10.59v39.73h14.99v-41.23c0-.5-1.86-8.73-2.22-9.78-5.98-17.48-28.92-20.05-41.26-7.46v-34.48ZM1935.51,2124.44h-14.99v92.95h15c-1.89-13.53,1.13-18.78,11.24-26.96,2.56-.02,14.91,23.87,18.75,26.2,3.7,2.24,13.33-.02,17.98.75l-26.6-36.7,23.6-27.74c-5.27.67-13.22-1.39-17.96.76-7.03,3.2-18.74,24.69-27.01,29.21v-58.47ZM2038.95,2124.44h-14.99v92.95h14.99v-92.95ZM2071.93,2124.44h-14.99v92.95h14.99v-92.95ZM2224.85,2124.44h-14.99v35.98c-26.8-23.74-57.06,1.26-49.7,33.96,5.38,23.87,34.82,34.23,50.45,14.03l.74,9h13.5v-92.96ZM2331.29,2124.44h-14.99v92.95h14.99v-42.73c0-8.3,17.25-14.37,24.09-7.59,1.12,1.11,4.4,9.45,4.4,10.59v39.73h14.99v-41.23c0-.5-1.86-8.73-2.22-9.78-5.98-17.48-28.92-20.05-41.26-7.46v-34.48ZM2715.07,2124.44h-14.99v92.95h14.99v-42.73c0-8.3,17.25-14.37,24.09-7.59,1.12,1.11,4.4,9.45,4.4,10.59v39.73h14.99v-41.23c0-.5-1.86-8.73-2.22-9.78-5.98-17.48-28.92-20.05-41.26-7.46v-34.48ZM333.19,2173.07c0-25.57-20.73-46.3-46.3-46.3s-46.3,20.73-46.3,46.3,20.73,46.3,46.3,46.3,46.3-20.73,46.3-46.3ZM875.6,2128.94h-14.99v88.46h14.99v-88.46ZM682.2,2164.92v41.23c0,.38,3.25,6.04,3.83,6.67,5.34,5.78,14.57,4.62,21.67,4.58l-.02-13.5c-18.89,4.51-9.87-27.87-11.99-38.99l12.85-1.39.66-10.6-12.85-1.4-.65-15.1h-13.51s-.2,14.04-.2,14.04c-1.24,3.76-7.06,2.27-10.29,2.45l-.02,11.14,10.52.86ZM1151.44,2164.92v41.23c0,.38,3.25,6.04,3.83,6.67,5.34,5.78,14.57,4.62,21.67,4.58l-.02-13.5c-18.89,4.51-9.87-27.87-11.99-38.99l12.85-1.39.66-10.6-12.85-1.4-.65-15.1h-13.51s-.2,14.04-.2,14.04c-1.24,3.76-7.06,2.27-10.29,2.45l-.02,11.14,10.52.86ZM1662.66,2164.92v41.23c0,.38,3.25,6.04,3.83,6.67,5.34,5.78,14.57,4.62,21.67,4.58l-.02-13.5c-18.89,4.51-9.87-27.87-11.99-38.99l12.85-1.39.66-10.6-12.85-1.4-.65-15.1h-13.51s-.2,14.04-.2,14.04c-1.24,3.76-7.06,2.27-10.29,2.45l-.02,11.14,10.52.86ZM1850.06,2164.92v41.23c0,.38,3.25,6.04,3.83,6.67,5.34,5.78,14.57,4.62,21.67,4.58l-.02-13.5c-18.89,4.51-9.87-27.87-11.99-38.99l12.85-1.39.66-10.6-12.85-1.4-.65-15.1h-13.51s-.2,14.04-.2,14.04c-1.24,3.76-7.06,2.27-10.29,2.45l-.02,11.14,10.52.86ZM2278.82,2164.92v41.23c0,.38,3.25,6.04,3.83,6.67,5.34,5.78,14.57,4.62,21.67,4.58l-.02-13.5c-18.89,4.51-9.87-27.87-11.99-38.99l12.85-1.39.66-10.6-12.85-1.4-.65-15.1h-13.51s-.2,14.04-.2,14.04c-1.24,3.76-7.06,2.27-10.29,2.45l-.02,11.14,10.52.86ZM2661.1,2164.92v41.23c0,.38,3.25,6.04,3.83,6.67,5.34,5.78,14.57,4.62,21.67,4.58l-.02-13.5c-18.89,4.51-9.87-27.87-11.99-38.99l12.85-1.39.66-10.6-12.85-1.4-.65-15.1h-13.51s-.2,14.04-.2,14.04c-1.24,3.76-7.06,2.27-10.29,2.45l-.02,11.14,10.52.86ZM406.36,2217.39v-41.23c0-.5-1.86-8.73-2.22-9.78-6.12-17.89-30.83-20.53-42.02-5.97l-.73-7.5h-13.5v64.48h14.99v-42.73c0-6.04,9.8-10.89,15.5-10.72,7.2.21,12.98,6.69,12.98,13.72v39.73h14.99ZM595.25,2188.91c4.51-47.58-64.58-51.05-64.57-3.75,0,32.1,39.31,46.25,58.58,20.99,7.93-10.4,3.99-12.07-8.26-9.76-4.27.81-4.42,6.69-9.65,8.34-13.17,4.14-23.95-2.17-25.56-15.82h49.47ZM664.22,2217.4c-3.59-15.38.68-33.87-1.6-48.63-3.81-24.65-55.69-23.65-55.38,3.64l14.07.1c3.78-14.15,25.67-11.85,27.86,2.17-.31,4.26-39.34,1.66-43.1,18.29-6.47,28.58,28.36,32.86,44.64,16.93v7.5s13.51,0,13.51,0ZM812.66,2161.85c0-5.66-4.59-10.25-10.25-10.25s-10.25,4.59-10.25,10.25,4.59,10.25,10.25,10.25,10.25-4.59,10.25-10.25ZM953.55,2217.39v-41.23c0-.5-1.86-8.73-2.22-9.78-6.12-17.89-30.83-20.53-42.02-5.97l-.73-7.5h-13.5v64.48h14.99v-42.73c0-6.04,9.8-10.89,15.5-10.72,7.2.21,12.98,6.69,12.98,13.72v39.73h14.99ZM1134.95,2175.4c-8.69-38.78-64.67-28.58-63.01,11.18,1.6,38.35,56.14,45.1,63.01,6.83l-13.99-.07c-1.8.44-2.81,11.84-15.23,12.19-29.89.84-20.89-53.63,7.3-38.92,3.82,1.99,5.51,7.73,7.93,8.56,3.7,1.27,9.87-.34,13.99.24ZM1281.87,2188.91c4.51-47.58-64.58-51.05-64.57-3.75,0,32.1,39.31,46.25,58.58,20.99,7.93-10.4,3.99-12.07-8.26-9.76-4.27.81-4.42,6.69-9.65,8.34-13.17,4.14-23.95-2.17-25.56-15.82h49.47ZM1353.83,2217.39v-41.23c0-.5-1.86-8.73-2.22-9.78-6.12-17.89-30.83-20.53-42.02-5.97l-.73-7.5h-13.5v64.48h14.99v-42.73c0-6.04,9.8-10.89,15.5-10.72,7.2.21,12.98,6.69,12.98,13.72v39.73h14.99ZM1430.29,2188.91c4.51-47.58-64.58-51.05-64.57-3.75,0,32.1,39.31,46.25,58.58,20.99,7.93-10.4,3.99-12.07-8.26-9.76-4.27.81-4.42,6.69-9.65,8.34-13.17,4.14-23.95-2.17-25.56-15.82h49.47ZM1443.78,2152.92v64.47h14.99v-42.73c0-.44,3.71-6.72,4.54-7.45,8.24-7.19,22.44-1.93,22.44,8.95v41.23h14.99v-44.23c0-.43,4.47-5.89,5.43-6.56,9.7-6.81,21.56-.11,21.56,11.06v39.73h13.49v-50.22c0-1.58-5.66-8.98-7.45-10.54-11.72-10.21-27.55-5.19-38.25,3.8-8.21-12.89-28.47-12.09-37.51-.02l-.73-7.5h-13.5ZM1832.07,2217.4c-3.59-15.38.68-33.87-1.6-48.63-3.81-24.65-55.69-23.65-55.38,3.64l14.07.1c3.78-14.15,25.67-11.85,27.86,2.17-.31,4.26-39.34,1.66-43.1,18.29-6.47,28.58,28.36,32.86,44.64,16.93v7.5s13.51,0,13.51,0ZM2149.89,2188.91c4.51-47.58-64.58-51.05-64.57-3.75,0,32.1,39.31,46.25,58.58,20.99,7.93-10.4,3.99-12.07-8.26-9.76-4.27.81-4.42,6.69-9.65,8.34-13.17,4.14-23.95-2.17-25.56-15.82h49.47ZM2473.7,2172.4c-2.92-29.49-54.32-27.76-51.01,2.28,2.09,18.97,32.27,14.71,35.77,20.44,7.76,12.7-24.06,16.86-26.23,1.2l-12.5.07c-1.77,31.46,59.08,29.62,53.63-1.89-3.03-17.5-25.88-12.8-34.73-19.24-11.79-8.58,17.88-20.34,21.08-2.79l13.99-.08ZM1058.5,2152.92h-14.99v64.47h14.99v-64.47ZM1583.22,2197.9l-15.75-43.48-15.74-1.48,24.73,62.76-9.74,27.17,14.07.1,36.9-90.04-16.32.16c-4.95,13.01-8.87,28.8-15.11,41.11-.72,1.42-.94,3.55-3.04,3.69ZM2005.97,2152.92h-14.99v64.47h14.99v-64.47ZM2406.25,2152.92h-14.99v64.47h14.99v-64.47ZM2541.19,2196.4l-12.73-42-15.76-1.46,22.69,64.25,14.64.05,14.39-43.34,14.07,42.6,15.01.74,21.13-64.31-14.84.15-14.4,44.82-13.46-43.5-14.33-.79c-2.83,1.89-10.5,34.53-13.29,40.68-.8,1.76.71,2.71-3.13,2.11ZM2640.12,2152.92h-14.99v64.47h14.99v-64.47ZM812.62,2208.27c0-5.65-4.58-10.22-10.22-10.22s-10.22,4.58-10.22,10.22,4.58,10.22,10.22,10.22,10.22-4.58,10.22-10.22ZM1286.37,2302.86l-13.34.14-9.14,31.32,14.84-.14,7.64-31.32ZM1310.35,2302.86l-13.34.14-10.64,31.32,16.42-.05,7.56-31.4ZM1323.85,2391.3h39.73c1.67,0,15.27-5.14,17.6-6.39,28-15.02,27.05-62.59-1.8-76.87-2.29-1.13-12.68-5.19-14.3-5.19h-41.23v88.46ZM1715.13,2302.86l-16.42.05-6.06,31.41,11.83-.17,10.66-31.29ZM1737.61,2302.86l-14.84.15-7.64,31.32,13.34-.14,9.14-31.32ZM1476.76,2362.82c4.51-47.58-64.58-51.05-64.57-3.75,0,32.1,39.31,46.25,58.58,20.99,7.93-10.4,3.99-12.07-8.26-9.76-4.27.81-4.42,6.69-9.65,8.34-13.17,4.14-23.95-2.17-25.56-15.82h49.47ZM1548.72,2349.32c-8.69-38.78-64.67-28.58-63.01,11.18,1.6,38.35,56.14,45.1,63.01,6.83l-13.99-.07c-1.8.44-2.81,11.84-15.23,12.19-29.89.84-20.89-53.63,7.3-38.92,3.82,1.99,5.51,7.73,7.93,8.56,3.7,1.27,9.87-.34,13.99.24ZM1616.19,2391.31c-3.59-15.38.68-33.87-1.6-48.63-3.81-24.65-55.69-23.65-55.38,3.64l14.07.1c3.78-14.15,25.67-11.85,27.86,2.17-.31,4.26-39.34,1.66-43.1,18.29-6.47,28.58,28.36,32.86,44.64,16.93v7.5s13.51,0,13.51,0ZM1653.68,2371.81l-15.75-43.48-15.74-1.48,24.73,62.76-9.74,27.17,14.07.1,36.9-90.04-16.32.16c-4.95,13.01-8.87,28.8-15.11,41.11-.72,1.42-.94,3.55-3.04,3.69ZM427.35,2722.65c-6.65-4.83-16.54,13.37-18.81,17.91-9.79,19.62-14.71,46.65-7.25,67.62l6.57-.1c-10.01-29.53,1.69-61.49,19.49-85.43ZM731.67,2722.65l-7.42.07-15.06,70.38c9.51,2.41,6.13-7.72,9.8-13.42.84-1.3,10.76-9.14,11.94-9.15,4.32-.02,10.66,18.25,12.97,22.33l7.25.24-13.24-27.51,22.24-20.44c-3.09-.14-5.95-.39-8.94.79-7.75,3.07-21.37,20.27-30.03,24.68l10.47-47.97ZM1077.98,2722.65l-7.34.14-6.16,31.33c-20.24-24.21-53.77,1.88-43.07,28.84,5.91,14.89,22.63,13.15,34.07,5.63l.14,4.34h5.71s16.65-70.28,16.65-70.28ZM1598.19,2722.65l-7.42.06-15.06,70.38,6.15-.87c4.67-13.47,3.96-41.76,23.34-42.11,20.7-.38,3.89,31.8,3.47,42.22,2.71,2,5.81.97,7.23-1.77s5.76-22.97,6.09-26.87c1.35-15.66-7.27-22.7-22.33-17.84-2.92.94-4.21,4.14-7.46,3.77l5.99-26.96ZM2059.93,2722.65l-7.42.07-15.06,70.38c9.51,2.41,6.13-7.72,9.8-13.42.84-1.3,10.76-9.14,11.94-9.15,4.32-.02,10.66,18.25,12.97,22.33l7.25.24-13.24-27.51,22.24-20.44c-3.09-.14-5.95-.39-8.94.79-7.75,3.07-21.37,20.27-30.03,24.68l10.47-47.97ZM2272.82,2722.65l-7.34.14-6.16,31.33c-20.24-24.21-53.77,1.88-43.07,28.84,5.91,14.89,22.63,13.15,34.07,5.63l.14,4.34h5.71s16.65-70.28,16.65-70.28ZM2574.15,2808.08c6.8,4.87,15.93-12.22,18.25-16.96,8.41-17.21,11.94-36.65,10.28-55.79-.56-6.52-.71-14.5-9.04-12.68,8.61,30.3-.98,61.03-19.5,85.43ZM568.04,2732.92c2.92-4.67.78-8.85-4.97-8.78l-2.3,8.99,7.27-.21ZM1707.4,2732.92c2.92-4.67.78-8.85-4.97-8.78l-2.3,8.99,7.27-.21ZM1896.3,2732.92c2.92-4.67.78-8.85-4.97-8.78l-2.3,8.99,7.27-.21ZM443.83,2727.14c-1.93.08-4.36-.53-6.08.66-1.48,1.02-8.3,30.74-8.75,34.73-1.64,14.45.02,29.78,17.21,31.94,37.46,4.7,36.09-42.72,44.09-67.32l-7.42.06c-5.12,17.39-5.76,61.19-30.78,61.41-31.17.27-9.53-45.12-8.28-61.47ZM940.06,2793.1h36.73c1.6,0,2.87-4.32,2.24-5.99h-14.99s13.47-59.26,13.47-59.26l-22.47.79v4.48s13.5.01,13.5.01l-11.82,53.09-16,2.29-.66,4.58ZM593.75,2731.65l-7.34.14-2.34,11.9-9.61,1.64-1.68,5.06,8.97.74c-.87,13.19-9.21,26.2-4.61,39.47l13.62,2.49v-5.97c-18.23,2.97-2.08-24.44-2.29-34.53l10.26-1.4,2.48-3.84c.98-4.71-9.19-.95-10.47-2.22l3-13.47ZM647.72,2731.65l-7.34.14-2.34,11.9-9.61,1.64-1.68,5.06,8.97.74c-.87,13.19-9.21,26.2-4.61,39.47l13.62,2.49v-5.97c-18.23,2.97-2.08-24.44-2.29-34.53l10.26-1.4,2.48-3.84c.98-4.71-9.19-.95-10.47-2.22l3-13.47ZM1679.15,2731.65l-7.34.14-2.34,11.9-9.61,1.64-1.68,5.06,8.97.74c-.87,13.19-9.21,26.2-4.61,39.47l13.62,2.49v-5.97c-18.23,2.97-2.08-24.44-2.29-34.53l10.26-1.4,2.48-3.84c.98-4.71-9.19-.95-10.47-2.22l3-13.47ZM1922.02,2731.65l-7.34.14-2.34,11.9-9.61,1.64-1.68,5.06,8.97.74c-.87,13.19-9.21,26.2-4.61,39.47l13.62,2.49v-5.97c-18.23,2.97-2.08-24.44-2.29-34.53l10.26-1.4,2.48-3.84c.98-4.71-9.19-.95-10.47-2.22l3-13.47ZM1975.99,2731.65l-7.34.14-2.34,11.9-9.61,1.64-1.68,5.06,8.97.74c-.87,13.19-9.21,26.2-4.61,39.47l13.62,2.49v-5.97c-18.23,2.97-2.08-24.44-2.29-34.53l10.26-1.4,2.48-3.84c.98-4.71-9.19-.95-10.47-2.22l3-13.47ZM524.8,2793.09c1.94-.1,4.32.55,6.08-.65,1.25-.85,6.91-25.22,7.22-28.75,1.37-15.83-7.22-22.52-22.33-17.84-3.85,1.19-7.87,8.38-7.59-.55l-5.67.03-10.69,47.76,6.15-.87c4.48-13.37,4.43-43.36,24.37-42.12,19.08,1.18,2.81,32.19,2.46,42.99ZM694.18,2793.11c-1.67-11.98,9.31-29.23,4.87-40.1-4.11-10.07-20.82-10.1-29.26-6.05s-12.36,17.99-2.9,12.82c.72-.4,2.91-5.89,6.44-7.78,7.83-4.19,23.61-.55,20.78,8.69-1.88,6.12-34.36,1.34-38.57,15.48-5.79,19.43,21.57,23.47,31.92,10.95l.75,6h5.98ZM767.66,2770.61h38.98c4.79-34.87-42.75-34.18-46.36-2.11-3.32,29.59,34.37,35.11,43.35,9.61-7.7-1.57-9.5,6.65-15.62,9.09-12.38,4.93-22.01-3.85-20.35-16.6ZM851.08,2748.65c-10.7-10.53-38.39-.17-28.58,15.85,4.44,7.25,18.37,7.61,19.91,13.17,3.54,12.77-24.74,16.33-23.96.62l-5.81-.19c-3.69,21.57,34.23,20.14,36.07,3.81,2.13-18.89-22.99-12.22-21.14-25.46,1.33-9.5,22.65-8.56,21.21,3.48l5.81.18c.54-4.15-.5-8.49-3.52-11.46ZM1115.45,2793.11c-1.67-11.98,9.31-29.23,4.87-40.1-4.11-10.07-20.82-10.1-29.26-6.05-8.42,4.05-12.36,17.99-2.9,12.82.72-.4,2.91-5.89,6.44-7.78,7.83-4.19,23.61-.55,20.78,8.69-1.88,6.12-34.36,1.34-38.57,15.48-5.79,19.43,21.57,23.47,31.92,10.95l.75,6h5.98ZM1175.46,2752.61c-3.51-12.33-18.76-8.41-27-2.98l-.13-4.35-5.67.05-10.69,47.76,6.15-.87c4.64-13.06,3.83-42.29,23.07-42.38s3.45,32.93,2.26,43.25l7.43-.06c3.66-13.38,3.68-44.12,23.1-42.93,17.52,1.07,3,30.67,2.44,40.76-.2,3.5,4.37,2.95,5.81,2.03s7.49-29.17,7.6-32.25c.7-19.71-21.98-20.03-32.16-8.04h-2.19ZM1257.87,2793.11c-1.67-11.98,9.31-29.23,4.87-40.1-4.11-10.07-20.82-10.1-29.26-6.05s-12.36,17.99-2.9,12.82c.72-.4,2.91-5.89,6.44-7.78,7.83-4.19,23.61-.55,20.78,8.69-1.88,6.12-34.36,1.34-38.57,15.48-5.79,19.43,21.57,23.47,31.92,10.95l.75,6h5.98ZM1316.37,2754.12c-5.37-14.77-28.55-11.22-36.65.1-16.81,23.51,5.21,52.05,29.89,32.89.49,13.63-12.37,25.84-26.28,18.76-5.2-2.65-5.07-8.29-11.95-6.76.71,15.3,20.94,17.59,32.04,11.8,16.5-8.61,16.67-48.95,23.44-65.01-8.97-3.95-5.67,5.29-10.5,8.22ZM1341.84,2770.61h38.98c4.79-34.87-42.75-34.18-46.36-2.11-3.32,29.59,34.37,35.11,43.35,9.61-7.7-1.57-9.5,6.65-15.62,9.09-12.38,4.93-22.01-3.85-20.35-16.6ZM1421.29,2770.61h38.98c4.79-34.87-42.75-34.18-46.36-2.11-3.32,29.59,34.37,35.11,43.35,9.61-7.7-1.57-9.5,6.65-15.62,9.09-12.38,4.93-22.01-3.85-20.35-16.6ZM1506.73,2793.11c-1.67-11.98,9.31-29.23,4.87-40.1-4.11-10.07-20.82-10.1-29.26-6.05s-12.36,17.99-2.9,12.82c.72-.4,2.91-5.89,6.44-7.78,7.83-4.19,23.61-.55,20.78,8.69-1.88,6.12-34.36,1.34-38.57,15.48-5.79,19.43,21.57,23.47,31.92,10.95l.75,6h5.98ZM1569.71,2761.61c-3.89-24.43-37.42-21.25-44.58-.35-11.48,33.52,29.53,46.07,43.07,16.09-8.07-3.98-8.13,3.78-13.56,7.43-18.92,12.72-31.73-10.45-20.69-26.69,6.9-10.15,27.48-11.4,28.43,3.36l7.33.16ZM1752.64,2752.61c-3.51-12.33-18.76-8.41-27-2.98l-.13-4.35-5.67.05-10.69,47.76,6.15-.87c4.64-13.06,3.83-42.29,23.07-42.38s3.45,32.93,2.26,43.25l7.43-.06c3.66-13.38,3.68-44.12,23.1-42.93,17.52,1.07,3,30.67,2.44,40.76-.2,3.5,4.37,2.95,5.81,2.03s7.49-29.17,7.6-32.25c.7-19.71-21.98-20.03-32.16-8.04h-2.19ZM1805.08,2770.61h38.98c4.79-34.87-42.75-34.18-46.36-2.11-3.32,29.59,34.37,35.11,43.35,9.61-7.7-1.57-9.5,6.65-15.62,9.09-12.38,4.93-22.01-3.85-20.35-16.6ZM2022.45,2793.11c-1.67-11.98,9.31-29.23,4.87-40.1-4.11-10.07-20.82-10.1-29.26-6.05-8.42,4.05-12.36,17.99-2.9,12.82.72-.4,2.91-5.89,6.44-7.78,7.83-4.19,23.61-.55,20.78,8.69-1.88,6.12-34.36,1.34-38.57,15.48-5.79,19.43,21.57,23.47,31.92,10.95l.75,6h5.98ZM2095.92,2770.61h38.98c4.79-34.87-42.75-34.18-46.36-2.11-3.32,29.59,34.37,35.11,43.35,9.61-7.7-1.57-9.5,6.65-15.62,9.09-12.38,4.93-22.01-3.85-20.35-16.6ZM2179.34,2748.65c-10.7-10.53-38.39-.17-28.58,15.85,4.44,7.25,18.37,7.61,19.91,13.17,3.54,12.77-24.74,16.33-23.96.62l-5.81-.19c-3.69,21.57,34.23,20.14,36.07,3.81,2.13-18.89-22.99-12.22-21.14-25.46,1.33-9.5,22.65-8.56,21.21,3.48l5.81.18c.54-4.15-.5-8.49-3.52-11.46ZM2311.79,2793.11c-1.67-11.98,9.31-29.23,4.87-40.1-4.11-10.07-20.82-10.1-29.26-6.05-8.42,4.05-12.36,17.99-2.9,12.82.72-.4,2.91-5.89,6.44-7.78,7.83-4.19,23.61-.55,20.78,8.69-1.88,6.12-34.36,1.34-38.57,15.48-5.79,19.43,21.57,23.47,31.92,10.95l.75,6h5.98ZM2370.29,2752.61c-3.51-12.33-18.76-8.41-27-2.98l-.13-4.35-5.67.05-10.69,47.76,6.15-.87c4.64-13.06,3.83-42.29,23.07-42.38s3.45,32.93,2.26,43.25l7.43-.06c3.66-13.38,3.68-44.12,23.1-42.93,17.52,1.07,3,30.67,2.44,40.76-.2,3.5,4.37,2.95,5.81,2.03s7.49-29.17,7.6-32.25c.7-19.71-21.98-20.03-32.16-8.04h-2.19ZM2452.71,2793.11c-1.67-11.98,9.31-29.23,4.87-40.1-4.11-10.07-20.82-10.1-29.26-6.05-8.42,4.05-12.36,17.99-2.9,12.82.72-.4,2.91-5.89,6.44-7.78,7.83-4.19,23.61-.55,20.78,8.69-1.88,6.12-34.36,1.34-38.57,15.48-5.79,19.43,21.57,23.47,31.92,10.95l.75,6h5.98ZM2511.21,2754.12c-5.37-14.77-28.55-11.22-36.65.1-16.81,23.51,5.21,52.05,29.89,32.89.49,13.63-12.37,25.84-26.28,18.76-5.2-2.65-5.07-8.29-11.95-6.76.71,15.3,20.94,17.59,32.04,11.8,16.5-8.61,16.67-48.95,23.44-65.01-8.97-3.95-5.67,5.29-10.5,8.22ZM2536.67,2770.61h38.98c4.79-34.87-42.75-34.18-46.36-2.11-3.32,29.59,34.37,35.11,43.35,9.61-7.7-1.57-9.5,6.65-15.62,9.09-12.38,4.93-22.01-3.85-20.35-16.6ZM563.76,2745.13l-6.15.86-10.33,47.1,6.15-.87,10.33-47.09ZM907.08,2766.12h-22.49v5.99s19.49,0,19.49,0l-4.5,20.97,6.62.1,5.57-20.88,19.88-.1,2.41-6.1h-20.99l4.52-20.22c-9.94-4.68-8.69,13.75-10.52,20.22ZM1703.13,2745.13l-6.15.86-10.33,47.1,6.15-.87,10.33-47.09ZM1892.02,2745.13l-6.15.86-10.33,47.1,6.15-.87,10.33-47.09ZM1293.86,2851.59c-6.65-4.83-16.54,13.37-18.81,17.91-9.79,19.62-14.71,46.65-7.25,67.62l6.57-.1c-10.01-29.53,1.69-61.49,19.49-85.43ZM1494.75,2851.58l-7.42.07-15.06,70.38c9.51,2.41,6.13-7.72,9.8-13.42.84-1.3,10.76-9.14,11.94-9.15,4.32-.02,10.66,18.25,12.97,22.33l7.25.24-13.24-27.51,22.24-20.44c-3.09-.14-5.95-.39-8.94.79-7.75,3.07-21.37,20.27-30.03,24.68l10.47-47.97ZM1599.69,2851.58l-7.42.07-15.06,70.38,5.77-.21,1.73-8.78c18.84,24.62,51.95-.02,43.55-26.33-4.96-15.53-22.59-16.19-34.55-8.16l5.98-26.98ZM1659.66,2851.59l-7.42.06-15.06,70.38,6.15-.87,16.33-69.57ZM1707.63,2937.02c6.8,4.87,15.93-12.22,18.25-16.96,8.41-17.21,11.94-36.65,10.28-55.79-.56-6.52-.71-14.5-9.04-12.68,8.61,30.3-.98,61.03-19.5,85.43ZM1356.83,2860.58l-7.34.14-2.34,11.9-9.61,1.64-1.68,5.06,8.97.74c-.87,13.19-9.21,26.2-4.61,39.47l13.62,2.49v-5.97c-18.23,2.97-2.08-24.44-2.29-34.53l10.26-1.4,2.48-3.84c.98-4.71-9.19-.95-10.47-2.22l3-13.47ZM1326.32,2877.59c-10.7-10.53-38.39-.17-28.58,15.85,4.44,7.25,18.37,7.61,19.91,13.17,3.54,12.77-24.74,16.33-23.96.62l-5.81-.19c-3.69,21.57,34.23,20.14,36.07,3.81,2.13-18.89-22.99-12.22-21.14-25.46,1.33-9.5,22.65-8.56,21.21,3.48l5.81.18c.54-4.15-.5-8.49-3.52-11.46ZM1403.29,2922.04c-1.67-11.98,9.31-29.23,4.87-40.1-4.11-10.07-20.82-10.1-29.26-6.05s-12.36,17.99-2.9,12.82c.72-.4,2.91-5.89,6.44-7.78,7.83-4.19,23.61-.55,20.78,8.69-1.88,6.12-34.36,1.34-38.57,15.48-5.79,19.43,21.57,23.47,31.92,10.95l.75,6h5.98ZM1466.26,2890.55c-3.89-24.43-37.42-21.25-44.58-.35-11.48,33.52,29.53,46.07,43.07,16.09-8.07-3.98-8.13,3.78-13.56,7.43-18.92,12.72-31.73-10.45-20.69-26.69,6.9-10.15,27.48-11.4,28.43,3.36l7.33.16ZM1562.2,2922.04c-1.67-11.98,9.31-29.23,4.87-40.1-4.11-10.07-20.82-10.1-29.26-6.05s-12.36,17.99-2.9,12.82c.72-.4,2.91-5.89,6.44-7.78,7.83-4.19,23.61-.55,20.78,8.69-1.88,6.12-34.36,1.34-38.57,15.48-5.79,19.43,21.57,23.47,31.92,10.95l.75,6h5.98ZM1670.16,2899.55h38.98c4.79-34.87-42.75-34.18-46.36-2.11-3.32,29.59,34.37,35.11,43.35,9.61-7.7-1.57-9.5,6.65-15.62,9.09-12.38,4.93-22.01-3.85-20.35-16.6Z"/>
  <path class="st0" d="M2785.54,52.47l-1.49,454.28c-147.67,17.65-286.2-74.54-368.52-189.94-54.41-76.27-90.04-169.45-88.73-264.34h458.75Z"/>
  <path class="st0" d="M212.97,1863.57l374.8,5.99c-.31,14.23.37,28.56.06,42.81-.99,46.66,1.8,99.93-1.5,145.42-.2,2.77-.48,5.48-1.78,7.97l-371.58-3.54v-198.65Z"/>
  <path class="st0" d="M2776.54,1874.06v200.9l-365.58-1.71c-1.3-2.49-1.58-5.2-1.78-7.97-3.27-45.01-.52-97.75-1.5-143.92-.3-14.25.38-28.57.06-42.81l368.8-4.49Z"/>
  <path d="M1083.98,1419.79c6.39-8.09,10.68-17.56,16.77-25.96,10.32-14.25,29.74-40.42,44.24-48.71,6.7-3.83,28.26-13.05,25.7,3.06-.71,4.45-19.1,30.16-22.94,38.67-7.42,16.41-10.68,33.42-14.28,50.92,5.05-5.48,13.25-10.54,18.04-15.68,7.36-7.9,11.69-18.33,20.88-25.59,13.92-11,44.9-18.06,35.24,9.76-8.17,23.5-25.2,42.48-32.62,66.32-18.96,60.83-23.99,122.2,15.02,176.2.57.79.07,2.9,2.6,1.86,1.38-.57,20.68-16.35,23.29-18.7,15.39-13.8,25.59-32.27,39.69-47.26,26.08-27.74,47.65-51.17,71.88-81.04,36.13-44.53,73.03-88.1,102.53-137.34,48.45-80.86,80.76-158.54,59.54-255.43-6.01-27.43-35.62-47.68-51.89-69.55-30.28-15.59-65.01-4.46-96.96-1.22-6.13,2.55-19.7,29.52-23.14,36.83-15.93,33.92-33.15,78.57-24.25,116.24,2.51,10.62,17.19,38.42,10.22,46.65-4.85,5.72-34.63,14.43-43.21,18.26-13.74,6.14-24,12.1-38.82,18.15-28.25,11.53-32.24,22.55-49.88-9.34-10.01-18.09-13.54-37.18-28.38-52.58-21.98-22.81-52.79-34.43-84.22-37.22-10.41-.92-27.48-2.19-35.56,4.53-25.61,21.05-44.97,50.89-67.63,73.29-37.84,37.41-130.59,43.04-166.34-.18-24.04-29.06-29.46-73.33-39.12-109.3-28.08-104.58.26-203.1,36.72-300.64,15.83-42.35,32.98-64.52,56.13-101.29,31.63-50.23,59.23-101.03,96.85-147.52,16.94-20.92,33.91-42.17,50.98-62.97,24.94-30.39,74.97-64.59,108.09-86.8,7.55-5.06,22.26-12.1,20.52-22.3-2.13-12.46-9.54-28.33-12.8-41.29-27.41-108.91-2.83-212.68,108-256.96,57.99-23.17,70.37-6.25,119.47,15.97,5.1,2.31,11.07,2.89,16,4.99,23.89,10.16,49.88,42.61,65.55,63.38,3.72,4.93,16.26,28.28,21.07,28.33,8.22.09,31.39-15.98,41.74-16.74,4.47-2.68,2.16-8.36,9.43-8.68,5.94-.26,6.97,3.77,11.22,3.72,9.72-.13,28.72-7.58,39.81-9.54,23.5-4.16,55.28-6.77,79.18-7.77,32.92-1.39,66,1.51,98.71,4.33,13.79-14.53,24.82-29.19,41.03-41.49,47.31-35.88,128.32-76.23,188.62-72.2,100.36,6.71,148.3,137.96,115.85,222.26-7.4,19.23-44.89,72.93-60.41,86.52-5.12,4.48-24.45,15.67-25.88,20.59-1.09,8.8.36,17.86-.33,26.66-4.25,54.12-20.24,118.14-47.7,165.19-5.15,8.83-33.73,41.38-34.47,46.53-.41,2.83,1.51,6.17,1.18,10.01-.57,6.57-5.74,17.76-7.04,26.07-3.96,25.44,6.39,78.33,13.21,104.42,24.61,94.12,89.48,138.23,141.13,212.68,10.75,15.5,19.41,32.77,29.93,48.03,12.55,18.19,28.96,34.45,42.35,52.1,141.63,186.74,144.9,420.44,147.7,645.39.89,71.57,2.92,144.55-4.45,215.82-2.11,20.37-5.11,44.93-12.37,64.09-4.08,10.76-16.03,9.08-17.32.08-.96-6.7,8.45-26.81,10.03-35.85,2.48-14.2,1.74-29.33,3.21-43.27,11.81-112.22,7.37-226.3,1.49-338.87-2.65-50.79-3.75-103.84-10.76-154.16-3.32-23.87-8.71-47.79-13.29-71.44-33.04,10.58-62.27,30.91-89.78,51.83-9.22,7.01-21.04,15.47-29.4,23.07-52.99,48.15-91.31,128.99-120.91,193.93-9.8,21.51-18.68,52.52-30.1,71.84-4,6.76-8.81,7.27-15.73,3.75-6.39-14.23-18.25-26.22-19.85-42.36-1.54-15.48,2.34-30.39,2.97-45.71-5.6,6.89-9.61,18.39-12.67,27.05-2.48,7.03-5.77,25.29-9.08,29.9-5.71,7.95-13.59,3.85-17.29-3.65-11.22-22.71-6.42-66.79.83-90.77,2.33-7.69,5.88-14.84,8.22-22.5-15.35,16.07-28.06,37.06-38.53,56.66-4.88,9.14-7.16,25.11-17.59,27.38-11.37-1.09-8.83-29.81-8.13-38.11,4.68-55.41,38.66-117.38,77.72-156.16,25.37-25.2,57.65-41.79,87.48-60.94,11.02-7.07,21.84-17.53,33.5-23.47,12.35-6.29,27.43-9.39,40-15.47,26.94-13.01,49.84-36.24,73.95-53.48,9.56-6.83,22.75-12.75,31.16-19.81,7.96-6.68,13.25-17.62,21.88-23.46.86-3.99-13.22-30.22-15.83-36.49-14.85-35.59-28.31-64.65-49.91-97.02-18.76-28.11-42.37-52.3-61.52-79.41-11.06-15.66-19.63-33.18-30.51-48.94-35.55-51.49-87.57-95.14-117.46-150.9-22.55-42.06-37.51-101.66-41.17-149.23-.92-11.93,1.54-23.38,1.46-35.2l-14.17,16.54c-54.51,53.97-115.43,101.18-177.84,145.99-37.65,27.03-71.3,40.16-110.32,62.09-25.82,14.51-49.17,33.66-75.42,47.52s-59.45,29.83-87.47,42.96c-16,7.5-32.89,12.73-48.98,19.98,31.66-2.37,70.2-10.73,95.21,14.22,11.47,11.44,42,45.35,47.49,58.95,11.2,27.75,12.04,101.64,6.48,131.49-16.7,89.64-81.73,182.17-137.92,251.87-42.31,52.48-85.59,104.14-130.43,154.42-6.77,7.59-34.92,32.99-43.13,36.32s-12.76.91-17.36-5.86c-43.54-64.11-42.84-135.3-14.91-206.31,6.74-17.13,20.7-30.81,25.14-49.05-11.59,2.54-16.19,16.14-23.21,24-14.4,16.12-23.44,19.91-35.52,40.94-2.75,4.79-3.02,12.01-8.64,13.87-12.07,4-12.84-9.04-11.91-17.94,1.5-14.41,10.06-45.53,14.06-60.89,2.12-8.15,5.86-15.92,8.24-23.97-21.02,20.91-36.99,48.07-45.77,76.4-2,6.46.22,15.77-10.43,15.2-4.89-.26-6.23-2.34-6.82-6.82-2.02-15.32-1.71-62.34.06-78.03.81-7.13,17.93-39.49,16.48-41.22-21.7,10.63-35.23,34.53-45.74,55.44-21.57,42.89-30.22,129.71-12.49,174.48,20.47,51.7,48.01,86.4,87.55,123.84,3.62,3.43,6.45,9.32,11.14,12.85,5.26,3.96,15.61,5.71,14.65,14.74-.62,5.83-8.55,7.7-12.42,11.39-27.67,26.43-47.22,65.41-64.44,98.98-16.47,32.1-36.59,69.96-47.24,104.18-7.78,25.02-1.66,43.74-4.42,67.54-1.4,12.04-14.66,12.41-16.42,1.38-3.3-20.64-.29-56.08,6.26-76.01,15.01-45.7,46.05-105.32,69.52-147.87,12.16-22.04,30.79-39.34,45.44-59.6.64-3.54-43.87-44.12-50.12-51.49-18.73-22.1-53.09-83.33-59.95-110.96-16.88-67.99,3.58-189.6,66.25-230.6,4.22-2.76,23.16-13.6,26.84-13.8,16.89-.93-.14,34.12-3.19,41.95-1.85,4.77-12.7,25.41-12.7,27.78v27.74ZM1973.01,398.8c1.86.45,2.58-.7,3.84-1.39,22.73-12.48,65.36-73.18,72.99-97.92,22.26-72.17-15.94-186.61-101.61-193.02-49.62-3.71-91.25,16.5-133.66,38.7-25.06,13.11-55.41,33.4-72.45,55.72,10.65-3.08,10.51,6.52,13.47,8.29,1.72,1.03,10.22,1.65,13.83,2.66,10.72,2.99,21.25,6.44,31.71,10.19,18.66-23.74,50.69-42.22,79.23-51.53,17.62-5.75,50.54-15.22,67.22-6.4,10.35,5.47,34.85,31.4,40.71,41.75,20.89,36.88,12.54,96.17-16.04,127.01-6.38,6.89-15.08,10.37-20.37,17.26l21.12,48.69ZM1419.79,247.35c1.44-2.01-19.41-31.13-22.53-35.16-8.1-10.49-25.46-31.92-35.22-39.74-12.73-10.21-21.38-10.25-34.72-16.25-37.15-16.71-51.12-34.71-96.79-19.38-106.69,35.82-133.23,132.12-109.84,235.01,3.57,15.72,10.55,30.46,12.77,46.46,3.27,2.8,19.82-13.84,23.26-16.45,9.46-7.17,19.38-13.61,29.04-20.51-10.74-45.28-10.21-95.99,3.1-140.76,7.42-24.94,15.23-43.06,44.21-45.74,30.09-2.78,56.7,5.61,78.79,26.28,9.77,9.14,18.12,22.76,27.66,32.31,6.72,6.74,16.06,11.02,21.28,19.31l58.98-25.39ZM1940.27,334.04c3.63,2.11,9.47-3.39,12.43-5.75,40.7-32.52,41.21-96.29,6.06-133.41-11.76-12.42-17.8-19.46-36.06-18.02-20.24,1.6-53.87,14.31-71.62,24.32-12.72,7.18-25.78,16.54-35.49,27.45,17.91,13.97,38.32,24.57,56.84,37.58,22.34,15.7,39.27,28.54,56.16,50.28,2.26,2.91,10.76,17.01,11.67,17.54ZM1344.62,277.55c-22.44-12.82-33.26-38.85-54.16-53.01-15.08-10.22-33-16.44-51.38-14.71-14.53,1.37-22.4,5.09-28.4,18.08-19.56,42.38-20.29,98.85-11.26,143.91,2.4,2.48,31.83-19.95,36.47-22.75,15.37-9.28,33.51-16.74,48.86-26.1,14.01-8.54,24.72-18.99,37.73-28.23,4.22-3,19.1-10.29,20.85-12.13,1.52-1.6,2.13-2.9,1.29-5.06ZM1612.88,216.34c-59.05,2.77-115.92,13.07-170.11,36.78-29.94,13.1-71.35,30.4-98.74,46.69-16.02,9.52-29.25,23.06-44.88,33.08-17.61,11.28-37.28,19.52-55.22,30.24-38.84,23.2-71.3,49-107.01,75.9-42.04,31.67-97.96,62.73-132.44,102.93-64.97,75.76-118.33,159.61-171.5,243.78-11.45,18.13-21.7,40.5-29.38,60.58-21.09,55.18-43.1,119.66-47.93,178.45-5.01,60.95,9.58,110.82,22.92,168.95,16.82,73.32,68.1,87.72,135.99,67.92,30.79-8.98,42.74-37.65,62.96-58.47,4.56-4.69,12.94-9.51,17.28-14.2s4.45-10,8.09-14.39,31.64-21.53,38.07-24.89c42.45-22.21,103.43-20.45,143.93-46.46,19.06-12.25,37.15-24.49,56.96-36,30.51-17.72,59.24-41.01,91.45-55.48,22.05-9.91,45.72-15.99,67.98-26.47,27.07-12.73,58.16-27.51,84.47-41.46,27.27-14.45,51.5-34.13,78.42-49.01,37.62-20.79,69.68-33.16,105.82-59.09,59.57-42.74,126.49-92.69,177.02-145.31,25.37-26.42,68.6-84.99,82.75-118.15,18.73-43.9,40.79-134.59,24.44-179.43-24.73-67.79-72.87-104.64-132.19-140.66-58.15-35.31-141.99-38.97-209.15-35.82ZM1320.85,1037.5c-2.63-2.2-48.83,31.9-55.02,35.67-16.11,9.8-36.13,17.75-51.88,27.58-7.39,4.62-13.12,11.48-20.03,15.95-31.99,20.68-83.15,26.97-120.11,37.3-5.59,1.56-14.42,3.81-18.32,7.9,23.4,1.54,55.2,7.25,74.82,20.39,13.03,8.73,30.71,25.95,38.39,39.57,4.31,7.64,18.78,46.07,24.22,47.85,3.73,1.22,23.75-9.42,29.06-11.17-6.85-15.69-17.28-33.84-19.45-51.01-.76-6.05-.96-35.2,1.28-38.95,3.56-5.95,12.97-4.34,14.77,1.91,2.56,8.92-.9,27.36.68,38.31.85,5.91,13.82,40.01,17.59,42.43l50.94-20.41c-1.55-15.12-10.48-28.84-11.89-44.17-3.23-35.14,5.61-64.92,18.74-96.66,7.52-18.2,16.54-35.38,26.21-52.48ZM1886.04,1642.43c-1.07,9.1.79,19.92,0,29.24,4.28.75,2.45-1.05,3.38-3.3,7.33-17.92,11.82-24.47,21.23-40.31,10.9-18.36,24.53-49.61,43.56-59.87,4.37-2.36,7.98-4.22,12.11-.05,8.16,8.23-6.86,20.47-11.36,27.77-14.84,24.09-23.57,49.65-25.43,78.02-.9,13.83-1.66,30.41,10.46,39.71,17.11-43.77,36.66-86.69,58.22-128.45,29.99-58.08,56.48-101.88,108.34-143.53,32.06-25.75,66.63-49.57,105.42-63.98l2.42-3.6-20.27-75.69c-6.7,5.88-11.13,13.71-18.02,19.43-10.75,8.93-26.34,16.24-38.07,24.89-23.37,17.23-44.87,38.78-71.55,51.39-12.34,5.83-27.18,8.86-39.04,14.93-10.8,5.53-21.2,15.9-31.47,22.5-23.74,15.26-50.04,28.52-71.65,46.78-39.42,33.31-76.16,90.92-84.01,142.37-.16,1.08-2.18,5.88.78,3.78,11.25-17.27,21.63-35.97,35.98-50.98,7.88-8.24,42.67-39.74,51.8-41.15,3.05-.47,8.04-.71,10.55,1.26,2.78,2.71,2.9,7.2,1.32,10.62-1.85,4.02-21.22,21.13-26.21,27.75-12.02,15.95-26.14,50.7-28.48,70.47Z"/>
  <path d="M333.19,2173.07c0,25.57-20.73,46.3-46.3,46.3s-46.3-20.73-46.3-46.3,20.73-46.3,46.3-46.3,46.3,20.73,46.3,46.3ZM318.09,2172.99c0-17.17-13.92-31.09-31.09-31.09s-31.09,13.92-31.09,31.09,13.92,31.09,31.09,31.09,31.09-13.92,31.09-31.09Z"/>
  <path d="M1323.85,2391.3v-88.46h41.23c1.62,0,12.01,4.06,14.3,5.19,28.85,14.28,29.8,61.85,1.8,76.87-2.33,1.25-15.93,6.39-17.6,6.39h-39.73ZM1338.84,2377.81c23.34,1.01,46.56-2.37,46.56-30.73,0-28.78-22.79-32.16-46.56-30.73v61.47Z"/>
  <path d="M1443.78,2152.92h13.5s.73,7.49.73,7.49c9.04-12.08,29.31-12.88,37.51.02,10.69-8.99,26.53-14.01,38.25-3.8,1.79,1.56,7.45,8.96,7.45,10.54v50.22h-13.49v-39.73c0-11.16-11.85-17.87-21.56-11.06-.96.67-5.43,6.13-5.43,6.56v44.23h-14.99v-41.23c0-10.88-14.2-16.14-22.44-8.95-.83.73-4.54,7.01-4.54,7.45v42.73h-14.99v-64.47Z"/>
  <path d="M2541.19,2196.4c3.84.6,2.33-.35,3.13-2.11,2.79-6.15,10.45-38.8,13.29-40.68l14.33.79,13.46,43.5,14.4-44.82,14.84-.15-21.13,64.31-15.01-.74-14.07-42.6-14.39,43.34-14.64-.05-22.69-64.25,15.76,1.46,12.73,42Z"/>
  <path d="M517.3,2124.44v92.95h-13.5s-.74-8.99-.74-8.99c-15.63,20.2-45.07,9.85-50.45-14.03-7.37-32.69,22.9-57.69,49.7-33.96v-35.98h14.99ZM477.94,2165.29c-17.09,4.37-15.98,45.32,11.28,39.76,20.81-4.25,18.14-47.28-11.28-39.76Z"/>
  <path d="M2224.85,2124.44v92.95h-13.5s-.74-8.99-.74-8.99c-15.63,20.2-45.07,9.85-50.45-14.03-7.37-32.69,22.9-57.69,49.7-33.96v-35.98h14.99ZM2185.49,2165.29c-17.09,4.37-15.98,45.32,11.28,39.76,20.81-4.25,18.14-47.28-11.28-39.76Z"/>
  <path d="M1935.51,2124.44v58.47c8.28-4.51,19.98-26.01,27.01-29.21,4.74-2.16,12.69-.09,17.96-.76l-23.6,27.74,26.6,36.7c-4.65-.76-14.28,1.5-17.98-.75-3.84-2.33-16.19-26.22-18.75-26.2-10.1,8.18-13.12,13.43-11.24,26.97h-15v-92.96h14.99Z"/>
  <path d="M2715.07,2124.44v34.48c12.34-12.59,35.28-10.01,41.26,7.46.36,1.04,2.22,9.28,2.22,9.78v41.23h-14.99v-39.73c0-1.14-3.27-9.48-4.4-10.59-6.84-6.78-24.09-.71-24.09,7.59v42.73h-14.99v-92.95h14.99Z"/>
  <path d="M2331.29,2124.44v34.48c12.34-12.59,35.28-10.01,41.26,7.46.36,1.04,2.22,9.28,2.22,9.78v41.23h-14.99v-39.73c0-1.14-3.27-9.48-4.4-10.59-6.84-6.78-24.09-.71-24.09,7.59v42.73h-14.99v-92.95h14.99Z"/>
  <path d="M1716.63,2124.44v34.48c12.34-12.59,35.28-10.01,41.26,7.46.36,1.04,2.22,9.28,2.22,9.78v41.23h-14.99v-39.73c0-1.14-3.27-9.48-4.4-10.59-6.84-6.78-24.09-.71-24.09,7.59v42.73h-14.99v-92.95h14.99Z"/>
  <path d="M736.17,2124.44v34.48c12.34-12.59,35.28-10.01,41.26,7.46.36,1.04,2.22,9.28,2.22,9.78v41.23h-14.99v-39.73c0-1.14-3.27-9.48-4.4-10.59-6.84-6.78-24.09-.71-24.09,7.59v42.73h-14.99v-92.95h14.99Z"/>
  <path d="M2149.89,2188.91h-49.47c1.62,13.65,12.39,19.96,25.56,15.82,5.23-1.64,5.38-7.53,9.65-8.34,12.25-2.31,16.19-.64,8.26,9.76-19.27,25.26-58.57,11.11-58.58-20.99,0-47.3,69.09-43.83,64.57,3.75ZM2134.9,2178.41c-3.2-20.71-30.42-20-34.48,0h34.48Z"/>
  <path d="M1476.76,2362.82h-49.47c1.62,13.65,12.39,19.96,25.56,15.82,5.23-1.64,5.38-7.53,9.65-8.34,12.25-2.31,16.19-.64,8.26,9.76-19.27,25.26-58.57,11.11-58.58-20.99,0-47.3,69.09-43.83,64.57,3.75ZM1461.77,2352.32c-3.2-20.71-30.42-20-34.48,0h34.48Z"/>
  <path d="M1430.29,2188.91h-49.47c1.62,13.65,12.39,19.96,25.56,15.82,5.23-1.64,5.38-7.53,9.65-8.34,12.25-2.31,16.19-.64,8.26,9.76-19.27,25.26-58.57,11.11-58.58-20.99,0-47.3,69.09-43.83,64.57,3.75ZM1415.3,2178.41c-3.2-20.71-30.42-20-34.48,0h34.48Z"/>
  <path d="M595.25,2188.91h-49.47c1.62,13.65,12.39,19.96,25.56,15.82,5.23-1.64,5.38-7.53,9.65-8.34,12.25-2.31,16.19-.64,8.26,9.76-19.27,25.26-58.57,11.11-58.58-20.99,0-47.3,69.09-43.83,64.57,3.75ZM580.26,2178.41c-3.2-20.71-30.42-20-34.48,0h34.48Z"/>
  <path d="M1281.87,2188.91h-49.47c1.62,13.65,12.39,19.96,25.56,15.82,5.23-1.64,5.38-7.53,9.65-8.34,12.25-2.31,16.19-.64,8.26,9.76-19.27,25.26-58.57,11.11-58.58-20.99,0-47.3,69.09-43.83,64.57,3.75ZM1266.88,2178.41c-3.2-20.71-30.42-20-34.48,0h34.48Z"/>
  <path d="M1616.19,2391.31h-13.51s0-7.5,0-7.5c-16.28,15.93-51.11,11.66-44.64-16.93,3.77-16.63,42.79-14.03,43.1-18.29-2.19-14.02-24.08-16.32-27.86-2.17l-14.07-.1c-.32-27.3,51.56-28.29,55.38-3.64,2.28,14.76-1.98,33.25,1.6,48.63ZM1601.19,2361.33c-1.2-1.11-22.26,2.62-25.08,4.14-7.3,3.96-6.03,13.77,1.88,15.29,14.24,2.74,22.78-5.57,23.2-19.44Z"/>
  <path d="M1832.07,2217.4h-13.51s0-7.5,0-7.5c-16.28,15.93-51.11,11.66-44.64-16.93,3.77-16.63,42.79-14.03,43.1-18.29-2.19-14.02-24.08-16.32-27.86-2.17l-14.07-.1c-.32-27.3,51.56-28.29,55.38-3.64,2.28,14.76-1.98,33.25,1.6,48.63ZM1817.07,2187.41c-1.2-1.11-22.26,2.62-25.08,4.14-7.3,3.96-6.03,13.77,1.88,15.29,14.24,2.74,22.78-5.57,23.2-19.44Z"/>
  <path d="M664.22,2217.4h-13.51s0-7.5,0-7.5c-16.28,15.93-51.11,11.66-44.64-16.93,3.77-16.63,42.79-14.03,43.1-18.29-2.19-14.02-24.08-16.32-27.86-2.17l-14.07-.1c-.32-27.3,51.56-28.29,55.38-3.64,2.28,14.76-1.98,33.25,1.6,48.63ZM649.22,2187.41c-1.2-1.11-22.26,2.62-25.08,4.14-7.3,3.96-6.03,13.77,1.88,15.29,14.24,2.74,22.78-5.57,23.2-19.44Z"/>
  <path d="M953.55,2217.39h-14.99v-39.73c0-7.03-5.79-13.51-12.98-13.72-5.7-.17-15.5,4.68-15.5,10.72v42.73h-14.99v-64.47h13.5s.73,7.49.73,7.49c11.19-14.56,35.9-11.92,42.02,5.97.36,1.04,2.22,9.28,2.22,9.78v41.23Z"/>
  <path d="M406.36,2217.39h-14.99v-39.73c0-7.03-5.79-13.51-12.98-13.72-5.7-.17-15.5,4.68-15.5,10.72v42.73h-14.99v-64.47h13.5s.73,7.49.73,7.49c11.19-14.56,35.9-11.92,42.02,5.97.36,1.04,2.22,9.28,2.22,9.78v41.23Z"/>
  <path d="M1353.83,2217.39h-14.99v-39.73c0-7.03-5.79-13.51-12.98-13.72-5.7-.17-15.5,4.68-15.5,10.72v42.73h-14.99v-64.47h13.5s.73,7.49.73,7.49c11.19-14.56,35.9-11.92,42.02,5.97.36,1.04,2.22,9.28,2.22,9.78v41.23Z"/>
  <path d="M1583.22,2197.9c2.09-.13,2.32-2.27,3.04-3.69,6.23-12.3,10.16-28.09,15.11-41.11l16.32-.16-36.9,90.04-14.07-.1,9.74-27.17-24.73-62.76,15.74,1.48,15.75,43.48Z"/>
  <path d="M1653.68,2371.81c2.09-.13,2.32-2.27,3.04-3.69,6.23-12.3,10.16-28.09,15.11-41.11l16.32-.16-36.9,90.04-14.07-.1,9.74-27.17-24.73-62.76,15.74,1.48,15.75,43.48Z"/>
  <path d="M2473.7,2172.4l-13.99.08c-3.2-17.56-32.87-5.79-21.08,2.79,8.85,6.44,31.7,1.74,34.73,19.24,5.46,31.51-55.4,33.35-53.63,1.89l12.5-.07c2.17,15.65,33.99,11.5,26.23-1.2-3.51-5.74-33.68-1.48-35.77-20.44-3.31-30.05,48.08-31.78,51.01-2.28Z"/>
  <path d="M1134.95,2175.4c-4.12-.57-10.29,1.03-13.99-.24-2.42-.83-4.11-6.57-7.93-8.56-28.19-14.71-37.18,39.76-7.3,38.92,12.43-.35,13.43-11.75,15.23-12.19l13.99.07c-6.88,38.27-61.41,31.52-63.01-6.83-1.66-39.75,54.33-49.95,63.01-11.18Z"/>
  <path d="M1548.72,2349.32c-4.12-.57-10.29,1.03-13.99-.24-2.42-.83-4.11-6.57-7.93-8.56-28.19-14.71-37.18,39.76-7.3,38.92,12.43-.35,13.43-11.75,15.23-12.19l13.99.07c-6.88,38.27-61.41,31.52-63.01-6.83-1.66-39.75,54.33-49.95,63.01-11.18Z"/>
  <path d="M973.04,2164.92h-10.5s0-12,0-12h10.51c-2.01-17.44,6.17-31.8,25.49-28.49l.09,11.09c-10.6,2.77-11.67,6.83-10.6,17.41h12.01c-.31,3.27,1.52,10.5-2.46,11.78l-9.54.21v52.47h-14.99v-52.47Z"/>
  <path d="M682.2,2164.92l-10.52-.86.02-11.14c3.24-.18,9.06,1.31,10.29-2.45l.2-14.04h13.51s.65,15.1.65,15.1l12.85,1.4-.66,10.6-12.85,1.39c2.12,11.11-6.89,43.49,11.99,38.99l.02,13.5c-7.1.03-16.33,1.2-21.67-4.58-.58-.63-3.83-6.28-3.83-6.67v-41.23Z"/>
  <path d="M1151.44,2164.92l-10.52-.86.02-11.14c3.24-.18,9.06,1.31,10.29-2.45l.2-14.04h13.51s.65,15.1.65,15.1l12.85,1.4-.66,10.6-12.85,1.39c2.12,11.11-6.89,43.49,11.99,38.99l.02,13.5c-7.1.03-16.33,1.2-21.67-4.58-.58-.63-3.83-6.28-3.83-6.67v-41.23Z"/>
  <path d="M1662.66,2164.92l-10.52-.86.02-11.14c3.24-.18,9.06,1.31,10.29-2.45l.2-14.04h13.51s.65,15.1.65,15.1l12.85,1.4-.66,10.6-12.85,1.39c2.12,11.11-6.89,43.49,11.99,38.99l.02,13.5c-7.1.03-16.33,1.2-21.67-4.58-.58-.63-3.83-6.28-3.83-6.67v-41.23Z"/>
  <path d="M1850.06,2164.92l-10.52-.86.02-11.14c3.24-.18,9.06,1.31,10.29-2.45l.2-14.04h13.51s.65,15.1.65,15.1l12.85,1.4-.66,10.6-12.85,1.39c2.12,11.11-6.89,43.49,11.99,38.99l.02,13.5c-7.1.03-16.33,1.2-21.67-4.58-.58-.63-3.83-6.28-3.83-6.67v-41.23Z"/>
  <path d="M2278.82,2164.92l-10.52-.86.02-11.14c3.24-.18,9.06,1.31,10.29-2.45l.2-14.04h13.51s.65,15.1.65,15.1l12.85,1.4-.66,10.6-12.85,1.39c2.12,11.11-6.89,43.49,11.99,38.99l.02,13.5c-7.1.03-16.33,1.2-21.67-4.58-.58-.63-3.83-6.28-3.83-6.67v-41.23Z"/>
  <path d="M2661.1,2164.92l-10.52-.86.02-11.14c3.24-.18,9.06,1.31,10.29-2.45l.2-14.04h13.51s.65,15.1.65,15.1l12.85,1.4-.66,10.6-12.85,1.39c2.12,11.11-6.89,43.49,11.99,38.99l.02,13.5c-7.1.03-16.33,1.2-21.67-4.58-.58-.63-3.83-6.28-3.83-6.67v-41.23Z"/>
  <rect x="2023.96" y="2124.44" width="14.99" height="92.95"/>
  <rect x="1010.52" y="2124.44" width="14.99" height="92.95"/>
  <rect x="2056.94" y="2124.44" width="14.99" height="92.95"/>
  <rect x="860.61" y="2128.94" width="14.99" height="88.46"/>
  <path d="M2511.21,2754.12c4.82-2.93,1.53-12.17,10.5-8.22-6.77,16.06-6.94,56.41-23.44,65.01-11.1,5.79-31.33,3.5-32.04-11.8,6.88-1.53,6.75,4.12,11.95,6.76,13.91,7.08,26.77-5.13,26.28-18.76-24.68,19.16-46.7-9.38-29.89-32.89,8.1-11.33,31.27-14.87,36.65-.1ZM2506.22,2754.59c-12.39-13.22-38.53,4.54-28.76,25.03,10.76,22.58,44.62-8.09,28.76-25.03Z"/>
  <path d="M1316.37,2754.12c4.82-2.93,1.53-12.17,10.5-8.22-6.77,16.06-6.94,56.41-23.44,65.01-11.1,5.79-31.33,3.5-32.04-11.8,6.88-1.53,6.75,4.12,11.95,6.76,13.91,7.08,26.77-5.13,26.28-18.76-24.68,19.16-46.7-9.38-29.89-32.89,8.1-11.33,31.27-14.87,36.65-.1ZM1311.38,2754.59c-12.39-13.22-38.53,4.54-28.76,25.03,10.76,22.58,44.62-8.09,28.76-25.03Z"/>
  <path d="M1752.64,2752.61h2.19c10.18-12,32.86-11.69,32.16,8.03-.11,3.08-6.21,31.36-7.6,32.25s-6,1.46-5.81-2.03c.56-10.09,15.08-39.69-2.44-40.76-19.41-1.19-19.44,29.55-23.1,42.93l-7.43.06c1.19-10.32,16.81-43.34-2.26-43.25s-18.43,29.32-23.07,42.38l-6.15.87,10.69-47.76,5.67-.05.13,4.35c8.24-5.43,23.49-9.35,27,2.98Z"/>
  <path d="M1175.46,2752.61h2.19c10.18-12,32.86-11.69,32.16,8.03-.11,3.08-6.21,31.36-7.6,32.25s-6,1.46-5.81-2.03c.56-10.09,15.08-39.69-2.44-40.76-19.41-1.19-19.44,29.55-23.1,42.93l-7.43.06c1.19-10.32,16.81-43.34-2.26-43.25s-18.43,29.32-23.07,42.38l-6.15.87,10.69-47.76,5.67-.05.13,4.35c8.24-5.43,23.49-9.35,27,2.98Z"/>
  <path d="M2370.29,2752.61h2.19c10.18-12,32.86-11.69,32.16,8.03-.11,3.08-6.21,31.36-7.6,32.25s-6,1.46-5.81-2.03c.56-10.09,15.08-39.69-2.44-40.76-19.41-1.19-19.44,29.55-23.1,42.93l-7.43.06c1.19-10.32,16.81-43.34-2.26-43.25s-18.43,29.32-23.07,42.38l-6.15.87,10.69-47.76,5.67-.05.13,4.35c8.24-5.43,23.49-9.35,27,2.98Z"/>
  <path d="M1077.98,2722.65l-16.65,70.28h-5.71s-.14-4.34-.14-4.34c-11.44,7.52-28.16,9.26-34.07-5.63-10.71-26.96,22.82-53.05,43.07-28.84l6.16-31.33,7.34-.14ZM1045.75,2750.39c-21.36,0-27.51,36.61-5.82,38.15,21.05,1.5,30.28-38.15,5.82-38.15Z"/>
  <path d="M2272.82,2722.65l-16.65,70.28h-5.71s-.14-4.34-.14-4.34c-11.44,7.52-28.16,9.26-34.07-5.63-10.71-26.96,22.82-53.05,43.07-28.84l6.16-31.33,7.34-.14ZM2240.59,2750.39c-21.36,0-27.51,36.61-5.82,38.15,21.05,1.5,30.28-38.15,5.82-38.15Z"/>
  <path d="M1599.69,2851.58l-5.98,26.98c11.96-8.03,29.59-7.37,34.55,8.16,8.41,26.31-24.7,50.94-43.55,26.33l-1.73,8.78-5.77.21,15.06-70.38,7.42-.07ZM1608.17,2879.09c-21.64.65-28.13,37.86-4.56,38.32,21.45.43,26.99-39,4.56-38.32Z"/>
  <path d="M443.83,2727.14c-1.25,16.35-22.89,61.74,8.28,61.47,25.02-.22,25.66-44.02,30.78-61.41l7.42-.06c-8,24.6-6.63,72.02-44.09,67.32-17.2-2.16-18.85-17.49-17.21-31.94.45-3.99,7.27-33.71,8.75-34.73,1.72-1.18,4.15-.57,6.08-.66Z"/>
  <rect x="2625.12" y="2152.92" width="14.99" height="64.47"/>
  <rect x="1043.5" y="2152.92" width="14.99" height="64.47"/>
  <rect x="1990.98" y="2152.92" width="14.99" height="64.47"/>
  <rect x="2391.25" y="2152.92" width="14.99" height="64.47"/>
  <path d="M1494.75,2851.58l-10.47,47.97c8.66-4.41,22.28-21.61,30.03-24.68,2.99-1.19,5.85-.94,8.94-.79l-22.24,20.44,13.24,27.51-7.25-.24c-2.31-4.08-8.65-22.35-12.97-22.33-1.18,0-11.11,7.85-11.94,9.15-3.67,5.7-.29,15.83-9.8,13.42l15.06-70.38,7.42-.07Z"/>
  <path d="M731.67,2722.65l-10.47,47.97c8.66-4.41,22.28-21.61,30.03-24.68,2.99-1.19,5.85-.94,8.94-.79l-22.24,20.44,13.24,27.51-7.25-.24c-2.31-4.08-8.65-22.35-12.97-22.33-1.18,0-11.11,7.85-11.94,9.15-3.67,5.7-.29,15.83-9.8,13.42l15.06-70.38,7.42-.07Z"/>
  <path d="M2059.93,2722.65l-10.47,47.97c8.66-4.41,22.28-21.61,30.03-24.68,2.99-1.19,5.85-.94,8.94-.79l-22.24,20.44,13.24,27.51-7.25-.24c-2.31-4.08-8.65-22.35-12.97-22.33-1.18,0-11.11,7.85-11.94,9.15-3.67,5.7-.29,15.83-9.8,13.42l15.06-70.38,7.42-.07Z"/>
  <path d="M2452.71,2793.11h-5.98s-.75-5.99-.75-5.99c-10.35,12.52-37.71,8.49-31.92-10.95,4.21-14.14,36.7-9.36,38.57-15.48,2.83-9.23-12.95-12.88-20.78-8.69-3.53,1.89-5.71,7.39-6.44,7.78-9.46,5.17-5.52-8.77,2.9-12.82,8.43-4.06,25.14-4.02,29.26,6.05,4.44,10.88-6.53,28.12-4.87,40.1ZM2449.72,2769.12c-7.71.17-35.34,1.31-29.25,14.94,5.74,12.83,32.65-1.11,29.25-14.94Z"/>
  <path d="M1562.2,2922.04h-5.98s-.75-5.99-.75-5.99c-10.35,12.52-37.71,8.49-31.92-10.95,4.21-14.14,36.7-9.36,38.57-15.48,2.83-9.23-12.95-12.88-20.78-8.69-3.53,1.89-5.71,7.39-6.44,7.78-9.46,5.17-5.52-8.77,2.9-12.82s25.14-4.02,29.26,6.05c4.44,10.88-6.53,28.12-4.87,40.1ZM1559.22,2898.06c-7.71.17-35.34,1.31-29.25,14.94,5.74,12.83,32.65-1.11,29.25-14.94Z"/>
  <path d="M694.18,2793.11h-5.98s-.75-5.99-.75-5.99c-10.35,12.52-37.71,8.49-31.92-10.95,4.21-14.14,36.7-9.36,38.57-15.48,2.83-9.23-12.95-12.88-20.78-8.69-3.53,1.89-5.71,7.39-6.44,7.78-9.46,5.17-5.52-8.77,2.9-12.82s25.14-4.02,29.26,6.05c4.44,10.88-6.53,28.12-4.87,40.1ZM691.2,2769.12c-7.71.17-35.34,1.31-29.25,14.94,5.74,12.83,32.65-1.11,29.25-14.94Z"/>
  <path d="M1403.29,2922.04h-5.98s-.75-5.99-.75-5.99c-10.35,12.52-37.71,8.49-31.92-10.95,4.21-14.14,36.7-9.36,38.57-15.48,2.83-9.23-12.95-12.88-20.78-8.69-3.53,1.89-5.71,7.39-6.44,7.78-9.46,5.17-5.52-8.77,2.9-12.82s25.14-4.02,29.26,6.05c4.44,10.88-6.53,28.12-4.87,40.1ZM1400.3,2898.06c-7.71.17-35.34,1.31-29.25,14.94,5.74,12.83,32.65-1.11,29.25-14.94Z"/>
  <path d="M2311.79,2793.11h-5.98s-.75-5.99-.75-5.99c-10.35,12.52-37.71,8.49-31.92-10.95,4.21-14.14,36.7-9.36,38.57-15.48,2.83-9.23-12.95-12.88-20.78-8.69-3.53,1.89-5.71,7.39-6.44,7.78-9.46,5.17-5.52-8.77,2.9-12.82,8.43-4.06,25.14-4.02,29.26,6.05,4.44,10.88-6.53,28.12-4.87,40.1ZM2308.8,2769.12c-7.71.17-35.34,1.31-29.25,14.94,5.74,12.83,32.65-1.11,29.25-14.94Z"/>
  <path d="M1115.45,2793.11h-5.98s-.75-5.99-.75-5.99c-10.35,12.52-37.71,8.49-31.92-10.95,4.21-14.14,36.7-9.36,38.57-15.48,2.83-9.23-12.95-12.88-20.78-8.69-3.53,1.89-5.71,7.39-6.44,7.78-9.46,5.17-5.52-8.77,2.9-12.82,8.43-4.06,25.14-4.02,29.26,6.05,4.44,10.88-6.53,28.12-4.87,40.1ZM1112.46,2769.12c-7.71.17-35.34,1.31-29.25,14.94,5.74,12.83,32.65-1.11,29.25-14.94Z"/>
  <path d="M1257.87,2793.11h-5.98s-.75-5.99-.75-5.99c-10.35,12.52-37.71,8.49-31.92-10.95,4.21-14.14,36.7-9.36,38.57-15.48,2.83-9.23-12.95-12.88-20.78-8.69-3.53,1.89-5.71,7.39-6.44,7.78-9.46,5.17-5.52-8.77,2.9-12.82s25.14-4.02,29.26,6.05c4.44,10.88-6.53,28.12-4.87,40.1ZM1254.88,2769.12c-7.71.17-35.34,1.31-29.25,14.94,5.74,12.83,32.65-1.11,29.25-14.94Z"/>
  <path d="M1506.73,2793.11h-5.98s-.75-5.99-.75-5.99c-10.35,12.52-37.71,8.49-31.92-10.95,4.21-14.14,36.7-9.36,38.57-15.48,2.83-9.23-12.95-12.88-20.78-8.69-3.53,1.89-5.71,7.39-6.44,7.78-9.46,5.17-5.52-8.77,2.9-12.82s25.14-4.02,29.26,6.05c4.44,10.88-6.53,28.12-4.87,40.1ZM1503.75,2769.12c-7.71.17-35.34,1.31-29.25,14.94,5.74,12.83,32.65-1.11,29.25-14.94Z"/>
  <path d="M2022.45,2793.11h-5.98s-.75-5.99-.75-5.99c-10.35,12.52-37.71,8.49-31.92-10.95,4.21-14.14,36.7-9.36,38.57-15.48,2.83-9.23-12.95-12.88-20.78-8.69-3.53,1.89-5.71,7.39-6.44,7.78-9.46,5.17-5.52-8.77,2.9-12.82,8.43-4.06,25.14-4.02,29.26,6.05,4.44,10.88-6.53,28.12-4.87,40.1ZM2019.46,2769.12c-7.71.17-35.34,1.31-29.25,14.94,5.74,12.83,32.65-1.11,29.25-14.94Z"/>
  <path d="M2536.67,2770.61c-1.66,12.75,7.98,21.53,20.35,16.6,6.12-2.44,7.92-10.66,15.62-9.09-8.98,25.49-46.68,19.98-43.35-9.61,3.6-32.07,51.15-32.76,46.36,2.11h-38.98ZM2569.66,2766.12c-.38-22.84-29.43-20.2-32.98,0h32.98Z"/>
  <path d="M1670.16,2899.55c-1.66,12.75,7.98,21.53,20.35,16.6,6.12-2.44,7.92-10.66,15.62-9.09-8.98,25.49-46.68,19.98-43.35-9.61,3.6-32.07,51.15-32.76,46.36,2.11h-38.98ZM1703.14,2895.05c-.38-22.84-29.43-20.2-32.98,0h32.98Z"/>
  <path d="M1421.29,2770.61c-1.66,12.75,7.98,21.53,20.35,16.6,6.12-2.44,7.92-10.66,15.62-9.09-8.98,25.49-46.68,19.98-43.35-9.61,3.6-32.07,51.15-32.76,46.36,2.11h-38.98ZM1454.28,2766.12c-.38-22.84-29.43-20.2-32.98,0h32.98Z"/>
  <path d="M1341.84,2770.61c-1.66,12.75,7.98,21.53,20.35,16.6,6.12-2.44,7.92-10.66,15.62-9.09-8.98,25.49-46.68,19.98-43.35-9.61,3.6-32.07,51.15-32.76,46.36,2.11h-38.98ZM1374.82,2766.12c-.38-22.84-29.43-20.2-32.98,0h32.98Z"/>
  <path d="M767.66,2770.61c-1.66,12.75,7.98,21.53,20.35,16.6,6.12-2.44,7.92-10.66,15.62-9.09-8.98,25.49-46.68,19.98-43.35-9.61,3.6-32.07,51.15-32.76,46.36,2.11h-38.98ZM800.64,2766.12c-.38-22.84-29.43-20.2-32.98,0h32.98Z"/>
  <path d="M1805.08,2770.61c-1.66,12.75,7.98,21.53,20.35,16.6,6.12-2.44,7.92-10.66,15.62-9.09-8.98,25.49-46.68,19.98-43.35-9.61,3.6-32.07,51.15-32.76,46.36,2.11h-38.98ZM1838.06,2766.12c-.38-22.84-29.43-20.2-32.98,0h32.98Z"/>
  <path d="M2095.92,2770.61c-1.66,12.75,7.98,21.53,20.35,16.6,6.12-2.44,7.92-10.66,15.62-9.09-8.98,25.49-46.68,19.98-43.35-9.61,3.6-32.07,51.15-32.76,46.36,2.11h-38.98ZM2128.9,2766.12c-.38-22.84-29.43-20.2-32.98,0h32.98Z"/>
  <path d="M1598.19,2722.65l-5.99,26.96c3.24.37,4.54-2.83,7.46-3.77,15.06-4.86,23.68,2.18,22.33,17.84-.34,3.9-4.65,24.1-6.09,26.87s-4.52,3.77-7.23,1.77c.42-10.43,17.23-42.6-3.47-42.22-19.38.35-18.67,28.65-23.34,42.11l-6.15.87,15.06-70.38,7.42-.06Z"/>
  <path d="M524.8,2793.09c.34-10.8,16.62-41.81-2.46-42.99-19.94-1.24-19.89,28.75-24.37,42.12l-6.15.87,10.69-47.76,5.67-.03c-.28,8.93,3.74,1.74,7.59.55,15.11-4.67,23.7,2.01,22.33,17.84-.31,3.53-5.97,27.89-7.22,28.75-1.76,1.2-4.14.55-6.08.65Z"/>
  <path d="M1466.26,2890.55l-7.33-.16c-.94-14.76-21.53-13.51-28.43-3.36-11.04,16.24,1.77,39.41,20.69,26.69,5.43-3.65,5.49-11.41,13.56-7.43-13.55,29.98-54.55,17.43-43.07-16.09,7.16-20.91,40.69-24.09,44.58.35Z"/>
  <path d="M1569.71,2761.61l-7.33-.16c-.94-14.76-21.53-13.51-28.43-3.36-11.04,16.24,1.77,39.41,20.69,26.69,5.43-3.65,5.49-11.41,13.56-7.43-13.55,29.98-54.55,17.43-43.07-16.09,7.16-20.91,40.69-24.09,44.58.35Z"/>
  <path d="M1326.32,2877.59c3.02,2.97,4.06,7.32,3.52,11.46l-5.81-.18c1.44-12.03-19.88-12.98-21.21-3.48-1.86,13.24,23.27,6.57,21.14,25.46-1.84,16.34-39.76,17.76-36.07-3.81l5.81.19c-.78,15.71,27.5,12.15,23.96-.62-1.54-5.56-15.47-5.92-19.91-13.17-9.81-16.02,17.88-26.38,28.58-15.85Z"/>
  <path d="M851.08,2748.65c3.02,2.97,4.06,7.32,3.52,11.46l-5.81-.18c1.44-12.03-19.88-12.98-21.21-3.48-1.86,13.24,23.27,6.57,21.14,25.46-1.84,16.34-39.76,17.76-36.07-3.81l5.81.19c-.78,15.71,27.5,12.15,23.96-.62-1.54-5.56-15.47-5.92-19.91-13.17-9.81-16.02,17.88-26.38,28.58-15.85Z"/>
  <path d="M2179.34,2748.65c3.02,2.97,4.06,7.32,3.52,11.46l-5.81-.18c1.44-12.03-19.88-12.98-21.21-3.48-1.86,13.24,23.27,6.57,21.14,25.46-1.84,16.34-39.76,17.76-36.07-3.81l5.81.19c-.78,15.71,27.5,12.15,23.96-.62-1.54-5.56-15.47-5.92-19.91-13.17-9.81-16.02,17.88-26.38,28.58-15.85Z"/>
  <path d="M940.06,2793.1l.66-4.58,16-2.29,11.82-53.09h-13.5s0-4.49,0-4.49l22.47-.79-13.47,59.24h14.99c.63,1.69-.64,6-2.24,6h-36.73Z"/>
  <path d="M427.35,2722.65c-17.8,23.94-29.5,55.9-19.49,85.43l-6.57.1c-7.46-20.97-2.54-48,7.25-67.62,2.26-4.53,12.16-22.73,18.81-17.91Z"/>
  <path d="M1293.86,2851.59c-17.8,23.94-29.5,55.9-19.49,85.43l-6.57.1c-7.46-20.97-2.54-48,7.25-67.62,2.26-4.53,12.16-22.73,18.81-17.91Z"/>
  <path d="M2574.15,2808.08c18.52-24.4,28.11-55.14,19.5-85.43,8.33-1.82,8.48,6.16,9.04,12.68,1.65,19.14-1.88,38.58-10.28,55.79-2.32,4.75-11.45,21.84-18.25,16.96Z"/>
  <path d="M1707.63,2937.02c18.52-24.4,28.11-55.14,19.5-85.43,8.33-1.82,8.48,6.16,9.04,12.68,1.65,19.14-1.88,38.58-10.28,55.79-2.32,4.75-11.45,21.84-18.25,16.96Z"/>
  <path d="M1679.15,2731.65l-3,13.47c1.28,1.27,11.44-2.49,10.47,2.22l-2.48,3.84-10.26,1.4c.21,10.1-15.94,37.5,2.29,34.53v5.97s-13.62-2.49-13.62-2.49c-4.6-13.27,3.75-26.29,4.61-39.47l-8.97-.74,1.68-5.06,9.61-1.64,2.34-11.9,7.34-.14Z"/>
  <path d="M1356.83,2860.58l-3,13.47c1.28,1.27,11.44-2.49,10.47,2.22l-2.48,3.84-10.26,1.4c.21,10.1-15.94,37.5,2.29,34.53v5.97s-13.62-2.49-13.62-2.49c-4.6-13.27,3.75-26.29,4.61-39.47l-8.97-.74,1.68-5.06,9.61-1.64,2.34-11.9,7.34-.14Z"/>
  <path d="M593.75,2731.65l-3,13.47c1.28,1.27,11.44-2.49,10.47,2.22l-2.48,3.84-10.26,1.4c.21,10.1-15.94,37.5,2.29,34.53v5.97s-13.62-2.49-13.62-2.49c-4.6-13.27,3.75-26.29,4.61-39.47l-8.97-.74,1.68-5.06,9.61-1.64,2.34-11.9,7.34-.14Z"/>
  <path d="M647.72,2731.65l-3,13.47c1.28,1.27,11.44-2.49,10.47,2.22l-2.48,3.84-10.26,1.4c.21,10.1-15.94,37.5,2.29,34.53v5.97s-13.62-2.49-13.62-2.49c-4.6-13.27,3.75-26.29,4.61-39.47l-8.97-.74,1.68-5.06,9.61-1.64,2.34-11.9,7.34-.14Z"/>
  <path d="M1922.02,2731.65l-3,13.47c1.28,1.27,11.44-2.49,10.47,2.22l-2.48,3.84-10.26,1.4c.21,10.1-15.94,37.5,2.29,34.53v5.97s-13.62-2.49-13.62-2.49c-4.6-13.27,3.75-26.29,4.61-39.47l-8.97-.74,1.68-5.06,9.61-1.64,2.34-11.9,7.34-.14Z"/>
  <path d="M1975.99,2731.65l-3,13.47c1.28,1.27,11.44-2.49,10.47,2.22l-2.48,3.84-10.26,1.4c.21,10.1-15.94,37.5,2.29,34.53v5.97s-13.62-2.49-13.62-2.49c-4.6-13.27,3.75-26.29,4.61-39.47l-8.97-.74,1.68-5.06,9.61-1.64,2.34-11.9,7.34-.14Z"/>
  <path d="M907.08,2766.12c1.83-6.47.58-24.9,10.52-20.22l-4.52,20.22h20.99l-2.41,6.1-19.88.1-5.57,20.88-6.62-.1,4.5-20.97h-19.5s0-6,0-6h22.49Z"/>
  <polygon points="1659.66 2851.59 1643.33 2921.16 1637.18 2922.03 1652.24 2851.65 1659.66 2851.59"/>
  <polygon points="1715.13 2302.86 1704.47 2334.15 1692.64 2334.33 1698.7 2302.92 1715.13 2302.86"/>
  <polygon points="1310.35 2302.86 1302.79 2334.26 1286.37 2334.32 1297.01 2303 1310.35 2302.86"/>
  <polygon points="1286.37 2302.86 1278.73 2334.19 1263.89 2334.33 1273.02 2303 1286.37 2302.86"/>
  <polygon points="1737.61 2302.86 1728.47 2334.18 1715.13 2334.32 1722.78 2303 1737.61 2302.86"/>
  <circle cx="802.41" cy="2161.85" r="10.25"/>
  <circle cx="802.39" cy="2208.27" r="10.22"/>
  <polygon points="1703.13 2745.13 1692.8 2792.23 1686.65 2793.1 1696.98 2746 1703.13 2745.13"/>
  <polygon points="1892.02 2745.13 1881.7 2792.23 1875.55 2793.1 1885.88 2746 1892.02 2745.13"/>
  <polygon points="563.76 2745.13 553.43 2792.23 547.29 2793.1 557.61 2746 563.76 2745.13"/>
  <circle cx="1998.42" cy="2132.33" r="9.3"/>
  <circle cx="1050.95" cy="2132.33" r="9.3"/>
  <circle cx="2632.57" cy="2132.33" r="9.3"/>
  <circle cx="2398.7" cy="2132.33" r="9.3"/>
  <path d="M1896.3,2732.92l-7.27.21,2.3-8.99c5.76-.08,7.89,4.11,4.97,8.78Z"/>
  <path d="M1707.4,2732.92l-7.27.21,2.3-8.99c5.76-.08,7.89,4.11,4.97,8.78Z"/>
  <path d="M568.04,2732.92l-7.27.21,2.3-8.99c5.76-.08,7.89,4.11,4.97,8.78Z"/>
  <path class="st0" d="M1612.88,216.34c67.16-3.15,151.01.51,209.15,35.82,59.32,36.02,107.46,72.87,132.19,140.66,16.36,44.83-5.71,135.52-24.44,179.43-14.15,33.16-57.37,91.73-82.75,118.15-50.53,52.61-117.45,102.57-177.02,145.31-36.14,25.93-68.2,38.3-105.82,59.09-26.92,14.88-51.15,34.56-78.42,49.01-26.31,13.94-57.4,28.73-84.47,41.46-22.27,10.47-45.93,16.56-67.98,26.47-32.21,14.47-60.94,37.75-91.45,55.48-19.8,11.5-37.89,23.75-56.96,36-40.5,26.02-101.48,24.25-143.93,46.46-6.43,3.37-34.51,20.59-38.07,24.89s-3.64,9.58-8.09,14.39-12.73,9.51-17.28,14.2c-20.22,20.82-32.17,49.5-62.96,58.47-67.89,19.8-119.17,5.4-135.99-67.92-13.34-58.13-27.93-108.01-22.92-168.95,4.83-58.8,26.84-123.28,47.93-178.45,7.67-20.07,17.93-42.45,29.38-60.58,53.17-84.18,106.53-168.02,171.5-243.78,34.48-40.21,90.4-71.26,132.44-102.93,35.71-26.9,68.17-52.69,107.01-75.9,17.93-10.71,37.61-18.95,55.22-30.24,15.63-10.02,28.86-23.55,44.88-33.08,27.39-16.28,68.8-33.59,98.74-46.69,54.19-23.71,111.06-34.01,170.11-36.78ZM1804.56,486.74c8.63-10.01,13.34-30.55,10.67-43.37-.81-3.89-4.71-7.03-5.32-9.71-.45-1.96.92-4.2.53-6.47-2.66-15.45-38.91-16.69-50.74-14.55-32.21,5.83-39.32,70.52-2.94,83.2,17.03,5.94,35.35,5.34,47.8-9.1ZM1271.09,441.19c-21.93,1.11-45.76-1.24-54.76,23.24-6.56,17.83-10.06,49.05,10.22,59.4,39.62,20.22,88.2-15.34,72.53-60.54-3.89-11.23-15.9-22.72-27.99-22.1Z"/>
  <path class="st0" d="M1886.04,1642.43c2.33-19.77,16.46-54.52,28.48-70.47,4.99-6.62,24.36-23.73,26.21-27.75,1.57-3.42,1.46-7.91-1.32-10.62-2.5-1.97-7.5-1.73-10.55-1.26-9.14,1.41-43.93,32.91-51.8,41.15-14.36,15.01-24.73,33.71-35.98,50.98-2.96,2.1-.94-2.7-.78-3.78,7.86-51.45,44.59-109.06,84.01-142.37,21.62-18.27,47.91-31.52,71.65-46.78,10.27-6.6,20.67-16.96,31.47-22.5,11.86-6.08,26.7-9.1,39.04-14.93,26.68-12.61,48.18-34.16,71.55-51.39,11.73-8.65,27.32-15.97,38.07-24.89,6.89-5.72,11.32-13.55,18.02-19.43l20.27,75.69-2.42,3.6c-38.79,14.41-73.37,38.23-105.42,63.98-51.85,41.65-78.35,85.45-108.34,143.53-21.56,41.76-41.11,84.68-58.22,128.45-12.12-9.29-11.36-25.88-10.46-39.71,1.85-28.37,10.59-53.94,25.43-78.02,4.5-7.31,19.52-19.55,11.36-27.77-4.14-4.17-7.74-2.31-12.11.05-19.03,10.26-32.66,41.52-43.56,59.87-9.41,15.84-13.9,22.39-21.23,40.31-.92,2.25.91,4.05-3.38,3.3.79-9.31-1.07-20.14,0-29.24Z"/>
  <path class="st0" d="M1419.79,247.35l-58.98,25.39c-5.23-8.29-14.56-12.57-21.28-19.31-9.53-9.55-17.89-23.17-27.66-32.31-22.09-20.68-48.69-29.07-78.79-26.28-28.99,2.68-36.8,20.8-44.21,45.74-13.32,44.76-13.85,95.47-3.1,140.76-9.65,6.9-19.57,13.33-29.04,20.51-3.44,2.61-19.99,19.25-23.26,16.45-2.22-16-9.2-30.74-12.77-46.46-23.39-102.9,3.14-199.19,109.84-235.01,45.67-15.33,59.65,2.66,96.79,19.38,13.34,6,21.99,6.04,34.72,16.25,9.75,7.83,27.12,29.25,35.22,39.74,3.12,4.04,23.97,33.15,22.53,35.16Z"/>
  <path class="st0" d="M1973.01,398.8l-21.12-48.69c5.28-6.89,13.98-10.37,20.37-17.26,28.58-30.85,36.93-90.13,16.04-127.01-5.86-10.35-30.36-36.27-40.71-41.75-16.68-8.82-49.6.65-67.22,6.4-28.54,9.31-60.57,27.79-79.23,51.53-10.47-3.75-20.99-7.19-31.71-10.19-3.61-1.01-12.11-1.63-13.83-2.66-2.96-1.77-2.81-11.36-13.47-8.29,17.04-22.31,47.39-42.6,72.45-55.72,42.41-22.19,84.04-42.41,133.66-38.7,85.67,6.41,123.87,120.85,101.61,193.02-7.63,24.74-50.26,85.44-72.99,97.92-1.26.69-1.98,1.83-3.84,1.39Z"/>
  <path class="st0" d="M1320.85,1037.5c-9.67,17.1-18.69,34.28-26.21,52.48-13.12,31.74-21.97,61.52-18.74,96.66,1.41,15.33,10.34,29.05,11.89,44.17l-50.94,20.41c-3.76-2.42-16.74-36.52-17.59-42.43-1.57-10.95,1.89-29.38-.68-38.31-1.8-6.25-11.21-7.85-14.77-1.91-2.24,3.75-2.05,32.89-1.28,38.95,2.17,17.18,12.59,35.32,19.45,51.01-5.3,1.75-25.32,12.4-29.06,11.17-5.44-1.78-19.91-40.21-24.22-47.85-7.68-13.61-25.36-30.84-38.39-39.57-19.62-13.14-51.42-18.85-74.82-20.39,3.9-4.1,12.73-6.34,18.32-7.9,36.97-10.33,88.12-16.62,120.11-37.3,6.91-4.47,12.64-11.33,20.03-15.95,15.75-9.83,35.77-17.78,51.88-27.58,6.19-3.77,52.39-37.87,55.02-35.67Z"/>
  <path class="st0" d="M1940.27,334.04c-.91-.53-9.4-14.63-11.67-17.54-16.89-21.74-33.82-34.58-56.16-50.28-18.52-13.01-38.93-23.62-56.84-37.58,9.71-10.91,22.77-20.28,35.49-27.45,17.75-10.01,51.38-22.73,71.62-24.32,18.25-1.44,24.29,5.6,36.06,18.02,35.15,37.11,34.64,100.89-6.06,133.41-2.96,2.36-8.8,7.86-12.43,5.75Z"/>
  <path class="st0" d="M1344.62,277.55c.84,2.15.23,3.46-1.29,5.06-1.75,1.84-16.63,9.12-20.85,12.13-13.01,9.24-23.72,19.69-37.73,28.23-15.35,9.36-33.49,16.82-48.86,26.1-4.64,2.8-34.06,25.23-36.47,22.75-9.02-45.06-8.3-101.53,11.26-143.91,6-12.99,13.86-16.71,28.4-18.08,18.38-1.73,36.3,4.49,51.38,14.71,20.9,14.16,31.73,40.19,54.16,53.01Z"/>
  <circle class="st0" cx="287" cy="2172.99" r="31.09"/>
  <path class="st0" d="M1338.84,2377.81v-61.47c23.78-1.42,46.57,1.96,46.56,30.73,0,28.36-23.22,31.75-46.56,30.73Z"/>
  <path class="st0" d="M477.94,2165.29c29.42-7.53,32.09,35.51,11.28,39.76-27.26,5.57-28.38-35.38-11.28-39.76Z"/>
  <path class="st0" d="M2185.49,2165.29c29.42-7.53,32.09,35.51,11.28,39.76-27.26,5.57-28.38-35.38-11.28-39.76Z"/>
  <path class="st0" d="M2134.9,2178.41h-34.48c4.06-20,31.28-20.71,34.48,0Z"/>
  <path class="st0" d="M1461.77,2352.32h-34.48c4.06-20,31.28-20.71,34.48,0Z"/>
  <path class="st0" d="M1415.3,2178.41h-34.48c4.06-20,31.28-20.71,34.48,0Z"/>
  <path class="st0" d="M580.26,2178.41h-34.48c4.06-20,31.28-20.71,34.48,0Z"/>
  <path class="st0" d="M1266.88,2178.41h-34.48c4.06-20,31.28-20.71,34.48,0Z"/>
  <path class="st0" d="M1601.19,2361.33c-.42,13.87-8.96,22.18-23.2,19.44-7.91-1.52-9.18-11.33-1.88-15.29,2.81-1.53,23.88-5.26,25.08-4.14Z"/>
  <path class="st0" d="M1817.07,2187.41c-.42,13.87-8.96,22.18-23.2,19.44-7.91-1.52-9.18-11.33-1.88-15.29,2.81-1.53,23.88-5.26,25.08-4.14Z"/>
  <path class="st0" d="M649.22,2187.41c-.42,13.87-8.96,22.18-23.2,19.44-7.91-1.52-9.18-11.33-1.88-15.29,2.81-1.53,23.88-5.26,25.08-4.14Z"/>
  <path class="st0" d="M2506.22,2754.59c15.86,16.93-18,47.61-28.76,25.03-9.77-20.49,16.37-38.25,28.76-25.03Z"/>
  <path class="st0" d="M1311.38,2754.59c15.86,16.93-18,47.61-28.76,25.03-9.77-20.49,16.37-38.25,28.76-25.03Z"/>
  <path class="st0" d="M1045.75,2750.39c24.46,0,15.23,39.65-5.82,38.15-21.7-1.54-15.55-38.15,5.82-38.15Z"/>
  <path class="st0" d="M2240.59,2750.39c24.46,0,15.23,39.65-5.82,38.15-21.7-1.54-15.55-38.15,5.82-38.15Z"/>
  <path class="st0" d="M1608.17,2879.09c22.43-.68,16.89,38.75-4.56,38.32-23.57-.47-17.08-37.67,4.56-38.32Z"/>
  <path class="st0" d="M2449.72,2769.12c3.41,13.82-23.51,27.77-29.25,14.94-6.09-13.63,21.54-14.77,29.25-14.94Z"/>
  <path class="st0" d="M1559.22,2898.06c3.41,13.82-23.51,27.77-29.25,14.94-6.09-13.63,21.54-14.77,29.25-14.94Z"/>
  <path class="st0" d="M691.2,2769.12c3.41,13.82-23.51,27.77-29.25,14.94-6.09-13.63,21.54-14.77,29.25-14.94Z"/>
  <path class="st0" d="M1400.3,2898.06c3.41,13.82-23.51,27.77-29.25,14.94-6.09-13.63,21.54-14.77,29.25-14.94Z"/>
  <path class="st0" d="M2308.8,2769.12c3.41,13.82-23.51,27.77-29.25,14.94-6.09-13.63,21.54-14.77,29.25-14.94Z"/>
  <path class="st0" d="M1112.46,2769.12c3.41,13.82-23.51,27.77-29.25,14.94-6.09-13.63,21.54-14.77,29.25-14.94Z"/>
  <path class="st0" d="M1254.88,2769.12c3.41,13.82-23.51,27.77-29.25,14.94-6.09-13.63,21.54-14.77,29.25-14.94Z"/>
  <path class="st0" d="M1503.75,2769.12c3.41,13.82-23.51,27.77-29.25,14.94-6.09-13.63,21.54-14.77,29.25-14.94Z"/>
  <path class="st0" d="M2019.46,2769.12c3.41,13.82-23.51,27.77-29.25,14.94-6.09-13.63,21.54-14.77,29.25-14.94Z"/>
  <path class="st0" d="M2569.66,2766.12h-32.98c3.55-20.2,32.6-22.84,32.98,0Z"/>
  <path class="st0" d="M1703.14,2895.05h-32.98c3.55-20.2,32.6-22.84,32.98,0Z"/>
  <path class="st0" d="M1454.28,2766.12h-32.98c3.55-20.2,32.6-22.84,32.98,0Z"/>
  <path class="st0" d="M1374.82,2766.12h-32.98c3.55-20.2,32.6-22.84,32.98,0Z"/>
  <path class="st0" d="M800.64,2766.12h-32.98c3.55-20.2,32.6-22.84,32.98,0Z"/>
  <path class="st0" d="M1838.06,2766.12h-32.98c3.55-20.2,32.6-22.84,32.98,0Z"/>
  <path class="st0" d="M2128.9,2766.12h-32.98c3.55-20.2,32.6-22.84,32.98,0Z"/>
  <path d="M1271.09,441.19c12.09-.61,24.1,10.87,27.99,22.1,15.67,45.2-32.91,80.76-72.53,60.54-20.28-10.35-16.78-41.56-10.22-59.4,9-24.48,32.83-22.14,54.76-23.24ZM1281.5,463.65c-3.97-3.68-27.49-5.55-33.44-4.95-10.19,1.03-14.73,4.27-17.62,13.87-3.23,10.73-6.68,33.44,6.09,38.28,16.93,6.42,36.07.55,46.01-14.67,4.92-7.53,5.51-26.46-1.05-32.54Z"/>
  <path d="M1804.56,486.74c-12.45,14.44-30.77,15.04-47.8,9.1-36.39-12.68-29.28-77.37,2.94-83.2,11.82-2.14,48.07-.89,50.74,14.55.39,2.26-.98,4.51-.53,6.47.61,2.68,4.51,5.82,5.32,9.71,2.67,12.82-2.04,33.36-10.67,43.37ZM1756.07,477.8c4.78,4.29,19.49,5.88,25.7,4.87,13.42-2.17,20.34-24.71,17-36.32-1.05-3.67-14.46-16.47-18.05-17.93-29.59-12.08-42.44,33.43-24.65,49.38Z"/>
  <path class="st0" d="M1281.5,463.65c6.56,6.08,5.97,25.01,1.05,32.54-9.94,15.22-29.08,21.09-46.01,14.67-12.77-4.84-9.33-27.55-6.09-38.28,2.89-9.61,7.43-12.84,17.62-13.87,5.94-.6,29.47,1.27,33.44,4.95Z"/>
  <path class="st0" d="M1756.07,477.8c-17.79-15.95-4.95-61.46,24.65-49.38,3.59,1.46,17,14.27,18.05,17.93,3.34,11.61-3.58,34.15-17,36.32-6.21,1.01-20.91-.58-25.7-4.87Z"/>
</svg>