<?xml version="1.0" encoding="UTF-8"?>
<svg id="Layer_1" xmlns="http://www.w3.org/2000/svg" version="1.1" viewBox="0 0 3000 3000">
  <!-- Generator: Adobe Illustrator 29.4.0, SVG Export Plug-In . SVG Version: 2.1.0 Build 152)  -->
  <defs>
    <style>
      .st0 {
        fill: #c4ba98;
      }

      .st1 {
        fill: #b4b5a5;
      }

      .st2 {
        fill: #6c3028;
      }

      .st3 {
        fill: #c58d76;
      }

      .st4 {
        fill: #e1a289;
      }

      .st5 {
        fill: #a49189;
      }

      .st6 {
        fill: #e1a188;
      }

      .st7 {
        fill: #f5eed5;
      }

      .st8 {
        fill: #d5b760;
      }

      .st9 {
        fill: #909281;
      }

      .st10 {
        fill: #fed76f;
      }

      .st11 {
        fill: #25493f;
      }

      .st12 {
        fill: #d84431;
      }

      .st13 {
        fill: #f5e7bd;
      }

      .st14 {
        fill: #4e352a;
      }

      .st15 {
        fill: #b6c2bf;
      }

      .st16 {
        fill: #906654;
      }

      .st17 {
        fill: #26493f;
      }

      .st18 {
        fill: #765445;
      }

      .st19 {
        fill: #6c6d60;
      }

      .st20 {
        fill: #c08b74;
      }

      .st21 {
        fill: #274a40;
      }

      .st22 {
        fill: #a3a495;
      }

      .st23 {
        fill: #9e8a82;
      }

      .st24 {
        fill: #9a3b2f;
      }

      .st25 {
        fill: #f4e6bd;
      }

      .st26 {
        fill: #a4745f;
      }

      .st27 {
        fill: #fffffe;
      }

      .st28 {
        fill: #e2a389;
      }

      .st29 {
        fill: #54453f;
      }
    </style>
  </defs>
  <path class="st27" d="M931.38,3000H0V0h3000v3000h-783.48v-2c23.22-34.89,22.19-57.66,21.11-96.93-.34-12.38,3.1-51.02-9.12-58.96-3.57-5.52-1.85-3.04,2.04-4.89,38.17-18.15,92.63-44.39,127.72-66.23,44.44-27.66,71.27-76.06,26.14-117.76-7.32-6.77-.52-6.45-13.99-9-7.81-45.72-47.4-80.26-74.74-116.13-14.92-19.58-28.76-39.85-43.18-59.75,21.21-10.55,43.53-19.62,64.67-30.26,35.34-17.79,53.91-20.55,59.24-63.67,2.93-23.71,5.6-59.89-21.99-69.95,1.68-52.17,11.77-105.13,1.02-155.92-3.76-17.79-13.91-63.66-31-71.93,8.83-3.58,19.89-2.42,24.14-12.84,4.31-10.57,1.77-47.77-6.21-56.05-6.65-6.9-18.38-3.29-26.64-7.33-11.45-5.61-29.24-31.37-38.24-31.89-3.34-.19-6.87,1.92-9.78,1.64-5.54-.54-25.01-22.9-29.17-28.47-33.95-45.55-13.9-78.31-15.95-127.96-.87-21.16-5.59-65.53-13.69-84.25-7.8-18.02-73.36-78.06-91.68-90.2-13.54-8.97-31.27-16.2-45.22-24.73-43.18-26.38-81.3-57.93-134.53-61.52-5.38-.36-10.01,2.77-15.58,1.92-5.44-.82-12.07-5.67-20.26-6-21.36-.84-45.8,1.65-67.94.1-18.36-1.28-36.46-5.66-54.88-6.08-.56-19.48,1.58-14.9,3.9-29.08,3.39-20.74-5.1-52.41-10.9-72.85-2.95-10.42-13.9-33.69-14.68-41.5-.46-4.65,4.8-9.59,6.63-14.51,4.64-12.48,1.55-30.08-6.94-39.93-1.61-1.86-5.16-1.51-3.76-4.6,11.09-20.05,18.71-41.59,27.39-62.71,12.71-30.92,14.45-45.18,19.74-78.19,2.89-17.99,3.22-36.48,10.61-53.46.19-2.29-1.23-3.99-3.33-4.67-11.82-3.85-30.96,23.28-44.67,21.75,2.12-17.76,4.22-38.14,11.04-55.92,5.68-14.82,23.99-16.97,22.53-36.45-2.26-30.36-33.24-31.55-57.16-31.97-9.93-14.6-16.33-25.87-14.4-44.58.88-8.56,8.18-16.25-.1-23.86-17.28-15.89-42.83.07-54.89-9.07-9.19-6.97-1.96-31.54-12.07-43.89-6.31-7.7-34.52-18.32-45.53-26.43-3.2-2.36-10.01-7.21-12.39-9.6-3.69-3.7-3.13-10.07-9.95-12.01-5.1.33-5.6,27.13-7.03,32.91-1.72,6.95-4.08.69-8.56-1.37-12.34-5.68-42.12-12.29-44.51-27.47-.81-5.17,3.3-11.05.2-16.16-14.78-11.55-37.12-.95-53.02,5.02-2.46.92-5.84,4.45-6.98,4.46-2.42.01-16.18-10.44-27.74-9.34-11.11,1.06-17.14,10.18-27.21,11.89-4.43-9.03,9.31-13.35,7.97-18.88-1.53-6.33-25.93,2.53-29.91,5.95-5.61,4.83-5.68,16.21-13.46,18.51-16.05,4.76-32.28-12.43-40.52-8.61-2.5,1.16-11.73,14.16-16.01,18.04-14.54,13.2-44.13,30.89-61.94,39.99-26.74,13.67-64.2,22.04-83.03,46.89-6.9,9.1-9.35,20.76-15.3,30.67-9.19,15.3-32.29,35.61-37.05,50.9-5.29,17.02-2.41,40.68,5.42,56.36-38.2,3.5-19.2,43.95-9.99,65.98-5.32-1.79-19.72-1.05-26.47-2.51-18.65-4.04-39.12-8.89-57.47-13.48-25.03-6.26-48.53-13.71-72.99-21.95-6.04-2.03-18-8.72-22.42-9.64-7.32-1.52-7.05,4.57-5.62,9.65,4.86,17.27,65.45,56.36,81.04,71.9,19.41,19.34,35.78,43.77,57.94,62.98,14.9,12.92,33.38,24.39,48.93,37.01,16.94,13.75,34.94,33.44,53.02,45.91-1.57,4.07-3.37,8.89-3.78,13.22-3.11,33.33-4.08,66.51-6.13,99.79-1,16.23-5.8,32.45-4.08,48.88-24.66,10.56-50.7,23.1-73.4,37.52-33.37,21.19-61.58,50.16-90.49,76.4-2.61-1.1-5.03-3.65-8.14-3.05-4.47.86-38.47,22.07-43.66,26.21-3.88,3.1-14.86,16.27-16.16,16.82-8.62,3.65-32.35,5.79-45.01,9.95-95.97,31.56-208.47,113.15-271.61,192.08-68.26,85.33-63.96,226.52-10.77,318.23,43.54,75.07,106.12,153.47,157.45,224.3,8.56,11.82,58.86,76.66,54.02,86.89-41.15,12.56-22.7,73.64-3.99,98.93,11.08,14.99,31.57,28.09,42.08,39.93,1.61,1.81,1.23,5.57,2.43,6.62s4.56-.03,5.16.58c.86.87,1.97,19.68,2.87,24.23,4.88,24.52,17.79,72.12,31.73,92.19,5.21,7.5,21.08,16.84,29.65,17.32-20.05,70.46-22.29,147.42,6,215.86v2Z"/>
  <rect class="st15" x="931.38" y="2998" width="1285.14" height="2"/>
  <path class="st11" d="M1694.87,2652.23c-4.7,6.49.46,13.2-.85,19.95-3.66,18.82-19.11,41.27-26.1,60.03-10.83,29.09-19.16,75.62,7.16,98.71,5.34,4.69,12.78,6.47,17.67,10.31,20.6,16.2,45.91,34.85,72.44,41.48,5.87,1.47,15.1.26,18.64,3.34,2.09,1.82,8.73,19.44,9.06,23,1.32,14.32-6.55,14.98-7.7,20.31-1.27,5.89,12.02,12.59,15.77,11.78,3.57-.77,27.5-18.36,31.83-22.06,25.68-21.88,52.31-59.21,71.93-86.97.22,5.99-.82,12.29.85,18.19,2.27,8.02,12.67,1.81,3.15,19.79-4.36,8.24-6.68,11.46-5.86,22.67,2.33,31.8,26.22,77.35,62.61,77.04,32.98-.28,110.15-50.89,141.78-68.07,37.68-20.47,75.1-41.12,113.22-60.76,2.14-.6,6.31.02,8.04,1.14,12.22,7.94,8.78,46.59,9.12,58.96,1.08,39.28,2.12,62.04-21.11,96.93H931.38c-28.29-68.44-26.04-145.39-6-215.86,34.22,1.95,57.72-32.43,84.54-46.37,27.87-14.49,60.12,24.93,88.56,30.16,7.64,1.41,37.91,1.36,40.83,3.15,4.07,2.5-1.56,10.08-1.99,14.29-.81,7.95,1.52,13.3,8.49,17.18,14.97,8.31,47.39,15.23,64.35,13.56,32.42-3.19,39.44-22.9,48.99-49.95,4.71,1.89,9.92,3.58,15.02,3.98,60.28,4.72,166.08-16.28,222.17-39.61,39.83-16.57,80.19-31.84,120.6-47.28,21.96-8.39,58.71-18.23,77.92-29.01Z"/>
  <path class="st21" d="M999.33,1630.91c-6.69,6.08-14.33,12.21-15.99,21.96,12.02,4.58,23.57,10.37,35.97,14.02,9.38,26.12,15.35,55.83,25.62,81.31,24.82,61.53,60.39,120.71,90.06,179.76,11.07,22.03,17.73,46.43,29.88,68.06,10.26,18.28,16.36,24.93,24.85,45.1,4.47,10.63,9.23,25.3,17.46,33.5-2.22,2.27-5.95,2.58-8.08,4.91-4.84,5.28-18.69,48.72-19.9,57.05-18.79-27.08-42.83-48.88-59-77.91-11.15-20-18.85-41.97-29.89-62.04-24.65-44.8-62.51-75.44-83.92-121.94-12.59-27.33-25.28-62.18-35.08-90.84-12.95-37.88-19.27-78.94-39.94-112.96,1.3-.55,12.28-13.72,16.16-16.82,5.18-4.14,39.19-25.35,43.66-26.21,3.11-.6,5.54,1.96,8.14,3.05Z"/>
  <path class="st5" d="M1267.16,1177.22l2.01-9.98c22.03-4.36,15.38,21.13,15,35.02-.04,1.32,2.59,3.21,2.5,5.55-.6,16.41-29.79,43.95-31.52,54.4-.18,1.07,3.57.64,4,2.26,4.83,17.96-21.13,81.65-27.5,102.1-2.16,6.95,1.71,13.38-6.53,19.45-16.11,11.86-34.94-22.41-39.9-16.92,1.11,19.5,5.49,37.17,4.06,57.02-2.64,36.66-11.75,50.15-5.99,89.97.57,3.93-2.15,6.63-.6,12.24,3.5,12.67,12.97,6.74,23.32,10.84,6.58,2.61,10.75,9.29,16.9,13.08,8.87,5.46,16.68,6.84,25.31,14.66,14.71,13.32,15.11,30.84,21.99,47.96,6.01,14.98,54.45,51.39,68.93,64.98,32.46,30.46,63.4,67.8,98.96,94.91,15.7,11.97,24.11,5.29,38.39,11.58,4.6,2.03,10.63,8.43,16.49,11.49,17.18,8.98,39.05,16.14,54.6,25.35,6.29,3.72,17.78,16.22,20.81,17.16,5.08,1.58,21.86,2.93,27.38,2.25,35.93-4.47,60.86-72.36,79.11-98.78l1.13,9.13-16.12,39.84,16.03-19.96,5.94,3.97c28.9-28.13,55.98-64.04,56.97-105.91l-12.88,16.07c-4.98,4.28-37.11,30.39-37.18,12.87-.01-2.92,1.53-3.31,3.38-4.7,22.45-16.85,24.54-13.93,40-40.02,11.83-19.96,7.4-12.52,10.71-35.17,2.71-18.56,12.48-34.39,18-51.95,17.77-56.53-7.85-113.96-15.89-168.03-2.16-14.55,5.69-24.1,5.5-27.51-.16-2.87-4.92-9.82-5.63-15.35-.32-2.48-.59-8.62-.03-10.66.58-2.14,3.9-1.16,4.03-1.33h7.99c8.49,9.85,11.58,27.45,6.94,39.93-1.83,4.92-7.09,9.86-6.63,14.51.77,7.81,11.72,31.08,14.68,41.5,5.79,20.43,14.28,52.11,10.9,72.85-2.32,14.18-4.45,9.61-3.9,29.08.04,1.33-.01,2.67,0,4,.36,34.6-14.38,51.33-21.43,81.5-10.97,46.93,2.62,62.13-27.72,108.19-5.47,8.3-25.33,28.93-27.73,34.23-1.43,3.17-.54,7.27-2.08,9.92-2,3.45-22.43,10.26-27.06,14.91-1.77,1.77-27,38.72-27.89,41.06-7.82,2.52-11.55,7.61-19.99,9.99-1.56.44-4.15-.35-6,0,.18,1.93-.29,4.12,0,5.99-14.39,3.61-25.26,5.1-39.97,6-3.5.21-7.53,2.02-9.99,2-12.77-.1-23.08-15.19-35.98-21.99-.84-.44-3.16.44-4,0-13-6.85-51.94-34.74-59.87-37.06-6.46-1.89-12.61-.17-18.9-1.08-13.07-1.89-59.01-41.62-71.15-52.77-14.63-13.42-26.57-29.33-40.89-43.05-24.59-23.56-61.93-50.89-80.66-79.23-6.61-10-10.11-28.79-19.45-36.52-4.73-3.91-12.5-4.51-17.88-8.11-4.77-3.19-9.11-10.46-13.97-14.01-22.32-16.32-35-15.02-40.98-45.96-.24-1.24-1.88-2.9-2-4-1.72-16.44,3.08-32.65,4.08-48.88,2.05-33.28,3.02-66.46,6.13-99.79.4-4.33,2.21-9.15,3.78-13.22.58.4,3.85-.27,5.85,1.07,10.75,7.21,25.57,24.66,37.06,10.86l23.02-81.14-5.16-16.78c5.39-14.02,29.89-38.72,32.75-51.34,2.57-11.35-1.11-28.13,2.42-40.56-1.99-.09-4,.07-6,0Z"/>
  <path class="st28" d="M1121.25,1175.22c.3.1,1.9,3.46,4.42,4.47,12.78,5.16,16.1-3.08,23.56-2.48,4.06.33,11.51,5.09,17.16,5.83,32.15,4.17,68.36-6.9,100.76-5.83,2,.07,4.01-.09,6,0-3.53,12.43.16,29.21-2.42,40.56-2.86,12.62-27.36,37.32-32.75,51.34l5.16,16.78-23.02,81.14c-11.49,13.81-26.31-3.65-37.06-10.86-1.99-1.34-5.27-.67-5.85-1.07-18.08-12.47-36.08-32.16-53.02-45.91-15.55-12.62-34.03-24.09-48.93-37.01-22.15-19.21-38.53-43.64-57.94-62.98,15.46,1.32-5.5-15.64,2-21.99,9.85,8.19,38.76,21.09,51.47,25.47,6.9,2.38,34.37,8.07,36.49,9.48,9.71,6.47-6.52,41.51,21.37,52.58,5.89,2.34,16.38,2.37,20.49,5.49,5.35,4.06,8.62,23.69,22.66,31.3,5.41,2.93,22.15,7.19,25.37.57,2.09-4.3-23.12-8.19-24.99-12.93-7.43-6.65-12.42-26.21-18.15-29.82-4.88-3.07-12.41-1.91-18.44-3.55-20.24-5.49-15.65-23.99-18.35-40.61l86.93,3.98c12.07-3.62,49.59-1.48,57.04-10.91,1.58-2.01,3.12-2.21,1.01-5.13-5.62-7.75-50.9,1.58-61.95,2.15-74.05,3.82-110.13-7.36-174.97-36.06,5.29-7.17,13.84-8.79,11.99-19.99,18.35,4.59,38.82,9.44,57.47,13.48,6.75,1.46,21.15.72,26.47,2.51Z"/>
  <path class="st0" d="M2324.45,2076.62c-3.66-1.77-9.83-2.03-13.99-2-10.49.07-20.44,3.63-30.88,4.09-31.79,1.41-59.74-2.88-89.96-4.16-22.91-.97-46.11.86-69.02.07-2.19-1.14-6.38-.4-7.99-4,35.39-6.99,70.82-2.67,107.01-2.08,31.58.52,64.29.87,95.75.15,6.84-.16,26.51-2.18,28.7-9.45,3.99-13.28,1.63-52.96-19.5-50.44.15,3.33.25,4.42-2.47,6.6-13.74,11-46.18,2.09-62.6,1.27-11.97-.6-24.08.58-36.04.06-62.18-2.71-149.19-19.65-192.73,36.95-12.5,16.25-.97,31.97-4.05,50.9,1.31,1.49,13.12-7.61,16.02-8.94,6.66-3.07,10.85-4.12,17.95-5.04-3.17,4.8-9.06,7.44-13.99,9.99-1.32.69-2.67,1.31-4,2s-2.7,1.39-4,2c-9.6,4.55-18.87,10.72-29.98,9.99-2.47-.16-3.21-1.74-4-2,12.89,2.79,15.39-17.72,13.53-26.53-1.41-6.66-9.34-12.86-8.95-20.13.48-8.91,10.49-28.83,11.41-38.46.42-4.46-2.17-8.23-2.08-11.91.42-16.55,3.71-14.45-4.19-31.6-9.18-19.93-22.26-34.24-26.81-57.13-11.47-57.68-12.93-121.72-25.38-180.49-10.86-51.3-32.45-94.43-49.5-142.37-4.75-13.35-6.04-27.49-9.98-41.01-21.45,7.57-40.86,18.85-59.86,31.15-2.2,1.42-3.4,4.4-4.07,4.83-2.05,1.34-11.47,1.95-13.98,7,6.64,1.63,4.46,9.08,2.43,14.43-3.67,9.7-20.3,29.83-26.76,41.18-43.49,76.32-86.24,174.11-139.62,242.12-5.32,6.78-15.47,13.39-15.93,23.04-.81-1.29-1.83-3.85-2-4l179.85-306.83c2.17-7.13-15.64,1.44-17.96-.97l.04-5.91c17.9-4.69,31.86-23.1,48.12-32.86l51.76-19.21c.55-3.3-4.86-2.16-7.05-2.07-26.39,1.05-57.22,1.02-83.85-1.93-11.67-1.29-23.16-5.57-35.01-5.97-.01-1.33.04-2.67,0-4,18.42.42,36.52,4.8,54.88,6.08,22.14,1.54,46.59-.94,67.94-.1,8.19.32,14.82,5.17,20.26,6,5.58.85,10.2-2.29,15.58-1.92,53.22,3.59,91.35,35.14,134.53,61.52,13.96,8.53,31.69,15.76,45.22,24.73,18.32,12.14,83.88,72.18,91.68,90.2,8.1,18.71,12.82,63.09,13.69,84.25,2.05,49.65-18,82.41,15.95,127.96,4.16,5.58,23.62,27.94,29.17,28.47,2.91.28,6.44-1.83,9.78-1.64,9,.52,26.79,26.28,38.24,31.89,8.26,4.05,20,.43,26.64,7.33,7.98,8.29,10.53,45.49,6.21,56.05-4.25,10.41-15.31,9.25-24.14,12.84ZM2206.55,1940.71c-2.92-8.75,6.62-14.72,7.56-21.43,1.29-9.21-2.04-23.21-1.75-31.53,1.45-41.17,12.32-130.56-12.96-164.76-11.95-16.17-33.22-32.24-47.89-46.05-32.78-30.84-40.2-32.23-77.5-54.41-30.57-18.18-76.59-54.15-110.55-59.33l-46.72-2.22c2.69,31,19.52,58.09,30.01,86.9,22.15,60.86,32.15,120.29,41.65,184.2,4.38,29.47,4.62,67.12,11.18,94.75,4.6,19.37,20.01,37.58,23.26,57.68l13.81,3.24-7.99,18.92,17.97-1.98c-.31,14.91-17.28,17.87-17.96,31.95l14.92-12.04c16.26-10.18,34.84-16.42,54.04-17.9,66.18-5.12,133.75,3.95,199.76,6.05,6.66.21,12.73.03,19.07-2.1,1.07-1.43-12.06-9.26-14.01-10.95-10.87-9.37-16.3-25.65-31.12-19.15-9.99,4.38-13.27,17.02-22.81,20.12-.81-9.48,5.89-16.96,11.07-24.07l.05-3.86c-17.21-10.53-30.31-53.46-53.08-32.02Z"/>
  <path class="st5" d="M1121.25,1175.22c-9.21-22.03-28.21-62.48,9.99-65.98-7.83-15.69-10.71-39.35-5.42-56.36,4.76-15.29,27.85-35.6,37.05-50.9,5.95-9.9,8.41-21.57,15.3-30.67,18.83-24.85,56.29-33.22,83.03-46.89,17.81-9.1,47.4-26.79,61.94-39.99,4.28-3.89,13.51-16.89,16.01-18.04,8.24-3.82,24.47,13.36,40.52,8.61,7.78-2.31,7.84-13.68,13.46-18.51,3.98-3.43,28.39-12.28,29.91-5.95,1.34,5.54-12.4,9.85-7.97,18.88,10.07-1.71,16.1-10.83,27.21-11.89,11.56-1.1,25.32,9.35,27.74,9.34,1.15,0,4.53-3.54,6.98-4.46,15.9-5.96,38.23-16.56,53.02-5.02,3.11,5.11-1.01,10.98-.2,16.16,2.39,15.18,32.17,21.79,44.51,27.47,4.48,2.06,6.84,8.32,8.56,1.37,1.43-5.79,1.93-32.58,7.03-32.91,6.82,1.93,6.26,8.3,9.95,12.01,2.38,2.39,9.19,7.24,12.39,9.6,11.01,8.11,39.22,18.72,45.53,26.43,10.11,12.35,2.88,36.92,12.07,43.89,12.06,9.14,37.61-6.82,54.89,9.07,8.29,7.62.99,15.3.1,23.86-1.93,18.7,4.47,29.98,14.4,44.58,23.92.42,54.89,1.61,57.16,31.97,1.45,19.48-16.85,21.63-22.53,36.45-6.81,17.78-8.92,38.16-11.04,55.92-1.63,13.63-4.08,26.7-6,39.97-.09.65.09,1.34,0,2-1.2,8.67-2.83,17.28-4,25.98-6.35,1.11-3.54-3.19-3.92-6.96-2.4-24.03.52-71.45,4.48-95.41,1.77-10.74,7.61-33.22,15.58-40.38,3.49-3.13,12.84-5.43,14.56-9.71,7.58-18.84-45.66-27.88-57.67-31.43-13.58-20.01-20.88-43.97-7.01-65.92-20.92-5.68-33.61,6.49-52.95-8.03-17.58-13.21-11.93-40.99-23.05-50.9-4.24-3.78-11.73-3.46-16.33-5.65-13.05-6.22-21.25-13.61-31.56-23.38,1.49,6.72-2.86,39.61-12.74,37.83-.77-.14-9.14-8.01-12.22-9.89-14.11-8.63-29.28-14.36-40.04-27.91-5.68-7.16-12.99-18.82-8.98-27.98-16.64-2.79-30.28,4.12-45.49,7.55-2.21.5-4.55-1.32-5.54-1.23-1.29.12-.1,3.68-3.84,3.89-7.8.43-15.5-5.79-22.22-6.1-11.92-.55-33.93,11.4-30.85,25.84-4.9,5.81-16.14-23.67-14-27.97-8.67,4.04-11.51,16.79-21.16,17.95-12.78,1.54-26.03-7.87-37.41-11.77-5.58,5.89-10.65,12.03-16.31,17.86-2.62,2.7-7.82,4.87-9.27,6.85-1.98,2.71.53,5.28-.16,7.65-1.67,5.76-58.9,35.62-68.22,39.76-17.67,7.83-28.01,5.96-44.28,19.68-17.07,14.39-15.9,23.53-25.37,40.58-6.31,11.35-34.12,42.4-35.55,50.42-2.81,15.72,9.32,29.63,7.75,45.77-.23,2.4-4.7,15.74-6.13,17.78-4.47,6.37-16.01,8.45-15.69,16.05.08,1.92,7.28,26.64,8.19,28.01,2.85,4.24,7.31,3.62,9.29,5.82,1.1,1.22.32,6.38,4.5,7.37-7.46-.6-10.78,7.63-23.56,2.48-2.52-1.02-4.12-4.37-4.42-4.47ZM1417.05,871.44c-3.65-.68-6.64,2.19-5.98,5.98l5.98-5.98Z"/>
  <path class="st0" d="M931.38,1670.89c20.66,34.03,26.98,75.08,39.94,112.96,9.8,28.66,22.49,63.51,35.08,90.84,21.41,46.5,59.27,77.15,83.92,121.94,11.04,20.07,18.75,42.04,29.89,62.04,16.17,29.02,40.21,50.83,59,77.91-.51,3.49-.67,8.23,2.02,10.98,12.76,5.78,22.3,16.11,33.96,23,6.78,12.89,20.05,21,28.81,32.15,12.53,15.93,18.56,40.53,36.12,51.82,6.18,3.98,12.2,2.37,16.75,9.23,8.92,13.43.79,20.61.64,31.69-.09,6.87,4.83,15.43,3.64,22.99,2.22,2.3,50.38-3.47,61.47,1.48,9.76,4.36,5.59,25.69,10.46,34.51v6c-13.27,60.67-23.29,129.84-42.07,188.77-4.6,14.43-14.53,29.98-18.52,43.44-3.61,12.17-4.8,26.05-8.83,39.14-8.51,27.67-28.65,104.16-40.51,124.38-1.79,3.06-.91-.76-4,7.99-9.55,27.05-16.57,46.76-48.99,49.95-16.97,1.67-49.39-5.24-64.35-13.56-6.97-3.87-9.3-9.23-8.49-17.18.43-4.21,6.06-11.79,1.99-14.29-2.92-1.79-33.19-1.74-40.83-3.15-28.44-5.23-60.69-44.65-88.56-30.16-26.83,13.94-50.33,48.32-84.54,46.37-8.56-.49-24.44-9.82-29.65-17.32-13.94-20.07-26.85-67.67-31.73-92.19-.91-4.55-2.02-23.36-2.87-24.23-.6-.61-3.99.43-5.16-.58s-.83-4.81-2.43-6.62c-10.51-11.85-31-24.95-42.08-39.93-18.71-25.3-37.16-86.37,3.99-98.93-.6.95-.07,3.21-2,4.92-5.08,4.5-8.14,2.19-13.09,10.97-12.55,22.25-3.56,52.46,9.42,72.72,6.61,10.33,39.91,45.6,50.16,49.78,11.93,4.86,15.87-4.15,25.42-5.71,4.57-.75,7.72,1.44,12.03.41,6.59-1.57,35.07-22.05,37.97-19.16,1.23,7.61-13.73,13.83-19.94,17.02-11.45,5.88-25.22,11.67-38.01,12.97,1.87,4.3,10.29.95,14.64,2.32,2.63.83,3.88,2.9,3.33,5.64l-31.96-3.98c4.35,24.06,9.95,47.89,17.94,70.98,12.01,34.69,20.15,61.27,64.51,54.44,18.84-8.77,57.63-49.59,76.42-49.66,21.6-.08,47.49,24.74,68.99,31.13,11.69,3.47,39.44,7.84,50.53,4.61,4.9-1.43,27.79-38.98,31.74-46.21,29.82-54.69,40.48-118.53,58.2-177.65,19.03-63.51,48.4-134.44,55.14-200.69.24-2.39,1.37-7.28-.74-8.74l-22.96,33.01-6.04-2.09,17.96-31.95-10.83,2.98-3.11-4.94c12.08-8.29,37.78-37.35,30.53-52.48-3.87-8.09-13.47-1.93-19.97-7.1-10.93-8.7-30.22-47.09-42.6-62.31-30.13-37.07-68.2-72.47-98.91-108.95-25.71-30.54-38.13-74.19-59.32-108.57-19.41-31.5-49.4-57.27-66.61-89.28-30.71-57.13-47.36-128.01-66.31-189.52-4.41-14.31-7.53-25.02-23.72-28.32-46.36,15.9-94.33,28.68-135.41,56.28-63.44,42.63-166.89,130.85-196.21,201.53-18.67,45.01-16.35,126.54-6.1,173.92,17.69,81.74,108.51,189.49,158.59,259.13,23.21,32.27,50.61,64.55,71.97,97.92,4.56,7.13,14.36,23.49,11.97,31.28-.74,2.43-3.27,2.79-3.62,3.34,4.84-10.22-45.46-75.07-54.02-86.89-51.32-70.83-113.91-149.22-157.45-224.3-53.19-91.71-57.48-232.9,10.77-318.23,63.14-78.93,175.64-160.53,271.61-192.08,12.66-4.16,36.39-6.3,45.01-9.95ZM1288.14,2324.45v2c1.3-.67,1.3-1.33,0-2ZM1356.49,2325.14c-5-1.69-43.59-1.65-50.47-.79-2.19.27-4.48-.19-5.93,2.06-8.59,39.5-15.16,81.09-25.92,119.98-22.86,82.59-64.96,250.58-115,314.71-7.19,9.22-29.67,25.83-7.95,36.05,20.01,9.41,59.51,16.67,79.38,5.4,13.58-7.7,24.07-37.53,18.58-52.37l7.97,3.98c-.21-3.32.47-6.42,1.44-9.58,33.68-110.36,77.57-217.63,97.93-331.78,3.21-18.01,13.18-66.77,6.97-81.67-.34-.81-6.55-5.85-6.99-5.99Z"/>
  <path class="st3" d="M2112.59,2070.62c1.61,3.6,5.81,2.85,7.99,4,20.82,10.89,58.33,31.79,73.14,49.81,2.25,2.74,2.61,7.42,3.09,7.85,1.53,1.39,11.95-.58,16.31.71,7.15,2.11,46.34,47.55,35.38,59.53,5.33.38,12.57.92,17.08,3.93,8.85,5.91,33.5,41.26,37.85,52.09,2.02,5.03,4.92,20.44,6,21.99,1.27,1.84,6.22,2.28,9.1,4.89s4.94,8.65,7.97,12.02c7.04,7.83,17.78,14.49,19.97,25.02,3.63-.75,3.71-3.93,4.05-6.92,2.26-20.3-2.55-42.18-2.15-62.12.19-9.63,3.55-22.18,4.05-31.91,1.45-28-8.64-88.84-23.13-112.74-5.68-9.37-14.26-14.41-18.82-24.15,4.16-.03,10.33.23,13.99,2,17.09,8.27,27.24,54.14,31,71.93,10.75,50.79.66,103.75-1.02,155.92-.82,25.33,3.55,21.3,12.36,40.6,4.35,9.53,6.2,19.58,9.62,29.35-5.33,43.12-23.9,45.88-59.24,63.67-21.14,10.64-43.46,19.71-64.67,30.26-.28-.38-2.7-1.41-6-6,19.7-6.82,38.14-20.27,56.62-30.32,29.23-15.91,71.21-23.12,62.42-65.73-1.76-8.56-24.28-45.75-30.6-53.35-7.14-8.59-18.33-14.23-23.85-24.62-27.99,4.86-43.39,23.47-62.51,41.19-2.89,2.68-7.09,3.14-10.17,5.82-14.77,12.85-26.85,37.37-41.89,51.05-.56-.78-2.62-2.26-4-4,4.57.27,5.17-3.02,7.24-5.75,23.94-31.52,42.62-54.81,73.75-80.15,4.49-3.65,27.09-16.58,27.96-18,9.47-15.41-21.67-49.57-32.97-59.02-9.1-7.6-12.13-10.44-24.84-8.78-13.2,1.72-54.59,33.12-64.15,43.76-15.43,17.18-28.73,40.38-40.95,59.98-1.8-2.42-2.85-4.43-4-6,5.52-11.15,11.48-22.21,18.37-32.6,12.37-18.65,47.56-60.65,65.74-72.17,5.28-3.35,23.25-9.33,24.03-10.38,8.9-11.99-21.61-46.85-33.32-48.64-7.2-1.1-40.91,6.63-47.59,10.14-9.05,4.76-27.99,29.88-34.85,39.1-13.16,17.69-25.03,36.58-34.35,56.59-.7-2.06-2.54-5.61-4-9.99,13.12-29.16,31.2-60.31,52.94-83.97,14.76-16.06,26.7-16.38,46.99-21.99.65-.84-3.8-4.95-4.94-6.02-7.54-7.08-27.85-25.28-35.63-30.32-4.67-3.02-32.85-16.1-37.25-16.72-14.85-2.1-64.44,27.98-74.06,40.1-11.55,14.54-15.72,36.85-13.99,54.96l-.21,3.71-2.76.27c-1.86-1.67-4.17-3.61-5.03-5.98-2.59-7.14-1.01-19.03-2.47-26.51-.74-3.8-8.19-25.41-10.05-26.93-17.94-14.67-72.71,19.07-82.22,37.65-5.93,11.59-9.17,35.86-9.32,48.9-.07,5.72,2.72,7.98,4.12,12.86-.29.2.89,5.55-4,4-17.79-36.75-8.68-76.22,26.15-98.77,10.42-6.75,47.6-25.11,58.23-19.1,4,2.26,1.13,3.14,9.56,5.94.78.26,1.53,1.84,4,2l11.97,25.97c2.44-13.82,11.37-24.28,18.01-35.96,1.29-.61,2.72-1.34,4-2l1,1.96,2.99-3.96c4.93-2.56,10.82-5.19,13.99-9.99.65-.08,1.37.13,2,0,.95-.2,1.71-1.06,2-2,.58-.23,1.44.24,2,0,.85-.37,1.53-1.2,2-2,10.22-9.05,30.89-13.4,43.97-15.99Z"/>
  <path class="st19" d="M2360.43,2642.24c.52,0,8.03,1.63,9.99,2,13.47,2.55,6.66,2.23,13.99,9,45.14,41.69,18.3,90.1-26.14,117.76-35.08,21.84-89.55,48.08-127.72,66.23-3.88,1.85-5.61-.63-2.04,4.89-1.72-1.12-5.89-1.74-8.04-1.14-38.12,19.63-75.55,40.29-113.22,60.76-31.62,17.18-108.8,67.79-141.78,68.07-36.39.31-60.28-45.23-62.61-77.04-.82-11.21,1.5-14.43,5.86-22.67,1.12,3.91,6.13.11,8.06-.94,11.28-6.11,21.29-17.02,27.92-21.05,26.35-16.04,75.9-36.51,105.93-49.97,1.42-.64,2.71-1.42,4-2,7.6-3.41,49.93-21.85,53.96-21.99.96-.03,3.51,3.18,6.09,1.15,2.52-2,1.35-6.24,1.91-7.14,5.28-8.5,71.97-34.46,83.94-43.97l9.99,2c-81.69,51.97-177.27,87.89-263.78,134.95-11.56,6.29-23.75,11.77-35.69,17.26-1.42,25.6,4.87,54,25.79,70.5,15.86,12.51,25.57,16.28,45.21,9.5,36.65-12.65,78.21-42.09,113.21-60.68,45.71-24.28,91.54-48.28,137.21-72.65,39.57-21.12,139.27-63.7,160.8-99.03,7.56-12.4,7.78-21.75,3.77-35.47-3.03-10.35-19.25-38.1-30.09-40.03-5.64-1-15.61,3.65-21.23,5.97-25.21,10.38-56.22,31.16-81.47,44.45-14.72,7.75-41.54,17.47-53.72,25.22.53-.51-1.32-6.72-2-7.99,19.68-9.86,39.96-19.13,59.3-29.64,20.57-11.17,72.26-46.48,92.6-46.31Z"/>
  <path class="st0" d="M1165.22,1520.99c-24.43,10.18-50.3,23.9-72.57,38.35-28.52,18.5-54.01,41.93-78.38,65.52-5.49,5.31-17.21,15.52-21,20.97-1.22,1.75-3.39,2.82-1,5.12,40.24,16.95,84.33,21.61,127.43,13.38,25.2-4.81,61.76-21.06,85.46-22.54,2.9-.18,5.2-.02,7.82,1.33-3.62,40.39-39.85,71.7-37.77,113.71,38.94-1.54,78.93-13.77,117.44-4.51,4.78,2.33,11.21,17.86,16.5,23.48,30.3,32.17,116.61,71.85,157.71,98.12,31.37,20.05,59.46,44.8,92.11,62.79-1.3,1.36-5.77,5.64-6,6,.99-4.45-2.46-4.23-4.94-5.96-60.1-41.77-117.13-74.98-178.77-113.13-26.07-16.14-62.96-35.61-74.5-64.4-24.72-8.04-46.28-1.73-70.59-.4-18.24.99-36.79.53-54.93,2.01-1.35-43.36,29.46-72.79,39.95-111.91-36.17,5.56-70.52,21.66-106.94,25.95-27.67,3.26-56.24-.11-82.92-7.97-12.4-3.65-23.95-9.44-35.97-14.02,1.66-9.74,9.29-15.88,15.99-21.96,28.91-26.24,57.12-55.21,90.49-76.4,22.71-14.42,48.74-26.96,73.4-37.52.11,1.09,1.76,2.75,2,4Z"/>
  <path class="st28" d="M1762.82,1163.22c13.71,1.53,32.85-25.6,44.67-21.75,2.09.68,3.52,2.37,3.33,4.67-7.4,16.98-7.73,35.47-10.61,53.46-5.29,33.01-7.03,47.27-19.74,78.19-8.68,21.12-16.3,42.66-27.39,62.71-1.4,3.09,2.15,2.73,3.76,4.6h-7.99c.77-1.03-5.94-19.44-5.98-24.99-.06-8.28,1.21-24.11,1.99-32.97,1.4-16.13,5.64-38.39,7.99-55.96,1.17-8.7,2.8-17.31,4-25.98l5.96,5.98,16.01-17.96c-1.68,14.78-3.7,29.8-6.53,44.4-1.55,8.02-5.85,13.35-5.51,22.5.11,3.02-1.35,5.86,3.04,5.02,2.54-2.18,4.8-4.53,6.69-7.31,6.95-10.29,20.16-73.71,20.41-87.58.04-2.34-.1-4.7-.09-7.03-16.46-2.59-18.19,18.74-27.16,29.81-3.56,4.4-7.33,8.24-12.81,10.17,1.92-13.27,4.37-26.34,6-39.97Z"/>
  <path class="st16" d="M2092.6,2258.49c17.1,13.64,29.15,32.49,41.97,49.97,1.15,1.57,2.2,3.58,4,6,17.66,23.73,35.77,45.01,53.96,67.95,1.38,1.74,3.44,3.22,4,4,16.99,23.56,32.3,51.34,49.97,75.95,3.29,4.59,5.72,5.61,6,6,14.42,19.9,28.26,40.18,43.18,59.75,27.35,35.87,66.93,70.41,74.74,116.13-1.96-.37-9.48-1.99-9.99-2,.31-4.1.06-8.06-.88-12.08-5.52-23.37-82.17-105.93-101.85-132.02-26.45-35.05-48.66-78.91-74.31-111.56-5.99-7.62-14.82-13.74-20.76-21.21-25.3-31.79-48.76-65.65-72.01-98.87.1-2.21-2.19-4.7-2.11-6.78l4.11-1.22Z"/>
  <path class="st6" d="M1037.31,1159.23c1.85,11.2-6.71,12.82-11.99,19.99-2.08-.92-11.06-2.87-11.98-1.99v2.96c2.54,1.44,4.34,5.65,5.99,7.02-7.5,6.35,13.46,23.31-2,21.99-15.59-15.54-76.19-54.63-81.04-71.9-1.43-5.08-1.7-11.17,5.62-9.65,4.42.92,16.38,7.6,22.42,9.64,24.46,8.23,47.96,15.69,72.99,21.95Z"/>
  <path class="st7" d="M2376.42,2374.42c-3.43-9.77-5.27-19.82-9.62-29.35-8.82-19.31-13.18-15.28-12.36-40.6,27.58,10.06,24.92,46.25,21.99,69.95Z"/>
  <path class="st24" d="M1914.72,2232.51c6.15,0,9.9,6.15,15.4,7.58,3.64.95,8.09-.37,11.34.71,2.76.91,2.47,5.23,4.66,5.76,2.42.58,6.99-.94,8.37.14,5.71,4.45-1.9,20.77-1.03,23.84s12.22,12.46,15.22,13.93c-.41,12.55-22.81,22.99-26.94,32.06-1.8,3.94-.47,6.84-1.04,9.91-1.09,5.87-1.01,14.07-2,17.99-1.55,6.15-13.07,14.75-16.85,20.12-6.48,9.19-17.37,26.66-17.12,37.84.11,5,3.23,4.69,4,6,4.3,7.35,10.05,13.65,13.74,21.23,9.15,18.79,12.22,43.37,24.56,61.38,9.23,13.47,26.71,23.99,32.64,41.31,5.33,15.58,2.24,31.87,3.1,46.69.3,5.15,3.77,10.25,3.7,16.04-.15,12.4-12.46,31.27-9.79,41.19-6-1.68-4.18,5.12-6,7.99-4.13,6.53-9.48,9.97-12.57,18.4-4.69,12.79-9.48,46.66-11.41,61.54-.65,5-.12,4.3,0,7.99,1.1,34.66-3.43,43.83-21.99,71.95-1.3,1.97-2.68,4.01-4,6-4.19,6.29-11.06,15.01-15.99,21.99-19.62,27.75-46.25,65.09-71.93,86.97-4.34,3.69-28.26,21.29-31.83,22.06-3.75.81-17.03-5.89-15.77-11.78,1.15-5.33,9.02-5.99,7.7-20.31-.33-3.56-6.97-21.18-9.06-23-3.54-3.08-12.77-1.87-18.64-3.34-26.53-6.63-51.84-25.29-72.44-41.48-4.89-3.84-12.33-5.62-17.67-10.31-26.32-23.09-17.99-69.62-7.16-98.71,6.98-18.75,22.44-41.21,26.1-60.03,1.31-6.75-3.85-13.47.85-19.95,4.32-2.43,12.09-10.05,17.99-13.99-1,5.48,6.18,12.74,10.5,14.48,27.3,10.98,79.03-30.6,106.38-40.5,14.36-5.2,50.82-13.14,63.11-5.07,14.45,9.48,14.08,40.59,19.35,56.65.65,1.99-.36,5.97,3.49,4.4,2.81-1.14,8.86-10.2,10.67-13.33,2.1-3.62,15.91-29.96,16.25-31.71,2.72-14.41-3.91-34.76-9.9-47.84l5.04-3.12c5.5.02,10.34,15.27,11.66,20.36,4.96,19.12,4.04,40.22,1.32,59.66,3.22-2.42,7.75-7.94,9.61-11.35,3.4-6.26,10.71-43.44,10.37-51.51-.27-6.47-8.32-39.96-10.54-47.53-5.18-17.61-32.33-19.15-46.42-33.52-7.85-8.01-9.88-17.31-16.32-25.66-12.14.58-21.25-1.51-31.38-8.11-13.4,13.5-23.99,31.96-43.12,37.96-1,5.31,3.43,9.73,3.55,14.76.36,15.42-17.3,27.01-24.55,39.15-5.09,8.52-6.88,19.7-15.1,26.87-.26.73,10.11,2.81,5.04,11.03-9.79,2.51-23.59,16.38-31.15,18.93-3.71,1.25-6.53-1.25-7.87-1,23.21-10.32,26.54-34.68,39.48-53.46,5.75-8.34,15.89-16.24,20.9-25.07,5.86-10.32,10.03-32.24,5.57-43.39,13.16-5.09,22.48-17.81,29.59-29.38,8.08-13.15,14.77-45.28,34.37-31.58v30.98c32.72-7.67,29.83,19.79,43.88,33.07,2.86,2.7,26.94,13.94,28.07,12.89l-19.73-27.22c-9.92-20.79-13.51-47.14-25.35-66.58-6.14-10.08-11.68-8.69-12.94-25.02-1.42-18.43,3.93-23.98,15.03-37.09,7.91-9.35,21.38-16.06,20.99-29.95-.59-.78-13.94,13.09-15.97,1.02,18.09-10.88,30.54-28.1,45.85-42.23,1.93-6.11-9.67-10.63-13.29-14.52-7.05-1.89-11.05,14.25-18.56,4.74-.39-1.86,12.66-15.54,15.26-18.79,2.24-2.81,6.42-1.4,4.73-8.15-1.97-.06-4.79.37-6.46-.47-6.48-3.27-20.07-9.78-27.03-11.17-8.77-1.75-18.81,6.24-26.32,10.8-10.72,6.51-33.95,19.07-31.16,32.8,17.06-18.26,44.24-49.16,44.77-1.19.11,9.86-5.52,45.81-10.7,53.25-3.13,4.49-16.97,15.7-22.1,19.87-11.25,9.16-25.15,17.4-36.93,26.02-2.27-.76-8.29,2.01-7.98-1.97,2.33-.04,4.35-1.46,5.74-3.26,16.78-21.74,19.94-80.23,22.23-108.69,14.56-3.7,46.71-35.97,59.96-35.98ZM1962.68,2518.34l-5.95-1.04,2.99,3h2.96v-1.96ZM1886.48,2624.51c-17.82-1.24-38.26,1.59-55.26,7.18-38.16,12.52-77.4,52.97-120.34,26.54-2.13,20.31-16.18,38.56-21.9,57.07-3.27,10.56-13.23,68.61-12.03,77.67.52,3.9,12.21,27.73,15.04,31.03,16.18,18.91,42.08,24.59,62.23,35.71,9.53,5.26,15.82,15.74,29.16,13.96,5.03-.67,22.18-15.17,26.47-19.52,5.16-5.22,18.35-25.47,20.95-27.02,3.02-1.8,6.7-.96,9.96-1.01-5.13,25.08-28.67,39.37-41.12,59.95l.13,47.93c27.04-17.59,50.63-43.98,70.94-68.95,15.02-18.47,63.38-82.82,67.09-102.8,2.02-10.87.32-22.79,1.34-32.61.4-3.88,3.83-8,3.74-12.53-.08-4.49-5.41-2.56-6.3-7.92-1.09-6.55,4.13-15.88,2.16-23.59-.54-2.13-10.25-4.22-8.06-11.38h-1.95c3.17,4.41-12.22,4.25-14.96,3.95-11.31-1.22-25.28-42.68-27.3-53.67Z"/>
  <path class="st20" d="M1854.76,2268.49c-2.29,28.46-5.45,86.95-22.23,108.69-1.39,1.8-3.41,3.22-5.74,3.26-.31,3.98,5.71,1.21,7.98,1.97,4.16,1.39,12.9,6.77,15.99,9.99,4.42,17.06-2.76,43.07-9.97,59-6.61,14.62-27.11,29.87-39.99,38.96-.31,3.94,5.62,1.28,7.98,1.97.61.18,1.39-.18,2,0,.35.1,5.76,3.72,6,4,.64.75,1.56,2.89,2,4,4.45,11.15.29,33.07-5.57,43.39-5.01,8.83-15.15,16.73-20.9,25.07-12.94,18.77-16.27,43.14-39.48,53.46-12.15,2.29-30.38,9.59-39.97,15.99-5.9,3.94-13.67,11.56-17.99,13.99-19.21,10.78-55.96,20.62-77.92,29.01-40.41,15.44-80.78,30.72-120.6,47.28-56.09,23.33-161.89,44.33-222.17,39.61-5.1-.4-10.31-2.09-15.02-3.98,3.09-8.75,2.2-4.94,4-7.99,39.75,7.41,75.25-2.65,113.43-9.49,43.69-7.83,76.22-12.58,117.76-30.14,48.14-20.36,98.06-37.1,146.52-57.34,14.35-5.99,39.08-15.13,51.42-22.53,7.26-4.35,12.32-13.55,19.14-16.83,11.82-5.69,29.43-5.24,42.81-13.15,14-8.28,15.31-24.15,22.9-37.06,12.3-20.94,36.34-34.12,31.55-63.2-13.89-4.46-19.3-3.47-32.67,1.82-11.43-12.71,16-22.26,24.59-29.06,25.74-20.38,43.03-43.99,39.17-78.81l-13.45-5.44-66.62,13.56-6.03-1.98-.89-8.1c4.07.1,8.14.23,12.13-.88,9.76-2.71,55.64-22.88,60.75-29.18,15.98-19.7,10.24-60.05,17.05-83.86-21.21,9.55-48.37,15.47-71.56,19.36-6.26,1.05-15.39,3.39-21.34,2.68-2.75-.33-5.91-1.28-3.01-4.03,25.6-5.1,54.25-12.8,78.49-22.46s15.31-19.08,17.46-38.5c2.44-21.98,12.69-32.93-10.66-43.35-11.77-5.25-25.61-5.62-38.35-5.63-27.35-.01-54.84,7.71-81.35,14.55-15.71,4.05-30.74,12.82-47.53,11.41-1.04-5.96,1.59-3.16,4.68-4.2,34.27-11.59,67.6-27.07,103.25-33.77,4.07-3.52-9.46-7.27-11.26-7.35-37.23-1.71-85.92,7.8-122.77,16.24-80.03,18.35-82.86,63.21-124.16,121.68-13.21,18.7-30.35,26.13-51.93,32.02-21.06,5.74-52.06,13.84-73.18,16.75-5.51.76-10.92.68-16.44.55v-6c21.83-5.41,42.51-14.34,63.97-20.98,20.7-6.41,47.41-7.46,64.42-22.96,6.55-5.96,25.06-35.86,31.13-45.38,8.14-12.77,12.83-27.56,22.41-39.55,37.29-46.67,103.84-49.34,158.37-59.49,7.32-1.36,15.09-5.92,22.98-7,28.31-3.88,44.62,10.25,69.33,19.58,13.25,5.01,46.68,8.22,50.66,25.29,4.83,20.74-1.91,36.17-3.36,55.82-.25,3.39,1.93,6.86,1.78,8.72Z"/>
  <path class="st26" d="M2050.63,2798.13c-30.03,13.45-79.58,33.92-105.93,49.97-6.62,4.03-16.63,14.94-27.92,21.05-1.93,1.05-6.94,4.84-8.06.94,9.52-17.98-.88-11.77-3.15-19.79-1.67-5.89-.63-12.19-.85-18.19,4.93-6.98,11.8-15.7,15.99-21.99,6.77,12.99,14.1,27.17,23.98,37.97-2.15-15.32-14.26-29.25-19.99-43.97,18.55-28.12,23.09-37.29,21.99-71.95,3.41,1.27,4.18,4.48,5.7,7.28,14.81,27.26,28.6,55.83,34.29,86.66,5.34.8,3.96-.96,4.06-5.05.44-18.19-15.25-57.29-23.72-74.25-3.87-7.76-9.97-24.88-20.33-22.64,1.93-14.89,6.71-48.76,11.41-61.54,3.1-8.43,8.44-11.88,12.57-18.4,23.9,35.59,47.25,75.19,64.3,114.58,5.62,12.98,8.47,27.27,15.64,39.32Z"/>
  <path class="st25" d="M1019.32,1666.89c26.68,7.86,55.25,11.23,82.92,7.97,36.43-4.29,70.77-20.39,106.94-25.95-10.49,39.12-41.3,68.54-39.95,111.91,18.14-1.48,36.69-1.02,54.93-2.01,24.31-1.32,45.87-7.63,70.59.4,11.55,28.79,48.43,48.27,74.5,64.4,61.65,38.16,118.68,71.36,178.77,113.13,2.48,1.72,5.93,1.51,4.94,5.96-10.26,16.34,2.75,53.05,22.96,57.96l-2.97,3.99c-62.99,9.57-137.54,27.53-199.89,42.94-38.71,9.57-117.36,39.84-151.87,33-3.13-.62-7.24-3-11.54-2.55-1.11-.88-1.52-2.52-2.45-3.45-8.23-8.2-12.99-22.87-17.46-33.5-8.49-20.17-14.59-26.82-24.85-45.1-12.15-21.63-18.81-46.03-29.88-68.06-29.67-59.05-65.24-118.23-90.06-179.76-10.28-25.47-16.24-55.19-25.62-81.31Z"/>
  <path class="st8" d="M1207.2,2074.62c.93.92,1.34,2.57,2.45,3.45,4.3-.45,8.41,1.93,11.54,2.55l-7.98,1.97c5.85,2.69,12.78,7.21,17.81,11.18,3.29,2.6,21.01,16.04,21.71,17.24,4.28,7.32-15.85,57.02-11.56,69.55-2.62,2.57-22.18-7.75-25.97-10-11.65-6.9-21.19-17.22-33.96-23-2.69-2.74-2.52-7.48-2.02-10.98,1.21-8.33,15.06-51.78,19.9-57.05,2.14-2.33,5.86-2.63,8.08-4.91ZM1239.17,2116.59c-8.73-9.94-22.59-16.96-30.98-27.94-4.5,8.83-25.5,46.23-20.71,53.66,9.71-1.74,43.63,30.54,47.68,26.25-.83-5.65.89-10.65,2.01-15.99,1.6-7.63,7.66-28.24,5.01-33.97-.6-1.3-2.54-1.47-3.01-2.01Z"/>
  <path class="st29" d="M1149.23,1177.22c-4.18-1-3.4-6.15-4.5-7.37-1.98-2.21-6.45-1.58-9.29-5.82-.92-1.37-8.11-26.08-8.19-28.01-.32-7.59,11.22-9.68,15.69-16.05,1.44-2.05,5.9-15.38,6.13-17.78,1.57-16.14-10.56-30.05-7.75-45.77,1.43-8.02,29.24-39.07,35.55-50.42,9.48-17.06,8.3-26.2,25.37-40.58,16.27-13.72,26.61-11.84,44.28-19.68,9.33-4.13,66.56-33.99,68.22-39.76.69-2.37-1.82-4.94.16-7.65,1.45-1.99,6.65-4.16,9.27-6.85,5.66-5.83,10.73-11.98,16.31-17.86,11.38,3.9,24.63,13.31,37.41,11.77,9.64-1.16,12.49-13.91,21.16-17.95-2.14,4.31,9.1,33.78,14,27.97-3.08-14.44,18.93-26.39,30.85-25.84,6.72.31,14.42,6.53,22.22,6.1,3.74-.21,2.55-3.77,3.84-3.89,1-.09,3.34,1.73,5.54,1.23,15.21-3.43,28.85-10.34,45.49-7.55-4.01,9.16,3.29,20.82,8.98,27.98,10.76,13.56,25.93,19.28,40.04,27.91,3.08,1.88,11.44,9.75,12.22,9.89,9.89,1.79,14.23-31.1,12.74-37.83,10.31,9.78,18.52,17.17,31.56,23.38,4.6,2.19,12.09,1.87,16.33,5.65,11.12,9.91,5.47,37.69,23.05,50.9,19.33,14.52,32.02,2.35,52.95,8.03-13.87,21.95-6.58,45.92,7.01,65.92,12.01,3.54,65.25,12.58,57.67,31.43-1.72,4.27-11.07,6.58-14.56,9.71-7.97,7.16-13.81,29.64-15.58,40.38-3.96,23.96-6.88,71.38-4.48,95.41.38,3.77-2.43,8.07,3.92,6.96-2.36,17.57-6.59,39.84-7.99,55.96-3.67-1.26-5.48,2.96-6,6-4.9,7.01-13.51,1.37-14.09-5.1-.63-7.07,10.83-14.84,13.01-20.97,4.11-11.57,5.05-33.93-1.03-44.86l4.21-2.14c1.54-7.56-5.35-20.71-5.72-24.19s6-11,3.62-16.68c1.39,2.07,3.43,3.97,5,5.96,6.59.44,5.04-42.28-18.53-45.56-5.18-.72-16.07,1.2-22.44,1.62v-2c.3-3.12-1.29-3.96-3.21-5.73-2.19-2.01-21.79-15.32-24.95-17.09-16.53-9.24-28.99,12.64-38.74,13.9-3.62.47-10.38-2.24-14.98-1.15l-1.95-9.07c-2.07-1.61-4.08-.71-6.21-.01-6.78,2.22-26.67,24.23-38,30.01-8.41,4.29-19.57,9.15-18.95-4.81l33.05-31.05c-6.43-.87-15.82,6.08-21.75,10.23-16.08,11.23-35.2,32.76-39.72,52.22-1.03,4.42,1.94,14.99-3.45,14.5-12.42-5.03-3.04-42.37-20.98-48.95,14.39-11.71,27.94-23.86,39.93-37.99-8.66-1.13-20.68,8.22-28.59,13.38-19.01,12.39-54.98,42.05-76.5,45.42-5.58.87-11.41-.36-17.34.65-10.75,1.82-19.19,9.35-29.45,11.5-.93-.88,11.26-19.57-1.01-21.93-2.16.07-4.05,9.27-4.99,11.95-27.72,21.11-61.74,33.17-81.57,63.33-11.26,17.12-22.16,44.46-8.37,62.59-4.32-3.48-7.98-5.16-12.79-12.18-4.27-6.23-5.21-17.65-13.18-15.8-6.67,12.44,33.7,55.91,39.96,49.95,1.53-7.23-5.54-9.78-6.92-12.01-.71-1.16,1-1.88.93-1.97,8.06,5.07,16.17,8.78,14,19.99-17.46,3.01-20.41,1.69-33.99-7.99-1.51-1.07-1.63-5.34-5.99-3.99,5.81,28.22-31.45,41.42-16.41,69.35,1.29,2.39,9.93,13.12,12.39,10.58-4.5-20.55-15.85-19.13-1.99-37.96,5.37,5.08,3.11,11.55,5.13,17.85,2.04,6.36,5.53,8.24,8.86,12.13,9.36,10.95,19.17,11.24,27.97,21,5.91,6.55,9.98,17.36,15.18,24.79,9.5,13.57,19.32,27.3,29.81,40.15,2.62-11.19-4.34-22.6-9.74-32.01-.53-.93.79-1.87.74-1.96l42.98-31.98c26.42-31.69,57.62-53.51,101.46-45.51,7.96,1.45,13.55,8.01,20.9,11.08,29.67,12.39,42.85,13.87,74.51,8.44,7.9-1.35,21.09-3.04,27.98-6,12.31,2.32,28.18-15.6,38.64-9.78,2.73,1.52,21.35,20.39,22.89,23.12,5.15,9.15-6.31,33.37,13.33,36.72,16.04-13.12,26.32-25.64,29.04-47.11,2.14-16.93-7.34-26.92,18.02-20.95.86,2.64,4.02,5.88,6,7.99.71,5.52,5.46,12.48,5.63,15.35.19,3.4-7.66,12.96-5.5,27.51,8.04,54.07,33.66,111.5,15.89,168.03-5.52,17.56-15.29,33.39-18,51.95-3.31,22.66,1.12,15.21-10.71,35.17-15.46,26.09-17.55,23.17-40,40.02-1.86,1.39-3.39,1.78-3.38,4.7.07,17.52,32.2-8.59,37.18-12.87l12.88-16.07c-.99,41.86-28.07,77.77-56.97,105.91l-5.94-3.97-16.03,19.96,16.12-39.84-1.13-9.13c-18.25,26.42-43.18,94.31-79.11,98.78-5.52.69-22.3-.67-27.38-2.25-3.03-.94-14.53-13.44-20.81-17.16-15.55-9.21-37.42-16.37-54.6-25.35-5.86-3.06-11.89-9.47-16.49-11.49-14.29-6.29-22.69.4-38.39-11.58-35.56-27.11-66.5-64.45-98.96-94.91-14.48-13.59-62.92-50-68.93-64.98-6.87-17.12-7.28-34.64-21.99-47.96-8.63-7.82-16.44-9.2-25.31-14.66-6.15-3.79-10.32-10.47-16.9-13.08-10.35-4.1-19.82,1.83-23.32-10.84-1.55-5.62,1.17-8.31.6-12.24-5.75-39.81,3.36-53.31,5.99-89.97,1.43-19.86-2.95-37.53-4.06-57.02,4.97-5.49,23.79,28.78,39.9,16.92,8.25-6.07,4.37-12.5,6.53-19.45,6.37-20.45,32.33-84.14,27.5-102.1-.43-1.62-4.18-1.19-4-2.26,1.73-10.46,30.92-37.99,31.52-54.4.08-2.33-2.54-4.23-2.5-5.55.37-13.89,7.03-39.38-15-35.02l-2.01,9.98c-32.4-1.07-68.61,10-100.76,5.83-5.65-.73-13.1-5.5-17.16-5.83ZM1431.01,933.39c-3.16-3.02-3.51.29-3.92,3.01-1.3,8.82-1.4,17.9-3.35,26.66-7.78,34.87-29.41,67.65-60.65,85.27,3.01,12.12,24.26-4.98,30-9.99,23.88-20.83,51.01-73.68,37.92-104.95ZM1305.12,961.37c-41.24,11.33-120.06,71.1-105.03,120.02,3.79,12.35,28.37,21.07,39.07,12.87-45.93-4.47-37.14-32.04-16.8-60.77,19.01-26.84,48.77-41.86,73.69-62.22,3.14-2.56,9.61-5.64,9.07-9.91ZM1361.11,1135.24c35.84-16.31,69.59-37.58,98.97-63.9,25.4-22.76,53.02-52.02,54.89-87.98l-13.13,31.81c-28.99,54.51-94.48,76.55-136.59,113.24-2.27,1.98-4.95,3.07-4.14,6.84ZM1251.18,1143.23c8.17-.02,16.97-8.51,23.03-13.93,37.83-33.8,60.25-91.07,68.88-139.95l-27.61,71.3-29.31,48.64-34.99,33.94ZM1626.91,989.35c-3.93-.9-4.72,2.08-6.79,4.18-22.57,22.83-34.69,48.09-62.2,69.71-19.19,15.08-38.14,24.34-60.86,33.03,7.35,6.95,19.94.95,27.91-2.03,42.85-16.02,86.4-62.09,101.96-104.88ZM1690.87,1091.25c-14.13-18.3-23.11-34.59-19.82-58.77,1.18-8.66,13.96-27.36-4.15-21.13l6,1.98c-9.76,26.66-12.95,53.97,10.97,73.95,2.25,1.88,3.24,4.85,7,3.97ZM1215.18,1157.26c-9.79-3.54-19.41-4.65-23.79-15.27-4.19-10.16,1.04-11.66,3.36-20.2.52-1.93,1.99-7.04-1.52-6.52-16.65,24.55-5.89,40.2,20.93,45.98l1.02-4ZM1393.07,1431.03c19.49-7.73,39.55-17.78,55.76-31.16,8.45-6.98,21.17-18.3,24.17-28.78-12.5,11.38-24.16,23.12-38.14,32.79s-30.63,15.47-41.79,27.15ZM1670.87,1419.05c-2.72-10.23-8.63-23.76-13.89-33.06-1.54-2.73-1.67-5.8-6.07-4.9-3.5,3.97,13,35.32,19.96,37.96ZM1566.98,1443.04c26.02-5.43,36.54-37.11,26.95-59.95-.96,15.52-1.27,31.46-12.1,43.85-1.98,2.26-17.98,12.78-14.86,16.1ZM1628.9,1383.09c-2.41-3.17-3.64-.03-3.99,2.95-.78,6.64.21,10.66-1.89,18.13-4.09,14.56-16.43,27.86-20.07,42.87,18.8-15.76,29.41-39.09,25.95-63.95ZM1528.97,1387.09c-4.15-.91-4.54,2.14-6.43,4.54-15.22,19.29-27.81,27.3-47.52,41.4,24.56-4.22,47.1-21.48,53.95-45.94ZM1522.99,1437.02c19.73-5.77,37.9-25.43,39.95-45.94l-12.95,18-27.01,27.94ZM1740.84,1469.02v-36.98c0-.92-4.49-17.5-8.02-15.97l8.02,52.94ZM1431.05,1459.03c9.5,5.96,19.67,10.66,30.04,14.93,29.03,11.94,77.91,29.7,108.76,29.1,3.37-.07,20.61-3.66,22.97-5.17,5.27-3.39,20.49-23.45,28.08-29.88,8.1-6.87,20.78-15.83,30-20.96,1.99-1.11,4.16-4.08,6.62-3.68,12.52,9.78,27.11,15.63,42.38,19.64l.68-5.7-44.7-24.2c-4.47,5,.5,8.08-6.98,11.94-5.76,2.98-20.69,6.32-27.53,7.45-25.24,4.16-75.21,1.08-100.86-3.97-17.23-3.39-37.49-12.67-55.48-13.47l-5.96-4.95,7.95-10.05c.31-1.51-1.93-1.28-2.95-.96-8.56,2.68-34.31,28.44-44.35,35.61-9.92,7.08-20.51,14.9-32.62,17.34l-1.03,4.99c1.35,1.76,1.58,1.8,3.59,1.64,7.88-.62,28.23-13.65,35.63-18.5,1.94-1.27,5.3-.8,5.76-1.14ZM1263.17,1494.99c13.18-4.77,21.6-23.19,24.98-35.96s7.76-36.28-11-35.97c15.98,11.41,8.15,30.87.74,45.69-2.3,4.61-17.23,23.5-14.72,26.23ZM1213.18,1445l-6.87-3.86c-15.5,31.44-4.48,67.92,21.87,89.85,2.25,1.87,3.24,4.84,6.99,3.98,1.81-1.77-18.84-27.49-21.05-31.89-7.17-14.26-11.84-40.67-5.58-55.65.86-2.06,2.56-2.66,4.64-2.43ZM1251.16,1441.05c-5.2-.96-3.52.97-4.9,3.98-5.27,11.44-4.5,26.21,3.93,35.98l.98-39.95ZM1339.11,1461.03v30.98c0,7.44-8.46,28.28-11.64,36.33-7.5,19.01-18.22,36.85-26.35,55.59,4.02-1.07,8.15-8.07,10.47-11.52,18.76-27.82,38.3-68.08,33.63-102.49-.57-4.18-1.71-7.34-6.1-8.89ZM1668.9,1658.88c21.08-1.05,35.21-23.72,44.3-40.62,16.45-30.57,28.46-79.94,21.59-114.21-1.27-6.32-7.73-6.43-7.96-4.03,6.72,41.25-6.72,96.2-32.3,129.55-6.34,8.27-15.26,14.53-21.65,22.32-1.85,2.26-4.85,3.22-3.98,6.99ZM1678.87,1501.01c-3.56-.16-4.25-1.01-4,2.97.64,10.26,4.04,23.93,4.12,33.94.32,38.56-9.32,83.7-22.05,120.01-9.86,28.11-24.66,54.57-33.99,82.91,14.18-18.59,24.4-40.29,32.93-61.99,22.47-57.18,32.13-116.53,23-177.85ZM1491.01,1612.91c-18.84-19.17-41.41-32.51-52.34-58.57l-11.6-35.34c1.46,40.63,27.63,76.82,63.94,93.91ZM1512.99,1534.98c6.07,26.86,3.29,46.34,1.9,72.86-.12,2.34-1.39,11.08,2.07,11.08,4.26-26.95,8.07-58.5-3.98-83.93-.99-4.4-.36-9.88-5.98-11.99-.82,4.97,4.39,8.63,5.98,11.99ZM1608.92,1532.97l-3.95.97c10.75,38.32,7.03,81.06-5.49,118.5-4.65,13.9-12.63,26.33-16.52,40.42,4.96,5.45,14.69-21.46,15.47-23.48,17.32-44.46,20.5-89.73,10.49-136.41ZM1351.1,1595.94c-1.67,6.56,0,27.39,0,35.98,0,19.67,22.5,70.69,35.14,86.77,8.32,10.58,26.72,29.52,40.82,21.13l-20.05-9.93c-36.68-35.06-47-88.29-51.94-136.96-1.26-.06-3.81,2.32-3.98,3ZM1435.02,1684.88c1.86-2.13-9.98-17.51-11.73-21.23-8.27-17.68-6.41-25.75-6.17-43.69.03-2.27,1.29-7.55-2.04-7.02-10.68,24.58-.3,55.59,19.94,71.94ZM1550.95,1806.79c3.23-3.55-12.01-12.87-13.96-15-13.03-14.22-26.58-36.43-33.51-54.43-4.82-12.52-5.65-29.02-14.45-38.5-.08,41.56,26.52,86.56,61.92,107.93ZM1556.96,1706.86v34.98c0,3.4,5.91,23.66,7.47,28.5,3.8,11.75,11.4,35.05,26.53,33.43-2.77-6.26-8.43-9.72-12.07-15.91-13.21-22.5-11.24-50.43-17.84-74.1-.76-2.75-.26-6.22-4.09-6.9Z"/>
  <path class="st7" d="M1165.22,1520.99c5.97,30.94,18.65,29.65,40.98,45.96,4.86,3.55,9.21,10.82,13.97,14.01,5.38,3.6,13.15,4.19,17.88,8.11,9.33,7.72,12.83,26.51,19.45,36.52,18.73,28.34,56.08,55.67,80.66,79.23,14.32,13.72,26.27,29.63,40.89,43.05,12.15,11.14,58.08,50.87,71.15,52.77,6.3.91,12.45-.81,18.9,1.08,7.93,2.33,46.88,30.21,59.87,37.06,2.71,7.96,8.41,16.89,13.17,23.8,8.63,12.5,21.11,29.71,30.86,41.1,4.01,4.68,9.69,11.54,15.93,13.05-6.94,1.94-24.65,14.44-29.98,19.99-32.64-17.99-60.74-42.74-92.11-62.79-41.1-26.27-127.41-65.95-157.71-98.12-5.29-5.62-11.72-21.15-16.5-23.48-38.5-9.25-78.5,2.98-117.44,4.51-2.08-42.01,34.15-73.32,37.77-113.71-2.63-1.35-4.92-1.51-7.82-1.33-23.7,1.48-60.26,17.73-85.46,22.54-43.11,8.23-87.19,3.57-127.43-13.38-2.39-2.3-.21-3.37,1-5.12,3.79-5.45,15.51-15.66,21-20.97,24.37-23.59,49.86-47.02,78.38-65.52,22.27-14.45,48.14-28.17,72.57-38.35Z"/>
  <path class="st7" d="M1778.81,1546.97c11.85.39,23.34,4.68,35.01,5.97,26.63,2.95,57.45,2.97,83.85,1.93,2.19-.09,7.6-1.23,7.05,2.07l-51.76,19.21c-16.26,9.76-30.22,28.17-48.12,32.86l-.04,5.91c2.32,2.41,20.13-6.16,17.96.97l-179.85,306.83c-3.09-2.73-15.46-7.48-19.99-7.99-2.73-3.08,0-5.25.86-7.99,7.23-22.88,12.62-47.67,21.13-69.96.89-2.34,26.13-39.29,27.89-41.06,4.63-4.65,25.06-11.46,27.06-14.91,1.53-2.64.64-6.75,2.08-9.92,2.4-5.3,22.26-25.93,27.73-34.23,30.34-46.06,16.75-61.26,27.72-108.19,7.05-30.17,21.8-46.9,21.43-81.5Z"/>
  <path class="st29" d="M1624.92,1846.77l9.97,4c2.38,7.3-6.21,7.24-7.65,11.32-3.07,8.7-2.02,21.2-7.33,32.64-8.95,19.31-17.95,22.39-35.6,9.63-8.22-5.94-6.3-6.06-9.36-13.62l5.99-2.99-3.02-2.99h-2.96s-.01,5.98-.01,5.98c-5.02-12.4-2.65-4.79-9.9-9.12-2.93-1.75-6.29-8.89-8.09-10.87,9.97-3.94,19.21,11.22,30.8,8.14,3.55-14.4,6.65-11.17,17.17-14.14l5,3.95c4.28-1.6,2.84-7.85,0-7.91-.47-.01-3.18,3.44-5,3.96l5.03-7.98,5.95,5.95c9.17-3.37,3.78-5.11,3.02-9.97-.29-1.86.18-4.05,0-5.99,1.85-.36,4.44.43,6,0ZM1620.46,1872.33c.79-1.43,1.41-6.74-.53-7.57l-6.98,11.98c1.48-1.07,7.2-3.84,7.52-4.41ZM1599.96,1884.75c-4.95,3.5-7.83,9.58-2.03,13.94,3-3.75,10.87-12.97,2.03-13.94ZM1614.92,1888.76h-3.96s-2.01,7.97-2.01,7.97l5.98-7.97Z"/>
  <path class="st0" d="M1644.9,1836.78c-8.5,22.28-13.9,47.08-21.13,69.96-.86,2.74-3.59,4.91-.86,7.99-6.79-.77-27.63.23-33.98,2-6.24-1.51-11.92-8.37-15.93-13.05-9.74-11.39-22.23-28.59-30.86-41.1-4.77-6.91-10.47-15.84-13.17-23.8.84.44,3.16-.44,4,0,5.07,12.89,15.08,22.21,23.98,31.98,1.8,1.97,5.15,9.11,8.09,10.87,7.25,4.33,4.88-3.28,9.9,9.12,3.06,7.56,1.15,7.68,9.36,13.62,17.65,12.75,26.65,9.68,35.6-9.63,5.31-11.44,4.27-23.94,7.33-32.64,1.44-4.08,10.03-4.02,7.65-11.32l-9.97-4c8.44-2.38,12.17-7.47,19.99-9.99Z"/>
  <path class="st6" d="M1568.95,1860.76c-5.89,4.63,7.42,14.65,7.97,13.99l-3.84-8.74,5.86-7.25c14.71-.9,25.58-2.39,39.97-6,.76,4.85,6.16,6.59-3.02,9.97l-5.95-5.95-5.03,7.98c-10.52,2.97-13.63-.26-17.17,14.14-11.59,3.08-20.82-12.08-30.8-8.14-8.9-9.77-18.91-19.09-23.98-31.98,12.9,6.79,23.2,21.89,35.98,21.99Z"/>
  <path class="st3" d="M1744.84,1287.14c-.77,8.86-2.04,24.69-1.99,32.97.04,5.55,6.76,23.97,5.98,24.99-.13.17-3.44-.81-4.03,1.33-.56,2.04-.29,8.18.03,10.66-1.97-2.11-5.14-5.36-6-7.99-5.08-15.65-2.77-39.57,0-55.96.51-3.03,2.33-7.26,6-6Z"/>
  <path class="st18" d="M1578.95,1858.76l-5.86,7.25,3.84,8.74c-.56.66-13.87-9.36-7.97-13.99,2.46.02,6.5-1.79,9.99-2Z"/>
  <path class="st3" d="M1025.32,1179.21c64.84,28.7,100.91,39.87,174.97,36.06,11.05-.57,56.33-9.9,61.95-2.15,2.11,2.91.57,3.12-1.01,5.13-7.45,9.44-44.97,7.29-57.04,10.91l-86.93-3.98c2.7,16.62-1.89,35.12,18.35,40.61,6.03,1.64,13.56.48,18.44,3.55,5.73,3.61,10.72,23.17,18.15,29.82,1.87,4.74,27.08,8.63,24.99,12.93-3.22,6.63-19.96,2.36-25.37-.57-14.04-7.61-17.31-27.24-22.66-31.3-4.12-3.12-14.6-3.15-20.49-5.49-27.89-11.07-11.66-46.11-21.37-52.58-2.12-1.41-29.59-7.1-36.49-9.48-12.72-4.38-41.62-17.28-51.47-25.47-1.65-1.37-3.44-5.58-5.98-7.02v-2.96c.92-.88,9.89,1.07,11.98,1.99Z"/>
  <path class="st17" d="M1838.77,1598.93c.67-.44,1.86-3.41,4.07-4.83,19.01-12.3,38.41-23.58,59.86-31.15,3.95,13.53,5.24,27.66,9.98,41.01,17.04,47.94,38.64,91.08,49.5,142.37,12.44,58.77,13.91,122.81,25.38,180.49,4.55,22.89,17.63,37.2,26.81,57.13,7.9,17.15,4.61,15.05,4.19,31.6-.09,3.68,2.5,7.46,2.08,11.91-.91,9.64-10.93,29.55-11.41,38.46-.39,7.26,7.55,13.47,8.95,20.13,1.86,8.81-.64,29.32-13.53,26.53-8.43-2.8-5.57-3.68-9.56-5.94-10.63-6.01-47.81,12.35-58.23,19.1-34.82,22.55-43.94,62.02-26.15,98.77,1.06,2.18-2.64,7.43,4,6v2c-13.25,0-45.4,32.27-59.96,35.98.15-1.86-2.03-5.34-1.78-8.72,1.45-19.65,8.19-35.08,3.36-55.82-3.98-17.07-37.41-20.28-50.66-25.29-24.7-9.33-41.01-23.47-69.33-19.58-7.89,1.08-15.66,5.64-22.98,7-54.53,10.15-121.07,12.81-158.37,59.49-9.58,11.99-14.27,26.77-22.41,39.55-6.07,9.52-24.58,39.42-31.13,45.38-17.02,15.51-43.72,16.55-64.42,22.96-21.46,6.64-42.14,15.56-63.97,20.98-4.88-8.82-.7-30.15-10.46-34.51-11.1-4.95-59.25.82-61.47-1.48,1.2-7.56-3.72-16.12-3.64-22.99.14-11.08,8.27-18.26-.64-31.69-4.56-6.86-10.57-5.26-16.75-9.23-17.55-11.3-23.59-35.89-36.12-51.82-8.76-11.15-22.03-19.25-28.81-32.15,3.79,2.25,23.35,12.57,25.97,10-4.29-12.53,15.84-62.23,11.56-69.55-.7-1.2-18.41-14.64-21.71-17.24-5.03-3.97-11.96-8.49-17.81-11.18l7.98-1.97c34.52,6.84,113.16-23.43,151.87-33,62.36-15.42,136.9-33.37,199.89-42.94,30.95-4.7,34.05-4.41,63.96-15.99,15.7-6.08,22.68-6.91,38.08-10.89,78.19-20.2,155.35-32.87,235.74-45.07l11.98.99c-9.16,17.04-22.15,36.92-29.43,54.52-1.56,3.78-3,6.15-1.75,10.5,2.44,8.45,43.15,48.88,51.78,52.39,1.98.8,3.67,2.06,5.97,1.26,19.7-22.02,36.1-48.49,41.1-78.27l-51.79-46.41c-5.17-2.37-11.05,2.23-15.87,3.03,2.4-13.34-6.01-24.13-9-35.97-18.01-71.09-27.54-144.49-46.29-215.53-7.38-27.97-19.3-53.04-28.65-80.28Z"/>
  <path class="st13" d="M2206.55,1940.71c22.77-21.44,35.87,21.49,53.08,32.02l-.05,3.86c-5.18,7.11-11.88,14.59-11.07,24.07,9.55-3.1,12.82-15.74,22.81-20.12,14.82-6.49,20.25,9.78,31.12,19.15,1.95,1.68,15.08,9.52,14.01,10.95-6.34,2.13-12.41,2.31-19.07,2.1-66-2.1-133.58-11.17-199.76-6.05-19.2,1.48-37.78,7.72-54.04,17.9l-14.92,12.04c.69-14.08,17.65-17.05,17.96-31.95l-17.97,1.98,7.99-18.92-13.81-3.24c-3.26-20.1-18.66-38.31-23.26-57.68-6.56-27.63-6.8-65.28-11.18-94.75-9.5-63.91-19.5-123.34-41.65-184.2-10.49-28.81-27.32-55.89-30.01-86.9l46.72,2.22c33.96,5.19,79.98,41.15,110.55,59.33,37.3,22.18,44.72,23.57,77.5,54.41,14.67,13.8,35.94,29.88,47.89,46.05,25.28,34.2,14.41,123.59,12.96,164.76-.29,8.32,3.04,22.32,1.75,31.53-.94,6.72-10.48,12.68-7.56,21.43Z"/>
  <path class="st25" d="M1838.77,1598.93c9.35,27.24,21.27,52.31,28.65,80.28,18.75,71.05,28.28,144.44,46.29,215.53,3,11.83,11.41,22.63,9,35.97-3.92.65-8.15,1.42-11.99,2-80.39,12.21-157.55,24.87-235.74,45.07-15.4,3.98-22.37,4.81-38.08,10.89-7,.31-3.25-1-.96-3.96,11.43-14.79,19.54-41.06,8.96-58,.46-9.65,10.61-16.27,15.93-23.04,53.38-68.01,96.13-165.8,139.62-242.12,6.47-11.35,23.09-31.47,26.76-41.18,2.02-5.35,4.21-12.81-2.43-14.43,2.52-5.05,11.93-5.67,13.98-7Z"/>
  <path class="st4" d="M2310.46,2074.62c4.56,9.74,13.14,14.78,18.82,24.15,14.49,23.9,24.59,84.74,23.13,112.74-.51,9.73-3.86,22.27-4.05,31.91-.4,19.94,4.4,41.83,2.15,62.12-.33,2.99-.42,6.17-4.05,6.92-2.18-10.54-12.93-17.2-19.97-25.02-3.03-3.36-5.2-9.5-7.97-12.02s-7.83-3.06-9.1-4.89c-1.07-1.55-3.98-16.95-6-21.99-4.35-10.83-29-46.18-37.85-52.09-4.51-3.01-11.75-3.55-17.08-3.93,10.95-11.98-28.23-57.42-35.38-59.53-4.36-1.29-14.77.68-16.31-.71-.48-.43-.83-5.11-3.09-7.85-14.81-18.02-52.32-38.92-73.14-49.81,22.92.79,46.11-1.04,69.02-.07,30.22,1.28,58.17,5.57,89.96,4.16,10.44-.46,20.4-4.02,30.88-4.09Z"/>
  <path class="st25" d="M2112.59,2070.62c-13.08,2.59-33.75,6.94-43.97,15.99-.71.63-1.36,1.3-2,2-.56.24-1.42-.23-2,0-.85.34-1.53,1.22-2,2-.63.13-1.35-.08-2,0-7.09.92-11.29,1.97-17.95,5.04-2.9,1.33-14.71,10.44-16.02,8.94,3.08-18.92-8.45-34.65,4.05-50.9,43.54-56.6,130.55-39.66,192.73-36.95,11.96.52,24.07-.66,36.04-.06,16.42.82,48.87,9.73,62.6-1.27,2.72-2.18,2.63-3.28,2.47-6.6,21.13-2.52,23.49,37.16,19.5,50.44-2.18,7.27-21.86,9.3-28.7,9.45-31.46.71-64.16.36-95.75-.15-36.19-.59-71.62-4.91-107.01,2.08Z"/>
  <path class="st6" d="M2038.64,2104.6c-6.65,11.69-15.57,22.15-18.01,35.96l-11.97-25.97c11.11.72,20.38-5.44,29.98-9.99Z"/>
  <path class="st6" d="M2042.64,2102.6c1.32-.68,2.68-1.31,4-2l-2.99,3.96-1-1.96Z"/>
  <path class="st3" d="M1756.83,1203.2c5.48-1.93,9.25-5.77,12.81-10.17,8.97-11.07,10.7-32.4,27.16-29.81-.01,2.33.13,4.68.09,7.03-.25,13.87-13.45,77.29-20.41,87.58-1.88,2.79-4.15,5.13-6.69,7.31-4.39.84-2.93-2.01-3.04-5.02-.33-9.15,3.96-14.48,5.51-22.5,2.83-14.6,4.85-29.62,6.53-44.4l-16.01,17.96-5.96-5.98c.09-.65-.09-1.35,0-2Z"/>
  <path class="st18" d="M1417.05,871.44l-5.98,5.98c-.66-3.78,2.33-6.65,5.98-5.98Z"/>
  <path class="st13" d="M815.46,2502.33c.35-.55,2.87-.91,3.62-3.34,2.39-7.79-7.4-24.15-11.97-31.28-21.36-33.37-48.76-65.64-71.97-97.92-50.08-69.64-140.9-177.39-158.59-259.13-10.26-47.38-12.58-128.91,6.1-173.92,29.32-70.68,132.77-158.9,196.21-201.53,41.08-27.6,89.05-40.38,135.41-56.28,16.19,3.31,19.31,14.01,23.72,28.32,18.95,61.51,35.6,132.39,66.31,189.52,17.21,32.01,47.2,57.79,66.61,89.28,21.19,34.38,33.61,78.02,59.32,108.57,30.71,36.49,68.78,71.88,98.91,108.95,12.37,15.22,31.67,53.61,42.6,62.31,6.49,5.17,16.09-.99,19.97,7.1,7.24,15.14-18.45,44.19-30.53,52.48l3.11,4.94,10.83-2.98-17.96,31.95,6.04,2.09,22.96-33.01c2.11,1.45.98,6.35.74,8.74-6.73,66.25-36.11,137.18-55.14,200.69-17.71,59.12-28.38,122.95-58.2,177.65-3.95,7.24-26.84,44.78-31.74,46.21-11.09,3.23-38.84-1.13-50.53-4.61-21.5-6.39-47.39-31.21-68.99-31.13-18.79.07-57.58,40.89-76.42,49.66-44.35,6.83-52.5-19.75-64.51-54.44-7.99-23.09-13.59-46.92-17.94-70.98l31.96,3.98c.55-2.74-.7-4.81-3.33-5.64-4.34-1.38-12.77,1.97-14.64-2.32,12.78-1.3,26.56-7.09,38.01-12.97,6.21-3.19,21.16-9.41,19.94-17.02-2.9-2.89-31.37,17.58-37.97,19.16-4.32,1.03-7.46-1.15-12.03-.41-9.56,1.56-13.5,10.57-25.42,5.71-10.24-4.18-43.54-39.45-50.16-49.78-12.98-20.27-21.96-50.47-9.42-72.72,4.95-8.78,8.02-6.47,13.09-10.97,1.93-1.71,1.39-3.97,2-4.92Z"/>
  <path class="st28" d="M1373.08,2360.43c5.52.13,10.93.21,16.44-.55,21.12-2.91,52.12-11.01,73.18-16.75,21.58-5.88,38.71-13.31,51.93-32.02,41.3-58.47,44.13-103.33,124.16-121.68,36.85-8.45,85.54-17.95,122.77-16.24,1.8.08,15.33,3.83,11.26,7.35-35.65,6.71-68.98,22.18-103.25,33.77-3.09,1.05-5.72-1.76-4.68,4.2,16.79,1.41,31.82-7.36,47.53-11.41,26.51-6.83,54-14.56,81.35-14.55,12.74,0,26.59.38,38.35,5.63,23.35,10.42,13.09,21.37,10.66,43.35-2.15,19.42,5.56,29.33-17.46,38.5-24.25,9.66-52.89,17.36-78.49,22.46-2.9,2.75.26,3.7,3.01,4.03,5.96.71,15.09-1.63,21.34-2.68,23.19-3.88,50.36-9.8,71.56-19.36-6.81,23.81-1.07,64.16-17.05,83.86-5.11,6.3-50.99,26.47-60.75,29.18-4,1.11-8.06.98-12.13.88l.89,8.1,6.03,1.98,66.62-13.56,13.45,5.44c3.86,34.82-13.43,58.43-39.17,78.81-8.6,6.81-36.02,16.35-24.59,29.06,13.37-5.29,18.77-6.28,32.67-1.82,4.78,29.08-19.25,42.26-31.55,63.2-7.59,12.91-8.9,28.78-22.9,37.06-13.38,7.91-30.99,7.46-42.81,13.15-6.82,3.28-11.88,12.48-19.14,16.83-12.34,7.4-37.07,16.54-51.42,22.53-48.46,20.25-98.38,36.99-146.52,57.34-41.54,17.56-74.07,22.31-117.76,30.14-38.19,6.84-73.68,16.9-113.43,9.49,11.86-20.22,32-96.71,40.51-124.38,4.02-13.09,5.22-26.97,8.83-39.14,3.99-13.46,13.92-29.01,18.52-43.44,18.78-58.93,28.81-128.1,42.07-188.77ZM1678.87,2242.52c-13.55-2.24-11.04,23.75-9.99,32.97,1.04,9.14,7.26,22.47,13.98,28.97-2.77-20.51-14.69-41.94-3.99-61.95ZM1704.87,2300.45c20.19-2.55,15.8-38.63,5.08-50.05-4.68-4.99-18.97-13.24-21.07-2.93,5.16,5.59,13.88,7.08,18.03,13.97,7.9,13.14,1.52,25.85-2.04,39.01ZM1684.86,2310.45v-3.98h-1.96v3.98h1.96ZM1688.87,2336.45c-11.53-2.86-13.39,12.15-13.95,21.01-1.1,17.66,6.52,36.02,21.93,44.94-7.68-22.63-18.62-41.56-7.98-65.94ZM1720.84,2378.4c-.89-11.21,4.91-31.92-11.97-29.96,2.78,8.12,3.54,20.12,7.51,27.42,1.27,2.34-.05,3.37,4.46,2.54ZM1712.85,2438.38c-8.13-1.92-9.7,2.53-11.08,9.88-4.12,21.88-.89,42.21,11.91,60.3,1.67,2.37.06,4.9,5.16,3.75-7.82-24.94-15.1-47.93-6-73.93ZM1719.85,2514.32v2c1.3-.67,1.3-1.33,0-2ZM1714.86,2550.32c-10.32-1.74-10.93,13.66-9.55,20.5,1,4.93,16.19,24.92,19.53,21.45-5.88-14.87-21.99-24.72-9.98-41.94Z"/>
  <path class="st25" d="M1356.49,2325.14c.44.15,6.65,5.19,6.99,5.99,6.21,14.9-3.75,63.67-6.97,81.67-20.37,114.15-64.26,221.42-97.93,331.78-.96,3.15-1.65,6.26-1.44,9.58l-7.97-3.98c5.5,14.84-4.99,44.67-18.58,52.37-19.88,11.27-59.38,4.01-79.38-5.4-21.72-10.22.76-26.84,7.95-36.05,50.04-64.13,92.15-232.12,115-314.71,10.76-38.89,17.33-80.48,25.92-119.98,1.45-2.25,3.74-1.79,5.93-2.06,6.87-.86,45.46-.9,50.47.79Z"/>
  <path class="st13" d="M1288.14,2324.45c1.3.67,1.3,1.33,0,2v-2Z"/>
  <path class="st4" d="M2196.54,2386.41c15.04-13.68,27.12-38.2,41.89-51.05,3.08-2.68,7.28-3.15,10.17-5.82,19.12-17.73,34.51-36.33,62.51-41.19,5.51,10.39,16.7,16.02,23.85,24.62,6.32,7.6,28.83,44.79,30.6,53.35,8.79,42.6-33.19,49.81-62.42,65.73-18.48,10.06-36.92,23.5-56.62,30.32-17.67-24.61-32.98-52.39-49.97-75.95Z"/>
  <path class="st4" d="M2192.54,2382.41c-18.19-22.95-36.3-44.23-53.96-67.95,12.21-19.6,25.52-42.81,40.95-59.98,9.56-10.64,50.94-42.04,64.15-43.76,12.72-1.66,15.75,1.18,24.84,8.78,11.31,9.45,42.44,43.61,32.97,59.02-.87,1.42-23.47,14.35-27.96,18-31.13,25.33-49.81,48.63-73.75,80.15-2.07,2.73-2.67,6.02-7.24,5.75Z"/>
  <path class="st4" d="M2022.65,2176.55c-1.73-18.12,2.44-40.43,13.99-54.96,9.62-12.11,59.22-42.19,74.06-40.1,4.41.62,32.58,13.7,37.25,16.72,7.79,5.04,28.09,23.24,35.63,30.32,1.14,1.07,5.59,5.18,4.94,6.02-20.29,5.61-32.23,5.93-46.99,21.99-21.74,23.66-39.82,54.81-52.94,83.97-9.43-28.34-33.12-62.87-65.96-63.96Z"/>
  <path class="st4" d="M2092.6,2250.5c9.32-20.01,21.18-38.91,34.35-56.59,6.86-9.22,25.8-34.34,34.85-39.1,6.68-3.51,40.39-11.25,47.59-10.14,11.71,1.8,42.22,36.65,33.32,48.64-.78,1.05-18.75,7.04-24.03,10.38-18.18,11.52-53.37,53.52-65.74,72.17-6.89,10.39-12.85,21.44-18.37,32.6-12.82-17.47-24.87-36.33-41.97-49.97-.42-2.32.62-6.17,0-7.99Z"/>
  <path class="st28" d="M1914.72,2220.52c-1.4-4.88-4.18-7.14-4.12-12.86.15-13.04,3.39-37.3,9.32-48.9,9.5-18.58,64.28-52.32,82.22-37.65,1.86,1.52,9.31,23.13,10.05,26.93,1.46,7.48-.12,19.37,2.47,26.51-9.88,2.14-19.3,2.69-29.06,5.92-26.62,8.81-40.58,25.8-63.53,38.49-2.54,1.41-6.82,1.2-7.34,1.56Z"/>
  <path class="st19" d="M2014.66,2174.55c.86,2.37,3.17,4.31,5.03,5.98l2.76-.27.21-3.71c32.83,1.08,56.53,35.62,65.96,63.96,1.46,4.39,3.29,7.93,4,9.99.62,1.83-.42,5.68,0,7.99l-4.11,1.22c-.08,2.08,2.22,4.57,2.11,6.78-.61,13.01-33.08,39.76-43.97,47.97-1.39,1.05-3.7,2.29-6,4-15.89,11.78-34.81,24.05-51.97,33.98-6.97,4.03-4.47,4.64-6,6-12.6,11.19-39.08,28.51-53.96,37.97-1.89,1.2-4.88,3.36-6,4-3.99,2.28-10.72,2.78-13.99,7.99-.77-1.31-3.89-1-4-6,12.2-4.21,21.12-14.45,31.32-21.65,40.74-28.74,90.84-57.39,127.53-90.32,27.31-24.51,25.33-34.09,8.07-65.95-27.78-51.29-67.67-46.4-114.94-23.92,1.38,3.52,11.87,2.25,15.07,2.07,16.55-.93,45.97-6.87,50.39,17.36,6.3,34.54-23.31,47.17-45.7,65.6-2.09,1.81-3.45-1.07-3.79-1.11,15.59-21.56,46.31-29.67,42.07-61.07-1.1-8.13-7.43-12.01-15.04-12.93-18.98-2.29-65.48,3.57-80.94,15.16-1.78,1.33-3.24,2.76-4.05,4.87-6.64,1.43-2.94-3.81-4-6,4.88,1.55,3.7-3.8,4-4,.53-.36,4.8-.15,7.34-1.56,22.95-12.69,36.92-29.68,63.53-38.49,9.76-3.23,19.18-3.78,29.06-5.92Z"/>
  <path class="st0" d="M2062.62,2090.61c.47-.78,1.15-1.66,2-2-.29.94-1.05,1.8-2,2Z"/>
  <path class="st0" d="M2066.62,2088.61c.64-.69,1.29-1.37,2-2-.47.79-1.14,1.63-2,2Z"/>
  <path class="st26" d="M2360.43,2642.24c-20.34-.17-72.02,35.14-92.6,46.31-19.35,10.51-39.62,19.78-59.3,29.64-35.12-66.35-71.8-133.69-109.58-199.21-26.14-45.33-54.06-92.59-85.46-134.39-8.01-10.67-18.94-20.03-24.81-32.15,17.16-9.92,36.08-22.2,51.97-33.98,19.74,27.13,40.42,53.76,59.59,81.31,51.29,73.73,98,150.71,148.71,225.04,8.65,12.68,19.11,35.27,28.66,45.29,2.89,3.03,3.82,5.04,8.86,4.11.75-3.59-.99-5.75-2.33-8.64-21.28-45.81-65.02-98.45-93.64-142.2-15.07-23.05-28-47.8-43.11-70.82-31.26-47.66-65.44-93.39-100.76-138.09,10.89-8.21,43.36-34.96,43.97-47.97,23.25,33.23,46.71,67.08,72.01,98.87,5.94,7.47,14.77,13.6,20.76,21.21,25.66,32.65,47.87,76.51,74.31,111.56,19.68,26.09,96.33,108.65,101.85,132.02.95,4.02,1.2,7.98.88,12.08Z"/>
  <path class="st9" d="M2210.53,2726.18c12.18-7.75,39-17.48,53.72-25.22,25.25-13.29,56.26-34.07,81.47-44.45,5.62-2.31,15.59-6.97,21.23-5.97,10.84,1.93,27.06,29.68,30.09,40.03,4.02,13.72,3.79,23.08-3.77,35.47-21.53,35.33-121.23,77.91-160.8,99.03-45.66,24.37-91.49,48.37-137.21,72.65-34.99,18.59-76.56,48.03-113.21,60.68-19.64,6.78-29.35,3.01-45.21-9.5-20.92-16.51-27.21-44.9-25.79-70.5,11.94-5.49,24.13-10.98,35.69-17.26,86.51-47.06,182.09-82.98,263.78-134.95ZM2310.46,2712.19l-1.02-4.02c-7.71,3.22-15.8.82-23.5,4.48-23.44,11.16,4.17,46.34,25.01,43.13,12.4-1.91,7.71-7,9.51-11.61.11-.3,2.88-1,3.87-5.03,3.16-12.93,3.83-29.16-13.86-26.95ZM2178.55,2772.15c-3.14,15.05-.77,27.94,17.99,25.98,8.33,13.65,25.99.43,27.86-11.1,4.26-26.2-16.36-46.63-39.94-27.96-6.69,5.29-4.6,6.78-5.91,13.08ZM2058.63,2840.11c-2.25,16.25,18,26.48,31.98,25.98,21.06-.75,29.09-12.37,25.85-32.86-2.59-16.39-19.52-22.63-33.86-16.12-4.94,2.24-23.35,18.56-23.97,22.99ZM1956.7,2872.09c-21.68,4.08-33.92,29.66-10.11,41.09,12.47,5.98,24.81,2.66,34.09-7.11,2.52-2.65,3.33-.94,4.09-6.86,2.81-21.87-6.72-31.13-28.08-27.11Z"/>
  <path class="st26" d="M2200.53,2724.18c-11.97,9.51-78.67,35.47-83.94,43.97-13.25-40.94-36.85-76.88-55.68-115.21-16.97-34.54-31.83-70.42-49.16-104.74-25.98-51.45-55.91-100.99-83.03-151.81,14.88-9.46,41.36-26.79,53.96-37.97,34.92,43.6,65.5,92.86,93.54,141.3,14.79,25.55,27.31,52.38,42.03,77.89,27.99,48.51,63.04,93.58,82.29,146.56Z"/>
  <path class="st26" d="M1922.72,2400.4c26.68,55.01,56.04,108.63,83.66,163.17,19.12,37.75,35.72,77.13,55.2,114.68,15.97,30.78,41.18,60.44,47.01,95.89-4.03.13-46.37,18.57-53.96,21.99-9.89-44.26-29.94-85.16-53.13-123.75-4.04-6.73-23.83-32.48-24.81-36.15-2.67-9.92,9.63-28.79,9.79-41.19.07-5.79-3.4-10.9-3.7-16.04-.85-14.82,2.23-31.11-3.1-46.69-5.93-17.32-23.41-27.84-32.64-41.31-12.34-18.01-15.41-42.59-24.56-61.38-3.69-7.59-9.45-13.89-13.74-21.23,3.27-5.22,10-5.71,13.99-7.99Z"/>
  <path class="st18" d="M1928.71,2396.4c27.12,50.82,57.05,100.36,83.03,151.81,17.33,34.32,32.19,70.2,49.16,104.74,18.83,38.32,42.43,74.27,55.68,115.21-.56.9.62,5.15-1.91,7.14-2.58,2.04-5.12-1.18-6.09-1.15-5.83-35.45-31.05-65.11-47.01-95.89-19.48-37.56-36.09-76.93-55.2-114.68-27.62-54.54-56.98-108.17-83.66-163.17,1.11-.64,4.1-2.79,6-4Z"/>
  <path class="st18" d="M1988.67,2352.43c5.87,12.12,16.8,21.48,24.81,32.15,31.4,41.8,59.32,89.07,85.46,134.39,37.78,65.52,74.46,132.86,109.58,199.21.68,1.28,2.53,7.49,2,7.99l-9.99-2c-19.25-52.99-54.29-98.05-82.29-146.56-14.72-25.51-27.24-52.34-42.03-77.89-28.04-48.45-58.62-97.71-93.54-141.3,1.53-1.36-.97-1.97,6-6Z"/>
  <path class="st18" d="M1976.68,2636.24c.99,3.67,20.77,29.42,24.81,36.15,23.2,38.59,43.24,79.49,53.13,123.75-1.29.58-2.58,1.36-4,2-7.17-12.05-10.02-26.34-15.64-39.32-17.06-39.39-40.41-78.99-64.3-114.58,1.82-2.87,0-9.68,6-7.99Z"/>
  <path class="st14" d="M1622.92,1914.72c4.53.51,16.9,5.27,19.99,7.99.17.15,1.19,2.71,2,4,10.58,16.94,2.47,43.21-8.96,58-2.29,2.96-6.04,4.27.96,3.96-29.91,11.58-33.01,11.29-63.96,15.99l2.97-3.99c-20.21-4.91-33.22-41.62-22.96-57.96.23-.36,4.69-4.64,6-6,5.33-5.55,23.04-18.05,29.98-19.99,6.34-1.77,27.19-2.77,33.98-2ZM1610.43,1925.24c-26.99,3.26-64.76,27.85-42.3,57.27,11.46,15.01,29.81,10.87,45.26,3.63,27.98-13.11,42.96-66.43-2.95-60.9Z"/>
  <path class="st12" d="M1752.83,2622.25c1.34-.25,4.16,2.25,7.87,1,7.56-2.55,21.36-16.43,31.15-18.93,5.08-8.22-5.3-10.3-5.04-11.03,8.22-7.17,10.01-18.35,15.1-26.87,7.26-12.14,24.91-23.73,24.55-39.15-.12-5.02-4.55-9.44-3.55-14.76,19.13-6,29.71-24.46,43.12-37.96,10.12,6.6,19.24,8.68,31.38,8.11,6.44,8.35,8.47,17.65,16.32,25.66,14.09,14.37,41.24,15.91,46.42,33.52,2.22,7.56,10.27,41.06,10.54,47.53.34,8.08-6.97,45.26-10.37,51.51-1.86,3.42-6.39,8.93-9.61,11.35,2.73-19.45,3.64-40.54-1.32-59.66-1.32-5.09-6.16-20.33-11.66-20.36l-5.04,3.12c5.99,13.08,12.63,33.43,9.9,47.84-.33,1.75-14.15,28.08-16.25,31.71-1.81,3.13-7.86,12.18-10.67,13.33-3.85,1.57-2.84-2.41-3.49-4.4-5.27-16.06-4.9-47.18-19.35-56.65-12.3-8.07-48.75-.14-63.11,5.07-27.34,9.91-79.08,51.48-106.38,40.5-4.32-1.74-11.51-9-10.5-14.48,9.59-6.4,27.83-13.7,39.97-15.99Z"/>
  <path class="st12" d="M1834.78,2382.41c11.79-8.63,25.69-16.86,36.93-26.02,5.13-4.17,18.97-15.38,22.1-19.87,5.18-7.43,10.81-43.38,10.7-53.25-.52-47.96-27.71-17.07-44.77,1.19-2.79-13.72,20.44-26.29,31.16-32.8,7.51-4.56,17.55-12.55,26.32-10.8,6.95,1.39,20.55,7.9,27.03,11.17,1.67.84,4.48.41,6.46.47,1.69,6.75-2.49,5.34-4.73,8.15-2.6,3.25-15.65,16.94-15.26,18.79,7.51,9.51,11.51-6.63,18.56-4.74,3.62,3.89,15.22,8.41,13.29,14.52-15.31,14.14-27.75,31.35-45.85,42.23,2.02,12.07,15.38-1.8,15.97-1.02.38,13.89-13.08,20.6-20.99,29.95-11.1,13.12-16.45,18.67-15.03,37.09,1.26,16.33,6.8,14.94,12.94,25.02,11.85,19.45,15.43,45.8,25.35,66.58l19.73,27.22c-1.13,1.06-25.21-10.19-28.07-12.89-14.04-13.28-11.16-40.74-43.88-33.07v-30.98c-19.6-13.69-26.3,18.44-34.37,31.58-7.11,11.57-16.43,24.29-29.59,29.38-.44-1.11-1.36-3.25-2-4l-.16-3.8-5.83-.19c-.61-.18-1.38.18-2,0,2.93-3.96,8.35-4.11,11.86-7.13,5.77-4.97,31.63-43.86,34.47-51.45,4.28-11.43,4.07-32.55-4.36-41.35-3.08-3.22-11.83-8.6-15.99-9.99Z"/>
  <path class="st9" d="M1904.73,2402.4c-.25-11.19,10.64-28.65,17.12-37.84,3.79-5.37,15.3-13.97,16.85-20.12,6.94,4.9,10.53,11.85,20.53,9.66,1.21-.26,10.76-5.43,11.09-5.96.38-.61-1.3-3.06-.91-4.31,2.86-9.22,8.34-24.5-6.2-27.06-9.33-1.64-13.97,8-22.5,9.68.57-3.08-.76-5.98,1.04-9.91,4.14-9.07,26.53-19.5,26.94-32.06.7.34,2.73-.16,4,0,.34.04,1.7,2.92,3.79,1.11,22.39-18.43,52-31.05,45.7-65.6-4.42-24.24-33.84-18.29-50.39-17.36-3.21.18-13.69,1.46-15.07-2.07,47.28-22.48,87.17-27.37,114.94,23.92,17.25,31.86,19.23,41.44-8.07,65.95-36.69,32.93-86.79,61.59-127.53,90.32-10.2,7.19-19.11,17.44-31.32,21.65ZM2052.63,2242.5c-18.04,2.4-30.16,16.01-18,32.99,7.63,10.66,22.43,12.85,32.7,4.7,7.98-6.33,3.71-8.96,3.29-15.71-.66-10.35.91-22.36-13.62-23.66-3.05-.27-3.92,1.61-4.37,1.67ZM1992.67,2318.45c.87.87-.59,6.82,8.88,5.96,27.63-2.52,21.41-56.9-11.97-40.02-3.25,1.64-11.02,7.3-10.95,11.08.57,1.8,3.85.69,4.05.99,2.99,4.48-2.47,9.41,9.99,21.99Z"/>
  <path class="st14" d="M1972.68,2284.48c-1.26-.16-3.3.34-4,0-2.99-1.47-14.38-10.96-15.22-13.93s6.74-19.39,1.03-23.84c-1.38-1.08-5.95.44-8.37-.14-2.19-.53-1.9-4.84-4.66-5.76-3.25-1.08-7.7.24-11.34-.71-5.5-1.43-9.25-7.59-15.4-7.58v-2c.8-2.11,2.27-3.54,4.05-4.87,15.46-11.59,61.96-17.45,80.94-15.16,7.61.92,13.94,4.8,15.04,12.93,4.25,31.4-26.48,39.51-42.07,61.07Z"/>
  <path class="st1" d="M1940.71,2326.45c8.53-1.68,13.17-11.33,22.5-9.68,14.54,2.56,9.06,17.84,6.2,27.06-.39,1.25,1.29,3.7.91,4.31-.33.54-9.88,5.7-11.09,5.96-9.99,2.19-13.58-4.76-20.53-9.66.99-3.91.91-12.12,2-17.99Z"/>
  <path class="st18" d="M1946.7,2724.18c10.36-2.25,16.46,14.88,20.33,22.64,8.46,16.96,24.16,56.06,23.72,74.25-.1,4.08,1.28,5.85-4.06,5.05-5.69-30.82-19.48-59.4-34.29-86.66-1.52-2.8-2.29-6.01-5.7-7.28-.12-3.7-.65-2.99,0-7.99Z"/>
  <path class="st18" d="M1944.7,2848.1c-9.88-10.81-17.22-24.99-23.98-37.97,1.32-1.98,2.7-4.03,4-6,5.73,14.72,17.84,28.65,19.99,43.97Z"/>
  <polygon class="st12" points="1962.68 2518.34 1962.68 2520.3 1959.72 2520.3 1956.74 2517.3 1962.68 2518.34"/>
  <path class="st12" d="M1886.48,2624.51c2.02,10.99,15.99,52.45,27.3,53.67,2.74.3,18.13.46,14.96-3.95h1.95c-2.2,7.16,7.51,9.24,8.06,11.37,1.97,7.71-3.26,17.04-2.16,23.59.89,5.36,6.22,3.43,6.3,7.92.08,4.53-3.34,8.65-3.74,12.53-1.02,9.82.68,21.75-1.34,32.61-3.71,19.98-52.07,84.33-67.09,102.8-20.31,24.97-43.89,51.36-70.94,68.95l-.13-47.93c12.44-20.58,35.98-34.86,41.12-59.95-3.26.05-6.95-.79-9.96,1.01-2.6,1.55-15.79,21.8-20.95,27.02-4.3,4.35-21.44,18.85-26.47,19.52-13.34,1.77-19.63-8.7-29.16-13.96-20.14-11.12-46.04-16.8-62.23-35.71-2.83-3.3-14.52-27.13-15.04-31.03-1.21-9.06,8.76-67.11,12.03-77.67,5.73-18.51,19.77-36.75,21.9-57.07,42.93,26.42,82.18-14.02,120.34-26.54,17-5.58,37.44-8.42,55.26-7.18Z"/>
  <path class="st24" d="M1808.79,2492.34c-2.36-.69-8.29,1.96-7.98-1.97,12.88-9.09,33.37-24.34,39.99-38.96,7.2-15.93,14.39-41.94,9.97-59,8.43,8.8,8.64,29.92,4.36,41.35-2.84,7.59-28.7,46.49-34.47,51.45-3.51,3.02-8.93,3.17-11.86,7.13Z"/>
  <path class="st24" d="M1810.79,2492.34l5.83.19.16,3.8c-.23-.27-5.65-3.89-6-4Z"/>
  <path class="st10" d="M1239.17,2116.59c-13.79-1.99-5.71,5.1-6.46,12.5-1,9.76-8.46,19.3-3.51,29.46l7.98-5.98c-1.12,5.34-2.84,10.34-2.01,15.99-4.05,4.29-37.98-27.99-47.68-26.25-4.79-7.43,16.21-44.83,20.71-53.66,8.39,10.99,22.25,18,30.98,27.94Z"/>
  <path class="st25" d="M1239.17,2116.59c.47.54,2.41.71,3.01,2.01,2.65,5.73-3.4,26.33-5.01,33.97l-7.98,5.98c-4.95-10.16,2.51-19.71,3.51-29.46.76-7.4-7.32-14.49,6.46-12.5Z"/>
  <path class="st6" d="M1636.91,1135.24c10.55-3.93,20.42-9.84,30.85-14.12,3.87,6.28,8.83,12.11,15.12,16.12,1.98,1.26,5.85,3.32,7.99,4v4c-19.33-2.85-52.01,2.29-71.89,5.01-3.23.44-12.52-1.4-14.12.05-6.43,5.77-1.42,22.63,5.5,24.62,9.84,2.82,57.19-13.56,73.62-13.76,8.74-.11,16.31,6.54,25.5,3.69,6.72-2.08,9.23-9.91,1.39-13.61,19.94-9.35,20.99,17.54,27.98,27.98,2.38,5.67-3.99,13.15-3.62,16.68s7.26,16.62,5.72,24.19l-4.21,2.14c6.08,10.93,5.14,33.29,1.03,44.86-2.18,6.13-13.64,13.9-13.01,20.97.58,6.47,9.19,12.11,14.09,5.1-2.77,16.39-5.08,40.31,0,55.96-25.36-5.97-15.88,4.03-18.02,20.95-2.72,21.47-13,33.98-29.04,47.11-19.64-3.35-8.18-27.57-13.33-36.72-1.54-2.73-20.15-21.6-22.89-23.12-10.47-5.82-26.34,12.1-38.64,9.78,15.33-6.58,29.04-30,27.85-46.68s-25.91-62.62-37.12-74.76c-2-2.17-3.58-2.68-5.74-4.43,4.41,21.65,17.27,40.86,24.53,61.39,7.03,19.89,10.06,35.21-9.65,49.37-13.52,9.71-45.41,9.52-60.28,3.07-2.71-1.17-2-5.62-6.5-6.07-6.61-.65-16.58,7.69-23.58,5.82-6.44-1.72-6.87-13.79-15.43-11.69,2.75,20.22,19.81,23.06,36.69,16.55l41.25,13.42c-31.66,5.43-44.84,3.95-74.51-8.44-7.35-3.07-12.94-9.63-20.9-11.08-43.85-8-75.04,13.82-101.46,45.51l-42.98,31.98c-2.94-4.54-9.71-8.01-13.94-13.05-15.53-18.53-9.53-24.05-36.1-35.86-2.84-1.26-11.52-6.36-13.93-3.06-3.33-3.89-6.82-5.77-8.86-12.13-2.02-6.3.24-12.77-5.13-17.85.52-.71,1.46-1.24,2-2,5.63-7.93,7.04-7.37,7.99-17.99.51-5.73-1.97-13.9,2-17.99,13.58,9.69,16.53,11,33.99,7.99,2.17-11.2-5.95-14.92-14-19.99-3.06-4.04-4.17-4.91-7.99-7.99-13.79-18.12-2.9-45.46,8.37-62.59,19.83-30.16,53.86-42.22,81.57-63.33-.05.16,1.55.87.55,3.25-3.72,8.84-14.03,22.91-21.63,28.8l2.35,8.08c15.43-4.88,27.38-16.27,43.37-22.49,10.1-3.93,14.58-3.51,23.34-5.64-3.94,9.71-17.16,12.83-24.46,17.98-1.59,1.12-2.09,3.44-3.83,4.71-3.89,2.86-33.02,19.56-16.72,21.34,14.57,1.59,53.75-27.3,70.47-33.56s33.89-6.99,50.49-12.47c.66,4.81,3.79,12.27,4,15.99-6.77-1.42-7.38,5.02-11.99,7.99-1.02-.22-2.8-.08-4,0l-1.01-1.98h-4.98s-.01,3.98-.01,3.98c-1.33,0-2.67-.06-4,0-18.41.9-35.61,1.59-54.11,8.92-3.91,1.55-3.79,4.65-5.23,5.05-3.3.91-11.8-2.37-8.6,5,2.89,6.64,13.64.57,17.97-.98.59-.21,1.41.22,2,0-1.36,8.11,3.82,12.57,11.17,13.98,16.6-4.77,51.78,3.29,60.23-15.51,3.81-8.47.37-14.67,2.54-22.45,6.73-.91,11.51,8.65,15.31,9.71,11.51,3.22,3.92-17.65,5.1-24.19.78-4.35,11.45-22.41,14.7-23.38,6.33-1.89,5.59,5.24,8.25,5.91,12.46,3.15,25.12-4.18,35.2-10.41,4.78-2.95,15.73-13.54,19.36-14.58,2.21-.63,6.86,2.22,10,2.97,1.38.33.96,2.52,5.9,1.2,3.29-.88,8.43-3.89,10.09-7.19ZM1618.93,1185.22c-1,8.48,10.75,4.34,13.13,7.84,1.68,5.42-.59,17.54,6.18,19.81,7.45,2.49,56.07-2.67,60.77-8.53l5.84-29.12c-28.22,6.4-56.91,13.55-85.91,10Z"/>
  <path class="st6" d="M1465.02,1435.04c17.99.8,38.26,10.08,55.48,13.47,25.65,5.05,75.63,8.13,100.86,3.97,6.84-1.13,21.77-4.47,27.53-7.45l2,2c-9.23,5.14-21.91,14.1-30,20.96-7.59,6.43-22.81,26.5-28.08,29.88-2.36,1.51-19.59,5.11-22.97,5.17-30.85.6-79.73-17.16-108.76-29.1-10.37-4.26-20.54-8.96-30.04-14.93.22-.16.21-3.4,2.1-4.81,9.87-7.32,20.42-19.68,31.87-19.17ZM1592.93,1463.04c-17.43,2.27-34.99,6.27-52.78,3.81-8.1-1.12-51.01-22-53.13-19.8-.58,3.11.3,4.63,1.89,7.08,13.25,20.41,63.91,25.52,86.14,21.99,7.18-1.14,19.4-3.6,17.88-13.08Z"/>
  <path class="st5" d="M1385.08,1165.22c.94-2.68,2.83-11.88,4.99-11.95,12.27,2.36.09,21.06,1.01,21.93,10.26-2.15,18.7-9.68,29.45-11.5,5.93-1,11.76.23,17.34-.65,21.52-3.37,57.48-33.03,76.5-45.42,7.91-5.16,19.93-14.51,28.59-13.38-11.99,14.13-25.54,26.28-39.93,37.99,17.93,6.58,8.56,43.91,20.98,48.95,5.38.49,2.42-10.08,3.45-14.5,4.52-19.46,23.64-40.98,39.72-52.22,5.93-4.14,15.32-11.1,21.75-10.23l-33.05,31.05c-.62,13.96,10.55,9.1,18.95,4.81,11.33-5.79,31.22-27.79,38-30.01,2.12-.7,4.14-1.6,6.21.01l1.95,9.07c4.6-1.08,11.36,1.62,14.98,1.15,9.74-1.26,22.21-23.14,38.74-13.9,3.16,1.77,22.76,15.08,24.95,17.09,1.92,1.77,3.5,2.61,3.21,5.73-7.19,1.11-12.56-1.17-18.89-3.95l-1.09,1.95c-6.29-4-11.25-9.84-15.12-16.12-10.43,4.28-20.3,10.19-30.85,14.12-4.68,1.74-11.82,1.53-15.99,6-3.15-.75-7.8-3.6-10-2.97-3.62,1.03-14.58,11.63-19.36,14.58-10.08,6.23-22.75,13.57-35.2,10.41-2.66-.67-1.91-7.81-8.25-5.91-3.26.97-13.92,19.03-14.7,23.38-1.18,6.54,6.41,27.41-5.1,24.19-3.8-1.06-8.59-10.63-15.31-9.71-.05-1.33.08-2.67,0-4-.21-3.72-3.33-11.18-4-15.99-.03-.21,1.78-1.48,1.67-2.95-.44-5.86-.51-13.16-7.68-11.06,7.27-7.12.85-10.85-2.98-17.96-21,14.99-41.87,27.85-66.97,33.97-8.75,2.13-13.23,1.71-23.34,5.64-15.99,6.22-27.94,17.61-43.37,22.49l-2.35-8.08c7.6-5.89,17.91-19.96,21.63-28.8,1-2.38-.6-3.09-.55-3.25Z"/>
  <path class="st3" d="M1588.94,1373.08l-41.25-13.42c-16.88,6.51-33.94,3.67-36.69-16.55,8.56-2.11,8.99,9.97,15.43,11.69,6.99,1.86,16.97-6.48,23.58-5.82,4.5.44,3.8,4.89,6.5,6.07,14.88,6.45,46.77,6.64,60.28-3.07,19.71-14.16,16.68-29.47,9.65-49.37-7.26-20.53-20.12-39.74-24.53-61.39,2.16,1.75,3.74,2.26,5.74,4.43,11.21,12.15,35.98,58.71,37.12,74.76s-12.52,40.1-27.85,46.68c-6.89,2.96-20.08,4.64-27.98,6Z"/>
  <path class="st23" d="M1305.12,961.37c.54,4.27-5.93,7.34-9.07,9.91-24.91,20.36-54.68,35.37-73.69,62.22-20.34,28.73-29.13,56.3,16.8,60.77-10.7,8.2-35.28-.52-39.07-12.87-15.03-48.92,63.78-108.69,105.03-120.02Z"/>
  <path class="st23" d="M1668.9,1658.88c-.87-3.77,2.13-4.73,3.98-6.99,6.39-7.79,15.31-14.06,21.65-22.32,25.58-33.35,39.01-88.3,32.3-129.55.23-2.4,6.69-2.28,7.96,4.03,6.87,34.27-5.13,83.64-21.59,114.21-9.1,16.9-23.23,39.57-44.3,40.62Z"/>
  <path class="st23" d="M1626.91,989.35c-15.56,42.79-59.11,88.86-101.96,104.88-7.97,2.98-20.56,8.98-27.91,2.03,22.73-8.7,41.67-17.96,60.86-33.03,27.52-21.61,39.63-46.87,62.2-69.71,2.08-2.1,2.86-5.08,6.79-4.18Z"/>
  <path class="st23" d="M1431.01,933.39c13.09,31.27-14.03,84.12-37.92,104.95-5.74,5.01-26.99,22.11-30,9.99,31.25-17.62,52.87-50.4,60.65-85.27,1.96-8.76,2.05-17.84,3.35-26.66.4-2.72.75-6.03,3.92-3.01Z"/>
  <path class="st23" d="M1361.11,1135.24c-.81-3.76,1.86-4.86,4.14-6.84,42.11-36.7,107.6-58.73,136.59-113.24l13.13-31.81c-1.87,35.97-29.49,65.22-54.89,87.98-29.37,26.32-63.12,47.59-98.97,63.9Z"/>
  <path class="st23" d="M1351.1,1595.94c.17-.68,2.72-3.06,3.98-3,4.94,48.67,15.26,101.9,51.94,136.96l20.05,9.93c-14.1,8.39-32.5-10.56-40.82-21.13-12.65-16.08-35.14-67.1-35.14-86.77,0-8.59-1.67-29.42,0-35.98Z"/>
  <path class="st23" d="M1678.87,1501.01c9.12,61.32-.53,120.67-23,177.85-8.53,21.7-18.75,43.4-32.93,61.99,9.33-28.34,24.14-54.8,33.99-82.91,12.73-36.32,22.38-81.46,22.05-120.01-.08-10.01-3.48-23.68-4.12-33.94-.25-3.98.45-3.13,4-2.97Z"/>
  <path class="st23" d="M1349.1,1431.05c.06.09-1.27,1.03-.74,1.96,5.4,9.4,12.36,20.82,9.74,32.01-10.49-12.85-20.3-26.57-29.81-40.15-5.2-7.43-9.27-18.24-15.18-24.79-8.8-9.75-18.61-10.05-27.97-21,2.41-3.3,11.09,1.8,13.93,3.06,26.56,11.81,20.57,17.33,36.1,35.86,4.22,5.04,10.99,8.5,13.94,13.05Z"/>
  <path class="st23" d="M1251.18,1143.23l34.99-33.94,29.31-48.64,27.61-71.3c-8.63,48.88-31.05,106.15-68.88,139.95-6.06,5.41-14.86,13.91-23.03,13.93Z"/>
  <path class="st5" d="M1738.84,1179.21c-6.99-10.45-8.05-37.33-27.98-27.98-5.72-2.7-9.48-1.26-14.68-2.41-2.93-.65-4.99-3.54-5.31-3.59v-4c7.9,2.51,7.58.3,11.99,0,6.37-.43,17.27-2.34,22.44-1.62,23.56,3.27,25.11,46,18.53,45.56-1.56-1.99-3.61-3.88-5-5.96Z"/>
  <path class="st23" d="M1339.11,1461.03c4.39,1.55,5.53,4.71,6.1,8.89,4.68,34.41-14.86,74.67-33.63,102.49-2.32,3.44-6.45,10.44-10.47,11.52,8.13-18.74,18.86-36.58,26.35-55.59,3.18-8.05,11.64-28.88,11.64-36.33v-30.98Z"/>
  <path class="st23" d="M1550.95,1806.79c-35.4-21.36-62-66.36-61.92-107.93,8.8,9.48,9.63,25.98,14.45,38.5,6.93,18,20.48,40.21,33.51,54.43,1.95,2.13,17.19,11.45,13.96,15Z"/>
  <path class="st23" d="M1431.05,1459.03c-.46.34-3.83-.13-5.76,1.14-7.39,4.84-27.74,17.88-35.63,18.5-2.01.16-2.24.12-3.59-1.64l1.03-4.99c12.11-2.44,22.7-10.26,32.62-17.34,10.04-7.17,35.79-32.93,44.35-35.61,1.02-.32,3.26-.55,2.95.96l-7.95,10.05,5.96,4.95c-11.45-.51-22.01,11.85-31.87,19.17-1.89,1.41-1.89,4.65-2.1,4.81Z"/>
  <path class="st23" d="M1556.96,1706.86c3.84.68,3.33,4.15,4.09,6.9,6.59,23.67,4.63,51.61,17.84,74.1,3.64,6.19,9.3,9.66,12.07,15.91-15.12,1.61-22.73-21.69-26.53-33.43-1.56-4.84-7.47-25.1-7.47-28.5v-34.98Z"/>
  <path class="st23" d="M1213.18,1445c-2.08-.23-3.78.37-4.64,2.43-6.26,14.97-1.59,41.39,5.58,55.65,2.21,4.4,22.86,30.12,21.05,31.89-3.75.86-4.74-2.11-6.99-3.98-26.35-21.93-37.37-58.41-21.87-89.85l6.87,3.86Z"/>
  <path class="st23" d="M1608.92,1532.97c10.01,46.68,6.83,91.96-10.49,136.41-.78,2.02-10.51,28.93-15.47,23.48,3.89-14.09,11.87-26.52,16.52-40.42,12.52-37.45,16.24-80.18,5.49-118.5l3.95-.97Z"/>
  <path class="st23" d="M1283.14,1311.13c-3.97,4.09-1.48,12.26-2,17.99l-9.95,17.01,1.96.98c-.54.76-1.48,1.29-2,2-13.86,18.84-2.51,17.41,1.99,37.96-2.46,2.54-11.1-8.18-12.39-10.58-15.04-27.93,22.21-41.13,16.41-69.35,4.35-1.36,4.48,2.91,5.99,3.99Z"/>
  <path class="st23" d="M1303.13,1299.13c.07.09-1.65.81-.93,1.97,1.38,2.23,8.45,4.78,6.92,12.01-6.26,5.95-46.62-37.51-39.96-49.95,7.98-1.84,8.92,9.57,13.18,15.8,4.81,7.02,8.46,8.7,12.79,12.18,3.83,3.08,4.93,3.95,7.99,7.99Z"/>
  <path class="st23" d="M1263.17,1494.99c-2.51-2.72,12.42-21.62,14.72-26.23,7.4-14.82,15.24-34.28-.74-45.69,18.77-.31,14.35,23.33,11,35.97s-11.8,31.19-24.98,35.96Z"/>
  <path class="st23" d="M1393.07,1431.03c11.16-11.67,28.43-17.9,41.79-27.15s25.64-21.41,38.14-32.79c-2.99,10.48-15.71,21.8-24.17,28.78-16.21,13.38-36.27,23.44-55.76,31.16Z"/>
  <path class="st23" d="M1491.01,1612.91c-36.31-17.09-62.48-53.28-63.94-93.91l11.6,35.34c10.93,26.06,33.5,39.4,52.34,58.57Z"/>
  <path class="st23" d="M1648.9,1445.04c7.48-3.86,2.52-6.94,6.98-11.94l44.7,24.2-.68,5.7c-15.27-4.01-29.86-9.86-42.38-19.64-2.47-.39-4.63,2.58-6.62,3.68l-2-2Z"/>
  <path class="st23" d="M1690.87,1091.25c-3.76.88-4.75-2.1-7-3.97-23.92-19.98-20.73-47.28-10.97-73.95l-6-1.98c18.12-6.22,5.33,12.47,4.15,21.13-3.29,24.18,5.69,40.47,19.82,58.77Z"/>
  <path class="st23" d="M1528.97,1387.09c-6.85,24.45-29.4,41.71-53.95,45.94,19.71-14.1,32.3-22.11,47.52-41.4,1.89-2.4,2.28-5.45,6.43-4.54Z"/>
  <path class="st23" d="M1628.9,1383.09c3.45,24.86-7.16,48.19-25.95,63.95,3.64-15.01,15.98-28.31,20.07-42.87,2.1-7.46,1.11-11.49,1.89-18.13.35-2.98,1.58-6.12,3.99-2.95Z"/>
  <path class="st23" d="M1566.98,1443.04c-3.13-3.32,12.88-13.84,14.86-16.1,10.83-12.39,11.14-28.33,12.1-43.85,9.59,22.84-.93,54.52-26.95,59.95Z"/>
  <path class="st23" d="M1435.02,1684.88c-20.24-16.34-30.62-47.36-19.94-71.94,3.34-.53,2.07,4.75,2.04,7.02-.24,17.94-2.1,26.01,6.17,43.69,1.74,3.73,13.59,19.1,11.73,21.23Z"/>
  <path class="st23" d="M1522.99,1437.02l27.01-27.94,12.95-18c-2.06,20.51-20.22,40.17-39.95,45.94Z"/>
  <path class="st23" d="M1215.18,1157.26l-1.02,4c-26.82-5.78-37.58-21.44-20.93-45.98,3.52-.52,2.05,4.59,1.52,6.52-2.32,8.54-7.55,10.04-3.36,20.2,4.38,10.62,14,11.73,23.79,15.27Z"/>
  <path class="st23" d="M1512.99,1534.98c12.04,25.44,8.24,56.98,3.98,83.93-3.47,0-2.2-8.74-2.07-11.08,1.39-26.52,4.17-46-1.9-72.86Z"/>
  <path class="st23" d="M1670.87,1419.05c-6.96-2.64-23.46-34-19.96-37.96,4.4-.9,4.53,2.17,6.07,4.9,5.26,9.3,11.17,22.83,13.89,33.06Z"/>
  <path class="st23" d="M1251.16,1441.05l-.98,39.95c-8.43-9.77-9.2-24.53-3.93-35.98,1.39-3.01-.29-4.94,4.9-3.98Z"/>
  <path class="st23" d="M1740.84,1469.02l-8.02-52.94c3.53-1.53,8.02,15.05,8.02,15.97v36.98Z"/>
  <path class="st19" d="M1702.86,1139.24v2c-4.41.3-4.09,2.51-11.99,0-2.14-.68-6.01-2.73-7.99-4l1.09-1.95c6.34,2.78,11.71,5.05,18.89,3.95Z"/>
  <path class="st19" d="M1512.99,1534.98c-1.59-3.36-6.79-7.02-5.98-11.99,5.62,2.11,4.98,7.59,5.98,11.99Z"/>
  <path class="st6" d="M1599.96,1884.75c8.85.98.97,10.19-2.03,13.94-5.81-4.36-2.92-10.44,2.03-13.94Z"/>
  <path class="st20" d="M1620.46,1872.33c-.32.57-6.04,3.34-7.52,4.41l6.98-11.98c1.95.83,1.33,6.13.53,7.57Z"/>
  <path class="st3" d="M1604.93,1864.76c1.82-.51,4.53-3.97,5-3.96,2.84.06,4.28,6.31,0,7.91l-5-3.95Z"/>
  <polygon class="st20" points="1574.95 1890.74 1574.96 1884.75 1577.92 1884.76 1580.94 1887.75 1574.95 1890.74"/>
  <polygon class="st26" points="1614.92 1888.76 1608.95 1896.73 1610.96 1888.75 1614.92 1888.76"/>
  <path class="st8" d="M1922.72,1930.71c4.82-.8,10.7-5.4,15.87-3.03l51.79,46.41c-5,29.78-21.4,56.25-41.1,78.27-2.31.8-3.99-.46-5.97-1.26-8.63-3.51-49.34-43.94-51.78-52.39-1.25-4.35.19-6.72,1.75-10.5,7.27-17.6,20.27-37.48,29.43-54.52l-11.98-.99c3.84-.58,8.07-1.35,11.99-2ZM1968.69,1992.67c3.77-3.47,11.98-10.81,9.11-16.01l-44.22-37.88c-2.85-.75-3.21,1.81-4.56,3.23-3.66,3.86-17.05,28.67-20.63,35.33-2.68,4.98-8.79,14.72-7.37,19.89.4,1.44,15.22,18.2,17.68,20.45,7.83,7.16,19.63,12.65,27.03,20.95,4.31.74,2.31-.87,3.14-2.76,2.39-5.41,5.33-11.17,5.82-17.21,3.91-4.24,13.11-20.44,13.99-25.98Z"/>
  <path class="st3" d="M1688.87,2336.45c-10.64,24.38.31,43.31,7.98,65.94-15.4-8.92-23.03-27.27-21.93-44.94.55-8.86,2.41-23.86,13.95-21.01Z"/>
  <path class="st3" d="M1704.87,2300.45c3.55-13.16,9.94-25.87,2.04-39.01-4.14-6.89-12.87-8.39-18.03-13.97,2.1-10.31,16.39-2.06,21.07,2.93,10.72,11.42,15.11,47.5-5.08,50.05Z"/>
  <path class="st3" d="M1712.85,2438.38c-9.11,26-1.83,48.99,6,73.93-5.11,1.15-3.49-1.38-5.16-3.75-12.8-18.09-16.04-38.42-11.91-60.3,1.39-7.35,2.95-11.8,11.08-9.88Z"/>
  <path class="st3" d="M1678.87,2242.52c-10.7,20.01,1.22,41.44,3.99,61.95-6.71-6.51-12.94-19.83-13.98-28.97-1.05-9.22-3.56-35.21,9.99-32.97Z"/>
  <path class="st3" d="M1714.86,2550.32c-12,17.22,4.1,27.07,9.98,41.94-3.34,3.47-18.53-16.51-19.53-21.45-1.38-6.84-.77-22.24,9.55-20.5Z"/>
  <path class="st3" d="M1720.84,2378.4c-4.51.83-3.19-.2-4.46-2.54-3.97-7.29-4.73-19.3-7.51-27.42,16.88-1.96,11.08,18.74,11.97,29.96Z"/>
  <rect class="st3" x="1682.9" y="2306.47" width="1.96" height="3.98"/>
  <path class="st3" d="M1719.85,2514.32c1.3.67,1.3,1.33,0,2v-2Z"/>
  <path class="st18" d="M2046.64,2314.46c35.32,44.69,69.49,90.42,100.76,138.09,15.1,23.02,28.03,47.77,43.11,70.82,28.61,43.76,72.36,96.39,93.64,142.2,1.34,2.89,3.08,5.06,2.33,8.64-5.04.92-5.97-1.09-8.86-4.11-9.56-10.01-20.01-32.61-28.66-45.29-50.71-74.33-97.42-151.31-148.71-225.04-19.17-27.56-39.86-54.19-59.59-81.31,2.3-1.7,4.6-2.95,6-4Z"/>
  <path class="st1" d="M2090.61,2866.09c-13.98.5-34.23-9.73-31.98-25.98,14.66-.15,25.32-17.41,39-16.16,14.27,1.3,17.06,22.17,6.03,30.21-5.06,3.69-19.22,2.81-13.05,11.93Z"/>
  <path class="st1" d="M2196.54,2798.13c-18.76,1.96-21.13-10.93-17.99-25.98,8.2-5.57,27.94-18.37,35.82-6.83,10.24,14.98-1.69,31.12-17.83,32.81Z"/>
  <path class="st1" d="M1980.68,2906.06l-3.03-9.99c-3.75-.76-12.43,14.49-26.43,8.47-19.51-8.39.76-22.15,5.48-32.46,21.35-4.02,30.89,5.24,28.08,27.11-.76,5.92-1.57,4.21-4.09,6.86Z"/>
  <path class="st1" d="M2320.45,2744.17c-10.34,3.01-19.31,6.21-28.03-2.95-17.3-18.17,7.94-19.58,18.04-29.03,17.69-2.21,17.02,14.02,13.86,26.95-.98,4.03-3.75,4.73-3.87,5.03Z"/>
  <path class="st22" d="M2090.61,2866.09c-6.16-9.12,7.99-8.24,13.05-11.93,11.03-8.04,8.25-28.91-6.03-30.21-13.69-1.25-24.35,16.01-39,16.16.61-4.43,19.03-20.75,23.97-22.99,14.34-6.51,31.27-.27,33.86,16.12,3.24,20.49-4.79,32.1-25.85,32.86Z"/>
  <path class="st22" d="M2196.54,2798.13c16.15-1.69,28.07-17.83,17.83-32.81-7.88-11.54-27.62,1.26-35.82,6.83,1.31-6.3-.78-7.79,5.91-13.08,23.58-18.67,44.19,1.76,39.94,27.96-1.87,11.52-19.53,24.75-27.86,11.1Z"/>
  <path class="st22" d="M1956.7,2872.09c-4.72,10.31-24.99,24.07-5.48,32.46,14,6.02,22.68-9.23,26.43-8.47l3.03,9.99c-9.28,9.77-21.62,13.1-34.09,7.11-23.82-11.43-11.58-37.01,10.11-41.09Z"/>
  <path class="st22" d="M2320.45,2744.17c-1.79,4.61,2.89,9.7-9.51,11.61-20.84,3.21-48.45-31.97-25.01-43.13,7.7-3.66,15.79-1.26,23.5-4.48l1.02,4.02c-10.1,9.45-35.34,10.86-18.04,29.03,8.72,9.16,17.7,5.96,28.03,2.95Z"/>
  <path class="st2" d="M1610.43,1925.24c45.91-5.54,30.93,47.79,2.95,60.9-15.45,7.24-33.8,11.38-45.26-3.63-22.45-29.42,15.31-54.01,42.3-57.27Z"/>
  <path class="st1" d="M2070.62,2264.49c-7.04,6.69-23.28,16.32-30.1,5.12-6.74-11.06,2.41-15.34,9.59-20.64,1.93-1.43,7.75-4.09,2.52-6.47.45-.06,1.32-1.94,4.37-1.67,14.53,1.3,12.96,13.31,13.62,23.66Z"/>
  <path class="st22" d="M2052.63,2242.5c5.22,2.38-.59,5.04-2.52,6.47-7.17,5.3-16.33,9.58-9.59,20.64,6.82,11.19,23.06,1.57,30.1-5.12.43,6.75,4.7,9.38-3.29,15.71-10.27,8.15-25.07,5.96-32.7-4.7-12.16-16.98-.04-30.59,18-32.99Z"/>
  <path class="st1" d="M1982.68,2296.47c4.41-8.66,14.05-8.98,22.72-7.71,11.58,12.94,4.63,28.99-12.72,29.7-12.46-12.58-7-17.5-9.99-21.99Z"/>
  <path class="st22" d="M1982.68,2296.47c-.2-.31-3.49.81-4.05-.99-.07-3.78,7.71-9.44,10.95-11.08,33.37-16.88,39.6,37.5,11.97,40.02-9.46.86-8.01-5.08-8.88-5.96,17.35-.71,24.3-16.76,12.72-29.7-8.67-1.26-18.31-.95-22.72,7.71Z"/>
  <path class="st29" d="M1433.04,1177.22c25.1-6.11,45.96-18.98,66.97-33.97,3.83,7.11,10.24,10.84,2.98,17.96,7.16-2.1,7.24,5.19,7.68,11.06.11,1.47-1.7,2.74-1.67,2.95-16.6,5.48-34.01,6.3-50.49,12.47s-55.9,35.14-70.47,33.56c-16.3-1.77,12.83-18.48,16.72-21.34,1.74-1.28,2.24-3.59,3.83-4.71,7.29-5.15,20.52-8.27,24.46-17.98ZM1500.8,1155.02l-.79-5.78-9,7.96,9.8-2.19Z"/>
  <path class="st29" d="M1690.87,1145.24c.32.05,2.38,2.94,5.31,3.59,5.2,1.15,8.96-.29,14.68,2.41,7.85,3.7,5.33,11.53-1.39,13.61-9.19,2.85-16.76-3.8-25.5-3.69-16.43.2-63.78,16.58-73.62,13.76-6.93-1.99-11.94-18.85-5.5-24.62,1.61-1.44,10.9.4,14.12-.05,19.89-2.73,52.56-7.86,71.89-5.01Z"/>
  <path class="st20" d="M1618.93,1185.22c29,3.54,57.69-3.6,85.91-10l-5.84,29.12c-4.69,5.85-53.32,11.02-60.77,8.53-6.77-2.26-4.5-14.39-6.18-19.81-2.38-3.49-14.13.65-13.13-7.84ZM1694.87,1189.21c.18-.3,7.87.24,3.99-3.97-4.58-4.96-14.93.86-19.45,1.51-14.16,2.05-28.55,3.62-42.5,6.47-1.2,2.86,1.63,4.7,2,5.98.42,1.46-.6,4.04.09,5.84,3.25.65,6.64-.15,9.9.16,9.44.87,9.83-.66,17.99-2,1.09-.18,2.66-1.76,4-2,3.72-.66,6.75-.03,13.99-2,.17-.05,1.4,1.37,3.46.71,10.26-3.33,4.75-7.67,6.53-10.7Z"/>
  <path class="st3" d="M1512.99,1191.21c.08,1.32-.05,2.67,0,4-2.17,7.79,1.27,13.98-2.54,22.45-8.46,18.8-43.64,10.74-60.23,15.51-7.35-1.41-12.53-5.87-11.17-13.98.59-.22,1.42.22,2,0,3.94,10.96,8.13,6.55,15.99,6,9.72-.68,21.01-1.9,31.98-4,5.01-.96,10.05.2,14.14-4.85,2.4-3.2,2.19-7.38,1.85-11.14-.24-2.59-.9-5.34-4-6,4.61-2.98,5.23-9.41,11.99-7.99Z"/>
  <path class="st3" d="M1487.01,1201.2c-13.73,9.45-41.9,1.1-49.97,17.99-4.33,1.55-15.09,7.62-17.97.98-3.2-7.37,5.3-4.09,8.6-5,1.44-.4,1.32-3.5,5.23-5.05,18.5-7.33,35.7-8.02,54.11-8.92Z"/>
  <path class="st29" d="M1501,1199.2c3.09.66,3.76,3.41,4,6-4.96,3.29-10.69,1.47-15.99,2-4.59.46-7.02,1.53-9.99,2-1.92.3-3.52,1.92-4,2-2.46.4-5.61-.45-7.99,0-5.31.99-9.41,3.48-11.99,4-1.33.27-4.68-2.06-8.09-1.15-3.54.94-5.41,4.96-5.9,5.15-.58.22-1.41-.22-2,0s-1.41-.21-2,0c8.07-16.89,36.23-8.53,49.97-17.99,1.32-.06,2.67,0,4,0,3.48,0,5.58-1.97,6-2,1.2-.08,2.98-.22,4,0Z"/>
  <path class="st16" d="M1636.91,1135.24c-1.66,3.3-6.8,6.31-10.09,7.19-4.93,1.32-4.52-.87-5.9-1.2,4.17-4.47,11.31-4.25,15.99-6Z"/>
  <path class="st18" d="M1273.15,1347.1l-1.96-.98,9.95-17.01c-.95,10.62-2.37,10.06-7.99,17.99Z"/>
  <path class="st3" d="M1497,1199.2c-.42.03-2.52,2-6,2v-3.98s4.99,0,4.99,0l1.01,1.98Z"/>
  <path class="st3" d="M1592.93,1463.04c1.52,9.48-10.69,11.94-17.88,13.08-22.22,3.53-72.89-1.58-86.14-21.99-1.59-2.45-2.47-3.97-1.89-7.08,2.12-2.19,45.03,18.69,53.13,19.8,17.79,2.45,35.35-1.55,52.78-3.81Z"/>
  <path class="st10" d="M1968.69,1992.67c.58-3.62-.38-8.19,0-12l-11.7,2.3c3.36,15.24-14.11,28.73-16.31,40.66-1.65,8.91,12.62-3.46,14.03-4.98-.49,6.04-3.44,11.8-5.82,17.21-.83,1.89,1.17,3.5-3.14,2.76-7.39-8.3-19.2-13.79-27.03-20.95-2.46-2.25-17.29-19.01-17.68-20.45-1.42-5.17,4.69-14.91,7.37-19.89,3.57-6.66,16.97-31.47,20.63-35.33,1.35-1.42,1.71-3.98,4.56-3.23l44.22,37.88c2.87,5.2-5.34,12.54-9.11,16.01Z"/>
  <path class="st25" d="M1954.7,2018.65c-1.4,1.52-15.67,13.89-14.03,4.98,2.2-11.93,19.68-25.41,16.31-40.66l11.7-2.3c-.37,3.81.58,8.38,0,12-.88,5.54-10.08,21.74-13.99,25.98Z"/>
  <polygon class="st20" points="1500.8 1155.02 1491.01 1157.21 1500.01 1149.24 1500.8 1155.02"/>
  <path class="st18" d="M1638.91,1199.2c-.37-1.28-3.2-3.12-2-5.98,13.96-2.85,28.34-4.42,42.5-6.47,4.52-.65,14.87-6.47,19.45-1.51,3.88,4.21-3.81,3.67-3.99,3.97l-11.99.02,2,9.97c-7.24,1.97-10.27,1.34-13.99,2l1.93-7.9c-4.98-1.24-5.23-3.4-7.93,1.9-3.83-3.96-8.55-1.04-8,3.99h6s-2.01,3.99-2.01,3.99l6.01.02c-8.16,1.34-8.55,2.87-17.99,2l-.02-9.99-9.97,4Z"/>
  <path class="st7" d="M1694.87,1189.21c-1.78,3.03,3.72,7.37-6.53,10.7-2.06.67-3.29-.75-3.46-.71l-2-9.97,11.99-.02Z"/>
  <path class="st14" d="M1664.89,1195.2c2.7-5.3,2.95-3.14,7.93-1.9l-1.93,7.9c-1.34.24-2.91,1.82-4,2l-6.01-.02,2.01-3.98c2.18-.7,1.47-2.96,2-4Z"/>
  <path class="st27" d="M1648.9,1205.2c-3.26-.3-6.65.49-9.9-.16-.69-1.8.33-4.38-.09-5.84l9.97-4,.02,9.99Z"/>
  <path class="st19" d="M1489.01,1207.2c5.34,5.27,3.53,8.3,0,13.99-10.97,2.1-22.26,3.31-31.98,4l-2-9.99c2.58-.52,6.68-3.01,11.99-4v3.99s7.99,0,7.99,0c-.15.36-7.96,4.34-.97,5.99,5.81,1.37,12.99-8.55,4.96-11.98,2.97-.47,5.4-1.54,9.99-2Z"/>
  <path class="st27" d="M1489.01,1221.19c3.53-5.69,5.34-8.72,0-13.99,5.3-.53,11.03,1.29,15.99-2,.35,3.76.55,7.94-1.85,11.14-4.09,5.06-9.14,3.9-14.14,4.85Z"/>
  <path class="st27" d="M1455.03,1215.19l2,9.99c-7.86.55-12.05,4.97-15.99-6,.49-.19,2.37-4.2,5.9-5.15,3.41-.91,6.76,1.42,8.09,1.15Z"/>
  <path class="st14" d="M1479.01,1209.19c8.03,3.43.85,13.35-4.96,11.98-6.99-1.64.82-5.62.97-5.99.36-.89-.25-2.78,0-4,.48-.08,2.07-1.69,4-2Z"/>
  <path class="st15" d="M1475.02,1211.19c-.25,1.21.36,3.11,0,4h-8.01s.01-4,.01-4c2.39-.45,5.54.4,7.99,0Z"/>
  <path class="st15" d="M1664.89,1195.2c-.53,1.03.18,3.29-2,4h-6c-.54-5.04,4.17-7.96,8-4Z"/>
</svg>